<?xml version="1.0" encoding="UTF-8"?>
<svg width="347px" height="194px" viewBox="0 0 347 194" version="1.1" xmlns="http://www.w3.org/2000/svg" xmlns:xlink="http://www.w3.org/1999/xlink">
    <!-- Generator: Sketch 52.2 (67145) - http://www.bohemiancoding.com/sketch -->
    <title>首页列表/图文/大图/配图/活动</title>
    <desc>Created with Sketch.</desc>
    <defs>
        <linearGradient x1="100%" y1="13.2239579%" x2="25.2373805%" y2="50%" id="linearGradient-1">
            <stop stop-color="#FDF18D" offset="0%"></stop>
            <stop stop-color="#FADF54" offset="100%"></stop>
        </linearGradient>
        <linearGradient x1="20.1942743%" y1="18.6307493%" x2="75.7179816%" y2="78.7814322%" id="linearGradient-2">
            <stop stop-color="#F2A375" offset="0%"></stop>
            <stop stop-color="#ED6C5D" offset="100%"></stop>
        </linearGradient>
        <ellipse id="path-3" cx="57.8320177" cy="56.8761844" rx="57.5637712" ry="56.1359914"></ellipse>
        <filter x="-20.8%" y="-11.6%" width="141.7%" height="146.3%" filterUnits="objectBoundingBox" id="filter-5">
            <feOffset dx="0" dy="15" in="SourceAlpha" result="shadowOffsetOuter1"></feOffset>
            <feGaussianBlur stdDeviation="5.5" in="shadowOffsetOuter1" result="shadowBlurOuter1"></feGaussianBlur>
            <feColorMatrix values="0 0 0 0 0.849205122   0 0 0 0 0.830707779   0 0 0 0 0.912096088  0 0 0 1 0" type="matrix" in="shadowBlurOuter1"></feColorMatrix>
        </filter>
        <linearGradient x1="99.069052%" y1="22.4800717%" x2="19.4729943%" y2="83.4226602%" id="linearGradient-6">
            <stop stop-color="#F08F6C" offset="0%"></stop>
            <stop stop-color="#F08B6B" offset="100%"></stop>
        </linearGradient>
        <path d="M36.0575876,12.3532502 L60.6050063,14.5895819 C61.7050233,14.6897965 62.5155233,15.6627764 62.4153088,16.7627934 C62.408342,16.8392654 62.3969768,16.9152727 62.3812698,16.9904378 C60.6829605,25.1175939 55.9166587,28.8572186 48.0823645,28.2093119 C40.3476599,27.5696413 35.6258346,23.0820957 33.9168887,14.7466751 L33.916904,14.746672 C33.695059,13.6646186 34.3923958,12.6076001 35.4744492,12.3857552 C35.6661909,12.3464439 35.8626648,12.3354922 36.0575876,12.3532502 Z" id="path-7"></path>
        <filter x="-8.8%" y="-15.7%" width="117.5%" height="131.4%" filterUnits="objectBoundingBox" id="filter-9">
            <feOffset dx="0" dy="1" in="SourceAlpha" result="shadowOffsetInner1"></feOffset>
            <feComposite in="shadowOffsetInner1" in2="SourceAlpha" operator="arithmetic" k2="-1" k3="1" result="shadowInnerInner1"></feComposite>
            <feColorMatrix values="0 0 0 0 1   0 0 0 0 0.26128417   0 0 0 0 0.161616162  0 0 0 1 0" type="matrix" in="shadowInnerInner1"></feColorMatrix>
        </filter>
    </defs>
    <g id="首页列表/图文/大图/配图/活动" stroke="none" stroke-width="1" fill="none" fill-rule="evenodd">
        <rect id="Rectangle-7" fill="#F5F2FE" fill-rule="nonzero" x="0" y="0" width="347" height="194"></rect>
        <g id="img" transform="translate(0.000000, 0.028620)" fill="#EFEBFA" fill-rule="nonzero">
            <path d="M170.303188,66.205766 C176.896326,74.1848646 201.025999,82.5588327 208.704718,82.5588327 C216.843128,82.5588327 219.229136,77.6756479 220.937108,67.3875174 C222.645081,57.099387 204.13144,25.1550902 223.960563,13.351053 C243.789685,1.54701584 261.903983,11.292489 267.211912,19.5969672 C272.519841,27.9014455 273.031549,42.0427774 271.99062,52.2989324 C270.949691,62.5550874 264.833153,71.5183819 274.344683,74.5171196 C283.856213,77.5158573 295.805465,54.8864522 309.466621,57.0172507 C323.127778,59.1480491 332.080034,66.2159681 332.080034,77.1428232 C332.080034,88.0696783 324.298201,95.328696 310.313918,104.78334 C304.189835,108.923776 300.331601,113.295546 298.354129,117.612449 C298.819889,119.509271 298.24214,121.407042 296.807997,123.206575 C296.460663,126.77751 297.342912,130.219431 299.220515,133.358254 C304.280799,141.817626 320.203506,134.403825 328.969441,138.173931 C337.735376,141.944038 350.596844,159.514797 345.119491,183.597687 C344.832781,188.686961 342.513894,192.144658 338.162831,193.970778 C113.889784,193.970778 1.75326125,193.970778 1.75326125,193.970778 C1.75326125,193.970778 -2.15974905,188.117751 2.39513379,175.279878 C5.43172236,166.721297 11.2435929,161.580346 19.8307455,159.857027 C11.6517391,145.867991 9.60698755,136.670268 13.6964907,132.263857 C19.8307455,125.65424 26.2479819,125.400768 37.0550164,125.400768 C47.8620509,125.400768 54.7252521,123.489172 51.2936515,116.564476 C47.8620509,109.63978 37.5457568,95.3890586 25.6211237,90.8952231 C13.6964907,86.4013877 -1.31586645,82.4708218 2.39513379,67.3875174 C6.10613404,52.3042131 27.6378159,49.1340612 44.7599985,52.2989324 C61.8821811,55.4638036 83.9851995,75.8999296 98.9653182,71.6437235 C113.945437,67.3875174 117.520319,65.7293925 117.520319,59.0141624 C117.520319,52.2989324 113.422458,44.2371359 124.293969,40.9948151 C131.503535,38.8446334 138.610705,43.840295 144.261557,48.6535538 C140.652306,41.8221321 138.317523,33.7916937 139.096685,25.4802739 C141.21473,2.88684611 153.248338,2.71617382 164.823768,0.951201795 C176.399198,-0.813770228 174.599357,7.28362501 172.115853,20.4456525 C169.63235,33.6076799 168.640388,53.6568148 170.536997,57.960704 C171.695028,60.5885723 171.901014,63.9703852 170.303188,66.205766 Z M100.339302,42.7302971 C101.527166,45.8835906 101.197204,48.178319 99.3494144,49.6144822 C96.5777303,51.768727 88.1356736,47.4602374 77.2536384,39.8175878 C66.3716032,32.1749381 56.0827532,20.1731367 59.9937414,13.8021816 C63.9047296,7.43122661 73.8252669,11.0656887 82.5781108,18.6973248 C88.4133401,23.7850822 94.333737,31.796073 100.339302,42.7302971 Z" id="Combined-Shape"></path>
        </g>
        <path d="M272.772129,194 C275.93086,184.971975 266.348838,184.436757 271.28845,168.793605 C273.795421,160.854335 283.289929,163.085263 287.147542,158.514302 C290.827078,154.154348 286.140324,148.141525 289.347247,143.906783 C290.888941,141.870975 295.021983,140.53538 301.74637,139.9 C309.679934,131.424351 303.55474,122.577167 313.065322,123.046494 C328.030582,123.784996 311.168122,139.590557 314.297891,144.972669 C316.378107,148.549916 320.579082,150.0359 320.79993,154.168117 C321.157365,160.855984 310.497534,167.169083 309.046748,172.754539 C307.052926,180.430658 315.332117,182.104591 312.46515,189.55738 C311.957602,190.876769 310.818135,192.357642 309.046748,194 L272.772129,194 Z" id="Path-7" fill="#F8BDD0" fill-rule="nonzero"></path>
        <path d="M35.9913326,193.785946 C35.9913326,193.785946 31.0244664,189.540773 32.6800885,186.881234 C34.3357105,184.221695 41.6276283,182.207953 39.8165786,178.848536 C38.0055289,175.489118 26.3639107,174.824688 21.6120072,173.163612 C16.8601037,171.502536 15.2753785,169.900996 15.2753785,166.061207 C15.2753785,162.221418 23.1090204,158.51297 23.1090204,154.832699 C23.1090204,151.152428 9.4050325,147.675304 8.55563429,144.82807 C7.70623609,141.980836 8.75696303,134.993866 9.95221037,132.192988 C11.1474577,129.392109 11.3487864,126.491703 9.95221037,123.14092 C8.55563429,119.790138 6.64960108,114.399708 9.95221037,112.636832 C13.2548196,110.873956 17.0123501,116.402998 22.2723473,117.806845 C27.5323445,119.210693 26.7515708,117.076972 30.9849278,117.076972 C35.2182848,117.076972 38.1241447,121.66254 38.8644709,123.14092 C39.6047971,124.6193 37.738757,131.707617 42.6774463,133.702271 C47.6161355,135.696926 54.1218259,133.13237 56.1710161,135.698289 C58.2202063,138.264208 58.1097709,142.696167 60.3152977,146.410068 C62.5208244,150.12397 65.8093452,151.716421 67.0682179,153.743797 C67.9074664,155.095381 69.3278262,167.051641 71.3292974,189.612579 L70.1254152,193.785946 C47.3693601,193.785946 35.9913326,193.785946 35.9913326,193.785946 Z" id="Path-9" fill="#F8BDD0" fill-rule="nonzero"></path>
        <path d="M41.9807447,194 C35.7397054,185.728101 33.2490766,180.04651 34.5088582,176.955228 C36.3985306,172.318304 43.1287275,174.890131 45.4896818,171.564798 C47.8506362,168.239466 46.2418242,165.931684 45.4896818,163.695708 C44.7375395,161.459732 42.911038,160.634421 42.911038,152.382215 C42.911038,144.130009 52.5270982,145.414786 52.5270982,138.451448 C52.5270982,131.48811 48.8413735,131.549463 50.6842359,127.252026 C52.5270982,122.954589 55.1507343,125.680026 57.9266167,121.333052 C60.7024991,116.986078 61.9386484,114.193381 64.9335838,114.889624 C67.9285191,115.585866 70.1667675,121.127633 71.1493244,124.189829 C72.1318814,127.252026 77.3064389,130.10744 77.3064389,133.605015 C77.3064389,137.102591 68.3952564,140.257499 69.192391,145.408878 C69.9895255,150.560258 79.0297765,149.082332 79.0297765,153.670173 C79.0297765,158.258014 69.192391,167.964059 69.192391,172.459643 C69.192391,176.955228 77.7836289,178.117753 78.4067027,181.808932 C78.8220852,184.269717 77.2632645,188.333407 73.7302406,194 L41.9807447,194 Z" id="Path-8" fill="#ABE0FB" fill-rule="nonzero"></path>
        <path d="M63.519702,123.822516 C58.8123108,148.182668 58.4955953,169.865603 58.7095643,194.846388" id="Path-10" stroke="#FFFFFF" opacity="0.360323661" fill-rule="nonzero"></path>
        <path d="M55.0058518,177.319806 C36.7315868,148.438782 47.8554103,164.589989 20.3217025,129.796988" id="Path-12" stroke="#FFFFFF" opacity="0.360323661" fill-rule="nonzero"></path>
        <path d="M312.107412,136.047361 C306.272258,148.136681 288.721708,180.811379 286.864393,194.25542" id="Path-11" stroke="#FFFFFF" opacity="0.360323661" fill-rule="nonzero"></path>
        <g id="Group-2" transform="translate(100.000000, 13.000000)">
            <g id="Group-3" transform="translate(0.600985, 0.450237)">
                <g id="进行的活动" transform="translate(0.000000, 0.000000)">
                    <path d="M32.6308522,99.2292449 C30.1574857,102.981274 26.5477018,105.628561 22.0477486,104.717773 C17.5477954,103.806986 15.4251759,101.571417 14.236509,95.1959058 C13.4440644,90.945565 13.1610485,88.1856034 13.3874612,86.9160211 L19.5006053,85.7568373 C20.5194626,91.883952 21.9911454,94.8095112 23.9156537,94.5335151 C26.8024162,94.1195208 31.3872742,86.8332223 31.3872742,82.6932799 C31.3872742,78.5533376 38.4343708,88.9269979 36.9909895,91.2215612 C35.5476083,93.5161244 35.1042187,95.477216 32.6308522,99.2292449 Z" id="Path-7" fill="#D34C35"></path>
                    <path d="M12.9768996,91.2710021 C16.651727,91.3244899 19.2295911,89.6931136 20.7104917,86.3768732 C20.5459472,84.6920092 20.1345859,84.1303878 20.7104917,82.605987 C21.2863975,81.0815862 20.2991304,75.625836 17.584146,73.3793506 C14.8691615,71.1328652 8.86328675,72.1758763 6.88875259,75.4653727 C4.91421843,78.7548692 5.57239648,85.0931673 8.45192547,86.3768732 C10.3716115,87.2326772 11.8799362,88.8640535 12.9768996,91.2710021 Z" id="Path-8" fill="#D34C35"></path>
                    <g id="Group" transform="translate(55.382380, 55.056861) rotate(15.000000) translate(-55.382380, -55.056861) translate(10.382380, 11.056861)">
                        <path d="M6.71256562,52.9400411 C12.1748898,47.6132014 21.8098226,45.319701 35.6173641,46.0595399 C56.3286765,47.1692981 59.1357041,49.9806857 73.3225738,47.7611692 C77.7733564,47.3665885 83.0333722,44.900459 89.1026212,40.3627808 C86.6749216,17.6743895 85.4610718,4.99848402 85.4610718,2.33506418 C85.3852062,-0.62429119 83.3368347,1.07733815 82.6540442,1.44725757 C81.9712536,1.81717699 74.9157516,8.77166213 60.8806132,8.77166213 C46.8454749,8.77166213 40.0175697,6.25621006 32.2792772,6.25621006 C24.5409847,6.25621006 12.4024866,5.07246791 1.93303201,13.358663 C2.09622211,15.9646682 3.68939998,29.1584609 6.71256562,52.9400411 Z" id="Path-3" fill="url(#linearGradient-1)"></path>
                        <path d="M0.0565277928,12.6840909 C-0.023297068,12.0537378 0.435991206,11.4796299 1.08237686,11.401785 C1.72876252,11.3239401 2.31747247,11.7718364 2.39729733,12.4021895 L11.7981178,86.6376592 C11.8779427,87.2680123 11.4186544,87.8421202 10.7722687,87.9199651 C10.1258831,87.99781 9.53717315,87.5499137 9.45734829,86.9195606 L0.0565277928,12.6840909 Z" id="Path-4" fill="#DBB554" fill-rule="nonzero"></path>
                    </g>
                    <path d="M7.86359299,85.8294524 C7.53463559,84.4202293 7.97348678,83.7156177 9.18014654,83.7156177 C10.9901362,83.7156177 14.2810265,83.0737648 14.2810265,80.1051948 C14.2810265,77.1366248 14.1164819,74.0075916 12.1419478,73.2052754 C10.1674136,72.4029591 5.80698402,74.0075916 4.57290017,77.0563932 C3.33881632,80.1051948 4.82343143,83.6018447 5.89297076,84.4843926 C6.60599699,85.0727578 7.26287106,85.5211111 7.86359299,85.8294524 Z" id="Path-9" fill="#E3563E"></path>
                    <g id="Group-5" transform="translate(23.203092, 33.429541)">
                        <mask id="mask-4" fill="white">
                            <use xlink:href="#path-3"></use>
                        </mask>
                        <g id="Oval-3">
                            <use fill="black" fill-opacity="1" filter="url(#filter-5)" xlink:href="#path-3"></use>
                            <use fill="url(#linearGradient-2)" fill-rule="evenodd" xlink:href="#path-3"></use>
                        </g>
                        <g id="Group-4" mask="url(#mask-4)">
                            <g transform="translate(36.084638, 42.849796) scale(-1, 1) rotate(-10.000000) translate(-36.084638, -42.849796) translate(-7.415362, 26.349796)">
                                <ellipse id="Oval-9" stroke="none" fill="#EE7A63" fill-rule="evenodd" cx="11.7732946" cy="17.5414793" rx="10.9323555" ry="10.7727103"></ellipse>
                                <ellipse id="Oval-9-Copy" stroke="none" fill="#EF8869" fill-rule="evenodd" cx="75.5453682" cy="22.0301086" rx="10.9323555" ry="10.7727103"></ellipse>
                                <mask id="mask-8" fill="white">
                                    <use xlink:href="#path-7"></use>
                                </mask>
                                <g id="Path-5" stroke="none" fill="none">
                                    <use fill="#FFFEFE" fill-rule="evenodd" xlink:href="#path-7"></use>
                                    <use fill="black" fill-opacity="1" filter="url(#filter-9)" xlink:href="#path-7"></use>
                                    <path stroke="url(#linearGradient-6)" stroke-width="2" d="M36.1483144,11.3573743 L60.6957333,13.5937061 C62.3457573,13.7440278 63.5615063,15.2034964 63.4111846,16.8535204 C63.4007344,16.9682283 63.3836867,17.0822391 63.3601261,17.1949867 C61.5606444,25.8062972 56.3477877,29.8962875 47.9999445,29.2059096 C39.8080362,28.5284276 34.7327308,23.7049404 32.9372627,14.9475058 C32.6045184,13.3244217 33.6505263,11.7388991 35.2736048,11.4061321 C35.5612181,11.347165 35.8559296,11.3307373 36.1483146,11.3573744 Z"></path>
                                </g>
                            </g>
                        </g>
                    </g>
                    <path d="M127.207608,86.5044044 C135.202192,94.1415873 138.832386,99.3921505 138.09819,102.256094 C137.363993,105.120038 136.067978,106.623347 134.210143,106.766022 C133.645331,108.242012 133.076943,109.667332 132.504977,111.041981 C131.675911,113.034536 130.660931,114.954758 129.460036,116.802647 C132.280964,116.55401 134.260175,116.108598 135.39767,115.46641 C137.103913,114.503129 144.828324,110.489932 146.663815,104.046059 C148.499307,97.6021857 140.056047,85.7884186 136.935712,81.9698271 C133.815377,78.1512357 126.202298,81.3226885 126.202298,83.5899772 C126.202298,85.1015029 126.537401,86.0729787 127.207608,86.5044044 Z" id="Path-10" fill="#D34C35"></path>
                </g>
            </g>
        </g>
    </g>
</svg>