<svg 
 xmlns="http://www.w3.org/2000/svg"
 xmlns:xlink="http://www.w3.org/1999/xlink"
 width="17px" height="16px">
<path fill-rule="evenodd"  fill="rgb(204, 204, 204)"
 d="M15.516,7.997 C15.516,7.599 15.473,7.309 15.473,7.309 C15.434,7.046 15.595,6.723 15.830,6.590 L16.719,6.088 C16.954,5.955 17.035,5.659 16.900,5.428 L15.213,2.573 C15.077,2.342 14.773,2.263 14.538,2.395 L13.650,2.897 C13.415,3.030 13.047,3.005 12.833,2.842 C12.833,2.842 12.595,2.661 12.251,2.467 C11.904,2.271 11.614,2.155 11.614,2.155 C11.362,2.055 11.157,1.756 11.157,1.490 L11.157,0.485 C11.157,0.220 10.934,0.002 10.663,0.002 L7.291,0.002 C7.020,0.002 6.798,0.220 6.798,0.485 L6.798,1.490 C6.798,1.756 6.592,2.055 6.340,2.155 C6.340,2.155 6.051,2.271 5.704,2.466 C5.359,2.661 5.122,2.842 5.122,2.842 C4.907,3.005 4.540,3.029 4.304,2.896 L3.416,2.394 C3.180,2.262 2.878,2.342 2.742,2.571 L1.056,5.428 C0.920,5.659 1.001,5.955 1.236,6.088 L2.125,6.590 C2.360,6.723 2.520,7.046 2.482,7.309 C2.482,7.309 2.438,7.599 2.438,7.997 C2.438,8.397 2.482,8.686 2.482,8.686 C2.520,8.949 2.360,9.273 2.125,9.405 L1.236,9.907 C1.001,10.040 0.920,10.336 1.056,10.566 L2.743,13.423 C2.878,13.653 3.182,13.733 3.417,13.600 L4.305,13.098 C4.540,12.966 4.908,12.991 5.122,13.154 C5.122,13.154 5.340,13.319 5.674,13.511 C6.028,13.715 6.340,13.839 6.340,13.839 C6.592,13.939 6.798,14.239 6.798,14.505 L6.798,15.509 C6.798,15.774 7.020,15.992 7.291,15.992 L10.663,15.992 C10.934,15.992 11.157,15.774 11.157,15.509 L11.157,14.505 C11.157,14.239 11.362,13.939 11.614,13.839 C11.614,13.839 11.902,13.724 12.246,13.532 C12.592,13.335 12.832,13.154 12.832,13.154 C13.046,12.990 13.415,12.966 13.649,13.098 L14.538,13.600 C14.773,13.733 15.077,13.653 15.213,13.423 L16.899,10.566 C17.035,10.337 16.953,10.040 16.718,9.907 L15.830,9.405 C15.595,9.273 15.434,8.949 15.473,8.686 C15.473,8.686 15.516,8.397 15.516,7.997 L15.516,7.997 ZM8.977,10.662 C7.472,10.662 6.336,9.469 6.336,7.997 C6.336,6.526 7.528,5.332 8.998,5.332 C10.469,5.332 11.661,6.526 11.661,7.997 C11.661,9.469 10.483,10.662 8.977,10.662 L8.977,10.662 Z"/>
</svg>