<?xml version="1.0" encoding="UTF-8"?>
<svg width="13px" height="13px" viewBox="0 0 13 13" version="1.1" xmlns="http://www.w3.org/2000/svg" xmlns:xlink="http://www.w3.org/1999/xlink">
    <!-- Generator: Sketch 50.2 (55047) - http://www.bohemiancoding.com/sketch -->
    <title>ic_a-entrust_time</title>
    <desc>Created with Sketch.</desc>
    <defs></defs>
    <g id="设计" stroke="none" stroke-width="1" fill="none" fill-rule="evenodd">
        <g id="我的委托-委托规则" transform="translate(-15.000000, -521.000000)">
            <g id="lis01" transform="translate(15.000000, 475.000000)">
                <g id="ic_a-entrust_time" transform="translate(0.000000, 46.000000)">
                    <rect id="Rectangle-14-Copy-5" fill="#E4E5E9" x="0" y="0" width="13" height="13" rx="2"></rect>
                    <path d="M6.5,10.5 C8.709139,10.5 10.5,8.709139 10.5,6.5 C10.5,4.290861 8.709139,2.5 6.5,2.5 C4.290861,2.5 2.5,4.290861 2.5,6.5 C2.5,8.709139 4.290861,10.5 6.5,10.5 Z M6.5,11.5 C3.73857625,11.5 1.5,9.26142375 1.5,6.5 C1.5,3.73857625 3.73857625,1.5 6.5,1.5 C9.26142375,1.5 11.5,3.73857625 11.5,6.5 C11.5,9.26142375 9.26142375,11.5 6.5,11.5 Z" id="Oval-8" fill="#FFFFFF" fill-rule="nonzero"></path>
                    <path d="M7,6 L9,6 L9,7 L7,7 L6,7 L6,4 L7,4 L7,6 Z" id="Combined-Shape" fill="#FFFFFF"></path>
                </g>
            </g>
        </g>
    </g>
</svg>