<?xml version="1.0" encoding="UTF-8"?>
<svg width="28px" height="28px" viewBox="0 0 28 28" version="1.1" xmlns="http://www.w3.org/2000/svg" xmlns:xlink="http://www.w3.org/1999/xlink">
    <!-- Generator: Sketch 49.1 (51147) - http://www.bohemiancoding.com/sketch -->
    <title>icon_a-newtask-list_priority</title>
    <desc>Created with Sketch.</desc>
    <defs></defs>
    <g id="任务分派" stroke="none" stroke-width="1" fill="none" fill-rule="evenodd">
        <g id="A1.15_新建任务（完整）" transform="translate(-13.000000, -469.000000)" stroke="#B2B9C8">
            <g id="属性内容" transform="translate(0.000000, 460.000000)">
                <g id="icon_日期" transform="translate(13.000000, 9.000000)">
                    <g id="icon_标签" transform="translate(0.500000, 0.031250)">
                        <path d="M20.5614872,16.7610561 L16.1742588,21.1478709 C15.2051557,22.1173876 13.6338273,22.1173876 12.6647242,21.1478709 L5.46738645,14.0543508 C5.23452046,13.8210712 5,13.5050683 5,13.1750025 L5,7.02700935 C5,6.34536964 5.75898597,6.00041362 6.44062568,6.00041362 L12.5886188,6.00041362 C12.918271,6.00041362 13.2346875,6.02729868 13.4675535,6.26099191 L20.5614872,13.3028099 C21.5305903,14.271913 21.5305903,15.791953 20.5614872,16.7610561 L20.5614872,16.7610561 Z" id="Shape"></path>
                        <path d="M11.6178613,10.5497796 C11.6178613,11.6917743 10.6917743,12.6178613 9.54977965,12.6178613 C8.40778496,12.6178613 7.48169799,11.6917743 7.48169799,10.5497796 C7.48169799,9.40778496 8.40778496,8.48169799 9.54977965,8.48169799 C10.6917743,8.48169799 11.6178613,9.40778496 11.6178613,10.5497796 L11.6178613,10.5497796 Z" id="Shape"></path>
                        <path d="M13.2723266,13.8587103 L16.5812573,17.167641" id="Shape"></path>
                    </g>
                </g>
            </g>
        </g>
    </g>
</svg>