<?xml version="1.0" encoding="UTF-8"?>
<svg width="28px" height="28px" viewBox="0 0 28 28" version="1.1" xmlns="http://www.w3.org/2000/svg" xmlns:xlink="http://www.w3.org/1999/xlink">
    <!-- Generator: Sketch 49.1 (51147) - http://www.bohemiancoding.com/sketch -->
    <title>icon_a-newtask-list_remind</title>
    <desc>Created with Sketch.</desc>
    <defs></defs>
    <g id="任务分派" stroke="none" stroke-width="1" fill="none" fill-rule="evenodd">
        <g id="A1.15_新建任务（完整）" transform="translate(-13.000000, -607.000000)" stroke="#B2B9C8">
            <g id="属性内容" transform="translate(0.000000, 598.000000)">
                <g id="icon_日期" transform="translate(13.000000, 9.000000)">
                    <g id="Group" transform="translate(0.500000, 0.854167)">
                        <path d="M5.35416667,10.8781064 L5.35416667,15.1028376 C5.35416667,15.8807233 6.11269986,16.7797723 6.89058554,16.7797723 L8.55952686,16.7797723 C8.84813128,16.7797723 9.1300044,16.7343361 9.36644126,16.8996736 L14.8768505,20.6978087 C15.8045075,20.9245694 16.7132328,20.2123138 16.7132328,19.2577316 L16.7132328,6.77664209 C16.7132328,5.82205983 15.8045075,5.11948055 14.8768505,5.34624117 L9.35802714,9.29414772 C9.12116957,9.45990594 8.84813128,9.6277677 8.55910615,9.6277677 L6.89058554,9.6277677 C6.11269986,9.6277677 5.35416667,10.1002207 5.35416667,10.8781064 L5.35416667,10.8781064 Z" id="Shape"></path>
                        <path d="M19.5517373,8.76868573 C22.0793398,11.2962883 22.0793398,14.6905456 19.5517373,17.2185688" id="Shape"></path>
                    </g>
                </g>
            </g>
        </g>
    </g>
</svg>