<?xml version="1.0" encoding="UTF-8"?>
<svg width="24px" height="24px" viewBox="0 0 24 24" version="1.1" xmlns="http://www.w3.org/2000/svg" xmlns:xlink="http://www.w3.org/1999/xlink">
    <!-- Generator: Sketch 52.2 (67145) - http://www.bohemiancoding.com/sketch -->
    <title>icon_a-homepage_more</title>
    <desc>Created with Sketch.</desc>
    <g id="20180925" stroke="none" stroke-width="1" fill="none" fill-rule="evenodd">
        <g id="C1_企业活动首页" transform="translate(-329.000000, -1308.000000)">
            <g id="阅读流（配图）-copy-5" transform="translate(14.000000, 1073.000000)">
                <g id="点选" transform="translate(315.000000, 235.000000)">
                    <rect id="cherkbox" x="0" y="0" width="24" height="24"></rect>
                    <path d="M12,13.5 C11.1715729,13.5 10.5,12.8284271 10.5,12 C10.5,11.1715729 11.1715729,10.5 12,10.5 C12.8284271,10.5 13.5,11.1715729 13.5,12 C13.5,12.8284271 12.8284271,13.5 12,13.5 Z M12,19.4992881 C11.1715729,19.4992881 10.5,18.8277152 10.5,17.9992881 C10.5,17.170861 11.1715729,16.4992881 12,16.4992881 C12.8284271,16.4992881 13.5,17.170861 13.5,17.9992881 C13.5,18.8277152 12.8284271,19.4992881 12,19.4992881 Z M12,7.50071192 C11.1715729,7.50071192 10.5,6.82913905 10.5,6.00071192 C10.5,5.1722848 11.1715729,4.50071192 12,4.50071192 C12.8284271,4.50071192 13.5,5.1722848 13.5,6.00071192 C13.5,6.82913905 12.8284271,7.50071192 12,7.50071192 Z" id="Combined-Shape" fill="#E3E4E8" fill-rule="nonzero"></path>
                </g>
            </g>
        </g>
    </g>
</svg>