<?xml version="1.0" encoding="UTF-8"?>
<svg width="155px" height="149px" viewBox="0 0 155 149" version="1.1" xmlns="http://www.w3.org/2000/svg" xmlns:xlink="http://www.w3.org/1999/xlink">
    <!-- Generator: Sketch 51 (57462) - http://www.bohemiancoding.com/sketch -->
    <title>img_a-homepage_blank2</title>
    <desc>Created with Sketch.</desc>
    <defs>
        <linearGradient x1="100%" y1="13.2239579%" x2="25.2373805%" y2="50%" id="linearGradient-1">
            <stop stop-color="#FDF18D" offset="0%"></stop>
            <stop stop-color="#FADF54" offset="100%"></stop>
        </linearGradient>
        <linearGradient x1="20.1942743%" y1="18.6307493%" x2="75.7179816%" y2="78.7814322%" id="linearGradient-2">
            <stop stop-color="#F2A375" offset="0%"></stop>
            <stop stop-color="#ED6C5D" offset="100%"></stop>
        </linearGradient>
        <ellipse id="path-3" cx="39.3103474" cy="36.7290767" rx="39.1280113" ry="36.2510805"></ellipse>
        <linearGradient x1="99.069052%" y1="22.4800717%" x2="19.4729943%" y2="83.4226602%" id="linearGradient-5">
            <stop stop-color="#F08F6C" offset="0%"></stop>
            <stop stop-color="#F08B6B" offset="100%"></stop>
        </linearGradient>
        <path d="M25.1208764,7.97146942 L41.9186728,9.42534707 C42.6339632,9.48725622 43.1636333,10.1173009 43.1017241,10.8325912 C43.0967876,10.8896274 43.0880888,10.9462752 43.0756845,11.0021647 C41.9155094,16.2295173 38.6779202,18.6343952 33.3629168,18.2167983 C28.1116484,17.8042091 24.9034543,14.9126891 23.7383347,9.54223815 L23.7383469,9.54223549 C23.5861259,8.84059457 24.0315187,8.14840268 24.7331596,7.99618164 C24.8604311,7.96857007 24.9911292,7.96023966 25.1208764,7.97146942 Z" id="path-6"></path>
        <filter x="-9.3%" y="-17.5%" width="118.6%" height="135.0%" filterUnits="objectBoundingBox" id="filter-8">
            <feOffset dx="0" dy="1" in="SourceAlpha" result="shadowOffsetInner1"></feOffset>
            <feComposite in="shadowOffsetInner1" in2="SourceAlpha" operator="arithmetic" k2="-1" k3="1" result="shadowInnerInner1"></feComposite>
            <feColorMatrix values="0 0 0 0 1   0 0 0 0 0.26128417   0 0 0 0 0.161616162  0 0 0 1 0" type="matrix" in="shadowInnerInner1"></feColorMatrix>
        </filter>
    </defs>
    <g id="20180810" stroke="none" stroke-width="1" fill="none" fill-rule="evenodd">
        <g id="C4_暂无内容" transform="translate(-115.000000, -193.000000)">
            <g id="列表/空状态/配图/社区" transform="translate(115.000000, 193.000000)">
                <g id="Group-2">
                    <g id="Group-3" transform="translate(31.416667, 22.900725)">
                        <g id="进行的活动" transform="translate(0.000000, 0.000000)">
                            <path d="M19.6567275,64.0795192 C17.9754979,66.5024763 15.5218077,68.2120214 12.4630397,67.62386 C9.40427173,67.0356986 7.96145664,65.5920296 7.15348019,61.4748997 C6.61482922,58.7301464 6.42245388,56.9478391 6.57635415,56.1279777 L10.7316616,55.3794087 C11.4242129,59.3361309 12.4245647,61.2253767 13.732717,61.047146 C15.6949455,60.7797999 18.8114261,56.0745085 18.8114261,53.4010475 C18.8114261,50.7275865 23.6015722,57.4266113 22.620458,58.9083772 C21.6393437,60.390143 21.3379571,61.6565621 19.6567275,64.0795192 Z" id="Path-7" fill="#D34C35"></path>
                            <path d="M6.29728173,58.9403048 C8.79518427,58.9748457 10.5474443,57.9213477 11.5540617,55.7798108 C11.4422153,54.6917719 11.1625994,54.3290923 11.5540617,53.3446762 C11.945524,52.36026 11.2744457,48.8370864 9.42898044,47.3863679 C7.58351513,45.9356494 3.50112217,46.6091973 2.15896558,48.7334637 C0.816808987,50.8577301 1.26419452,54.9508288 3.22150621,55.7798108 C4.52638067,56.3324655 5.55163918,57.3859635 6.29728173,58.9403048 Z" id="Path-8" fill="#D34C35"></path>
                            <g id="Group" transform="translate(36.544924, 29.605500) rotate(15.000000) translate(-36.544924, -29.605500) translate(5.502730, 7.291106)">
                                <path d="M5.24248757,34.1872236 C8.95541109,30.7472969 15.5045956,29.2662174 24.8900412,29.743985 C38.9682096,30.4606364 40.8762397,32.2761532 50.5195272,30.8428504 C53.5448723,30.5880411 57.1202801,28.9954824 61.2457507,26.0651745 C59.5955625,11.413635 58.7704683,3.22788361 58.7704683,1.50792028 C58.7189,-0.403150093 57.3265536,0.695715369 56.8624382,0.934599165 C56.3983228,1.17348296 51.6024632,5.66449833 42.0623125,5.66449833 C32.5221618,5.66449833 27.8810074,4.04008852 22.6210324,4.04008852 C17.3610574,4.04008852 9.11011623,3.27566037 1.99367948,8.6266574 C2.10460522,10.309544 3.18754125,18.8297327 5.24248757,34.1872236 Z" id="Path-3" fill="url(#linearGradient-1)"></path>
                                <path d="M0.718157107,8.19103731 C0.663897492,7.78397263 0.976091019,7.41322952 1.41546087,7.3629594 C1.85483071,7.31268928 2.25499646,7.60192843 2.30925607,8.00899312 L8.69930666,55.9482193 C8.75356628,56.3552839 8.44137275,56.7260271 8.00200291,56.7762972 C7.56263306,56.8265673 7.16246731,56.5373281 7.1082077,56.1302634 L0.718157107,8.19103731 Z" id="Path-4" fill="#DBB554" fill-rule="nonzero"></path>
                            </g>
                            <path d="M2.95072289,55.8834336 C2.68974799,54.467256 2.96936395,53.7591672 3.78957076,53.7591672 C5.01988096,53.7591672 7.25680861,53.3446762 7.25680861,51.4276552 C7.25680861,49.5106343 7.14496223,47.4899907 5.80280564,46.9718769 C4.46064905,46.4537632 1.49671991,47.4899907 0.657872046,49.458823 C-0.180975823,51.4276552 0.490102472,54.7953947 1.21710396,55.3653198 C1.70177162,55.7452699 2.27964459,55.9179745 2.95072289,55.8834336 Z" id="Path-9" fill="#E3563E"></path>
                            <g id="Group-5" transform="translate(14.412447, 21.587879)">
                                <mask id="mask-4" fill="white">
                                    <use xlink:href="#path-3"></use>
                                </mask>
                                <use id="Oval-3" fill="url(#linearGradient-2)" xlink:href="#path-3"></use>
                                <g id="Group-4" mask="url(#mask-4)">
                                    <g transform="translate(24.484845, 27.804836) scale(-1, 1) rotate(-10.000000) translate(-24.484845, -27.804836) translate(-5.781295, 17.010896)">
                                        <ellipse id="Oval-9" stroke="none" fill="#EE7A63" fill-rule="evenodd" cx="8.68243349" cy="11.3278053" rx="7.43108589" ry="6.95672023"></ellipse>
                                        <ellipse id="Oval-9-Copy" stroke="none" fill="#EF8869" fill-rule="evenodd" cx="52.0304345" cy="14.2264387" rx="7.43108589" ry="6.95672023"></ellipse>
                                        <mask id="mask-7" fill="white">
                                            <use xlink:href="#path-6"></use>
                                        </mask>
                                        <g id="Path-5" stroke="none" fill="none">
                                            <use fill="#FFFEFE" fill-rule="evenodd" xlink:href="#path-6"></use>
                                            <use fill="black" fill-opacity="1" filter="url(#filter-8)" xlink:href="#path-6"></use>
                                            <path stroke="url(#linearGradient-5)" stroke-width="1.3" d="M25.1769255,7.32389046 L41.9747215,8.77776808 C43.0476598,8.87063205 43.8421671,9.81570156 43.7493031,10.8886399 C43.7418983,10.9741944 43.72885,11.0591663 43.7102436,11.1430007 C42.4799925,16.6860917 38.950476,19.3078129 33.3120036,18.8648013 C27.7704767,18.4294066 24.3281982,15.3269081 23.1031095,9.68003867 C22.8747964,8.62757389 23.5428879,7.58929016 24.595348,7.36095887 C24.7862559,7.31954139 24.9823037,7.30704574 25.1769251,7.32389043 Z"></path>
                                        </g>
                                    </g>
                                </g>
                            </g>
                            <path d="M85.1077789,55.862167 C90.5419638,60.7940498 93.0095273,64.1847192 92.5104695,66.0341752 C92.0114118,67.8836313 91.1304669,68.8544272 89.867635,68.946563 C89.4837136,69.8997167 89.0973607,70.8201489 88.7085763,71.7078596 C88.1450331,72.9945969 87.4551172,74.2346236 86.6388288,75.4279396 C88.5563073,75.2673766 89.9016432,74.9797415 90.6748365,74.5650345 C91.8346264,73.9429739 97.085166,71.3513613 98.3328105,67.1900853 C99.580455,63.0288092 93.8412903,55.399803 91.7202947,52.9338616 C89.5992991,50.4679202 84.424436,52.5159573 84.424436,53.98011 C84.424436,54.9562118 84.6522169,55.5835641 85.1077789,55.862167 Z" id="Path-10" fill="#D34C35"></path>
                        </g>
                    </g>
                </g>
            </g>
        </g>
    </g>
</svg>