<?xml version="1.0" encoding="UTF-8"?>
<svg width="19px" height="19px" viewBox="0 0 19 19" version="1.1" xmlns="http://www.w3.org/2000/svg" xmlns:xlink="http://www.w3.org/1999/xlink">
    <!-- Generator: Sketch 50.2 (55047) - http://www.bohemiancoding.com/sketch -->
    <title>add</title>
    <desc>Created with Sketch.</desc>
    <defs>
        <rect id="path-1" x="0" y="19" width="375" height="50"></rect>
        <filter x="-4.1%" y="-33.0%" width="108.3%" height="162.0%" filterUnits="objectBoundingBox" id="filter-2">
            <feOffset dx="0" dy="-1" in="SourceAlpha" result="shadowOffsetOuter1"></feOffset>
            <feGaussianBlur stdDeviation="5" in="shadowOffsetOuter1" result="shadowBlurOuter1"></feGaussianBlur>
            <feColorMatrix values="0 0 0 0 0.890196078   0 0 0 0 0.894117647   0 0 0 0 0.909803922  0 0 0 1 0" type="matrix" in="shadowBlurOuter1"></feColorMatrix>
        </filter>
    </defs>
    <g id="Page-1" stroke="none" stroke-width="1" fill="none" fill-rule="evenodd">
        <g id="cut" transform="translate(-242.000000, -35.000000)">
            <g id="Rectangle-44">
                <use fill="black" fill-opacity="1" filter="url(#filter-2)" xlink:href="#path-1"></use>
                <use fill="#FFFFFF" fill-rule="evenodd" xlink:href="#path-1"></use>
            </g>
            <g id="评论-copy-4" transform="translate(231.676572, 19.000000)">
                <rect id="Rectangle-12" fill="#FFFFFF" x="0" y="0.205926145" width="75.692577" height="50"></rect>
                <g id="Group" transform="translate(10.846288, 14.205926)" fill-rule="nonzero">
                    <g id="审批请示-转审" transform="translate(0.287909, 2.083690)">
                        <rect id="Rectangle-path" fill="#000000" opacity="0" x="0" y="0" width="18" height="18"></rect>
                        <path d="M15.1294922,5.91503906 L12.2712891,3.05507812 C12.0216797,2.80546875 11.6173828,2.80546875 11.3677734,3.05507812 C11.1199219,3.3046875 11.1199219,3.70898437 11.3677734,3.95859375 L12.4716797,5.0625 L7.46894531,5.0625 C4.93242187,5.0625 2.87578125,7.12265625 2.87578125,9.65917969 C2.87578125,12.1957031 4.93242187,14.2558594 7.46894531,14.2558594 L9.87890625,14.2558594 L9.87890625,14.2505859 C10.3535156,14.2505859 10.7525391,13.8585937 10.7525391,13.3751953 C10.7525391,12.8917969 10.3535156,12.4998047 9.87890625,12.4998047 L9.87890625,12.4980469 L7.46894531,12.4980469 C5.89746094,12.4980469 4.62480469,11.2289062 4.62480469,9.65917969 C4.62480469,8.08945312 5.89746094,6.8203125 7.46894531,6.8203125 L11.4064453,6.8203125 C11.4820312,6.8203125 11.5488281,6.82910156 11.6191406,6.834375 L11.6191406,6.8203125 L12.4646484,6.8203125 L11.3660156,7.91015625 C11.1181641,8.15800781 11.1181641,8.56054687 11.3660156,8.80839844 C11.615625,9.05800781 12.0199219,9.05625 12.2695312,8.80664062 L15.1277344,5.95722656 L15.1066406,5.93613281 L15.1294922,5.91503906 Z" id="Shape" fill="#596175"></path>
                    </g>
                </g>
            </g>
            <g id="评论-copy-4" transform="translate(231.676572, 19.000000)">
                <rect id="Rectangle-12" fill="#FFFFFF" x="0" y="0.205926145" width="75.692577" height="50"></rect>
                <g id="Group" transform="translate(10.846288, 14.205926)" fill="#596175" fill-rule="nonzero">
                    <path d="M3.95141717,10.2484864 C3.66984025,10.2484864 3.44151943,10.4769681 3.44151943,10.7587519 L3.44151943,11.4086279 C3.44151943,11.6901014 3.66978279,11.9188934 3.95141717,11.9188934 L14.6244016,11.9188934 C14.9059785,11.9188934 15.1342994,11.6904117 15.1342994,11.4086279 L15.1342994,10.7587519 C15.1342994,10.477221 14.906036,10.2484864 14.6244016,10.2484864 L3.95141717,10.2484864 Z M10.1420984,5.74719767 C10.1420984,5.46562075 9.91361672,5.23729992 9.63183294,5.23729992 L8.98195696,5.23729992 C8.70048347,5.23729992 8.47169146,5.46556329 8.47169146,5.74719767 L8.47169146,16.4201821 C8.47169146,16.701759 8.70017318,16.9300799 8.98195696,16.9300799 L9.63183294,16.9300799 C9.91336388,16.9300799 10.1420984,16.7018165 10.1420984,16.4201821 L10.1420984,5.74719767 Z" id="add"></path>
                </g>
            </g>
        </g>
    </g>
</svg>