<?xml version="1.0" encoding="UTF-8"?>
<svg width="12px" height="12px" viewBox="0 0 12 12" version="1.1" xmlns="http://www.w3.org/2000/svg" xmlns:xlink="http://www.w3.org/1999/xlink">
    <!-- Generator: Sketch 50.2 (55047) - http://www.bohemiancoding.com/sketch -->
    <title>icon_a-common_edit</title>
    <desc>Created with Sketch.</desc>
    <defs></defs>
    <g id="Page-1" stroke="none" stroke-width="1" fill="none" fill-rule="evenodd">
        <g id="iPhone-8-Copy-17" transform="translate(-212.000000, -638.000000)">
            <g id="Group-25" transform="translate(156.984262, 619.500000)">
                <g id="Group-11-Copy-2" transform="translate(52.001877, 14.500000)">
                    <g id="Group-19">
                        <g id="icon_a-common_edit" transform="translate(0.000000, 1.000000)">
                            <rect id="Rectangle-19" fill="#FFFFFF" opacity="0" x="0.0131317112" y="0" width="17.0526316" height="17.0526316"></rect>
                            <path d="M6.04930737,10.0628527 L6.04930737,4.29682812 C6.04930737,3.84766375 6.38793745,3.48354408 6.80565882,3.48354408 L10.2929559,3.48354408 C10.7106773,3.48354408 11.0493074,3.84766375 11.0493074,4.29682812 L11.0493074,12.7484127 C11.0493074,12.9606264 10.9721662,13.1644349 10.8343492,13.3163367 L9.09070065,15.2381836 C8.79900183,15.5596937 8.3201432,15.5660608 8.02113994,15.252405 C8.01816464,15.2492839 7.43253983,14.6039278 6.26426554,13.3163367 C6.12644852,13.1644349 6.04930737,12.9606264 6.04930737,12.7484127" id="Rectangle-20" stroke="#596175" stroke-width="1.4" stroke-linecap="round" stroke-linejoin="round" transform="translate(8.549307, 9.483544) rotate(45.000000) translate(-8.549307, -9.483544) "></path>
                        </g>
                    </g>
                </g>
            </g>
        </g>
    </g>
</svg>