<?xml version="1.0" encoding="UTF-8"?>
<svg width="47px" height="47px" viewBox="0 0 47 47" version="1.1" xmlns="http://www.w3.org/2000/svg" xmlns:xlink="http://www.w3.org/1999/xlink">
    <!-- Generator: Sketch 51 (57462) - http://www.bohemiancoding.com/sketch -->
    <title>A1_btn_2</title>
    <desc>Created with Sketch.</desc>
    <defs>
        <linearGradient x1="50%" y1="0%" x2="50%" y2="100%" id="linearGradient-1">
            <stop stop-color="#71E7CF" offset="0%"></stop>
            <stop stop-color="#39C9BA" offset="100%"></stop>
        </linearGradient>
    </defs>
    <g id="Page-1" stroke="none" stroke-width="1" fill="none" fill-rule="evenodd">
        <g id="A1_首页" transform="translate(-282.000000, -90.000000)">
            <rect fill="#FFFFFF" x="0" y="0" width="375" height="1356"></rect>
            <g id="Group-3" transform="translate(14.000000, 75.000000)">
                <g id="Group-2" transform="translate(268.000000, 15.000000)">
                    <circle id="Oval" fill="url(#linearGradient-1)" cx="23.5" cy="23.5" r="23.5"></circle>
                    <g id="Group" transform="translate(13.282609, 12.260870)">
                        <path d="M5.10869565,1.02173913 L5.10869565,2.26184583 C5.10869565,2.42753126 5.24301023,2.56184584 5.40869566,2.56184584 L15.0260869,2.56184584 C15.1917724,2.56184584 15.326087,2.42753126 15.326087,2.26184583 L15.326087,1.02173913 L18.4347826,1.02173913 C19.5393521,1.02173913 20.4347826,1.91716963 20.4347826,3.02173913 L20.4347826,21.5 C20.4347826,22.6045695 19.5393521,23.5 18.4347826,23.5 L2,23.5 C0.8954305,23.5 1.3527075e-16,22.6045695 0,21.5 L0,3.02173913 C-1.3527075e-16,1.91716963 0.8954305,1.02173913 2,1.02173913 L5.10869565,1.02173913 Z" id="Combined-Shape" fill="#FFFFFF"></path>
                        <path d="M9.00279398,19.5995624 L10.9926285,19.5995624 L10.9926285,17.473241 L9.00279398,17.473241 L9.00279398,19.5995624 Z M13.0936729,7.39826707 C12.4149651,6.7195593 11.4451003,6.3782524 10.2095801,6.3782524 C9.73551283,6.3782524 9.2111609,6.47172793 8.65080159,6.6585443 C8.10835618,6.79498624 7.6593863,7.06436817 7.18886586,7.53488861 C6.76863005,7.95507952 6.46696719,8.25674239 6.31247665,8.8602477 C6.22636423,9.12240122 6.03240924,9.82270444 6.03240924,10.8248052 L6.03240924,11.0763181 L7.88930377,11.0763181 L7.88930377,10.8248052 C7.88930377,9.93777542 8.07957721,9.28043861 8.44966308,8.8602477 C8.82670799,8.44001189 9.40143434,8.23519183 10.2060782,8.23519183 C10.8741004,8.23519183 11.3769018,8.42564485 11.7864072,8.83865225 C12.2210101,9.2732551 12.2532461,9.84798144 12.2532461,10.0131575 C12.2532461,10.3579663 12.1383996,10.8357152 11.9193472,11.0547676 L10.701696,12.2724188 C10.1269697,12.8471003 9.71396227,13.2601525 9.55942684,13.7234895 C9.49490987,13.9174445 9.43016841,14.0789838 9.36196988,14.2513883 C9.29372646,14.4202458 9.22552794,14.5961522 9.15360296,14.8082007 C9.00629594,15.253489 9.00629594,15.8066199 9.00629594,16.5106047 L9.00629594,16.7621176 L10.8631905,16.7621176 L10.8631905,16.5106047 C10.8631905,15.9827059 10.8631905,15.6054814 10.985445,15.23562 C11.0715574,14.9769236 11.2223664,14.7112232 11.3553064,14.4778038 C11.4128643,14.3735979 11.4703773,14.2766204 11.5133438,14.1868264 C11.5959542,14.0251523 11.8618342,13.6947105 12.6627516,13.0517856 L12.684347,13.0339166 C13.2590734,12.4591903 13.6792643,11.8879659 13.9342792,11.507419 C14.2468071,11.0368537 14.2468071,10.5663333 14.2468071,10.1495994 C14.2503091,9.07575324 13.8732193,8.17781348 13.0936729,7.39826707 Z" id="Fill-1" fill="#50D5C3"></path>
                        <rect id="Rectangle" fill="#FFFFFF" opacity="0.7" x="6.64130435" y="0" width="7.15217391" height="6.13043478" rx="1"></rect>
                    </g>
                </g>
            </g>
        </g>
    </g>
</svg>