<?xml version="1.0" encoding="UTF-8"?>
<svg width="160px" height="67px" viewBox="0 0 160 67" version="1.1" xmlns="http://www.w3.org/2000/svg" xmlns:xlink="http://www.w3.org/1999/xlink">
    <!-- Generator: Sketch 50.2 (55047) - http://www.bohemiancoding.com/sketch -->
    <title>bg_kby2</title>
    <desc>Created with Sketch.</desc>
    <defs>
        <linearGradient x1="50%" y1="169.88552%" x2="50%" y2="27.9313513%" id="linearGradient-1">
            <stop stop-color="#F9FBFF" offset="0%"></stop>
            <stop stop-color="#EDF5FE" offset="100%"></stop>
        </linearGradient>
        <linearGradient x1="51.3077975%" y1="-72.998334%" x2="96.0488864%" y2="132.285143%" id="linearGradient-2">
            <stop stop-color="#FFFFFF" stop-opacity="0" offset="0%"></stop>
            <stop stop-color="#FFFFFF" stop-opacity="0.831351902" offset="100%"></stop>
        </linearGradient>
        <linearGradient x1="12.8289474%" y1="0%" x2="65.1315789%" y2="95.7906687%" id="linearGradient-3">
            <stop stop-color="#A5C9F9" offset="0%"></stop>
            <stop stop-color="#7BA4F2" offset="100%"></stop>
        </linearGradient>
        <linearGradient x1="12.8289474%" y1="0%" x2="65.1315789%" y2="95.7906687%" id="linearGradient-4">
            <stop stop-color="#A5C9F9" offset="0%"></stop>
            <stop stop-color="#709BEC" offset="100%"></stop>
        </linearGradient>
        <linearGradient x1="10.1082038%" y1="50%" x2="94.3519491%" y2="50%" id="linearGradient-5">
            <stop stop-color="#EBF3FF" offset="0%"></stop>
            <stop stop-color="#BED8FF" offset="100%"></stop>
        </linearGradient>
        <linearGradient x1="0%" y1="41.7070555%" x2="100%" y2="41.7070568%" id="linearGradient-6">
            <stop stop-color="#C3DAFC" offset="0%"></stop>
            <stop stop-color="#94BBF9" offset="100%"></stop>
        </linearGradient>
    </defs>
    <g id="设计稿" stroke="none" stroke-width="1" fill="none" fill-rule="evenodd">
        <g id="A1_首页" transform="translate(-30.000000, -288.000000)">
            <g id="Group-9" transform="translate(14.000000, 277.000000)">
                <g id="Group-5" transform="translate(16.000000, 11.000000)">
                    <g id="bg_kby2" transform="translate(0.000000, 0.143066)">
                        <g id="Group-16" transform="translate(0.405762, 19.236907)">
                            <path d="M15.7597952,47.1279203 C18.3546355,47.1555263 63.3584146,47.0922846 150.771133,46.9381954 C156.023465,45.8323405 158.649632,42.671437 158.649632,37.4554849 C158.649632,29.6315568 155.185452,13.0448292 154.319407,10.0717365 C153.453362,7.09864377 148.414556,0.291826297 138.651868,0.291826297 C132.14341,0.291826297 100.596236,0.291826297 44.010347,0.291826297 C34.4816893,0.535324354 28.442823,5.2106998 25.8937482,14.3179526 C25.1887287,18.7735405 24.6069715,22.3626514 20.1507267,23.6150109 C17.110485,23.9154728 7.90646539,21.8461301 2.99210199,28.0955449 C-1.92226142,34.3449597 0.2850374,41.9601406 5.74081372,45.3952494 C8.90599693,47.5473657 11.8675348,47.0865114 15.7597952,47.1279203 Z" id="Path-14" fill="url(#linearGradient-1)"></path>
                            <path d="M15.7597952,47.1279203 C18.3546355,47.1555263 63.3584146,47.0922846 150.771133,46.9381954 C156.023465,45.8323405 158.649632,42.671437 158.649632,37.4554849 C158.649632,29.6315568 155.185452,13.0448292 154.319407,10.0717365 C153.453362,7.09864377 148.414556,0.291826297 138.651868,0.291826297 C132.14341,0.291826297 100.596236,0.291826297 44.010347,0.291826297 C34.4816893,0.535324354 28.442823,5.2106998 25.8937482,14.3179526 C25.1887287,18.7735405 24.6069715,22.3626514 20.1507267,23.6150109 C17.110485,23.9154728 7.90646539,21.8461301 2.99210199,28.0955449 C-1.92226142,34.3449597 0.2850374,41.9601406 5.74081372,45.3952494 C8.90599693,47.5473657 11.8675348,47.0865114 15.7597952,47.1279203 Z" id="Path-14" fill="url(#linearGradient-2)"></path>
                            <path d="M14.0542901,32.6936395 L17.4245415,32.0444992 L13.1897174,30.4314462 C11.6810273,24.7386012 10.7954919,20.0343991 10.533111,16.31884 C11.4514441,16.7751367 17.0598353,21.2077336 17.0598353,21.696623 C17.0598353,22.0225492 17.0598353,23.0655132 17.0598353,24.8255149 L18.6997157,23.3588468 C22.7447542,27.9218142 25.5216184,32.0936701 27.0303085,35.8744145 C26.4547589,38.2239798 26.1504735,39.5464294 26.1174522,39.8417633 L27.8510683,38.2994641 C29.1875965,41.9503017 29.8558605,44.8981213 29.8558605,47.142923 C25.5373371,47.1099112 22.8548697,47.1099112 21.8084582,47.142923 C18.1386818,42.5178572 15.65167,38.0271639 14.3474231,33.6708431 C14.1964214,33.2269277 14.0987104,32.9011931 14.0542901,32.6936395 Z" id="Path-15" fill="#E4EFFD"></path>
                        </g>
                        <g id="Group-21" transform="translate(17.178295, 0.021719)">
                            <rect id="Rectangle-14" fill="url(#linearGradient-3)" x="0.207765575" y="25.5402519" width="132.422747" height="7.28645364"></rect>
                            <path d="M47.7233935,61.9740293 L69.8407546,61.9740293 C72.1696861,61.9740293 74.0576582,63.8620014 74.0576582,66.190933 L43.5064899,66.190933 L43.5064899,66.190933 C43.5064899,63.8620014 45.394462,61.9740293 47.7233935,61.9740293 Z" id="Rectangle-17" fill="url(#linearGradient-4)"></path>
                            <polygon id="Path-21" fill="url(#linearGradient-4)" points="12.2598562 32.8415592 12.2598562 66.0554447 16.7905626 66.0554447 20.6390738 32.8415592"></polygon>
                            <polygon id="Path-21" fill="url(#linearGradient-4)" points="121.565543 32.8415592 121.565543 66.0554447 117.034836 66.0554447 113.186325 32.8415592"></polygon>
                            <rect id="Rectangle-20" fill="url(#linearGradient-4)" x="36.7115115" y="39.4729802" width="45.8370395" height="6.67455957" rx="1"></rect>
                            <rect id="Rectangle-27" fill="#C2DAFF" x="58.0882942" y="45.1519161" width="3.09193993" height="14.5729073"></rect>
                            <rect id="Rectangle-27" fill="url(#linearGradient-4)" x="56.2590931" y="48.5763576" width="6.75034214" height="14.5729073"></rect>
                            <path d="M50.5958294,1.8511593 L68.4792781,1.8511593 C74.0021256,1.8511593 78.4792781,6.32831181 78.4792781,11.8511593 L78.4792781,46.1475397 L40.5958294,46.1475397 L40.5958294,11.8511593 C40.5958294,6.32831181 45.0729819,1.8511593 50.5958294,1.8511593 Z" id="Rectangle-18" fill="url(#linearGradient-5)"></path>
                            <g id="Group-18" transform="translate(14.932848, 0.000000)">
                                <polygon id="Path-29" fill="#94BAF4" points="9.69392136 13.5747242 17.2851099 3.632457 14.5600678 14.5418708"></polygon>
                                <polygon id="Path-28" fill="#94BAF4" points="13.6257677 2.4331952 7.59174608 12.8396928 13.6257677 12.8396928"></polygon>
                                <polygon id="Path-27" fill="#A5C9F9" points="9.2267713 0.653645429 6.34601258 12.6075776 12.3800342 12.6075776"></polygon>
                                <polygon id="Path-26" fill="#94BAF4" points="4.59419984 12.3367765 4.82777487 2.47188106 10.5892923 12.3367765"></polygon>
                                <polygon id="Path-25" fill="#A5C9F9" points="0.467707619 3.86457219 2.8423871 12.2980907 8.21461283 12.2980907"></polygon>
                                <polygon id="Rectangle-22" fill="url(#linearGradient-5)" points="2.58696988 12.1440894 16.0294839 12.1440894 14.2119078 25.5025877 4.30580932 25.5025877"></polygon>
                            </g>
                            <g id="Group-20" transform="translate(83.367465, 6.072045)">
                                <rect id="Rectangle-24" fill="url(#linearGradient-6)" x="2.61781098" y="0.54416328" width="25.0321387" height="18.8863798"></rect>
                                <rect id="Rectangle-23" fill="url(#linearGradient-4)" x="0.448900378" y="16.3843379" width="29.3699599" height="3.08386921"></rect>
                            </g>
                        </g>
                    </g>
                </g>
            </g>
        </g>
    </g>
</svg>