<?xml version="1.0" encoding="UTF-8"?>
<svg width="196px" height="124px" viewBox="0 0 196 124" version="1.1" xmlns="http://www.w3.org/2000/svg" xmlns:xlink="http://www.w3.org/1999/xlink">
    <!-- Generator: Sketch 50.2 (55047) - http://www.bohemiancoding.com/sketch -->
    <title>bg_kby</title>
    <desc>Created with Sketch.</desc>
    <defs>
        <linearGradient x1="50%" y1="169.88552%" x2="50%" y2="27.9313513%" id="linearGradient-1">
            <stop stop-color="#F9FBFF" offset="0%"></stop>
            <stop stop-color="#EDF5FE" offset="100%"></stop>
        </linearGradient>
        <linearGradient x1="51.3077975%" y1="-72.998334%" x2="96.0488864%" y2="132.285143%" id="linearGradient-2">
            <stop stop-color="#FFFFFF" stop-opacity="0" offset="0%"></stop>
            <stop stop-color="#FFFFFF" stop-opacity="0.831351902" offset="100%"></stop>
        </linearGradient>
        <linearGradient x1="13.8721733%" y1="50%" x2="109.845809%" y2="76.3895376%" id="linearGradient-3">
            <stop stop-color="#DDECFD" offset="0%"></stop>
            <stop stop-color="#FFFFFF" stop-opacity="0" offset="100%"></stop>
        </linearGradient>
        <rect id="path-4" x="0" y="0.528417932" width="72" height="95" rx="1.5"></rect>
        <linearGradient x1="12.8289474%" y1="0%" x2="65.1315789%" y2="95.7906687%" id="linearGradient-6">
            <stop stop-color="#A5C9F9" offset="0%"></stop>
            <stop stop-color="#709BEC" offset="100%"></stop>
        </linearGradient>
        <rect id="path-7" x="0" y="0" width="66" height="84" rx="0.400000006"></rect>
        <linearGradient x1="15.8022575%" y1="54.0422881%" x2="85.6968582%" y2="102.491683%" id="linearGradient-9">
            <stop stop-color="#BBD0F1" offset="0%"></stop>
            <stop stop-color="#DCEBFD" offset="100%"></stop>
        </linearGradient>
        <linearGradient x1="100%" y1="0%" x2="0%" y2="100%" id="linearGradient-10">
            <stop stop-color="#F9FCFF" offset="0%"></stop>
            <stop stop-color="#FEFFFF" offset="100%"></stop>
        </linearGradient>
        <path d="M0.657506546,86.0163338 C22.4839653,85.5905294 33.9118483,85.3776272 34.9411553,85.3776272 C36.4851159,85.3776272 72.4481617,69.0327672 75.0949513,51.4610251 C76.0507364,45.0646169 77.8887847,17.9432849 77.3741312,10.0029161 C75.6586194,10.0029161 53.8723596,10.0029161 12.0153518,10.0029161 C11.6296511,27.755657 10.8541362,41.3257142 9.68880713,50.7130875 C8.52347803,60.1004609 5.5130445,71.8682097 0.657506546,86.0163338 Z" id="path-11"></path>
        <filter x="-5.9%" y="-9.9%" width="119.5%" height="119.7%" filterUnits="objectBoundingBox" id="filter-12">
            <feOffset dx="3" dy="0" in="SourceAlpha" result="shadowOffsetOuter1"></feOffset>
            <feGaussianBlur stdDeviation="2" in="shadowOffsetOuter1" result="shadowBlurOuter1"></feGaussianBlur>
            <feColorMatrix values="0 0 0 0 0.729411765   0 0 0 0 0.811764706   0 0 0 0 0.945098039  0 0 0 0.5 0" type="matrix" in="shadowBlurOuter1"></feColorMatrix>
        </filter>
        <linearGradient x1="50%" y1="25.7762228%" x2="50%" y2="100%" id="linearGradient-13">
            <stop stop-color="#C3DAFC" offset="0%"></stop>
            <stop stop-color="#94BBF9" offset="100%"></stop>
        </linearGradient>
        <linearGradient x1="100%" y1="50%" x2="0%" y2="50%" id="linearGradient-14">
            <stop stop-color="#89B5F9" offset="0%"></stop>
            <stop stop-color="#6EA0F8" offset="100%"></stop>
        </linearGradient>
        <linearGradient x1="100%" y1="57.3450098%" x2="3.83502702%" y2="50%" id="linearGradient-15">
            <stop stop-color="#EAF4FE" stop-opacity="0.384057971" offset="0%"></stop>
            <stop stop-color="#CEE3FC" offset="100%"></stop>
        </linearGradient>
        <linearGradient x1="15.4385765%" y1="100%" x2="100%" y2="12.2736208%" id="linearGradient-16">
            <stop stop-color="#5092FF" offset="0%"></stop>
            <stop stop-color="#4A8FFF" offset="100%"></stop>
        </linearGradient>
        <linearGradient x1="10.1082038%" y1="50%" x2="94.3519491%" y2="50%" id="linearGradient-17">
            <stop stop-color="#EBF3FF" offset="0%"></stop>
            <stop stop-color="#BED8FF" offset="100%"></stop>
        </linearGradient>
        <linearGradient x1="100%" y1="50%" x2="0%" y2="50%" id="linearGradient-18">
            <stop stop-color="#BFDFFF" offset="0%"></stop>
            <stop stop-color="#CAE2FF" offset="51.9720601%"></stop>
            <stop stop-color="#DDECFF" offset="100%"></stop>
        </linearGradient>
        <linearGradient x1="50%" y1="30.0821751%" x2="-21.0766126%" y2="100%" id="linearGradient-19">
            <stop stop-color="#B9DCFF" offset="0%"></stop>
            <stop stop-color="#FFFFFF" stop-opacity="0.625594429" offset="100%"></stop>
        </linearGradient>
    </defs>
    <g id="设计稿" stroke="none" stroke-width="1" fill="none" fill-rule="evenodd">
        <g id="A1_首页" transform="translate(-89.000000, -321.000000)">
            <g id="Group-5" transform="translate(89.000000, 321.000000)">
                <g id="bg_kby">
                    <g id="Group-16" transform="translate(0.500000, 42.453765)">
                        <path d="M19.4200076,58.4386212 C22.6174995,58.4728526 78.0734064,58.394433 185.787728,58.2033623 C192.259915,56.8321022 195.496009,52.9125819 195.496009,46.4448013 C195.496009,36.7431304 191.227273,16.1755881 190.16009,12.4889532 C189.092906,8.80231828 182.883836,0.361864608 170.853764,0.361864608 C162.833717,0.361864608 123.959712,0.361864608 54.23175,0.361864608 C42.4900617,0.663802199 35.0486687,6.46126775 31.9075712,17.7542613 C31.0388109,23.2791903 30.3219407,27.7296877 24.830733,29.2826135 C21.0843951,29.6551862 9.74274197,27.0892014 3.68701767,34.8384757 C-2.36870663,42.58775 0.351237336,52.0305743 7.07411771,56.2901092 C10.9744147,58.9587335 14.6237698,58.3872742 19.4200076,58.4386212 Z" id="Path-14" fill="url(#linearGradient-1)"></path>
                        <path d="M19.4200076,58.4386212 C22.6174995,58.4728526 78.0734064,58.394433 185.787728,58.2033623 C192.259915,56.8321022 195.496009,52.9125819 195.496009,46.4448013 C195.496009,36.7431304 191.227273,16.1755881 190.16009,12.4889532 C189.092906,8.80231828 182.883836,0.361864608 170.853764,0.361864608 C162.833717,0.361864608 123.959712,0.361864608 54.23175,0.361864608 C42.4900617,0.663802199 35.0486687,6.46126775 31.9075712,17.7542613 C31.0388109,23.2791903 30.3219407,27.7296877 24.830733,29.2826135 C21.0843951,29.6551862 9.74274197,27.0892014 3.68701767,34.8384757 C-2.36870663,42.58775 0.351237336,52.0305743 7.07411771,56.2901092 C10.9744147,58.9587335 14.6237698,58.3872742 19.4200076,58.4386212 Z" id="Path-14" fill="url(#linearGradient-2)"></path>
                        <path d="M17.318399,40.540113 L21.4713913,39.7351791 L16.2530292,37.7349933 C14.3939459,30.6758655 13.3027449,24.8426549 12.9794261,20.2353615 C14.111042,20.8011695 21.021982,26.2975896 21.021982,26.9038125 C21.021982,27.307961 21.021982,28.6012363 21.021982,30.7836384 L23.0427247,28.96497 C28.0272234,34.6230496 31.4490143,39.7961509 33.3080976,44.4842739 C32.5988766,47.397735 32.2239209,49.0375725 32.1832305,49.4037865 L34.319479,47.4913355 C35.9664158,52.0183741 36.7898842,55.6736704 36.7898842,58.4572245 C31.4683837,58.4162899 28.1629132,58.4162899 26.8734726,58.4572245 C22.3513906,52.7221429 19.2867704,47.1536832 17.6796121,41.7518455 C17.4935403,41.2013903 17.3731359,40.7974794 17.318399,40.540113 Z" id="Path-15" fill="#E4EFFD"></path>
                    </g>
                    <path d="M67.0400689,100.167788 C94.7419209,114.018714 128.17302,121.762641 167.333365,123.399568 C226.073883,125.85496 171.677519,84.3021816 155.43416,80.5246563 C144.605255,78.0063061 115.140557,84.5540166 67.0400689,100.167788 Z" id="Path-20" fill="url(#linearGradient-3)"></path>
                    <g id="Group-17" transform="translate(52.000000, 0.453765)">
                        <rect id="Mask" fill="#4274D2" x="9" y="5.36383645" width="72" height="95" rx="1.5"></rect>
                        <g id="Path-18" transform="translate(9.000000, 3.864307)">
                            <mask id="mask-5" fill="white">
                                <use xlink:href="#path-4"></use>
                            </mask>
                            <use id="Mask" fill="#B8D5FB" xlink:href="#path-4"></use>
                            <polygon fill="url(#linearGradient-6)" mask="url(#mask-5)" points="10.8212554 -1.71080438 32.9214865 33.4652759 3.36575572 90.9791303 14.2827373 99.4997014 84.3111805 99.4997014 84.3111805 -1.71080438"></polygon>
                        </g>
                        <rect id="Rectangle-15" fill="#638AEC" x="12" y="11" width="66" height="84" rx="0.400000006"></rect>
                        <g id="Path-19" transform="translate(12.000000, 10.000000)">
                            <mask id="mask-8" fill="white">
                                <use xlink:href="#path-7"></use>
                            </mask>
                            <use id="Mask" fill="#DBE9FC" xlink:href="#path-7"></use>
                            <polygon fill="url(#linearGradient-9)" mask="url(#mask-8)" points="0.342550022 75.4056885 12.5296314 86.7222641 71.9562139 86.7222641 71.9562139 8.11523641 44.7396285 8.11523641"></polygon>
                        </g>
                        <g id="Path-16">
                            <use fill="black" fill-opacity="1" filter="url(#filter-12)" xlink:href="#path-11"></use>
                            <use fill="url(#linearGradient-10)" fill-rule="evenodd" xlink:href="#path-11"></use>
                        </g>
                        <path d="M20.3657317,20.9961123 L66.3657317,20.9961123 C66.9180164,20.9961123 67.3657317,21.4438275 67.3657317,21.9961123 L67.3657317,23.9961123 C67.3657317,24.548397 66.9180164,24.9961123 66.3657317,24.9961123 L20.3657317,24.9961123 C19.8134469,24.9961123 19.3657317,24.548397 19.3657317,23.9961123 L19.3657317,21.9961123 C19.3657317,21.4438275 19.8134469,20.9961123 20.3657317,20.9961123 Z M20.3657317,30.4090774 L48.863089,30.4090774 C49.4153737,30.4090774 49.863089,30.8567927 49.863089,31.4090774 L49.863089,33.4090774 C49.863089,33.9613622 49.4153737,34.4090774 48.863089,34.4090774 L20.3657317,34.4090774 C19.8134469,34.4090774 19.3657317,33.9613622 19.3657317,33.4090774 L19.3657317,31.4090774 C19.3657317,30.8567927 19.8134469,30.4090774 20.3657317,30.4090774 Z" id="Combined-Shape" fill="#C1DBFC" opacity="0.4"></path>
                        <path d="M19.9646416,40.5162264 L64.3845832,40.5162264 C64.936868,40.5162264 65.3539174,40.9639417 65.3160893,41.5162264 L65.1791014,43.5162264 C65.1412732,44.0685112 64.6628922,44.5162264 64.1106074,44.5162264 L19.6906658,44.5162264 C19.1383811,44.5162264 18.7213316,44.0685112 18.7591598,43.5162264 L18.8961477,41.5162264 C18.9339758,40.9639417 19.4123569,40.5162264 19.9646416,40.5162264 Z M19.334928,49.7099388 L50.4860494,49.7099388 C51.0383341,49.7099388 51.4553836,50.1576541 51.4175554,50.7099388 L51.2805675,52.7099388 C51.2427394,53.2622236 50.7643583,53.7099388 50.2120736,53.7099388 L19.0609522,53.7099388 C18.5086675,53.7099388 18.091618,53.2622236 18.1294462,52.7099388 L18.2664341,50.7099388 C18.3042622,50.1576541 18.7826433,49.7099388 19.334928,49.7099388 Z" id="Combined-Shape" fill="#C1DBFC" opacity="0.4"></path>
                        <path d="M18.2883921,59.3075281 L62.504198,59.3075281 C63.0564827,59.3075281 63.4487129,59.7552433 63.3802686,60.3075281 L63.1324097,62.3075281 C63.0639653,62.8598128 62.560765,63.3075281 62.0084802,63.3075281 L17.7926743,63.3075281 C17.2403896,63.3075281 16.8481594,62.8598128 16.9166038,62.3075281 L17.1644627,60.3075281 C17.232907,59.7552433 17.7361073,59.3075281 18.2883921,59.3075281 Z M17.2249157,67.8888334 L43.8850518,67.8888334 C44.4373365,67.8888334 44.8295667,68.3365487 44.7611223,68.8888334 L44.5132635,70.8888334 C44.4448191,71.4411182 43.9416188,71.8888334 43.389334,71.8888334 L16.729198,71.8888334 C16.1769132,71.8888334 15.7846831,71.4411182 15.8531274,70.8888334 L16.1009863,68.8888334 C16.1694306,68.3365487 16.672631,67.8888334 17.2249157,67.8888334 Z" id="Combined-Shape" fill="#C1DBFC" opacity="0.4"></path>
                        <path d="M33.3668855,85.4059899 C46.6822228,85.7903837 57.4325942,81.538271 65.6179998,72.6496518 C71.6937648,65.8706733 74.9566757,57.7977819 75.4067323,48.4309775 C72.3020557,56.5319975 65.2954145,59.9214868 54.3868089,58.5994453 C54.3101349,65.278904 52.5568004,71.4192197 44.8038967,77.8834717 C39.6352942,82.1929731 35.8229571,84.7004791 33.3668855,85.4059899 Z" id="Path-17" fill="url(#linearGradient-13)"></path>
                        <rect id="Rectangle-16" fill="#578FE5" x="31.8484378" y="1.11186704" width="26" height="12" rx="0.300000012"></rect>
                        <rect id="Rectangle-16" fill="url(#linearGradient-14)" x="31.8484378" y="0.393751098" width="26" height="12" rx="0.300000012"></rect>
                    </g>
                    <g id="Group-4" transform="translate(120.000000, 40.000000)">
                        <ellipse id="Oval" fill="url(#linearGradient-15)" opacity="0.8" cx="24.1706656" cy="61.3414655" rx="18.0975677" ry="4.73983916"></ellipse>
                        <g id="Group-15" transform="translate(0.653474, 0.341466)">
                            <path d="M23.2834437,21.161321 C21.1495606,22.8651919 19.5166627,23.657643 18.3847501,23.5386742 C17.0602955,23.3994684 15.7795342,22.4805333 14.5424661,20.781869 L14.6018268,20.7784471 C14.53573,20.7742925 14.46945,20.7701056 14.4029868,20.7658863 C19.7522947,20.5062112 23.1280714,18.5846152 24.5303172,15.0010983 C26.6336858,9.62582296 25.7767578,5.96440353 31.7752535,1.75766631 C36.7610161,-1.82585057 40.5003381,2.69249681 39.2538974,5.96440353 C38.0074568,9.23631025 34.6340477,9.10840773 33.8550222,14.0162678 C33.5792147,16.5302172 34.2649966,18.9552429 32.161628,20.3574887 C31.2236152,20.9828306 28.2642204,21.2507747 23.2834437,21.161321 Z M40.5565398,9.80079712 C40.1241838,9.2243225 40.2803123,8.38363034 41.0249254,7.27872064 C42.141845,5.6213561 44.6639214,5.58532644 45.1323071,6.63018669 C45.6006927,7.67504695 45.0602478,9.36844116 43.7271502,8.93608519 C42.8384185,8.64784788 41.7815483,8.93608519 40.5565398,9.80079712 Z" id="Combined-Shape" fill="url(#linearGradient-16)"></path>
                            <path d="M6.6415968,60.7048266 L27.8383188,60.7048266 C28.359205,60.7048266 28.7928555,60.3049785 28.8350349,59.7858028 L31.9399572,21.5680901 C31.9846792,21.0176191 31.5746885,20.5351198 31.0242174,20.4903979 C30.9972808,20.4882095 30.9702665,20.4871139 30.9432412,20.4871139 L1.7721398,20.4871139 C1.21985505,20.4871139 0.772139802,20.9348292 0.772139802,21.4871139 C0.772139802,21.5293717 0.774818373,21.5715869 0.780159404,21.6135057 L5.6496164,59.8312184 C5.71324435,60.3305995 6.13817855,60.7048266 6.6415968,60.7048266 Z" id="Path-11" fill="url(#linearGradient-17)"></path>
                            <path d="M3.837411,45.6082064 L2.3144871,33.6556072 L30.9579308,33.6556072 L29.9868656,45.6082064 L3.837411,45.6082064 Z M0.627408651,20.4840453 L32.0217982,20.4840453 L31.8055953,23.0828882 L0.984240928,23.0828882 L0.627408651,20.4840453 Z" id="Combined-Shape" fill="url(#linearGradient-18)" opacity="0.6" style="mix-blend-mode: multiply;"></path>
                            <polygon id="Path-11" fill="url(#linearGradient-19)" opacity="0.426171875" style="mix-blend-mode: color-burn;" points="25.0131648 60.7048266 28.7603706 60.7048266 32.027779 20.4871139 24.1138033 20.4871139"></polygon>
                        </g>
                    </g>
                </g>
            </g>
        </g>
    </g>
</svg>