<?xml version="1.0" encoding="UTF-8"?>
<svg width="24px" height="24px" viewBox="0 0 24 24" version="1.1" xmlns="http://www.w3.org/2000/svg" xmlns:xlink="http://www.w3.org/1999/xlink">
    <!-- Generator: Sketch 52.2 (67145) - http://www.bohemiancoding.com/sketch -->
    <title>form_icon_location</title>
    <desc>Created with Sketch.</desc>
    <g id="180816-创建表单" stroke="none" stroke-width="1" fill="none" fill-rule="evenodd">
        <g id="创建表单-全部字段（更新中）" transform="translate(-325.000000, -1386.000000)" fill="#D2D5DB" fill-rule="nonzero" stroke="#BABABA" stroke-width="0.1">
            <g id="04单行文本" transform="translate(0.000000, 1331.000000)">
                <g id="lis01" transform="translate(15.000000, 47.000000)">
                    <g id="form_icon_location" transform="translate(311.000000, 9.000000)">
                        <path d="M11.6271268,14.9091216 C11.6271268,14.555344 11.3446475,14.2653563 11.0000299,14.2653563 C10.6553824,14.2653563 10.372933,14.555344 10.372933,14.9091216 L10.372933,19.031941 C6.5435161,18.7199017 3.48231614,15.5749386 3.17605255,11.6437346 L6.90973401,11.6437346 C7.25435161,11.6437346 7.53683094,11.3538084 7.53683094,11 C7.53683094,10.6462224 7.25435161,10.3562346 6.90973401,10.3562346 L3.17605255,10.3562346 C3.48001251,6.42503071 6.5435161,3.28252457 10.372933,2.96808968 L10.372933,7.09087838 C10.372933,7.44465602 10.6553824,7.73464373 11.0000299,7.73464373 C11.3446475,7.73464373 11.6271268,7.44465602 11.6271268,7.09087838 L11.6271268,2.96808968 C15.4565437,3.28012899 18.5176539,6.42503071 18.8239774,10.3562346 L15.0927192,10.3562346 C14.7480717,10.3562346 14.4656522,10.6462224 14.4656522,11 C14.4656522,11.3538084 14.7480717,11.6437346 15.0927192,11.6437346 L18.8264306,11.6437346 C18.5199875,15.5749386 15.4565437,18.7199017 11.6271268,19.031941 L11.6271268,14.9091216 Z M20.082958,10.3562346 C19.7741814,5.71253071 16.1482322,1.99259828 11.6271268,1.67564496 L11.6271268,0.643765356 C11.6271268,0.289957002 11.3446475,0 11.0000299,0 C10.6553824,0 10.372933,0.289957002 10.372933,0.643765356 L10.372933,1.67564496 C5.85188751,1.99259828 2.22578873,5.71492629 1.91707191,10.3562346 L0.627096932,10.3562346 C0.282449413,10.3562346 0,10.6462224 0,11 C0,11.3538084 0.282449413,11.6437346 0.627096932,11.6437346 L1.91707191,11.6437346 C2.22578873,16.2849509 5.85188751,20.0074017 10.372933,20.3243857 L10.372933,21.3562346 C10.372933,21.710043 10.6553824,22 11.0000299,22 C11.3446475,22 11.6271268,21.710043 11.6271268,21.3562346 L11.6271268,20.3243857 C16.1482322,20.0074017 19.7741814,16.2849509 20.082958,11.6437346 L21.3729031,11.6437346 C21.7176403,11.6437346 22,11.3538084 22,11 C22,10.6462224 21.7176403,10.3562346 21.3729031,10.3562346 L20.082958,10.3562346 Z" id="Fill-1"></path>
                    </g>
                </g>
            </g>
        </g>
    </g>
</svg>