<?xml version="1.0" encoding="UTF-8"?>
<svg width="38px" height="37px" viewBox="0 0 38 37" version="1.1" xmlns="http://www.w3.org/2000/svg" xmlns:xlink="http://www.w3.org/1999/xlink">
    <!-- Generator: Sketch 49.1 (51147) - http://www.bohemiancoding.com/sketch -->
    <title>Group</title>
    <desc>Created with Sketch.</desc>
    <defs></defs>
    <g id="任务分派" stroke="none" stroke-width="1" fill="none" fill-rule="evenodd">
        <g id="A1.7_添加内容" transform="translate(-289.000000, -222.000000)" fill="#0A1735">
            <g id="添加内容" transform="translate(261.000000, 204.000000)">
                <g id="任务地点" transform="translate(29.000000, 18.500000)">
                    <g id="Group" transform="translate(-0.500000, 0.000000)">
                        <path d="M21.5354249,14.0643261 L26.985629,14.0643261 L26.985629,8.70780059 L21.5354249,8.70780059 L21.5354249,14.0643261 Z M20.5942983,25.3105448 L10.3821157,25.3105448 C9.02303811,25.3105448 8.003788,24.2912946 8.003788,22.9322171 L8.003788,7.133326 L9.53553772,7.133326 L9.53553772,23.1169709 C9.53553772,23.4566656 9.87536518,23.7965262 10.2150931,23.7965262 L20.5942983,23.7965262 L20.5942983,25.3105448 Z M26.796084,7.133326 L21.699767,7.133326 C20.6803842,7.133326 20.0008288,7.81284819 20.0008288,8.83209831 L20.0008288,13.9285811 C20.0008288,14.9478313 20.6803842,15.6273535 21.699767,15.6273535 L26.796084,15.6273535 C27.8154668,15.6273535 28.4948563,14.9478313 28.4948563,13.9285811 L28.4948563,8.83209831 C28.4948563,7.81284819 27.8154668,7.133326 26.796084,7.133326 Z" id="Fill-1"></path>
                        <path d="M21.5324754,26.3027879 L26.9749786,26.3027879 L26.9749786,20.920757 L21.5324754,20.920757 L21.5324754,26.3027879 Z M26.8019352,19.3647587 L21.7054855,19.3647587 C20.6862354,19.3647587 20.0067132,20.0442809 20.0067132,21.063531 L20.0067132,26.1599807 C20.0067132,27.1792308 20.6862354,27.8587862 21.7054855,27.8587862 L26.8019352,27.8587862 C27.8211853,27.8587862 28.5007407,27.1792308 28.5007407,26.1599807 L28.5007407,21.063531 C28.5007407,20.0442809 27.6514043,19.3647587 26.8019352,19.3647587 Z M9.53264658,13.0502535 L21.2544377,13.0502535 L21.2544377,11.5502535 L9.53264658,11.5502535 L9.53264658,13.0502535 Z" id="Fill-4"></path>
                    </g>
                </g>
            </g>
        </g>
    </g>
</svg>