<?xml version="1.0" encoding="UTF-8"?>
<svg width="39px" height="37px" viewBox="0 0 39 37" version="1.1" xmlns="http://www.w3.org/2000/svg" xmlns:xlink="http://www.w3.org/1999/xlink">
    <!-- Generator: Sketch 49.1 (51147) - http://www.bohemiancoding.com/sketch -->
    <title>Group</title>
    <desc>Created with Sketch.</desc>
    <defs></defs>
    <g id="任务分派" stroke="none" stroke-width="1" fill="none" fill-rule="evenodd">
        <g id="A1.7_添加内容" transform="translate(-168.000000, -222.000000)" stroke="#0A1735" stroke-width="1.5">
            <g id="添加内容" transform="translate(140.500000, 204.000000)">
                <g id="任务地点" transform="translate(29.000000, 18.500000)">
                    <g id="Group" transform="translate(-0.500000, -0.000000)">
                        <path d="M7,14.2985031 L7,20.2628295 C7,21.3610211 8.0708704,22.6302668 9.16906194,22.6302668 L11.5252144,22.6302668 C11.9326559,22.6302668 12.3305945,22.5661215 12.6643877,22.7995392 L20.4437889,28.1616123 C21.7534224,28.481745 23.0363287,27.4762078 23.0363287,26.1285622 L23.0363287,8.5082006 C23.0363287,7.16055505 21.7534224,6.16867842 20.4437889,6.48881106 L12.6525089,12.0623262 C12.3181218,12.2963378 11.9326559,12.5333191 11.5246204,12.5333191 L9.16906194,12.5333191 C8.0708704,12.5333191 7,13.2003116 7,14.2985031 L7,14.2985031 Z" id="Shape"></path>
                        <path d="M27.0436291,11.3204975 C30.6120092,14.8888776 30.6120092,19.6807702 27.0436291,23.2497443" id="Shape"></path>
                    </g>
                </g>
            </g>
        </g>
    </g>
</svg>