<?xml version="1.0" encoding="UTF-8"?>
<svg width="24px" height="24px" viewBox="0 0 24 24" version="1.1" xmlns="http://www.w3.org/2000/svg" xmlns:xlink="http://www.w3.org/1999/xlink">
    <!-- Generator: Sketch 51.3 (57544) - http://www.bohemiancoding.com/sketch -->
    <title>ic_a-form_telephone</title>
    <desc>Created with Sketch.</desc>
    <defs></defs>
    <g id="Page-1" stroke="none" stroke-width="1" fill="none" fill-rule="evenodd">
        <g id="创建表单" transform="translate(-41.000000, -287.000000)">
            <g id="03" transform="translate(8.000000, 268.000000)">
                <g id="电话">
                    <g id="ic_a-form_telephone" transform="translate(32.000000, 18.000000)">
                        <rect id="Rectangle-4" fill="#FFF1F1" opacity="0" x="0" y="0" width="26" height="26"></rect>
                        <g id="电话" transform="translate(0.928571, 0.928571)" fill-rule="nonzero">
                            <rect id="Rectangle-path" fill="#000000" opacity="0" x="0" y="0" width="24.1428571" height="24.1428571"></rect>
                            <path d="M17.2573942,23.3851306 C15.764231,23.3851306 13.8365117,22.3903444 12.4822512,21.5557801 C10.6685895,20.438108 8.71474041,18.8920568 6.98064304,17.2024017 L6.97432927,17.1961699 L6.42369287,16.6454242 C4.73403778,14.9113541 3.18798657,12.9574778 2.07031441,11.1437887 C1.23577748,9.78955556 0.24096397,7.86180887 0.24096397,6.36867296 C0.24096397,4.77085439 1.38359053,3.07485822 1.87483384,2.41983979 C2.2581966,1.90869857 3.59742434,0.24096397 4.73534974,0.24096397 C5.20256797,0.24096397 5.7058375,0.546785005 6.36714236,1.23260692 C6.95199879,1.83911054 7.5133221,2.59293518 7.88121479,3.11850786 C8.37519134,3.82417302 8.83207796,4.56307426 9.16771853,5.19904208 C9.71127585,6.22895026 9.77414014,6.6705308 9.77414014,6.91310489 C9.77414014,7.40270828 9.51847387,7.82731547 9.01427503,8.17514622 C8.68224231,8.40419085 8.28365548,8.57660295 7.89818814,8.74332994 C7.63828535,8.85574766 7.22324448,9.03526619 7.0649085,9.16143205 C7.12011975,9.39539648 7.36160056,9.96040967 8.01404974,10.9182972 C8.62205661,11.8109426 9.40829737,12.7782872 10.1185544,13.5076494 C10.84778,14.2178518 11.8150425,15.0040925 12.7077973,15.6121267 C13.6654935,16.2644119 14.230534,16.5059201 14.4645531,16.561186 C14.5907463,16.4028227 14.7702648,15.9878091 14.8826826,15.7279337 C15.0494369,15.3424663 15.221849,14.9438521 15.4509483,14.6118194 C15.7988064,14.1076206 16.2234409,13.8519543 16.7130443,13.8519543 C16.9555911,13.8519543 17.3971716,13.9148186 18.4270798,14.4583759 C19.0630476,14.7940165 19.8019215,15.2509305 20.5075867,15.7448797 C21.0331594,16.1127723 21.786984,16.6740957 22.3934876,17.2589521 C23.0793095,17.9202296 23.3851306,18.4234991 23.3851306,18.8907174 C23.3851306,20.0286701 21.717396,21.3679252 21.2062821,21.7512606 C20.5512363,22.242504 18.8552675,23.3851306 17.2573942,23.3851306 Z M7.93754662,16.2267208 C9.60109935,17.8472252 11.4695077,19.3264216 13.1992045,20.3923537 C14.8762321,21.4258151 16.3554012,22.0185159 17.2573942,22.0185159 C18.0608543,22.0185159 19.2064054,21.5278465 20.321645,20.7059918 C20.8106198,20.3456702 21.2556168,19.9444048 21.574694,19.5760474 C21.8741467,19.2303759 21.9835578,19.0049118 22.0114368,18.9137586 C21.8957665,18.6652261 21.2084413,17.888005 19.6042543,16.7813477 C18.9750376,16.3472835 18.3244743,15.9483961 17.7724166,15.6581544 C17.0791877,15.2937329 16.7903947,15.230814 16.7241958,15.2204551 C16.6985855,15.2380297 16.622957,15.301222 16.508298,15.4935594 C16.3798089,15.7090745 16.2563216,15.9944783 16.1369342,16.2705072 C15.9899138,16.6103842 15.8378915,16.9617955 15.6514306,17.2453954 C15.3481515,17.7067099 14.9758036,17.9406743 14.5447734,17.9408383 C14.536929,17.940893 14.5288113,17.9407563 14.5205843,17.940565 C14.3107543,17.9360825 13.6721079,17.9224437 11.9384205,16.7416339 C10.9811616,16.0896494 9.9417964,15.2441795 9.15817953,14.4800233 L9.14598931,14.467833 C8.38183303,13.6840795 7.53641784,12.644769 6.88448798,11.6876468 C5.70354155,9.95385004 5.68993008,9.31525832 5.68547491,9.10542829 C5.67607261,8.66658099 5.90760445,8.28761872 6.3736474,7.97911912 C6.65858656,7.79049896 7.01294976,7.63724679 7.35561473,7.48902377 C7.63161624,7.36966365 7.91699272,7.24620368 8.13248052,7.11776922 C8.32479053,7.00313759 8.38803747,6.92750914 8.40561214,6.90189877 C8.39522588,6.83569995 8.33233426,6.54690694 7.9679128,5.85373264 C7.6776985,5.30167496 7.278811,4.6511117 6.84474683,4.02189496 C5.73808957,2.41768063 4.96084113,1.73038278 4.71230859,1.61465783 C4.6211554,1.64253676 4.39571862,1.75194794 4.05001979,2.05140056 C3.68166245,2.3705051 3.28039705,2.81550217 2.92010276,3.30444959 C2.09824802,4.41974383 1.60757867,5.56524028 1.60757867,6.36870039 C1.60757867,7.27066611 2.20030679,8.74980784 3.23374085,10.4268627 C4.29967297,12.156587 5.77889673,14.0249952 7.39940111,15.688548 L7.93754662,16.2267208 Z" id="Shape" stroke="#7B7D80" stroke-width="0.3" fill="#7B7D80"></path>
                        </g>
                    </g>
                </g>
            </g>
        </g>
    </g>
</svg>