<?xml version="1.0" encoding="UTF-8"?>
<svg width="18px" height="17px" viewBox="0 0 18 17" version="1.1" xmlns="http://www.w3.org/2000/svg" xmlns:xlink="http://www.w3.org/1999/xlink">
    <!-- Generator: Sketch 50.2 (55047) - http://www.bohemiancoding.com/sketch -->
    <title>ic_a-form_heart_off</title>
    <desc>Created with Sketch.</desc>
    <defs></defs>
    <g id="Page-1" stroke="none" stroke-width="1" fill="none" fill-rule="evenodd">
        <g id="ic_a-form_heart_off" fill="#FFA902" fill-rule="nonzero">
            <path d="M12.6017886,0 C11.8238438,0 11.0360227,0.1780642 10.3234992,0.5149495 C9.7713255,0.7760278 9.260938,1.1337092 8.8258966,1.5622716 C8.3908794,1.1337092 7.8804919,0.7760036 7.328294,0.5149253 C6.6157946,0.1780642 5.8279978,0 5.0500288,0 C3.6753822,0 2.4000322,0.5196329 1.4588983,1.4632176 C0.5181041,2.4064384 0,3.6844576 0,5.0618221 C0,8.4071619 2.8411402,11.0060785 7.1417124,14.9400395 L7.3154087,15.0989092 L8.8258723,16.4568123 L9.1217724,16.190808 L10.3335939,15.1014814 L10.5096925,14.9404035 C14.8105317,11.0062968 17.6518174,8.4072589 17.6518174,5.061822 C17.6518174,3.6844576 17.1337133,2.4064627 16.1929192,1.4632176 C15.2517852,0.5196572 13.9764352,0 12.6017886,0 Z"></path>
        </g>
    </g>
</svg>