<?xml version="1.0" encoding="UTF-8"?>
<svg width="44px" height="44px" viewBox="0 0 44 44" version="1.1" xmlns="http://www.w3.org/2000/svg" xmlns:xlink="http://www.w3.org/1999/xlink">
    <!-- Generator: Sketch 52.2 (67145) - http://www.bohemiancoding.com/sketch -->
    <title>ic_a-fkbx</title>
    <desc>Created with Sketch.</desc>
    <g id="ic_a-fkbx" stroke="none" stroke-width="1" fill="none" fill-rule="evenodd">
        <rect id="矩形" fill="#FCB105" fill-rule="nonzero" x="0" y="0" width="44" height="44" rx="4"></rect>
        <g id="分组" transform="translate(8.973333, 6.500000)">
            <path d="M23.1854317,28.540757 C22.6674334,28.1116179 21.8158092,28.1021798 21.283544,28.5201112 C21.2747644,28.5265999 21.2663506,28.5336785 21.257571,28.540757 L19.3297103,30.1245902 C19.304103,30.145531 19.2858121,30.1700112 19.2602049,30.1924267 L19.0443723,30.1924267 C19.0242523,30.1688314 19.0019374,30.1461209 18.978525,30.1245902 L17.0506643,28.540757 C16.5301054,28.1107331 15.6755546,28.1024747 15.142192,28.5218808 C15.1345098,28.5280746 15.1264618,28.5342683 15.1191454,28.540757 L13.1912848,30.1245902 C13.1678724,30.1461209 13.1455575,30.1688314 13.1254375,30.1924267 L12.9096049,30.1924267 C12.8839977,30.1700112 12.8657068,30.145531 12.8400995,30.1245902 L10.9122388,28.540757 C10.3942406,28.1116179 9.54261633,28.1021798 9.01035119,28.5201112 C9.00120574,28.5265999 8.99279192,28.5336785 8.98437811,28.540757 L7.05285923,30.1245902 C7.02944688,30.1461209 7.00749781,30.1688314 6.98664618,30.1924267 L6.7711794,30.1924267 C6.74557214,30.1700112 6.72764706,30.145531 6.70167398,30.1245902 L4.77381329,28.540757 C4.25581504,28.1116179 3.40419081,28.1021798 2.87155985,28.5201112 C2.86314603,28.5265999 2.85473222,28.5336785 2.84595259,28.540757 L1.11929178,29.9564739 C0.747254902,29.7355631 0.527398303,29.3851731 0.526666667,29.0126627 L0.526666667,1.37219068 C0.526666667,0.720666003 1.18184665,0.192426667 1.98993854,0.192426667 L24.0633948,0.192426667 C24.8714867,0.192426667 25.5266667,0.720666003 25.5266667,1.37219068 L25.5266667,29.0126627 C25.5255692,29.3901871 25.2998595,29.7441163 24.9194088,29.9644373 L23.1854317,28.540757 Z" id="Fill-2" fill="#FFFFFF"></path>
            <path d="M4.52666667,23.7061387 L15.8695238,23.7061387 C16.1456662,23.7061387 16.3695238,23.482281 16.3695238,23.2061387 L16.3695238,22.739472 C16.3695238,22.4633296 16.1456662,22.239472 15.8695238,22.239472 L4.52666667,22.239472 C4.25052429,22.239472 4.02666667,22.4633296 4.02666667,22.739472 L4.02666667,23.2061387 C4.02666667,23.482281 4.25052429,23.7061387 4.52666667,23.7061387 Z M4.52666667,19.9252672 L21.5266667,19.9252672 C21.802809,19.9252672 22.0266667,19.7014096 22.0266667,19.4252672 L22.0266667,18.9586006 C22.0266667,18.6824582 21.802809,18.4586006 21.5266667,18.4586006 L4.52666667,18.4586006 C4.25052429,18.4586006 4.02666667,18.6824582 4.02666667,18.9586006 L4.02666667,19.4252672 C4.02666667,19.7014096 4.25052429,19.9252672 4.52666667,19.9252672 Z" id="Fill-4" fill="#FCB105" opacity="0.400000006"></path>
            <polygon id="Fill-6" fill="#FCB105" points="11.4148 3.58613865 7.89186667 3.58613865 9.80146667 7.47632532 7.89186667 7.47632532 7.89186667 9.00664532 10.5788 9.00664532 11.2945333 10.600912 7.89186667 10.600912 7.89186667 12.1315253 11.4148 12.1315253 11.4148 15.319472 14.5798667 15.319472 14.5798667 12.1309387 18.1614667 12.1309387 18.1614667 10.6003253 14.7588 10.6003253 15.4745333 9.00605865 18.1614667 9.00605865 18.1614667 7.47573865 16.2518667 7.47573865 18.1614667 3.58613865 14.6385333 3.58613865 13.0868 7.53997865"></polygon>
        </g>
    </g>
</svg>