<?xml version="1.0" encoding="UTF-8"?>
<svg width="20px" height="19px" viewBox="0 0 20 19" version="1.1" xmlns="http://www.w3.org/2000/svg" xmlns:xlink="http://www.w3.org/1999/xlink">
    <!-- Generator: Sketch 52.2 (67145) - http://www.bohemiancoding.com/sketch -->
    <title>ic_a-form_datetime_small</title>
    <desc>Created with Sketch.</desc>
    <g id="180816-创建表单" stroke="none" stroke-width="1" fill="none" fill-rule="evenodd">
        <g id="创建表单-全部字段（更新中）" transform="translate(-328.000000, -1722.000000)">
            <g id="04单行文本" transform="translate(0.000000, 1664.000000)">
                <g id="ic_a-form_datetime_small" transform="translate(328.000000, 57.000000)">
                    <polygon id="mask" fill="#FFE8E8" opacity="0" points="0 0 20 0 20 20 0 20"></polygon>
                    <path d="M2.14285714,3.6858001 C1.6300213,3.6858001 1.21428571,4.10153569 1.21428571,4.61437153 L1.21428571,17.5073255 C1.21428571,18.0201613 1.6300213,18.4358969 2.14285714,18.4358969 L17.8571429,18.4358969 C18.3699787,18.4358969 18.7857143,18.0201613 18.7857143,17.5073255 L18.7857143,4.61437153 C18.7857143,4.10153569 18.3699787,3.6858001 17.8571429,3.6858001 L2.14285714,3.6858001 Z M2.14285714,2.47151438 L17.8571429,2.47151438 C19.0406102,2.47151438 20,3.4309042 20,4.61437153 L20,17.5073255 C20,18.6907928 19.0406102,19.6501826 17.8571429,19.6501826 L2.14285714,19.6501826 C0.959389822,19.6501826 1.44932947e-16,18.6907928 0,17.5073255 L0,4.61437153 C-1.44932947e-16,3.4309042 0.959389822,2.47151438 2.14285714,2.47151438 Z" id="Rectangle-4" fill="#D2D5DB" fill-rule="nonzero"></path>
                    <g id="Group-3" transform="translate(4.736894, 1.049899)" fill="#D2D5DB">
                        <rect id="Rectangle-5" x="0" y="0.303818681" width="1.81818182" height="3.61644835" rx="0.909090909"></rect>
                        <rect id="Rectangle-5" x="8.69858618" y="0.303818681" width="1.81818182" height="3.61644835" rx="0.909090909"></rect>
                    </g>
                    <g id="Group-4" transform="translate(10.505876, 11.113233) rotate(-298.000000) translate(-10.505876, -11.113233) translate(5.005876, 8.613233)" fill="#D2D5DB">
                        <path d="M3.67854284,0.036787072 L3.67854284,0.036787072 C4.07641883,0.036787072 4.40222881,0.353057136 4.41404936,0.750757491 L4.53595111,4.85212219 C4.54732787,5.23489138 4.24625483,5.55440979 3.86348565,5.56578655 C3.85662106,5.56599058 3.84975382,5.56609261 3.8428862,5.56609261 L3.8428862,5.56609261 C3.44501022,5.56609261 3.11920023,5.24982255 3.10737969,4.85212219 L2.98547793,0.750757491 C2.97410117,0.367988309 3.27517422,0.0484698938 3.6579434,0.0370931353 C3.66480799,0.0368891044 3.67167522,0.036787072 3.67854284,0.036787072 Z" id="Rectangle-6" transform="translate(3.760715, 2.801440) rotate(-240.000000) translate(-3.760715, -2.801440) "></path>
                        <path d="M7.76510925,-0.523151625 L7.76510925,-0.523151625 C8.15430391,-0.523151625 8.46980852,-0.207647012 8.46980852,0.181547651 C8.46980852,0.184721506 8.46978708,0.187895325 8.4697442,0.19106889 L8.40486942,4.99223386 C8.39951848,5.38823836 8.07697359,5.70645437 7.68093294,5.70645437 L7.68093294,5.70645437 C7.29173828,5.70645437 6.97623366,5.39094976 6.97623366,5.0017551 C6.97623366,4.99858124 6.97625511,4.99540742 6.97629799,4.99223386 L7.04117277,0.19106889 C7.0465237,-0.204935614 7.36906859,-0.523151625 7.76510925,-0.523151625 Z" id="Rectangle-6" transform="translate(7.723021, 2.591651) rotate(-120.000000) translate(-7.723021, -2.591651) "></path>
                    </g>
                </g>
            </g>
        </g>
    </g>
</svg>