<?xml version="1.0" encoding="UTF-8"?>
<svg width="44px" height="44px" viewBox="0 0 44 44" version="1.1" xmlns="http://www.w3.org/2000/svg" xmlns:xlink="http://www.w3.org/1999/xlink">
    <!-- Generator: Sketch 52.2 (67145) - http://www.bohemiancoding.com/sketch -->
    <title>ic_a-qyhd</title>
    <desc>Created with Sketch.</desc>
    <g id="ic_a-qyhd" stroke="none" stroke-width="1" fill="none" fill-rule="evenodd">
        <rect id="矩形" fill="#63C422" fill-rule="nonzero" x="0" y="0" width="44" height="44" rx="4"></rect>
        <g id="分组" transform="translate(6.000000, 7.000000)">
            <g transform="translate(0.746667, 0.040000)">
                <path d="M3.34189052,5.23264798 L11.715704,28.5296587 C11.8799707,28.9843253 11.750904,29.4507253 11.4282373,29.570992 L10.5570373,29.8936587 C10.2343707,30.0139253 9.841304,29.738192 9.67703733,29.2835253 L1.31831189,6.02559617 C0.90530164,6.14873978 0.521108769,6.0709444 0.434397333,5.83445867 L0.099704,4.90752533 C0.0615706667,4.807792 0.099704,3.94245867 1.43143733,3.443792 C2.766104,2.94512533 3.317864,3.59045867 3.35277067,3.690192 L3.690104,4.61712533 C3.76127745,4.81002535 3.61256447,5.05320428 3.34189052,5.23264798 Z" id="Fill-2" fill="#FFFFFF"></path>
                <path d="M5.62032533,3.804592 C5.62032533,3.804592 4.53792533,4.81072533 4.746192,5.56165867 C5.09232533,6.79072533 9.542192,18.7352587 9.542192,18.7352587 C9.542192,18.7352587 9.911792,20.4248587 11.2552587,19.2251253 C13.0354987,17.6323253 15.1122987,15.0568587 17.8200587,16.0043253 C21.870992,17.418192 25.505392,16.9283253 27.731792,14.5875253 C29.3979253,12.8392587 30.3571253,8.53605867 30.4040587,7.658992 C30.468592,6.46805867 30.8088587,0.624858667 29.7528587,0.290458667 C29.5680587,0.865392 29.0019253,1.674992 26.4851253,2.634192 C25.742992,2.91872533 22.275792,3.16805867 18.6912587,1.60752533 C14.2789387,-0.274501333 9.17464533,0.583498667 5.62032533,3.804592" id="Fill-4" fill="#FFFFFF"></path>
                <path d="M25.2266667,11.1466667 C25.2178667,11.1408 26.7197333,10.2842667 27.28,9.38666667 C27.7563733,8.57882667 28.05616,7.67888 28.16,6.74666667 C28.1998933,6.25856 28.1998933,5.76810667 28.16,5.28 C28.16,5.28 27.3093333,6.83466667 26.4,7.04 C25.72592,7.20074667 25.03864,7.29901333 24.3466667,7.33333333 L25.2266667,11.1466667 Z M8.7912,9.26933333 C8.7912,9.26933333 8.74426667,8.77066667 9.97333333,7.92 C10.6245333,7.47296 11.3112267,7.08077333 12.0266667,6.74666667 L13.2,10.2666667 C13.2,10.2666667 12.3112,10.7829333 11.5338667,11.3256 C10.97096,11.72512 10.4749333,12.2111733 10.0642667,12.7658667 L8.7912,9.26933333 Z M13.2,10.2666667 C13.948,9.95338667 14.73912,9.75568 15.5466667,9.68 C16.1306933,9.60373333 16.72264,9.60373333 17.3066667,9.68 L19.0666667,14.3733333 C19.0666667,14.3733333 17.8229333,14.1122667 16.8138667,13.9890667 C15.5437333,13.8365333 14.96,14.3733333 14.96,14.3733333 L13.2,10.2666667 Z M24.3466667,7.33333333 C23.7629333,7.41370667 23.1704,7.41370667 22.5866667,7.33333333 C21.6245333,7.15146667 20.24,6.16 20.24,6.16 L19.4949333,3.38213333 C19.4949333,3.38213333 20.9410667,4.41466667 21.7066667,4.69333333 C22.36872,4.91098667 23.0636267,5.01013333 23.76,4.98666667 L24.3466667,7.33333333 Z M25.8133333,13.7866667 C25.8133333,13.7866667 25.2821067,14.7634667 24.3466667,14.6666667 C23.7541333,14.60624 23.1665867,14.5082667 22.5866667,14.3733333 L21.4133333,10.56 C21.4133333,10.56 22.7656,11.3373333 23.76,11.44 C24.2680533,11.5148 24.7863733,11.4112533 25.2266667,11.1466667 L25.8133333,13.7866667 Z M15.84,5.57333333 C15.84,5.57333333 17.5882667,5.38266667 18.48,5.57333333 C19.0816267,5.69477333 19.6580267,5.918 20.18456,6.23333333 L21.4133333,10.56 C20.78824,10.14376 20.0924533,9.84544 19.36,9.68 C18.67888,9.58466667 17.9877867,9.58466667 17.3066667,9.68 L15.84,5.57333333 Z M10.6887733,2.98026667 C11.2241067,2.56813333 11.8292533,2.25602667 12.4754667,2.0592 C13.1090667,1.92074667 13.76496,1.91781333 14.3997333,2.0504 L15.84,5.57333333 C15.202,5.63728 14.57104,5.75696 13.9538667,5.9312 C13.2812533,6.12538667 12.6344533,6.39936 12.0266667,6.74666667 L10.6887733,2.98026667 Z" id="Fill-6" fill="#63C422" opacity="0.5"></path>
            </g>
        </g>
    </g>
</svg>