<?xml version="1.0" encoding="UTF-8"?>
<svg width="24px" height="29px" viewBox="0 0 24 29" version="1.1" xmlns="http://www.w3.org/2000/svg" xmlns:xlink="http://www.w3.org/1999/xlink">
    <!-- Generator: Sketch 51.3 (57544) - http://www.bohemiancoding.com/sketch -->
    <title>ic_a-form_location</title>
    <desc>Created with Sketch.</desc>
    <defs></defs>
    <g id="Page-1" stroke="none" stroke-width="1" fill="none" fill-rule="evenodd">
        <g id="创建表单" transform="translate(-131.000000, -286.000000)">
            <g id="03" transform="translate(8.000000, 268.000000)">
                <g id="地理位置" transform="translate(90.000000, 0.000000)">
                    <g id="ic_a-form_location" transform="translate(31.000000, 18.000000)">
                        <rect id="Rectangle-4" fill="#FFF1F1" opacity="0" x="0" y="0" width="28" height="28"></rect>
                        <g id="Group" transform="translate(1.641751, 0.025510)" fill="#7B7D80" fill-rule="nonzero">
                            <path d="M17.4694071,20.6327411 C19.033048,19.0687945 19.033048,19.0687945 19.3474732,18.7543022 C21.1666162,16.9364155 22.2061822,14.4784422 22.2061822,11.8531407 C22.2061822,9.22796045 21.1667112,6.76989088 19.3472655,4.95044516 C17.5278198,3.13099945 15.0697502,2.09152847 12.44457,2.09152847 C9.81926848,2.09152847 7.36129517,3.1310945 5.5432009,4.95044516 C3.72313434,6.77051172 2.68295776,9.22873151 2.68295776,11.8531407 C2.68295776,14.4774701 3.7230829,16.9357113 5.54267032,18.755173 L12.4453086,25.6578113 C15.2898057,22.812765 15.4170584,22.6854876 17.4694071,20.6327411 Z M0.982957756,11.8531407 C0.982957756,8.77313361 2.20546423,5.88401878 4.3409118,3.74857128 C6.47456627,1.61344228 9.36368675,0.391528469 12.44457,0.391528469 C15.5252078,0.391528469 18.4142205,1.61323711 20.549347,3.74836363 C22.6844736,5.88349016 23.9061822,8.77250284 23.9061822,11.8531407 C23.9061822,14.9340239 22.6842684,17.8231444 20.5505201,19.9554159 C20.2348781,20.2711282 20.2348781,20.2711282 18.6716055,21.8347057 C16.4835916,24.0231438 16.4835916,24.0231438 13.0464644,27.460933 L12.4454237,28.0620894 L4.34060955,19.9572753 C2.20541317,17.8222264 0.982957756,14.9330642 0.982957756,11.8531407 Z" id="Combined-Shape"></path>
                            <path d="M18.0551779,10.8942888 C18.0551779,12.4027246 17.4563045,13.8178404 16.4120697,14.86015 C15.3686522,15.9054927 13.9535364,16.5043661 12.4451006,16.5043661 C10.9366647,16.5043661 9.52154896,15.9054927 8.47923933,14.8612579 C7.43389667,13.8178404 6.83502323,12.4027246 6.83502323,10.8942888 C6.83502323,9.38585294 7.43389667,7.97073719 8.47813142,6.92842756 C9.52154896,5.88308489 10.9366647,5.28421145 12.4451006,5.28421145 C13.9532697,5.28421145 15.3681517,5.88287314 16.4115162,6.92787313 C17.4565162,7.9712376 18.0551779,9.38611965 18.0551779,10.8942888 Z M15.2088808,8.12940067 C14.481316,7.40049355 13.4976568,6.98421145 12.4451006,6.98421145 C11.3925443,6.98421145 10.4088851,7.40049355 9.68021244,8.13050857 C8.95130533,8.85807332 8.53502323,9.8417325 8.53502323,10.8942888 C8.53502323,11.9468451 8.95130533,12.9305043 9.68132035,13.6591769 C10.4088851,14.388084 11.3925443,14.8043661 12.4451006,14.8043661 C13.4976568,14.8043661 14.481316,14.388084 15.2099887,13.658069 C15.9388958,12.9305043 16.3551779,11.9468451 16.3551779,10.8942888 C16.3551779,9.8417325 15.9388958,8.85807332 15.2099887,8.13050857 L15.8104752,7.52891411 L15.2088808,8.12940067 Z" id="Fill-6"></path>
                        </g>
                    </g>
                </g>
            </g>
        </g>
    </g>
</svg>