<?xml version="1.0" encoding="UTF-8"?>
<svg width="23px" height="23px" viewBox="0 0 23 23" version="1.1" xmlns="http://www.w3.org/2000/svg" xmlns:xlink="http://www.w3.org/1999/xlink">
    <!-- Generator: Sketch 51.3 (57544) - http://www.bohemiancoding.com/sketch -->
    <title>ic_a-form_star_on copy 2</title>
    <desc>Created with Sketch.</desc>
    <defs></defs>
    <g id="Page-1" stroke="none" stroke-width="1" fill="none" fill-rule="evenodd">
        <g id="创建表单-全部字段（更新中）" transform="translate(-158.000000, -1713.000000)">
            <g id="04单行文本" transform="translate(0.000000, 1662.000000)">
                <g id="ic_a-form_star_on-copy-2" transform="translate(158.555556, 52.000000)">
                    <rect id="Rectangle-9" fill="#D8D8D8" fill-rule="nonzero" opacity="0" x="0" y="0" width="22" height="22"></rect>
                    <path d="M10.8011855,18.3455975 L4.67026384,21.0015777 C4.4168765,21.1113478 4.12247925,20.994923 4.01270918,20.7415357 C3.97920757,20.6642023 3.96579719,20.5796555 3.97372411,20.495751 L4.60279512,13.8371898 C4.61577245,13.699828 4.57141204,13.5632091 4.48021476,13.459673 L0.0609985456,8.44254433 C-0.121525226,8.2353254 -0.101505848,7.91937652 0.10571308,7.73685274 C0.168833825,7.68125436 0.244961059,7.6424789 0.327047636,7.62411584 L6.84761918,6.16543995 C6.98240018,6.13528895 7.09870658,6.05073069 7.16895564,5.93181866 L10.5694514,0.175729686 C10.7099077,-0.062023616 11.0165072,-0.140898401 11.2542605,-0.000442078172 C11.3269088,0.0424760025 11.3875142,0.103081369 11.4304323,0.175729686 L14.830928,5.93181866 C14.9011771,6.05073069 15.0174835,6.13528895 15.1522645,6.16543995 L21.672836,7.62411584 C21.9423178,7.68439991 22.1119061,7.95172797 22.051622,8.22120977 C22.0332589,8.30329635 21.9944835,8.37942358 21.9388851,8.44254433 L17.5196689,13.459673 C17.4284716,13.5632091 17.3841112,13.699828 17.3970885,13.8371898 L18.0261595,20.495751 C18.0521326,20.7706692 17.8503227,21.0145897 17.5754045,21.0405628 C17.4915,21.0484897 17.4069531,21.0350793 17.3296198,21.0015777 L11.1986981,18.3455975 C11.0718879,18.290662 10.9279957,18.290662 10.8011855,18.3455975 Z" id="Combined-Shape" fill="#D3D5DC"></path>
                </g>
            </g>
        </g>
    </g>
</svg>