<?xml version="1.0" encoding="UTF-8"?>
<svg width="44px" height="44px" viewBox="0 0 44 44" version="1.1" xmlns="http://www.w3.org/2000/svg" xmlns:xlink="http://www.w3.org/1999/xlink">
    <!-- Generator: Sketch 52.2 (67145) - http://www.bohemiancoding.com/sketch -->
    <title>ic_a-kqdk</title>
    <desc>Created with Sketch.</desc>
    <g id="ic_a-kqdk" stroke="none" stroke-width="1" fill="none" fill-rule="evenodd">
        <rect id="矩形" fill="#01CAC5" fill-rule="nonzero" x="0" y="0" width="44" height="44" rx="4"></rect>
        <path d="M10,9 L34,9 C35.1045695,9 36,9.8954305 36,11 L36,33 C36,34.1045695 35.1045695,35 34,35 L10,35 C8.8954305,35 8,34.1045695 8,33 L8,11 C8,9.8954305 8.8954305,9 10,9 Z" id="矩形" fill="#FFFFFF" fill-rule="nonzero"></path>
        <g id="分组" transform="translate(10.000000, 11.000000)" fill="#01CAC5">
            <path d="M12,1.90666667 C17.02216,1.90666667 21.0933333,5.97784 21.0933333,11 C21.0933333,16.02216 17.02216,20.0933333 12,20.0933333 C6.97784,20.0933333 2.90666667,16.02216 2.90666667,11 C2.90666667,5.97784 6.97784,1.90666667 12,1.90666667" id="Fill-4" opacity="0.100000001"></path>
            <path d="M14.2304308,11.0923694 L14.2304308,6.92394167 C14.2304308,6.64779929 14.4542885,6.42394167 14.7304308,6.42394167 L14.9037642,6.42394167 C15.1799066,6.42394167 15.4037642,6.64779929 15.4037642,6.92394167 L15.4037642,11.7305476 L15.396479,11.7305476 L12.2894938,13.7573829 C12.281896,13.7623393 12.2741648,13.7670879 12.2663087,13.7716236 C12.0271624,13.9096948 11.7213672,13.8277573 11.583296,13.5886109 L11.4973708,13.4397841 C11.3645838,13.2097902 11.4347685,12.9161139 11.6571985,12.7710121 L14.2304308,11.0923694 Z" id="合并形状" transform="translate(13.417044, 10.131318) scale(-1, 1) translate(-13.417044, -10.131318) "></path>
            <path d="M11.7066667,18.7733333 L11.7066667,17.6 L12.2933333,17.6 L12.2933333,18.7733333 L11.7066667,18.7733333 Z M11.7066667,4.4 L11.7066667,3.22666667 L12.2933333,3.22666667 L12.2933333,4.4 L11.7066667,4.4 Z M4.08,11.1466667 L4.08,10.56 L5.25333333,10.56 L5.25333333,11.1466667 L4.08,11.1466667 Z M18.7466667,11.1466667 L18.7466667,10.56 L19.92,10.56 L19.92,11.1466667 L18.7466667,11.1466667 Z M6.60712533,5.045392 L7.436672,5.87493867 L7.02189867,6.289712 L6.192352,5.46016533 L6.60712533,5.045392 Z M16.9779253,15.416192 L17.8077653,16.2457387 L17.3926987,16.660512 L16.563152,15.8309653 L16.9779253,15.416192 Z M6.19205867,16.2459147 L7.02160533,15.416368 L7.43637867,15.8311413 L6.606832,16.660688 L6.19205867,16.2459147 Z M16.5628587,5.87511467 L17.3924053,5.045568 L17.807472,5.46034133 L16.977632,6.289888 L16.5628587,5.87511467 Z" id="合并形状" opacity="0.5"></path>
        </g>
    </g>
</svg>