<?xml version="1.0" encoding="UTF-8"?>
<svg width="44px" height="44px" viewBox="0 0 44 44" version="1.1" xmlns="http://www.w3.org/2000/svg" xmlns:xlink="http://www.w3.org/1999/xlink">
    <!-- Generator: Sketch 52.2 (67145) - http://www.bohemiancoding.com/sketch -->
    <title>ic_a-qjcc</title>
    <desc>Created with Sketch.</desc>
    <g id="ic_a-qjcc" stroke="none" stroke-width="1" fill="none" fill-rule="evenodd">
        <rect id="矩形" fill="#FF3F3F" fill-rule="nonzero" x="0" y="0" width="44" height="44" rx="4"></rect>
        <rect id="矩形" fill="#FF7738" fill-rule="nonzero" x="0" y="0" width="44" height="44" rx="4"></rect>
        <g id="分组-5" transform="translate(6.000000, 8.500000)">
            <rect id="矩形" fill="#FFFFFF" fill-rule="nonzero" x="-2.84217094e-14" y="0.5" width="32" height="26" rx="2"></rect>
            <path d="M9.53172221,14.956798 L7.42145554,14.956798 C7.34411695,12.412274 8.75591273,10.4560521 11.3624403,10.4560521 C13.3485195,10.4560521 15.0860091,11.7600706 15.0860091,13.9388719 C15.0860091,17.310603 11.5952574,17.5810217 10.0125623,19.871189 L15.1479269,19.871189 L15.1479269,21.8114459 L7.17333489,21.8114459 C7.17333489,19.2191798 8.72483657,18.1536086 10.6021689,16.8335975 C11.5485259,16.1496307 12.8828658,15.4815456 12.8828658,14.1138895 C12.8828658,13.0482212 12.2002848,12.396212 11.2539082,12.396212 C9.9505272,12.396212 9.53172221,13.779944 9.53172221,14.956798 Z M19.9525552,16.6416718 L19.9525552,15.083588 C20.9117336,15.1614984 22.2953067,14.974469 22.2953067,13.7279298 C22.2953067,12.7932126 21.5563977,12.2789649 20.7387625,12.2789649 C19.6067499,12.2789649 19.0250393,13.1047572 19.0406947,14.22649 L16.917978,14.22649 C16.9966847,11.9828303 18.4432116,10.4560521 20.7230094,10.4560521 C22.4840309,10.4560521 24.4179061,11.531083 24.4179061,13.4788022 C24.4179061,14.5228187 23.8989147,15.4108201 22.8770172,15.7068576 L22.8770172,15.7380522 C24.0877561,16.002895 24.8266651,16.9844111 24.8266651,18.2154432 C24.8266651,20.5057214 22.8770172,21.7989625 20.7387625,21.7989625 C18.2703577,21.7989625 16.6036984,20.3342963 16.6506449,17.8259049 L18.7732443,17.8259049 C18.8206598,19.0100408 19.4180257,19.9761468 20.7072368,19.9761468 C21.7134789,19.9761468 22.4996862,19.3060783 22.4996862,18.2619647 C22.4996862,16.6104632 21.0373868,16.6416718 19.9525552,16.6416718 Z" id="合并形状" fill="#FF7738" opacity="0.8"></path>
            <polygon id="矩形" fill="#EE6F60" fill-rule="nonzero" opacity="0.300000012" points="-2.84217094e-14 5.26081433 32 5.26081433 32 6.76081433 -2.84217094e-14 6.76081433"></polygon>
        </g>
        <path d="M13.716883,12.4619984 C13.1645983,12.4619984 12.716883,12.0142832 12.716883,11.4619984 C12.716883,10.9097137 13.1645983,10.4619984 13.716883,10.4619984 C14.2691678,10.4619984 14.716883,10.9097137 14.716883,11.4619984 C14.716883,12.0142832 14.2691678,12.4619984 13.716883,12.4619984 Z M30.283117,12.4619984 C29.7308322,12.4619984 29.283117,12.0142832 29.283117,11.4619984 C29.283117,10.9097137 29.7308322,10.4619984 30.283117,10.4619984 C30.8354017,10.4619984 31.283117,10.9097137 31.283117,11.4619984 C31.283117,12.0142832 30.8354017,12.4619984 30.283117,12.4619984 Z" id="合并形状" fill="#FFEFEE" fill-rule="nonzero"></path>
    </g>
</svg>