<?xml version="1.0" encoding="UTF-8"?>
<svg width="26px" height="25px" viewBox="0 0 26 25" version="1.1" xmlns="http://www.w3.org/2000/svg" xmlns:xlink="http://www.w3.org/1999/xlink">
    <!-- Generator: Sketch 51.3 (57544) - http://www.bohemiancoding.com/sketch -->
    <title>ic_a-form_pic</title>
    <desc>Created with Sketch.</desc>
    <defs></defs>
    <g id="Page-1" stroke="none" stroke-width="1" fill="none" fill-rule="evenodd">
        <g id="创建表单" transform="translate(-40.000000, -475.000000)">
            <g id="03" transform="translate(8.000000, 456.000000)">
                <g id="图片">
                    <g id="ic_a-form_pic" transform="translate(32.000000, 18.000000)">
                        <rect id="mask" fill="#FFE8E8" opacity="0" x="0" y="0" width="26" height="26"></rect>
                        <path d="M2.78571429,3.41243706 C2.11902769,3.41243706 1.57857143,3.95289333 1.57857143,4.61957992 L1.57857143,22.2624371 C1.57857143,22.9291237 2.11902769,23.4695799 2.78571429,23.4695799 L23.2142857,23.4695799 C23.8809723,23.4695799 24.4214286,22.9291237 24.4214286,22.2624371 L24.4214286,4.61957992 C24.4214286,3.95289333 23.8809723,3.41243706 23.2142857,3.41243706 L2.78571429,3.41243706 Z M2.78571429,1.83386564 L23.2142857,1.83386564 C24.7527932,1.83386564 26,3.0810724 26,4.61957992 L26,22.2624371 C26,23.8009446 24.7527932,25.0481513 23.2142857,25.0481513 L2.78571429,25.0481513 C1.24720677,25.0481513 1.88412831e-16,23.8009446 0,22.2624371 L0,4.61957992 C-1.88412831e-16,3.0810724 1.24720677,1.83386564 2.78571429,1.83386564 Z" id="Rectangle-4" fill="#7B7D80" fill-rule="nonzero"></path>
                        <circle id="Oval-3" fill="#A7A7A7" cx="10.0773739" cy="8.63468052" r="2.0107494"></circle>
                        <path d="M1.19441614,19.4377936 L0.13067694,18.1485564 L5.70741897,13.5472314 C6.51556747,12.8804346 7.67906295,12.8666134 8.50282289,13.5140249 L13.5544793,17.4842352 C13.7506974,17.6384474 14.0255294,17.6433631 14.2271367,17.4962664 L24.3410639,10.1169465 L25.3262224,11.4671821 L15.2122952,18.8465021 C14.4058659,19.4348887 13.3065378,19.415226 12.5216656,18.7983772 L7.47000915,14.8281669 C7.26406916,14.666314 6.97319529,14.6697693 6.77115816,14.8364685 L1.19441614,19.4377936 Z" id="Path-3" fill="#7B7D80" fill-rule="nonzero"></path>
                    </g>
                </g>
            </g>
        </g>
    </g>
</svg>