<?xml version="1.0" encoding="UTF-8"?>
<svg width="44px" height="44px" viewBox="0 0 44 44" version="1.1" xmlns="http://www.w3.org/2000/svg" xmlns:xlink="http://www.w3.org/1999/xlink">
    <!-- Generator: Sketch 52.2 (67145) - http://www.bohemiancoding.com/sketch -->
    <title>ic_a-spss</title>
    <desc>Created with Sketch.</desc>
    <g id="ic_a-spss" stroke="none" stroke-width="1" fill="none" fill-rule="evenodd">
        <rect id="矩形" fill="#FF5955" fill-rule="nonzero" x="0" y="0" width="44" height="44" rx="4"></rect>
        <g id="分组" transform="translate(8.000000, 7.000000)">
            <g transform="translate(-0.000000, 0.000000)">
                <path d="M27.1802667,5.41918755 L27.1802667,28.8591184 C27.1802667,29.4891703 26.6549067,30 26.0069333,30 L1.36693333,30 C0.71896,30 0.1936,29.4891703 0.1936,28.8591184 L0.1936,1.14088159 C0.1936,0.510829732 0.71896,0 1.36693333,0 L21.6069333,0 L27.1802667,5.41918755 Z" id="Fill-2" fill="#FFFFFF"></path>
                <polygon id="Fill-4" fill="#FF5955" opacity="0.200000003" points="21.0202667 1.17333333 26.3002667 6.45333333 21.0202667 6.45333333"></polygon>
                <g id="分组-2" transform="translate(7.714080, 10.774373)">
                    <path d="M7.03581536,0.66532928 C11.6353642,-0.56765632 16.3635338,2.16147008 17.5967658,6.76101888 C18.8297514,11.3605677 16.100625,16.0887373 11.5010762,17.3217229 C6.90152736,18.5547085 2.17311136,15.8255821 0.94012576,11.2260333 C0.94012576,11.2257869 0.93987936,11.2252941 0.93987936,11.2250477 C-0.29236704,6.62574528 2.43675936,1.89831488 7.03581536,0.66532928" id="Fill-6" fill="#FF5955"></path>
                    <path d="M7.32410336,1.73561696 C11.332785,0.66254496 15.4523466,3.04227616 16.5251722,7.05095776 C17.5982442,11.059393 15.2187594,15.1789546 11.2100778,16.2520266 C7.20188896,17.3248522 3.08306656,14.9461066 2.00925536,10.9381642 C0.93618336,6.92948256 3.31542176,2.80942816 7.32410336,1.73561696" id="Fill-8" fill="#FFFFFF"></path>
                    <path d="M14.88368,7.73405248 L15.765792,7.49800128 C15.83848,7.83729408 15.884064,8.18200768 15.901312,8.52869248 L14.98224,8.52869248 C14.9689344,8.26184128 14.9359168,7.99597568 14.88368,7.73405248 Z M13.5778093,5.12736224 L14.2209133,4.48351904 C14.4495725,4.74076064 14.6580269,5.01500384 14.8443053,5.30452384 L14.0558253,5.75913184 C13.9114349,5.53786464 13.7515213,5.32669984 13.5778093,5.12736224 Z M11.1408886,3.51287552 L11.3774326,2.63372032 C11.7036662,2.74361472 12.020783,2.87888832 12.3260726,3.03806272 L11.8702326,3.82407872 C11.6346742,3.70358912 11.3909846,3.59985472 11.1408886,3.51336832 L11.1408886,3.51287552 Z M8.221024,3.33408768 L7.98448,2.45320768 C8.3230336,2.38372288 8.6667616,2.34134208 9.011968,2.32655808 L9.011968,3.23651328 C8.7463488,3.25031168 8.4819616,3.28308288 8.221024,3.33458048 L8.221024,3.33408768 Z M4.95876192,3.99485856 C5.21551072,3.76201056 5.49073952,3.55059936 5.78173792,3.36234976 L6.24004192,4.15723616 C6.01680352,4.30261216 5.80440672,4.46400416 5.60432992,4.63993376 L4.95876192,3.99485856 Z M3.99770336,7.08170848 L3.11805536,6.84565728 C3.22696416,6.51819168 3.36125216,6.19984288 3.51993376,5.89332128 L4.30816736,6.34842208 C4.18743136,6.58545888 4.08369696,6.83062688 3.99770336,7.08220128 L3.99770336,7.08170848 Z M3.81783136,9.99543776 L2.93571936,10.231489 C2.86500256,9.89416736 2.82065056,9.55167136 2.80266336,9.20745056 L3.72173536,9.20745056 C3.73454816,9.47233056 3.76658016,9.73573216 3.81783136,9.99593056 L3.81783136,9.99543776 Z M5.12621536,12.6089779 L4.48064736,13.2530675 C4.25371296,12.9950867 4.04599776,12.7205971 3.85971936,12.4318163 L4.64819936,11.9769619 C4.79283616,12.1984755 4.95250336,12.4098867 5.12621536,12.6094707 L5.12621536,12.6089779 Z" id="合并形状" fill="#FFAD9E"></path>
                    <polyline id="Fill-42" fill="#FF5955" points="8.60794592 5.65492928 10.3130339 7.40806528 12.7794979 7.22375808 11.6066339 9.37975808 12.5281699 11.6367821 10.0986659 11.2164237 8.20384992 12.7958477 7.87367392 10.3811277 5.77927392 9.09984768 8.00672992 8.02702208 8.60794592 5.65591488"></polyline>
                </g>
                <path d="M15.1536,5.31637867 C15.47744,5.31637867 15.7402667,5.57920533 15.7402667,5.90304533 L15.7402667,7.07637867 C15.7402667,7.40021867 15.47744,7.66304533 15.1536,7.66304533 L3.7136,7.66304533 C3.38976,7.66304533 3.12693333,7.40021867 3.12693333,7.07637867 L3.12693333,5.90304533 C3.12693333,5.57920533 3.38976,5.31637867 3.7136,5.31637867 L15.1536,5.31637867 Z M21.0202667,11.4230453 C21.3441067,11.4230453 21.6069333,11.685872 21.6069333,12.009712 L21.6069333,13.1830453 C21.6069333,13.5068853 21.3441067,13.769712 21.0202667,13.769712 L3.7136,13.769712 C3.38976,13.769712 3.12693333,13.5068853 3.12693333,13.1830453 L3.12693333,12.009712 C3.12693333,11.685872 3.38976,11.4230453 3.7136,11.4230453 L21.0202667,11.4230453 Z" id="合并形状" fill="#FF5955" opacity="0.200000003"></path>
            </g>
        </g>
    </g>
</svg>