<?xml version="1.0" encoding="UTF-8"?>
<svg width="26px" height="25px" viewBox="0 0 26 25" version="1.1" xmlns="http://www.w3.org/2000/svg" xmlns:xlink="http://www.w3.org/1999/xlink">
    <!-- Generator: Sketch 51.3 (57544) - http://www.bohemiancoding.com/sketch -->
    <title>ic_a-form_date</title>
    <desc>Created with Sketch.</desc>
    <defs></defs>
    <g id="Page-1" stroke="none" stroke-width="1" fill="none" fill-rule="evenodd">
        <g id="创建表单" transform="translate(-220.000000, -286.000000)">
            <g id="03" transform="translate(8.000000, 268.000000)">
                <g id="日期" transform="translate(180.000000, 0.000000)">
                    <g id="ic_a-form_date" transform="translate(32.000000, 17.000000)">
                        <rect id="mask" fill="#FFE8E8" opacity="0" x="0" y="0" width="26" height="26"></rect>
                        <path d="M2.78571429,4.79154013 C2.11902769,4.79154013 1.57857143,5.33199639 1.57857143,5.99868298 L1.57857143,22.7595231 C1.57857143,23.4262097 2.11902769,23.966666 2.78571429,23.966666 L23.2142857,23.966666 C23.8809723,23.966666 24.4214286,23.4262097 24.4214286,22.7595231 L24.4214286,5.99868298 C24.4214286,5.33199639 23.8809723,4.79154013 23.2142857,4.79154013 L2.78571429,4.79154013 Z M2.78571429,3.2129687 L23.2142857,3.2129687 C24.7527932,3.2129687 26,4.46017547 26,5.99868298 L26,22.7595231 C26,24.2980307 24.7527932,25.5452374 23.2142857,25.5452374 L2.78571429,25.5452374 C1.24720677,25.5452374 1.88412831e-16,24.2980307 0,22.7595231 L0,5.99868298 C-1.88412831e-16,4.46017547 1.24720677,3.2129687 2.78571429,3.2129687 Z" id="Rectangle-4" fill="#7B7D80" fill-rule="nonzero"></path>
                        <rect id="Rectangle-2" fill="#7B7D80" opacity="0.900000036" x="0.928571429" y="8.86212571" width="24.1428571" height="1.85714286"></rect>
                        <g id="Group-3" transform="translate(6.157962, 1.364868)" fill="#7B7D80">
                            <path d="M1,0.319533358 L1.78571429,0.319533358 C2.33799904,0.319533358 2.78571429,0.767248608 2.78571429,1.31953336 L2.78571429,4.02091621 C2.78571429,4.57320096 2.33799904,5.02091621 1.78571429,5.02091621 L1,5.02091621 C0.44771525,5.02091621 6.76353751e-17,4.57320096 0,4.02091621 L0,1.31953336 C-6.76353751e-17,0.767248608 0.44771525,0.319533358 1,0.319533358 Z" id="Rectangle-5"></path>
                            <path d="M12.308162,0.319533358 L13.0938763,0.319533358 C13.6461611,0.319533358 14.0938763,0.767248608 14.0938763,1.31953336 L14.0938763,4.02091621 C14.0938763,4.57320096 13.6461611,5.02091621 13.0938763,5.02091621 L12.308162,5.02091621 C11.7558773,5.02091621 11.308162,4.57320096 11.308162,4.02091621 L11.308162,1.31953336 C11.308162,0.767248608 11.7558773,0.319533358 12.308162,0.319533358 Z" id="Rectangle-5"></path>
                        </g>
                    </g>
                </g>
            </g>
        </g>
    </g>
</svg>