<?xml version="1.0" encoding="UTF-8"?>
<svg width="26px" height="26px" viewBox="0 0 26 26" version="1.1" xmlns="http://www.w3.org/2000/svg" xmlns:xlink="http://www.w3.org/1999/xlink">
    <!-- Generator: Sketch 51.3 (57544) - http://www.bohemiancoding.com/sketch -->
    <title>ic_a-form_single</title>
    <desc>Created with Sketch.</desc>
    <defs></defs>
    <g id="Page-1" stroke="none" stroke-width="1" fill="none" fill-rule="evenodd">
        <g id="创建表单" transform="translate(-40.000000, -98.000000)">
            <g id="01" transform="translate(8.000000, 80.000000)">
                <g id="单行文字">
                    <g id="ic_a-form_single" transform="translate(31.000000, 17.000000)">
                        <g transform="translate(1.000000, 1.000000)">
                            <rect id="Rectangle-9" fill="#FFB2B2" fill-rule="nonzero" opacity="0" x="0" y="0" width="26" height="26"></rect>
                            <path d="M3.51530612,2.39438776 C2.89624,2.39438776 2.39438776,2.89624 2.39438776,3.51530612 L2.39438776,22.4846939 C2.39438776,23.10376 2.89624,23.6056122 3.51530612,23.6056122 L22.4846939,23.6056122 C23.10376,23.6056122 23.6056122,23.10376 23.6056122,22.4846939 L23.6056122,3.51530612 C23.6056122,2.89624 23.10376,2.39438776 22.4846939,2.39438776 L3.51530612,2.39438776 Z M3.51530612,0.928571429 L22.4846939,0.928571429 C23.913308,0.928571429 25.0714286,2.086692 25.0714286,3.51530612 L25.0714286,22.4846939 C25.0714286,23.913308 23.913308,25.0714286 22.4846939,25.0714286 L3.51530612,25.0714286 C2.086692,25.0714286 0.928571429,23.913308 0.928571429,22.4846939 L0.928571429,3.51530612 C0.928571429,2.086692 2.086692,0.928571429 3.51530612,0.928571429 Z" id="Rectangle-4" fill="#7B7D80" fill-rule="nonzero"></path>
                            <polygon id="T" fill="#7B7D80" points="5.23979592 6.10204082 19.0902309 6.10204082 19.0902309 7.83140538 12.9964413 7.83140538 12.9964413 20.4358095 11.2619868 20.4358095 11.2619868 7.83140538 5.23979592 7.83140538"></polygon>
                        </g>
                    </g>
                </g>
            </g>
        </g>
    </g>
</svg>