<?xml version="1.0" encoding="UTF-8"?>
<svg width="26px" height="26px" viewBox="0 0 26 26" version="1.1" xmlns="http://www.w3.org/2000/svg" xmlns:xlink="http://www.w3.org/1999/xlink">
    <!-- Generator: Sketch 51.3 (57544) - http://www.bohemiancoding.com/sketch -->
    <title>ic_a-form_dropdown</title>
    <desc>Created with Sketch.</desc>
    <defs></defs>
    <g id="Page-1" stroke="none" stroke-width="1" fill="none" fill-rule="evenodd">
        <g id="创建表单" transform="translate(-40.000000, -192.000000)" fill="#7B7D80">
            <g id="02" transform="translate(8.000000, 174.000000)">
                <g id="单行文字">
                    <g id="ic_a-form_dropdown" transform="translate(32.000000, 18.000000)">
                        <path d="M2.78571429,1.57857143 C2.11902769,1.57857143 1.57857143,2.11902769 1.57857143,2.78571429 L1.57857143,23.2142857 C1.57857143,23.8809723 2.11902769,24.4214286 2.78571429,24.4214286 L23.2142857,24.4214286 C23.8809723,24.4214286 24.4214286,23.8809723 24.4214286,23.2142857 L24.4214286,2.78571429 C24.4214286,2.11902769 23.8809723,1.57857143 23.2142857,1.57857143 L2.78571429,1.57857143 Z M2.78571429,0 L23.2142857,0 C24.7527932,-2.82619246e-16 26,1.24720677 26,2.78571429 L26,23.2142857 C26,24.7527932 24.7527932,26 23.2142857,26 L2.78571429,26 C1.24720677,26 1.88412831e-16,24.7527932 0,23.2142857 L0,2.78571429 C-1.88412831e-16,1.24720677 1.24720677,2.82619246e-16 2.78571429,0 Z" id="Rectangle-4" fill-rule="nonzero"></path>
                        <path d="M12.3852961,15.8706959 L7.86472256,10.7120034 C7.75552608,10.5873929 7.76802163,10.3978549 7.89263217,10.2886584 C7.9473416,10.2407164 8.01760682,10.2142857 8.09034991,10.2142857 L16.9810787,10.2142857 C17.1467641,10.2142857 17.2810787,10.3486003 17.2810787,10.5142857 C17.2810787,10.5870288 17.254648,10.657294 17.206706,10.7120034 L12.6861325,15.8706959 C12.6133349,15.9537696 12.4869762,15.9621 12.4039025,15.8893023 C12.3972986,15.8835154 12.391083,15.8772998 12.3852961,15.8706959 Z" id="Triangle"></path>
                    </g>
                </g>
            </g>
        </g>
    </g>
</svg>