<?xml version="1.0" encoding="UTF-8"?>
<svg width="72px" height="72px" viewBox="0 0 72 72" version="1.1" xmlns="http://www.w3.org/2000/svg" xmlns:xlink="http://www.w3.org/1999/xlink">
    <!-- Generator: Sketch 51.3 (57544) - http://www.bohemiancoding.com/sketch -->
    <title>ic_a-form_ordinary</title>
    <desc>Created with Sketch.</desc>
    <defs></defs>
    <g id="Page-1" stroke="none" stroke-width="1" fill="none" fill-rule="evenodd">
        <g id="选择表单类型" transform="translate(-56.000000, -108.000000)">
            <g id="普通单" transform="translate(15.000000, 85.000000)">
                <g id="ic_a-form_ordinary" transform="translate(41.000000, 23.000000)">
                    <circle id="Oval" fill="#5F9FF3" opacity="0.08" cx="36" cy="36" r="36"></circle>
                    <g id="ic_b-grouping_common" transform="translate(15.000000, 15.000000)">
                        <rect id="Rectangle-path" fill="#000000" fill-rule="nonzero" opacity="0" x="0" y="0" width="41.5465341" height="41.5465341"></rect>
                        <rect id="Rectangle-4" fill="#FFFFFF" x="9.54545455" y="8.59090909" width="21.9545455" height="24.8181818"></rect>
                        <path d="M32.5479855,3.87578158 L8.99854868,3.87578158 C7.60555744,3.87578158 6.47539473,5.01108139 6.47539473,6.4104044 L6.47539473,35.1361297 C6.47539473,36.5354528 7.60555744,37.6707526 8.99854868,37.6707526 L32.5479855,37.6707526 C33.9409767,37.6707526 35.0711394,36.5354528 35.0711394,35.1361297 L35.0711394,6.4104044 C35.0711394,5.01108139 33.9409767,3.87578158 32.5479855,3.87578158 Z M20.7895778,28.4174029 L13.220116,28.4174029 C12.2927067,28.4174029 11.5380133,27.6592791 11.5380133,26.7276543 C11.5380133,25.7960296 12.2927067,25.0379058 13.220116,25.0379058 L20.7895778,25.0379058 C21.716987,25.0379058 22.4716804,25.7960296 22.4716804,26.7276543 C22.4716804,27.6592791 21.716987,28.4174029 20.7895778,28.4174029 Z M26.676937,21.6584087 L13.220116,21.6584087 C12.2927067,21.6584087 11.5380133,20.9002849 11.5380133,19.9686601 C11.5380133,19.0332636 12.2927067,18.2789116 13.220116,18.2789116 L26.676937,18.2789116 C27.6043462,18.2789116 28.3590396,19.0370354 28.3590396,19.9686601 C28.3590396,20.9002849 27.6043462,21.6584087 26.676937,21.6584087 Z M26.676937,14.8994145 L13.220116,14.8994145 C12.2927067,14.8994145 11.5380133,14.1412907 11.5380133,13.2096659 C11.5380133,12.2780412 12.2927067,11.5199174 13.220116,11.5199174 L26.676937,11.5199174 C27.6043462,11.5199174 28.3590396,12.2780412 28.3590396,13.2096659 C28.3590396,14.1412907 27.6043462,14.8994145 26.676937,14.8994145 Z" id="Shape" fill="#5F9FF3" fill-rule="nonzero"></path>
                    </g>
                </g>
            </g>
        </g>
    </g>
</svg>