<?xml version="1.0" encoding="UTF-8"?>
<svg width="44px" height="44px" viewBox="0 0 44 44" version="1.1" xmlns="http://www.w3.org/2000/svg" xmlns:xlink="http://www.w3.org/1999/xlink">
    <!-- Generator: Sketch 52.2 (67145) - http://www.bohemiancoding.com/sketch -->
    <title>ic_a-crm</title>
    <desc>Created with Sketch.</desc>
    <g id="ic_a-crm" stroke="none" stroke-width="1" fill="none" fill-rule="evenodd">
        <rect id="矩形" fill="#01CAC5" fill-rule="nonzero" x="0" y="0" width="44" height="44" rx="4"></rect>
        <g id="分组" transform="translate(6.000000, 9.000000)">
            <g>
                <path d="M1.21904762,0.5 L30.7809524,0.5 C31.4541714,0.5 32,1.13964286 32,1.92857143 L32,24.0714286 C32,24.8603571 31.4541714,25.5 30.7809524,25.5 L1.21904762,25.5 C0.545828571,25.5 0,24.8603571 0,24.0714286 L0,1.92857143 C0,1.13964286 0.545828571,0.5 1.21904762,0.5 Z" id="Fill-3" fill="#FFFFFF"></path>
                <path d="M9.28736,20.1456 L6.70016,15.6634667 C6.70016,15.6634667 8.06914667,17.1008 9.35482667,17.1008 C10.6560533,17.1008 11.8742667,15.6634667 11.8742667,15.6634667 L9.28736,20.1456 Z M9.06296,6.01573333 C8.57309333,6.01573333 8.64848,6.16533333 8.38448,6.20346667 C8.13573333,6.21872 7.88874667,6.25597333 7.64645333,6.31493333 C6.85445333,6.46746667 6.57549333,7.47653333 6.53794667,7.852 C6.5004,8.22746667 6.49072,9.28053333 6.51594667,9.8408 C6.59133333,10.1781333 6.32762667,10.1781333 6.32762667,10.1781333 C5.85330667,10.1488 6.06656,11.6184 6.06656,11.6184 C6.13461333,11.9792 6.04192,12.1610667 6.74416,12.4397333 C6.97237333,13.0322667 7.38890667,13.5329867 7.92981333,13.8653333 C7.92981333,13.8653333 7.97205333,14.4725333 7.98525333,14.9066667 C7.91368,14.8685333 8.21405333,16.0096 6.03282667,16.3322667 C3.8516,16.6549333 3.43389333,17.3530667 3.02264,17.7432 C2.61138667,18.1333333 2.64130667,19.9402667 2.64130667,19.9402667 L16.6884533,19.9402667 C16.6884533,19.9402667 16.5989867,18.1362667 16.1880267,17.7432 C15.7770667,17.3501333 15.32856,16.652 13.1473333,16.3322667 C10.9661067,16.0125333 11.35272,14.9008 11.33776,14.8333333 C11.3415733,14.6632 11.4175467,13.9416 11.4175467,13.9416 C11.8821867,13.5238933 12.238,12.9994133 12.4547733,12.4133333 C12.9810133,12.0818667 13.1816533,12.0349333 13.26848,11.6536 C13.26848,11.6536 13.44624,10.2162667 12.8809867,10.2162667 C12.8809867,10.2162667 12.64632,10.2544 12.7208267,9.91706667 C12.7815467,9.33010667 12.7856533,8.73904 12.7331467,8.1512 C12.6956,7.77866667 12.8056,6.70506667 12.0138933,6.55546667 C11.4738667,6.45602667 11.4110933,6.60856 11.1470933,6.57013333 C10.8830933,6.532 10.56952,5.8544 10.07936,5.8544 L9.06296,6.01573333 Z" id="Fill-5" fill="#01CAC5"></path>
                <path d="M19.1402654,11.6076251 L28.4069321,11.6076251 C28.6830745,11.6076251 28.9069321,11.3837675 28.9069321,11.1076251 L28.9069321,10.1076251 C28.9069321,9.83148277 28.6830745,9.60762515 28.4069321,9.60762515 L19.1402654,9.60762515 C18.8641231,9.60762515 18.6402654,9.83148277 18.6402654,10.1076251 L18.6402654,11.1076251 C18.6402654,11.3837675 18.8641231,11.6076251 19.1402654,11.6076251 Z M19.1402654,16.6257836 L25.4069321,16.6257836 C25.6830745,16.6257836 25.9069321,16.401926 25.9069321,16.1257836 L25.9069321,15.1257836 C25.9069321,14.8496413 25.6830745,14.6257836 25.4069321,14.6257836 L19.1402654,14.6257836 C18.8641231,14.6257836 18.6402654,14.8496413 18.6402654,15.1257836 L18.6402654,16.1257836 C18.6402654,16.401926 18.8641231,16.6257836 19.1402654,16.6257836 Z" id="Fill-7" fill="#01CAC5" opacity="0.400000006"></path>
            </g>
        </g>
    </g>
</svg>