<?xml version="1.0" encoding="UTF-8"?>
<svg width="20px" height="19px" viewBox="0 0 20 19" version="1.1" xmlns="http://www.w3.org/2000/svg" xmlns:xlink="http://www.w3.org/1999/xlink">
    <!-- Generator: Sketch 51.3 (57544) - http://www.bohemiancoding.com/sketch -->
    <title>ic_a-form_star_on</title>
    <desc>Created with Sketch.</desc>
    <defs></defs>
    <g id="Page-1" stroke="none" stroke-width="1" fill="none" fill-rule="evenodd">
        <g id="创建表单-评分" transform="translate(-35.000000, -332.000000)" fill="#FFA902">
            <g id="Group-2" transform="translate(15.000000, 290.000000)">
                <g id="Group-3" transform="translate(0.000000, 33.000000)">
                    <g id="一行">
                        <g id="ic_a-form_star_on" transform="translate(20.000000, 9.000000)">
                            <path d="M9.40348274,16.009418 L4.17527936,18.2721119 C3.92185281,18.3817914 3.62749719,18.2652614 3.5178177,18.0118348 C3.48436159,17.9345308 3.47097758,17.8500274 3.47890797,17.7661684 L4.015254,12.0946407 C4.0282534,11.9571801 3.98383128,11.8204629 3.89251721,11.7168957 L0.124963794,7.44378968 C-0.057660718,7.23665953 -0.0377949734,6.92070095 0.169335176,6.73807644 C0.23251715,6.68236955 0.308748742,6.64352761 0.390953998,6.62515601 L5.95063745,5.38265295 C6.08538732,5.35253844 6.20168594,5.26804255 6.27196653,5.1491937 L9.17169384,0.245575089 C9.31225224,0.00788212087 9.61888556,-0.0708610043 9.85657853,0.0696973966 C9.92908324,0.112572648 9.98958097,0.173070382 10.0324562,0.245575089 L12.9321835,5.1491937 C13.0024641,5.26804255 13.1187627,5.35253844 13.2535126,5.38265295 L18.8131961,6.62515601 C19.0826904,6.68538383 19.2523345,6.95267648 19.1921067,7.22217086 C19.1737351,7.30437612 19.1348932,7.38060771 19.0791863,7.44378968 L15.3116328,11.7168957 C15.2203188,11.8204629 15.1758967,11.9571801 15.1888961,12.0946407 L15.7252421,17.7661684 C15.7512404,18.0410843 15.5494529,18.2850233 15.2745371,18.3110216 C15.1906781,18.318952 15.1061747,18.305568 15.0288707,18.2721119 L9.80066732,16.009418 C9.67395153,15.9545772 9.53019853,15.9545772 9.40348274,16.009418 Z" id="Combined-Shape"></path>
                        </g>
                    </g>
                </g>
            </g>
        </g>
    </g>
</svg>