<?xml version="1.0" encoding="UTF-8"?>
<svg width="20px" height="20px" viewBox="0 0 20 20" version="1.1" xmlns="http://www.w3.org/2000/svg" xmlns:xlink="http://www.w3.org/1999/xlink">
    <!-- Generator: Sketch 52.2 (67145) - http://www.bohemiancoding.com/sketch -->
    <title>ic_a-form_time_small</title>
    <desc>Created with Sketch.</desc>
    <g id="180816-创建表单" stroke="none" stroke-width="1" fill="none" fill-rule="evenodd">
        <g id="创建表单-全部字段（更新中）" transform="translate(-328.000000, -1610.000000)" fill="#D2D5DB">
            <g id="04单行文本" transform="translate(0.000000, 1553.000000)">
                <g id="lis01" transform="translate(15.000000, 47.000000)">
                    <g id="ic_a-form_time_small" transform="translate(313.000000, 10.000000)">
                        <path d="M10,1.21428571 C5.14778398,1.21428571 1.21428571,5.14778398 1.21428571,10 C1.21428571,14.852216 5.14778398,18.7857143 10,18.7857143 C14.852216,18.7857143 18.7857143,14.852216 18.7857143,10 C18.7857143,5.14778398 14.852216,1.21428571 10,1.21428571 Z M10,0 C15.5228475,-1.01453063e-15 20,4.4771525 20,10 C20,15.5228475 15.5228475,20 10,20 C4.4771525,20 6.76353751e-16,15.5228475 0,10 C-6.76353751e-16,4.4771525 4.4771525,1.01453063e-15 10,0 Z" id="Rectangle-4" fill-rule="nonzero"></path>
                        <g id="Group-4" transform="translate(10.433273, 10.661160) rotate(-298.000000) translate(-10.433273, -10.661160) translate(4.433273, 7.661160)">
                            <path d="M3.38551546,-0.317399386 L3.38551546,-0.317399386 C3.78345819,-0.317399386 4.10938722,-0.00120168401 4.12144597,0.396558305 L4.26742794,5.21179905 C4.27902512,5.59433407 3.97832059,5.91384134 3.59578558,5.92543852 C3.58878807,5.92565066 3.58178775,5.92575675 3.57478703,5.92575675 L3.57478703,5.92575675 C3.17684429,5.92575675 2.85091526,5.60955904 2.83885651,5.21179905 L2.69287455,0.396558305 C2.68127737,0.0140232936 2.98198189,-0.305483976 3.3645169,-0.317081156 C3.37151441,-0.317293297 3.37851473,-0.317399386 3.38551546,-0.317399386 Z" id="Rectangle-6" transform="translate(3.480151, 2.804179) rotate(-240.000000) translate(-3.480151, -2.804179) "></path>
                            <path d="M8.06309741,-0.891569887 L8.06309741,-0.891569887 C8.4555228,-0.891569887 8.77364644,-0.57344625 8.77364644,-0.181020857 C8.77364644,-0.179778564 8.77364318,-0.178536273 8.77363667,-0.177293998 L8.74483131,5.31455185 C8.74275903,5.7096401 8.42189283,6.02882773 8.02679914,6.02882773 L8.02679914,6.02882773 C7.63437375,6.02882773 7.31625011,5.7107041 7.31625011,5.3182787 C7.31625011,5.31703641 7.31625337,5.31579412 7.31625988,5.31455185 L7.34506524,-0.177293998 C7.34713752,-0.57238225 7.66800372,-0.891569887 8.06309741,-0.891569887 Z" id="Rectangle-6" transform="translate(8.044948, 2.568629) rotate(-120.000000) translate(-8.044948, -2.568629) "></path>
                        </g>
                    </g>
                </g>
            </g>
        </g>
    </g>
</svg>