<?xml version="1.0" encoding="UTF-8"?>
<svg width="44px" height="44px" viewBox="0 0 44 44" version="1.1" xmlns="http://www.w3.org/2000/svg" xmlns:xlink="http://www.w3.org/1999/xlink">
    <!-- Generator: Sketch 52.2 (67145) - http://www.bohemiancoding.com/sketch -->
    <title>ic_a-hyzs</title>
    <desc>Created with Sketch.</desc>
    <g id="ic_a-hyzs" stroke="none" stroke-width="1" fill="none" fill-rule="evenodd">
        <rect id="矩形" fill="#01CAC5" fill-rule="nonzero" x="0" y="0" width="44" height="44" rx="4"></rect>
        <g id="分组" transform="translate(4.000000, 6.429222)">
            <g transform="translate(0.206685, 0.263609)">
                <path d="M2.49660915,21.2594534 C2.51051784,24.7994815 5.39175565,27.6579839 8.93178373,27.6440753 L15.2832387,27.6440753 L15.2832387,29.5977107 L8.57443749,29.5977107 C3.90352624,29.6161665 0.101907873,25.8447727 0.0834521164,21.173594 L0.0834521164,21.1722566 C0.101372923,16.5010779 3.90245634,12.7288818 8.57363506,12.7468026 L8.57443749,12.7468026 L34.0527431,12.746739 L34.0527431,14.8748315 L8.93178373,14.8748315 C5.39175565,14.8609229 2.51051784,17.7194253 2.49660915,21.2594534" id="Fill-2" fill="#FFFFFF"></path>
                <path d="M14.5270876,16.6353502 C14.9737705,16.6353502 14.9050294,16.7720298 15.1454892,16.8062666 C15.3723078,16.8199078 15.5975215,16.8541446 15.8181882,16.9084419 C16.54037,17.0451215 16.794471,17.9671069 16.8287077,18.3086722 C16.8629445,18.6502374 16.8717711,19.6102042 16.8487683,20.1226858 C16.7800273,20.4300143 17.0207546,20.4300143 17.0207546,20.4300143 C17.4527263,20.4032668 17.2585396,21.7406404 17.2585396,21.7406404 C17.1964855,22.0707043 17.2810075,22.2349338 16.640673,22.4895697 C16.4325776,23.0293337 16.053031,23.4859131 15.5600751,23.7889619 C15.5600751,23.7889619 15.5215587,24.3423672 15.5095223,24.7368924 C15.5747862,24.704528 15.300892,25.7447372 17.2892992,26.0365521 C19.2777064,26.328367 19.6583229,26.9684341 20.0333225,27.3247104 C20.4083221,27.6809868 20.4115318,29.5977107 20.4115318,29.5977107 L7.57568684,29.5961059 C7.57568684,29.5961059 7.65592926,27.683394 8.0322662,27.3268502 C8.40860315,26.9703064 8.81516474,26.3302394 10.8035719,26.0386919 C12.7919791,25.7471445 12.4394474,24.7350201 12.4530886,24.6745708 C12.4496114,24.519168 12.380068,23.8603777 12.380068,23.8603777 C11.9561205,23.4800286 11.6314062,23.0017838 11.4348123,22.4671018 C10.9552301,22.1659253 10.7725448,22.1241992 10.6931048,21.7767495 C10.6931048,21.7767495 10.5312826,20.4661233 11.046439,20.4661233 C11.046439,20.4661233 11.2604187,20.5003601 11.1924802,20.1930316 C11.1371129,19.6583497 11.1333682,19.1196555 11.1809788,18.5841711 C11.215483,18.2426059 11.11518,17.2663231 11.8365593,17.129911 C12.3289803,17.0387021 12.3862199,17.1769866 12.6269472,17.1430173 C12.8676744,17.109048 13.1536049,16.4895765 13.6000202,16.4895765 L14.5270876,16.6353502 Z" id="Fill-4" fill="#FFFFFF"></path>
                <path d="M28.168299,16.6353502 C28.6149818,16.6353502 28.5462408,16.7720298 28.7867006,16.8062666 C29.0135191,16.8199078 29.2387329,16.8541446 29.4593995,16.9084419 C30.1815813,17.0451215 30.4356823,17.9671069 30.4699191,18.3086722 C30.5041558,18.6502374 30.5129825,19.6102042 30.4899797,20.1226858 C30.4212387,20.4300143 30.6616984,20.4300143 30.6616984,20.4300143 C31.0942051,20.4032668 30.8997509,21.7406404 30.8997509,21.7406404 C30.8376968,22.0707043 30.9219514,22.2349338 30.2821518,22.4895697 C30.0740565,23.0293337 29.6942423,23.4859131 29.2012864,23.7889619 C29.2012864,23.7889619 29.16277,24.3423672 29.1507337,24.7368924 C29.2159975,24.704528 28.9421034,25.7447372 30.9305105,26.0365521 C32.9189177,26.328367 33.2995342,26.9684341 33.6745338,27.3247104 C34.0495334,27.6809868 34.0527431,29.5977107 34.0527431,29.5977107 L21.2171656,29.5961059 C21.2171656,29.5961059 21.2974081,27.683394 21.673745,27.3268502 C22.050082,26.9703064 22.4566436,26.3302394 24.4450507,26.0386919 C26.4334579,25.7471445 26.0809262,24.7350201 26.0945674,24.6745708 C26.0910902,24.519168 26.0215468,23.8603777 26.0215468,23.8603777 C25.5975993,23.4800286 25.272885,23.0017838 25.0762911,22.4671018 C24.5967089,22.1659253 24.4140236,22.1241992 24.3345836,21.7767495 C24.3345836,21.7767495 24.1727614,20.4661233 24.6879178,20.4661233 C24.6879178,20.4661233 24.9018976,20.5003601 24.833959,20.1930316 C24.7785917,19.6583497 24.7745796,19.1196555 24.8224576,18.5841711 C24.8569618,18.2426059 24.7566588,17.2663231 25.4780381,17.129911 C25.9704591,17.0387021 26.0279662,17.1769866 26.2681585,17.1430173 C26.5083508,17.109048 26.7950837,16.4895765 27.241499,16.4895765 L28.168299,16.6353502 Z" id="Fill-6" fill="#FFFFFF"></path>
                <path d="M13.1021963,0.230322492 C12.6536411,0.230322492 12.7226496,0.367269555 12.4808525,0.40150632 C12.252964,0.415415006 12.0266804,0.449919247 11.8049438,0.504216617 C11.0798198,0.64116368 10.8238465,1.56582383 10.7885398,1.90845896 C10.7532332,2.25109409 10.7452089,3.21373565 10.7684792,3.72728714 C10.8374877,4.03541803 10.595958,4.03541803 10.595958,4.03541803 C10.1613116,4.00867056 10.3568356,5.35085876 10.3568356,5.35085876 C10.4191572,5.68172501 10.3343677,5.84648944 10.977377,6.10299771 C11.1868097,6.64436657 11.5684961,7.10228331 12.0633244,7.40586713 C12.0633244,7.40586713 12.1021082,7.96114467 12.1144121,8.3567398 C12.0488808,8.32410788 12.3238448,9.36725934 10.3258085,9.6598767 C8.32777229,9.95249405 7.94528342,10.5941659 7.56841152,10.9517797 C7.19153963,11.3093934 7.22069437,12.959445 7.22069437,12.959445 L20.0881013,12.959445 C20.0881013,12.959445 20.006254,11.3091259 19.6293821,10.9517797 C19.2525102,10.5944334 18.8424715,9.95222658 16.8444352,9.6598767 C14.846399,9.36752681 15.2005355,8.35272768 15.1860919,8.29094102 C15.1898365,8.13527072 15.25938,7.47434066 15.25938,7.47434066 C15.6854672,7.09318917 16.0117864,6.6133395 16.2094502,6.07705266 C16.6909047,5.77534116 16.8751948,5.73308015 16.9549023,5.38509553 C16.9549023,5.38509553 17.1175269,4.0696548 16.5996959,4.0696548 C16.5996959,4.0696548 16.3838437,4.10415904 16.4531197,3.79576067 C16.5087544,3.25947383 16.5127666,2.71917487 16.4646211,2.18235309 C16.4301169,1.83998543 16.5306874,0.86102791 15.8058308,0.724080847 C15.3110026,0.632604489 15.2532281,0.771423875 15.0116984,0.737187109 C14.7701687,0.702950343 14.4823659,0.0818740155 14.0335433,0.0818740155 L13.1021963,0.230322492 Z" id="Fill-8" fill="#FFFFFF"></path>
                <path d="M26.9753617,0.230322492 C26.5265391,0.230322492 26.5955476,0.367269555 26.3540179,0.40150632 C26.1261294,0.415415006 25.8998458,0.449651772 25.6778418,0.504216617 C24.9529852,0.64116368 24.6970119,1.56582383 24.6614378,1.90845896 C24.6258636,2.25109409 24.6183743,3.21373565 24.6413772,3.72728714 C24.7103856,4.03541803 24.468856,4.03541803 24.468856,4.03541803 C24.034477,4.00867056 24.2297336,5.35085876 24.2297336,5.35085876 C24.2920552,5.68172501 24.2072657,5.84648944 24.8505424,6.10299771 C25.0599751,6.64463404 25.4413941,7.10228331 25.9364898,7.40586713 C25.9364898,7.40586713 25.9752737,7.96114467 25.98731,8.3567398 C25.9217787,8.32410788 26.1970102,9.36725934 24.1987065,9.6598767 C22.2004028,9.95249405 21.8181814,10.5941659 21.4415769,10.9517797 C21.0649725,11.3093934 21.0938598,12.959445 21.0938598,12.959445 L33.9618017,12.959445 C33.9618017,12.959445 33.8799544,11.3091259 33.50335,10.9517797 C33.1267456,10.5944334 32.7161719,9.95222658 30.7181356,9.6598767 C28.7200994,9.36752681 29.0742359,8.35272768 29.0597923,8.29094102 C29.0632694,8.13527072 29.1330803,7.47434066 29.1330803,7.47434066 C29.5591676,7.09318917 29.8852193,6.6133395 30.0828831,6.07705266 C30.5643376,5.77534116 30.7486277,5.73308015 30.8283352,5.38509553 C30.8283352,5.38509553 30.9909598,4.0696548 30.4731288,4.0696548 C30.4731288,4.0696548 30.2575441,4.10415904 30.3265526,3.79576067 C30.3821873,3.25947383 30.385932,2.71917487 30.338054,2.18235309 C30.3035498,1.83998543 30.4041203,0.86102791 29.6792637,0.724080847 C29.1844355,0.632604489 29.1269284,0.771423875 28.8851313,0.737187109 C28.6433341,0.702950343 28.3557988,0.0818740155 27.9069762,0.0818740155 L26.9753617,0.230322492 Z" id="Fill-10" fill="#FFFFFF"></path>
                <path d="M13.3975151,13.113243 L11.0386554,9.0289038 C11.0386554,9.0289038 12.2866925,10.33953 13.4590343,10.33953 C14.6455522,10.33953 15.7566422,9.0289038 15.7566422,9.0289038 L13.3975151,13.113243 Z" id="Fill-12" fill="#01CAC5"></path>
                <path d="M27.527697,13.113243 L25.1685699,9.02756643 C25.1685699,9.02756643 26.4168744,10.3381926 27.5889487,10.3381926 C28.7757341,10.3381926 29.8865567,9.02756643 29.8865567,9.02756643 L27.527697,13.113243 Z" id="Fill-14" fill="#01CAC5"></path>
            </g>
        </g>
    </g>
</svg>