<?xml version="1.0" encoding="UTF-8"?>
<svg width="26px" height="25px" viewBox="0 0 26 25" version="1.1" xmlns="http://www.w3.org/2000/svg" xmlns:xlink="http://www.w3.org/1999/xlink">
    <!-- Generator: Sketch 51.3 (57544) - http://www.bohemiancoding.com/sketch -->
    <title>ic_a-form_score</title>
    <desc>Created with Sketch.</desc>
    <defs></defs>
    <g id="Page-1" stroke="none" stroke-width="1" fill="none" fill-rule="evenodd">
        <g id="创建表单" transform="translate(-129.000000, -381.000000)">
            <g id="03" transform="translate(8.000000, 362.000000)">
                <g id="地理位置" transform="translate(89.000000, 0.000000)">
                    <g id="ic_a-form_score" transform="translate(32.000000, 18.000000)">
                        <rect id="Rectangle-4" fill="#FFF1F1" opacity="0" x="0" y="0" width="26" height="26"></rect>
                        <path d="M12.2006054,20.6620864 C12.7010585,20.3989827 13.2989315,20.3989827 13.7993846,20.6620864 L19.7465818,23.788713 C19.7736952,23.8029674 19.8047515,23.8078862 19.8349427,23.802708 C19.910761,23.7897042 19.9616822,23.7176996 19.9486783,23.6418813 L18.8128647,17.0195799 C18.7172867,16.4623172 18.9020396,15.8937062 19.3069147,15.4990505 L24.1182983,10.8091106 C24.1402335,10.7877291 24.1545085,10.7597128 24.1589134,10.7293991 C24.1699751,10.6532732 24.1172302,10.5825936 24.0411043,10.5715319 L17.3919357,9.60535115 C16.8324121,9.52404762 16.3487227,9.17262666 16.0984961,8.66561234 L13.1248975,2.64044345 C13.1113408,2.61297456 13.089107,2.59074072 13.0616381,2.57718401 C12.9926563,2.54313948 12.909137,2.57146169 12.8750925,2.64044345 L9.90149387,8.66561234 C9.65126734,9.17262666 9.16757788,9.52404762 8.60805436,9.60535115 L1.95888572,10.5715319 C1.92857199,10.5759368 1.90055573,10.5902118 1.87917417,10.612147 C1.82547936,10.6672322 1.8266065,10.7554158 1.88169172,10.8091106 L6.69307534,15.4990505 C7.09795037,15.8937062 7.2827033,16.4623172 7.18712527,17.0195799 L6.05131167,23.6418813 C6.04613347,23.6720726 6.0510523,23.7031288 6.06530667,23.7302422 C6.10110321,23.7983313 6.18531913,23.8245096 6.2534082,23.788713 L12.2006054,20.6620864 Z M12.9351796,22.0593296 L6.98798241,25.1859562 C6.14821724,25.6274469 5.10955417,25.3045816 4.66806349,24.4648165 C4.49225959,24.1304176 4.43159402,23.7473903 4.49545853,23.3750316 L5.63127213,16.7527302 C5.6390217,16.7075467 5.62404173,16.6614431 5.59121403,16.629444 L0.779830405,11.9395041 C0.100446116,11.2772681 0.0865446892,10.1896699 0.7487807,9.51028566 C1.01248655,9.23975127 1.35802048,9.06369294 1.73188981,9.00936655 L8.38105844,8.04318579 C8.42642522,8.03659361 8.46564328,8.00810002 8.48593192,7.96699075 L11.4595305,1.94182187 C11.8794131,1.09104683 12.9094846,0.741739479 13.7602597,1.16162206 C14.0990428,1.32882151 14.37326,1.60303879 14.5404595,1.94182187 L17.5140581,7.96699075 C17.5343467,8.00810002 17.5735648,8.03659361 17.6189316,8.04318579 L24.2681002,9.00936655 C25.2069862,9.14579467 25.8575068,10.017509 25.7210787,10.956395 C25.6667523,11.3302643 25.490694,11.6757982 25.2201596,11.9395041 L20.408776,16.629444 C20.3759483,16.6614431 20.3609683,16.7075467 20.3687179,16.7527302 L21.5045315,23.3750316 C21.6649124,24.3101239 21.0368847,25.1981803 20.1017924,25.3585612 C19.7294338,25.4224257 19.3464065,25.3617601 19.0120076,25.1859562 L13.0648104,22.0593296 C13.0242331,22.0379969 12.9757569,22.0379969 12.9351796,22.0593296 Z" id="Star" fill="#7B7D80" fill-rule="nonzero"></path>
                    </g>
                </g>
            </g>
        </g>
    </g>
</svg>