<?xml version="1.0" encoding="UTF-8"?>
<svg width="44px" height="44px" viewBox="0 0 44 44" version="1.1" xmlns="http://www.w3.org/2000/svg" xmlns:xlink="http://www.w3.org/1999/xlink">
    <!-- Generator: Sketch 52.2 (67145) - http://www.bohemiancoding.com/sketch -->
    <title>ic_a-zsbk</title>
    <desc>Created with Sketch.</desc>
    <g id="ic_a-zsbk" stroke="none" stroke-width="1" fill="none" fill-rule="evenodd">
        <rect id="矩形" fill="#4E97FE" fill-rule="nonzero" x="0" y="0" width="44" height="44" rx="4"></rect>
        <g id="分组" transform="translate(7.000000, 8.000000)">
            <g transform="translate(0.626667, 0.506667)">
                <path d="M28.8475733,16.8255413 C28.8510933,16.9252747 28.85168,17.0191413 28.8475733,17.1100747 L28.8475733,26.3999413 C28.8475733,26.8859947 28.4536267,27.2799413 27.9675733,27.2799413 L0.980906667,27.2799413 C0.494853333,27.2799413 0.100906667,26.8859947 0.100906667,26.3999413 L0.100906667,17.113008 C0.0965066667,17.0191413 0.0970933333,16.9223413 0.100906667,16.8196747 L0.100906667,16.426608 L0.13376,16.426608 C0.185973333,16.028848 0.276613333,15.6366613 0.404213333,15.256208 L3.64554667,1.17914133 C3.86437333,0.516208 4.39149333,-5.86666667e-05 4.83208,-5.86666667e-05 L24.1166933,-5.86666667e-05 C24.5566933,-5.86666667e-05 25.0846933,0.516208 25.3032267,1.17914133 L28.54368,15.256208 C28.6715733,15.6366613 28.7622133,16.028848 28.8144267,16.426608 L28.8475733,16.426608 L28.8475733,16.8255413 Z" id="Fill-2" fill="#FFFFFF"></path>
                <path d="M9.48757333,15.5466667 L19.75424,15.5466667 C20.07808,15.5466667 20.3409067,15.8094933 20.3409067,16.1333333 L20.3409067,18.7733333 C20.3409067,19.0971733 20.07808,19.36 19.75424,19.36 L9.48757333,19.36 C9.16373333,19.36 8.90090667,19.0971733 8.90090667,18.7733333 L8.90090667,16.1333333 C8.90090667,15.8094933 9.16373333,15.5466667 9.48757333,15.5466667 M6.50730667,1.76 L22.7348,1.76 C23.09472,1.76 23.5253333,2.18533333 23.7028,2.73093333 L25.9614667,14.3058667 C26.3838667,15.5965333 26.26448,16.7141333 25.6663733,16.7141333 L3.28005333,16.7141333 C2.68194667,16.7141333 2.56285333,15.5965333 2.98672,14.3058667 L5.53872,2.73093333 C5.71706667,2.18533333 6.14738667,1.76 6.50730667,1.76" id="Fill-4" fill="#4E97FE"></path>
                <path d="M25.6209067,25.2266667 L3.32757333,25.2266667 C2.84152,25.2266667 2.44757333,24.83272 2.44757333,24.3466667 L2.44757333,19.36 L7.43424,19.36 L7.43424,20.8266667 C7.43424,21.31272 7.82818667,21.7066667 8.31424,21.7066667 L20.9275733,21.7066667 C21.4136267,21.7066667 21.8075733,21.31272 21.8075733,20.8266667 L21.8075733,19.36 L26.5009067,19.36 L26.5009067,24.3466667 C26.5009067,24.83272 26.10696,25.2266667 25.6209067,25.2266667" id="Fill-6" fill="#4E97FE"></path>
                <path d="M21.0918987,10.8249886 C21.423952,10.8249886 21.6935253,10.933522 21.6935253,11.0684553 L22.0994987,12.0478953 C22.0994987,12.183122 21.8302187,12.2916553 21.497872,12.2916553 L8.033872,12.2916553 C7.70152533,12.2916553 7.43224533,12.183122 7.43224533,12.0478953 L7.838512,11.0684553 C7.83792533,10.933522 8.10720533,10.8249886 8.439552,10.8249886 L21.0918987,10.8249886 Z M19.849632,5.863792 C20.119792,5.863792 20.3386187,5.97232533 20.3386187,6.10725867 L20.631952,6.79072533 C20.631952,6.92565867 20.4131253,7.036832 20.1429653,7.036832 L9.387312,7.036832 C9.117152,7.036832 8.89861867,6.92565867 8.89861867,6.79072533 L9.191952,6.10725867 C9.19165867,5.97232533 9.41048533,5.863792 9.68064533,5.863792 L19.849632,5.863792 Z" id="Fill-8" fill="#FFFFFF" opacity="0.5"></path>
            </g>
        </g>
    </g>
</svg>