<?xml version="1.0" encoding="UTF-8"?>
<svg width="26px" height="26px" viewBox="0 0 26 26" version="1.1" xmlns="http://www.w3.org/2000/svg" xmlns:xlink="http://www.w3.org/1999/xlink">
    <!-- Generator: Sketch 51.3 (57544) - http://www.bohemiancoding.com/sketch -->
    <title>ic_a-form_time</title>
    <desc>Created with Sketch.</desc>
    <defs></defs>
    <g id="Page-1" stroke="none" stroke-width="1" fill="none" fill-rule="evenodd">
        <g id="创建表单" transform="translate(-310.000000, -286.000000)" fill="#7B7D80">
            <g id="03" transform="translate(8.000000, 268.000000)">
                <g id="时间" transform="translate(270.000000, 0.000000)">
                    <g id="ic_a-form_time" transform="translate(32.000000, 18.000000)">
                        <path d="M13,1.57857143 C6.69211918,1.57857143 1.57857143,6.69211918 1.57857143,13 C1.57857143,19.3078808 6.69211918,24.4214286 13,24.4214286 C19.3078808,24.4214286 24.4214286,19.3078808 24.4214286,13 C24.4214286,6.69211918 19.3078808,1.57857143 13,1.57857143 Z M13,0 C20.1797017,-1.31888981e-15 26,5.82029825 26,13 C26,20.1797017 20.1797017,26 13,26 C5.82029825,26 8.79259876e-16,20.1797017 0,13 C-8.79259876e-16,5.82029825 5.82029825,1.31888981e-15 13,0 Z" id="Rectangle-4" fill-rule="nonzero"></path>
                        <g id="Group-4" transform="translate(13.552856, 13.444368) rotate(-298.000000) translate(-13.552856, -13.444368) translate(6.124284, 9.730082)">
                            <path d="M4.40117009,-0.412619201 L4.40117009,-0.412619201 C4.91849565,-0.412619201 5.34220339,-0.00156218922 5.35787977,0.515525797 L5.54765632,6.77533877 C5.56273265,7.27263429 5.17181677,7.68799374 4.67452125,7.70307007 C4.66542449,7.70334585 4.65632408,7.70348377 4.64722314,7.70348377 L4.64722314,7.70348377 C4.12989758,7.70348377 3.70618984,7.29242676 3.69051346,6.77533877 L3.50073691,0.515525797 C3.48566058,0.0182302816 3.87657646,-0.397129169 4.37387197,-0.412205503 C4.38296874,-0.412481286 4.39206915,-0.412619201 4.40117009,-0.412619201 Z" id="Rectangle-6" transform="translate(4.524197, 3.645432) rotate(-240.000000) translate(-4.524197, -3.645432) "></path>
                            <path d="M10.4820266,-1.15904085 L10.4820266,-1.15904085 C10.9921796,-1.15904085 11.4057404,-0.745480125 11.4057404,-0.235327113 C11.4057404,-0.233712133 11.4057361,-0.232097155 11.4057277,-0.230482197 L11.3682807,6.9089174 C11.3655867,7.42253213 10.9484607,7.83747605 10.4348389,7.83747605 L10.4348389,7.83747605 C9.92468587,7.83747605 9.51112514,7.42391533 9.51112514,6.91376231 C9.51112514,6.91214733 9.51112938,6.91053236 9.51113785,6.9089174 L9.54858481,-0.230482197 C9.55127878,-0.744096926 9.96840484,-1.15904085 10.4820266,-1.15904085 Z" id="Rectangle-6" transform="translate(10.458433, 3.339218) rotate(-120.000000) translate(-10.458433, -3.339218) "></path>
                        </g>
                    </g>
                </g>
            </g>
        </g>
    </g>
</svg>