<?xml version="1.0" encoding="UTF-8"?>
<svg width="30px" height="30px" viewBox="0 0 30 30" version="1.1" xmlns="http://www.w3.org/2000/svg" xmlns:xlink="http://www.w3.org/1999/xlink">
    <!-- Generator: Sketch 50.2 (55047) - http://www.bohemiancoding.com/sketch -->
    <title>icon_a-home_app5</title>
    <desc>Created with Sketch.</desc>
    <defs>
        <linearGradient x1="50%" y1="0%" x2="50%" y2="100%" id="linearGradient-1">
            <stop stop-color="#F6C650" offset="0%"></stop>
            <stop stop-color="#F1A541" offset="100%"></stop>
        </linearGradient>
    </defs>
    <g id="设计稿" stroke="none" stroke-width="1" fill="none" fill-rule="evenodd">
        <g id="A1_首页" transform="translate(-213.000000, -179.000000)">
            <g id="图标" transform="translate(14.000000, 86.000000)">
                <g id="Group" transform="translate(198.267578, 92.531250)">
                    <rect id="Rectangle-9" fill="#FBEDB5" x="8.58032227" y="0.9375" width="14.3041992" height="5.53710937" rx="1.5"></rect>
                    <path d="M5.33642583,3.70605469 L26.1284179,3.70605469 C27.2675052,3.70605469 28.190918,4.62946741 28.190918,5.76855473 L28.190918,28.40625 C28.190918,29.5453373 27.2675052,30.46875 26.1284179,30.46875 L5.33642583,30.46875 C4.1973385,30.46875 3.27392578,29.5453373 3.27392578,28.40625 L3.27392578,5.76855473 C3.27392578,4.62946741 4.1973385,3.70605469 5.33642583,3.70605469 Z" id="Mask" fill="url(#linearGradient-1)"></path>
                    <path d="M9.98657227,0.9375 L21.4782715,0.9375 C22.2549219,0.9375 22.8845215,1.56709957 22.8845215,2.34375 L22.8845215,5.06835937 C22.8845215,5.8450098 22.2549219,6.47460937 21.4782715,6.47460937 L9.98657227,6.47460937 C9.20992184,6.47460937 8.58032227,5.8450098 8.58032227,5.06835937 L8.58032227,2.34375 C8.58032227,1.56709957 9.20992184,0.9375 9.98657227,0.9375 Z" id="Rectangle-9" fill="#F8D46A"></path>
                    <path d="M22.8845215,3.70605469 L8.58032227,3.70605469 L8.58032227,2.34375 C8.58032227,1.56709957 9.20992184,0.9375 9.98657227,0.9375 L21.4782715,0.9375 C22.2549219,0.9375 22.8845215,1.56709957 22.8845215,2.34375 L22.8845215,3.70605469 Z" id="Combined-Shape" fill="#FBEDB5"></path>
                    <path d="M20.3999281,13.6043199 C20.871523,13.1240514 21.6431608,13.11702 22.1234293,13.5886149 C22.6036979,14.0602098 22.6107293,14.8318476 22.1391344,15.3121161 L15.1483703,22.4314554 C14.67528,22.9132469 13.9006458,22.9185694 13.4209797,22.4433242 L9.33752505,18.397505 C8.85937522,17.9237621 8.85580271,17.1521006 9.32954564,16.6739507 C9.80328856,16.1958009 10.5749501,16.1922284 11.0530999,16.6659713 L14.2668983,19.8501494 L20.3999281,13.6043199 Z" id="Path-8" fill="#FFFFFF" fill-rule="nonzero"></path>
                </g>
            </g>
        </g>
    </g>
</svg>