<?xml version="1.0" encoding="UTF-8"?>
<svg width="14px" height="17px" viewBox="0 0 14 17" version="1.1" xmlns="http://www.w3.org/2000/svg" xmlns:xlink="http://www.w3.org/1999/xlink">
    <!-- Generator: Sketch 51.3 (57544) - http://www.bohemiancoding.com/sketch -->
    <title>ic_a-form_del</title>
    <desc>Created with Sketch.</desc>
    <defs></defs>
    <g id="Page-1" stroke="none" stroke-width="1" fill="none" fill-rule="evenodd">
        <g id="创建表单" transform="translate(-115.000000, -481.000000)" fill-rule="nonzero">
            <g id="02" transform="translate(0.000000, 305.000000)">
                <g id="操作栏" transform="translate(1.000000, 163.000000)">
                    <g id="编辑" transform="translate(109.666667, 10.000000)">
                        <g id="ic_a-form_del">
                            <rect id="Rectangle-path" fill="#000000" opacity="0" x="0" y="0" width="24" height="24"></rect>
                            <g id="icon_form_subform_de" transform="translate(2.835322, 2.752580)">
                                <rect id="Rectangle-path" fill="#000000" opacity="0" x="0" y="0" width="17.308657" height="17.308657"></rect>
                                <path d="M4.44286382,17.0112498 C3.88750585,17.0112498 3.42470752,16.6410112 3.33214786,16.0856532 L2.03631258,5.27590078 C2.03631258,4.99822178 2.12887225,4.62798314 2.31399158,4.44286381 C2.59167057,4.16518482 2.86934955,4.07262515 3.23958819,4.07262517 L14.1616284,4.07262517 C14.4393074,4.07262517 14.8095461,4.16518483 14.9946654,4.44286381 C15.1797847,4.62798314 15.2723444,4.99822178 15.2723444,5.27590078 L13.9765091,16.0856532 C13.8839494,16.6410112 13.3285915,17.0112498 12.7732335,17.0112498 L4.44286382,17.0112498 Z M3.23958819,4.99822178 C3.14702853,4.99822178 3.14702853,4.99822178 3.05446888,5.09078145 L3.05446888,5.18334111 L4.35030415,15.9930935 C4.35030415,16.0856532 4.44286382,16.1782129 4.53542348,16.1782129 L12.8657931,16.1782129 C12.9583528,16.1782129 13.0509125,16.0856532 13.0509125,15.9930935 L14.3467478,5.18334111 L14.3467478,5.09078145 C14.3467478,5.09078145 14.2541881,4.99822178 14.1616284,4.99822178 L3.23958819,4.99822178 Z" id="Shape" stroke="#FF596D" stroke-width="0.4" fill="#FF596D"></path>
                                <path d="M6.69633561,13.2360318 C6.40263667,13.2360318 6.10893775,12.9624973 6.10893775,12.6889628 L6.10893775,7.67416311 C6.10893775,7.40062858 6.40263669,7.12709406 6.69633561,7.12709405 C6.99003453,7.12709403 7.28373346,7.40062858 7.28373346,7.67416311 L7.28373346,12.6889628 C7.28373346,12.9624973 6.99003453,13.2360318 6.69633561,13.2360318 Z M10.6123214,13.2360318 C10.3186224,13.2360318 10.0249235,12.9624973 10.0249235,12.6889628 L10.0249235,7.67416311 C10.0249235,7.40062858 10.3186224,7.12709406 10.6123214,7.12709405 C10.9060203,7.12709403 11.1997192,7.40062858 11.1997192,7.67416311 L11.1997192,12.6889628 C11.1997192,12.9624973 10.9060203,13.2360318 10.6123214,13.2360318 Z" id="Shape" stroke="#FF596D" stroke-width="0.4" fill="#FF596D"></path>
                                <path d="M13.2360318,4.97982386 L4.07262517,4.97982386 L5.58411493,1.68514934 C5.77305116,1.26744418 6.15092358,0.954165336 6.62326412,0.954165336 L10.6853928,0.954165336 C10.9687972,0.954165336 11.3466696,1.05859162 11.724542,1.68514934 L13.2360318,4.97982386 Z M5.58411493,4.08652718 L11.724542,4.08652718 L10.874329,2.20728076 C10.874329,2.20728076 10.7928558,1.99842818 10.6853928,1.9984282 L6.62326412,1.9984282 C6.52879601,1.9984282 6.52879601,1.9984282 6.43432792,2.20728076 L5.58411493,4.08652718 Z" id="Shape" stroke="#FF596D" stroke-width="0.4" fill="#FF596D"></path>
                            </g>
                        </g>
                    </g>
                </g>
            </g>
        </g>
    </g>
</svg>