<?xml version="1.0" encoding="UTF-8"?>
<svg width="44px" height="44px" viewBox="0 0 44 44" version="1.1" xmlns="http://www.w3.org/2000/svg" xmlns:xlink="http://www.w3.org/1999/xlink">
    <!-- Generator: Sketch 52.2 (67145) - http://www.bohemiancoding.com/sketch -->
    <title>ic_a-qwgg</title>
    <desc>Created with Sketch.</desc>
    <g id="ic_a-qwgg" stroke="none" stroke-width="1" fill="none" fill-rule="evenodd">
        <rect id="矩形" fill="#FF5955" fill-rule="nonzero" x="0" y="0" width="44" height="44" rx="4"></rect>
        <g id="分组" transform="translate(6.000000, 9.000000)">
            <g transform="translate(0.746667, 0.093333)">
                <path d="M1.17333333,0 L29.3333333,0 C29.9813067,0 30.5066667,0.52536 30.5066667,1.17333333 L30.5066667,24.64 C30.5066667,25.2879733 29.9813067,25.8133333 29.3333333,25.8133333 L1.17333333,25.8133333 C0.52536,25.8133333 0,25.2879733 0,24.64 L0,1.17333333 C0,0.52536 0.52536,0 1.17333333,0" id="Fill-2" fill="#FFFFFF"></path>
                <path d="M15.2540616,7.00498612 L26.8426169,7.00498612 C27.1187593,7.00498612 27.3426169,6.7811285 27.3426169,6.50498612 L27.3426169,5.00498612 C27.3426169,4.72884375 27.1187593,4.50498612 26.8426169,4.50498612 L15.2540616,4.50498612 C14.9779193,4.50498612 14.7540616,4.72884375 14.7540616,5.00498612 L14.7540616,6.50498612 C14.7540616,6.7811285 14.9779193,7.00498612 15.2540616,7.00498612 Z" id="路径" fill="#FF5955" opacity="0.200000003"></path>
                <path d="M15.2806388,11.6328987 L23.6673054,11.6328987 C23.9434478,11.6328987 24.1673054,11.4090411 24.1673054,11.1328987 L24.1673054,10.6328987 C24.1673054,10.3567564 23.9434478,10.1328987 23.6673054,10.1328987 L15.2806388,10.1328987 C15.0044964,10.1328987 14.7806388,10.3567564 14.7806388,10.6328987 L14.7806388,11.1328987 C14.7806388,11.4090411 15.0044964,11.6328987 15.2806388,11.6328987 Z" id="路径" fill="#FF5955" opacity="0.200000003"></path>
                <path d="M4.78771205,21.74 L19.0410454,21.74 C19.3171878,21.74 19.5410454,21.5161424 19.5410454,21.24 L19.5410454,20.74 C19.5410454,20.4638576 19.3171878,20.24 19.0410454,20.24 L4.78771205,20.24 C4.51156968,20.24 4.28771205,20.4638576 4.28771205,20.74 L4.28771205,21.24 C4.28771205,21.5161424 4.51156968,21.74 4.78771205,21.74 Z" id="路径" fill="#FF5955" opacity="0.200000003"></path>
                <path d="M4.78771205,18.1361366 L26.3743787,18.1361366 C26.6505211,18.1361366 26.8743787,17.912279 26.8743787,17.6361366 L26.8743787,17.1361366 C26.8743787,16.8599942 26.6505211,16.6361366 26.3743787,16.6361366 L4.78771205,16.6361366 C4.51156968,16.6361366 4.28771205,16.8599942 4.28771205,17.1361366 L4.28771205,17.6361366 C4.28771205,17.912279 4.51156968,18.1361366 4.78771205,18.1361366 Z" id="路径" fill="#FF5955" opacity="0.200000003"></path>
            </g>
            <polygon id="N" fill="#FF5955" opacity="0.800000012" points="5.29600863 4.06768111 6.59657966 4.06768111 10.5205247 9.79241684 10.5649887 9.79241684 10.5649887 4.06768111 11.8766757 4.06768111 11.8766757 12.0044992 10.6094527 12.0044992 6.64104363 6.20195152 6.59657966 6.20195152 6.59657966 12.0044992 5.29600863 12.0044992"></polygon>
        </g>
    </g>
</svg>