<?xml version="1.0" encoding="UTF-8"?>
<svg width="26px" height="26px" viewBox="0 0 26 26" version="1.1" xmlns="http://www.w3.org/2000/svg" xmlns:xlink="http://www.w3.org/1999/xlink">
    <!-- Generator: Sketch 51.3 (57544) - http://www.bohemiancoding.com/sketch -->
    <title>ic_a-form_single</title>
    <desc>Created with Sketch.</desc>
    <defs></defs>
    <g id="Page-1" stroke="none" stroke-width="1" fill="none" fill-rule="evenodd">
        <g id="创建表单" transform="translate(-310.000000, -98.000000)" fill="#7B7D80">
            <g id="01" transform="translate(8.000000, 80.000000)">
                <g id="多项选择" transform="translate(270.000000, 0.000000)">
                    <g id="ic_a-form_checkbox" transform="translate(31.000000, 17.000000)">
                        <g transform="translate(1.000000, 1.000000)">
                            <path d="M2.78571429,1.57857143 C2.11902769,1.57857143 1.57857143,2.11902769 1.57857143,2.78571429 L1.57857143,23.2142857 C1.57857143,23.8809723 2.11902769,24.4214286 2.78571429,24.4214286 L23.2142857,24.4214286 C23.8809723,24.4214286 24.4214286,23.8809723 24.4214286,23.2142857 L24.4214286,2.78571429 C24.4214286,2.11902769 23.8809723,1.57857143 23.2142857,1.57857143 L2.78571429,1.57857143 Z M2.78571429,0 L23.2142857,0 C24.7527932,-2.82619246e-16 26,1.24720677 26,2.78571429 L26,23.2142857 C26,24.7527932 24.7527932,26 23.2142857,26 L2.78571429,26 C1.24720677,26 1.88412831e-16,24.7527932 0,23.2142857 L0,2.78571429 C-1.88412831e-16,1.24720677 1.24720677,2.82619246e-16 2.78571429,0 Z" id="Rectangle-4" fill-rule="nonzero"></path>
                            <g id="Group-2" transform="translate(13.968010, 10.525697) rotate(-45.000000) translate(-13.968010, -10.525697) translate(7.468010, 6.192363)">
                                <path d="M0.928571429,0 C1.44140727,-9.42064153e-17 1.85714286,0.415735589 1.85714286,0.928571429 L1.85714286,7.42857143 C1.85714286,7.94140727 1.44140727,8.35714286 0.928571429,8.35714286 C0.415735589,8.35714286 6.28042769e-17,7.94140727 0,7.42857143 L0,0.928571429 C-6.28042769e-17,0.415735589 0.415735589,9.42064153e-17 0.928571429,0 Z" id="Rectangle-6"></path>
                                <path d="M12.0714286,7.42857143 C12.0714286,7.94140727 11.655693,8.35714286 11.1428571,8.35714286 L0.928571429,8.35714286 C0.415735589,8.35714286 0,7.94140727 0,7.42857143 C0,6.91573559 0.415735589,6.5 0.928571429,6.5 L11.1428571,6.5 C11.655693,6.5 12.0714286,6.91573559 12.0714286,7.42857143 Z" id="Rectangle-6"></path>
                            </g>
                        </g>
                    </g>
                </g>
            </g>
        </g>
    </g>
</svg>