<?xml version="1.0" encoding="UTF-8"?>
<svg width="44px" height="44px" viewBox="0 0 44 44" version="1.1" xmlns="http://www.w3.org/2000/svg" xmlns:xlink="http://www.w3.org/1999/xlink">
    <!-- Generator: Sketch 52.2 (67145) - http://www.bohemiancoding.com/sketch -->
    <title>ic_a-qycx</title>
    <desc>Created with Sketch.</desc>
    <g id="ic_a-qycx" stroke="none" stroke-width="1" fill="none" fill-rule="evenodd">
        <rect id="矩形" fill="#FF6D26" fill-rule="nonzero" x="0" y="0" width="44" height="44" rx="4"></rect>
        <g id="滴滴外卖" transform="translate(11.000000, 12.000000)" fill="#FFFFFF">
            <path d="M18.425,4.94 L18.425,8.46 C18.37,12.475 15.235,15.61 11.33,15.61 C7.425,15.61 4.29,12.475 4.235,8.46 L4.235,4.94 L18.425,4.94 L18.425,0.65 L0.99,0.65 C0.44,0.705 0,1.145 0,1.695 L0,8.625 C0,9.395 0.055,10.11 0.22,10.88 C0.385,11.595 0.55,12.31 0.935,12.97 C1.21,13.685 1.595,14.345 1.98,14.895 C2.42,15.445 2.805,16.05 3.3,16.545 C3.575,16.82 3.96,17.095 4.235,17.425 C4.455,17.645 4.73,17.755 4.95,17.975 C5.5,18.415 6.215,18.745 6.875,19.02 C7.59,19.295 8.305,19.515 9.02,19.68 C9.735,19.845 10.505,19.9 11.275,19.9 C12.045,19.9 12.815,19.845 13.53,19.68 C14.245,19.515 14.96,19.35 15.675,19.02 C16.39,18.745 16.995,18.36 17.6,17.975 C17.875,17.755 18.095,17.645 18.315,17.425 C18.59,17.15 18.975,16.875 19.25,16.545 C19.745,16.05 20.24,15.5 20.57,14.895 C21.01,14.345 21.34,13.685 21.615,12.97 C21.89,12.255 22.11,11.54 22.33,10.88 C22.495,10.165 22.55,9.395 22.55,8.625 L22.55,4.94 L18.425,4.94 Z" id="路径"></path>
        </g>
    </g>
</svg>