<?xml version="1.0" encoding="UTF-8"?>
<svg width="44px" height="44px" viewBox="0 0 44 44" version="1.1" xmlns="http://www.w3.org/2000/svg" xmlns:xlink="http://www.w3.org/1999/xlink">
    <!-- Generator: Sketch 52.2 (67145) - http://www.bohemiancoding.com/sketch -->
    <title>ic_a-bdlc</title>
    <desc>Created with Sketch.</desc>
    <g id="ic_a-bdlc" stroke="none" stroke-width="1" fill="none" fill-rule="evenodd">
        <g id="分组-2">
            <rect id="矩形" fill="#FF5955" fill-rule="nonzero" x="0" y="0" width="44" height="44" rx="4"></rect>
            <g id="分组" transform="translate(9.973333, 7.000000)">
                <path d="M20.0194133,30 L1.17333333,30 C0.52536,30 0,29.4627 0,28.8 L0,1.2 C0,0.5373 0.52536,-1.92901251e-15 1.17333333,-1.92901251e-15 L24.0533333,-1.92901251e-15 C24.7013067,-1.92901251e-15 25.2266667,0.5373 25.2266667,1.2 L25.2266667,24 L20.0194133,30 Z" id="Fill-2" fill="#FFFFFF"></path>
                <path d="M22.4666667,2.27424 C22.7905067,2.27424 23.0533333,2.53706667 23.0533333,2.86090667 L23.0533333,6.67424 C23.0533333,6.99808 22.7905067,7.26090667 22.4666667,7.26090667 L2.76,7.26090667 C2.43616,7.26090667 2.17333333,6.99808 2.17333333,6.67424 L2.17333333,2.86090667 C2.17333333,2.53706667 2.43616,2.27424 2.76,2.27424 L22.4666667,2.27424 Z" id="Fill-6" fill="#FF5955"></path>
                <path d="M19.36,4.91424 C19.36,5.56221333 18.83464,6.08757333 18.1866667,6.08757333 C17.5386933,6.08757333 17.0133333,5.56221333 17.0133333,4.91424 C17.0133333,4.26626667 17.5386933,3.74090667 18.1866667,3.74090667 C18.83464,3.74090667 19.36,4.26626667 19.36,4.91424 Z M8.50666667,4.91424 C8.50666667,5.56221333 7.98130667,6.08757333 7.33333333,6.08757333 C6.68536,6.08757333 6.16,5.56221333 6.16,4.91424 C6.16,4.26626667 6.68536,3.74090667 7.33333333,3.74090667 C7.98130667,3.74090667 8.50666667,4.26626667 8.50666667,4.91424 Z" id="8" fill="#FFFFFF" opacity="0.900000036"></path>
            </g>
            <path d="M12.6879784,17.4252672 L21.0560565,17.4252672 C21.3321989,17.4252672 21.5560565,17.6491248 21.5560565,17.9252672 L21.5560565,19.4252672 C21.5560565,19.7014096 21.3321989,19.9252672 21.0560565,19.9252672 L12.6879784,19.9252672 C12.411836,19.9252672 12.1879784,19.7014096 12.1879784,19.4252672 L12.1879784,17.9252672 C12.1879784,17.6491248 12.411836,17.4252672 12.6879784,17.4252672 Z M24.1378516,17.4252672 L32.5059298,17.4252672 C32.7820722,17.4252672 33.0059298,17.6491248 33.0059298,17.9252672 L33.0059298,19.4252672 C33.0059298,19.7014096 32.7820722,19.9252672 32.5059298,19.9252672 L24.1378516,19.9252672 C23.8617093,19.9252672 23.6378516,19.7014096 23.6378516,19.4252672 L23.6378516,17.9252672 C23.6378516,17.6491248 23.8617093,17.4252672 24.1378516,17.4252672 Z" id="合并形状" fill="#FF5955" fill-rule="nonzero" opacity="0.400000006"></path>
            <path d="M12.6879784,21.9252672 L21.0560565,21.9252672 C21.3321989,21.9252672 21.5560565,22.1491248 21.5560565,22.4252672 L21.5560565,23.9252672 C21.5560565,24.2014096 21.3321989,24.4252672 21.0560565,24.4252672 L12.6879784,24.4252672 C12.411836,24.4252672 12.1879784,24.2014096 12.1879784,23.9252672 L12.1879784,22.4252672 C12.1879784,22.1491248 12.411836,21.9252672 12.6879784,21.9252672 Z M24.1378516,21.9252672 L32.5059298,21.9252672 C32.7820722,21.9252672 33.0059298,22.1491248 33.0059298,22.4252672 L33.0059298,23.9252672 C33.0059298,24.2014096 32.7820722,24.4252672 32.5059298,24.4252672 L24.1378516,24.4252672 C23.8617093,24.4252672 23.6378516,24.2014096 23.6378516,23.9252672 L23.6378516,22.4252672 C23.6378516,22.1491248 23.8617093,21.9252672 24.1378516,21.9252672 Z" id="合并形状" fill="#FF5955" fill-rule="nonzero" opacity="0.400000006"></path>
            <rect id="矩形" fill="#FF5955" fill-rule="nonzero" opacity="0.400000006" x="12.1879784" y="26.4252672" width="9.36807815" height="2.5" rx="0.5"></rect>
            <polygon id="路径-2" fill="#FF5955" fill-rule="nonzero" opacity="0.200000003" points="29.0503672 34.8862354 29.0503672 29.803928 33.5905855 29.803928"></polygon>
        </g>
    </g>
</svg>