<?xml version="1.0" encoding="UTF-8"?>
<svg width="28px" height="28px" viewBox="0 0 28 28" version="1.1" xmlns="http://www.w3.org/2000/svg" xmlns:xlink="http://www.w3.org/1999/xlink">
    <!-- Generator: Sketch 51.3 (57544) - http://www.bohemiancoding.com/sketch -->
    <title>ic_a-form_double</title>
    <desc>Created with Sketch.</desc>
    <defs></defs>
    <g id="Page-1" stroke="none" stroke-width="1" fill="none" fill-rule="evenodd">
        <g id="创建表单" transform="translate(-129.000000, -98.000000)" fill="#7B7D80">
            <g id="01" transform="translate(8.000000, 80.000000)">
                <g id="多行文字" transform="translate(90.000000, 0.000000)">
                    <g id="ic_a-form_double" transform="translate(31.000000, 18.000000)">
                        <path d="M3,1.7 C2.28202983,1.7 1.7,2.28202983 1.7,3 L1.7,25 C1.7,25.7179702 2.28202983,26.3 3,26.3 L25,26.3 C25.7179702,26.3 26.3,25.7179702 26.3,25 L26.3,3 C26.3,2.28202983 25.7179702,1.7 25,1.7 L3,1.7 Z M3,0 L25,0 C26.6568542,-3.04359188e-16 28,1.34314575 28,3 L28,25 C28,26.6568542 26.6568542,28 25,28 L3,28 C1.34314575,28 2.02906125e-16,26.6568542 0,25 L0,3 C-2.02906125e-16,1.34314575 1.34314575,3.04359188e-16 3,0 Z" id="Rectangle-4" fill-rule="nonzero"></path>
                        <polygon id="T" points="6 6 14.0632263 6 14.0632263 8.00565357 10.9958727 8.00565357 10.9958727 14.623779 8.98431607 14.623779 8.98431607 8.00565357 6 8.00565357"></polygon>
                    </g>
                </g>
            </g>
        </g>
    </g>
</svg>