<?xml version="1.0" encoding="UTF-8"?>
<svg width="44px" height="44px" viewBox="0 0 44 44" version="1.1" xmlns="http://www.w3.org/2000/svg" xmlns:xlink="http://www.w3.org/1999/xlink">
    <!-- Generator: Sketch 52.2 (67145) - http://www.bohemiancoding.com/sketch -->
    <title>ic_a-qyyc</title>
    <desc>Created with Sketch.</desc>
    <g id="ic_a-qyyc" stroke="none" stroke-width="1" fill="none" fill-rule="evenodd">
        <rect id="矩形" fill="#FF7738" fill-rule="nonzero" x="0" y="0" width="44" height="44" rx="4"></rect>
        <g id="分组" transform="translate(5.000000, 9.000000)">
            <g transform="translate(0.280000, 0.973333)">
                <path d="M32.1167733,9.67712533 C31.8589333,9.744592 31.4183467,9.80589867 31.1763467,9.841392 C31.3544,10.3620587 31.4893333,10.8968053 31.5790933,11.4400587 L31.5790933,15.253392 C31.85072,15.5232587 31.8724267,15.719792 31.8724267,16.133392 L31.8724267,22.5867253 C31.8724267,23.4080587 31.44768,24.0504587 30.62928,24.0504587 L28.4064,24.0504587 C27.588,24.0504587 27.1788,23.701392 27.1793867,22.8800587 L27.1793867,21.413392 C26.0832,21.5131253 24.63208,21.7067253 23.3660533,21.7067253 L9.87242667,21.7067253 C8.60610667,21.7067253 7.15498667,21.5131253 6.05909333,21.413392 L6.05909333,22.8800587 C6.05909333,23.701392 5.65048,24.0504587 4.83208,24.0504587 L2.6092,24.0504587 C1.7908,24.0504587 1.36634667,23.4080587 1.36605333,22.5867253 L1.36605333,16.133392 C1.36605333,15.719792 1.38776,15.5232587 1.65938667,15.253392 L1.65938667,11.4400587 C1.74914667,10.8968053 1.88408,10.3620587 2.06213333,9.841392 C1.82042667,9.806192 1.37954667,9.744592 1.12170667,9.67712533 C0.752986667,9.58032533 0.194773333,9.260592 0.194773333,8.93176533 L0.194773333,8.186992 C0.21032,7.712672 0.597813333,7.33573867 1.07242667,7.333392 L4.59242667,7.333392 C5.76576,4.17712533 6.27205333,0.002992 8.93376,0.002992 L24.3044267,0.002992 C26.96584,0.002992 27.4724267,4.17712533 28.64576,7.333392 L32.16576,7.333392 C32.6403733,7.33544533 33.0284533,7.71237867 33.044,8.186992 L33.044,8.93205867 C33.044,9.260592 32.4857867,9.58032533 32.1167733,9.67712533" id="Fill-2" fill="#FFFFFF"></path>
                <path d="M26.8740267,7.44477067 C26.8749067,8.67823733 25.8758133,9.67909067 24.6423467,9.67997067 L24.64176,9.67997067 L8.58557333,9.67997067 C7.39376,9.72045067 6.39525333,8.78735733 6.35448,7.595544 C6.35301333,7.545384 6.35301333,7.49493067 6.35477333,7.44477067 C6.35565333,7.12063733 6.42664,6.80061067 6.56245333,6.506104 C6.56245333,6.506104 7.30165333,4.68157067 7.75162667,3.51703733 C8.2016,2.352504 8.99242667,2.34663733 8.99242667,2.34663733 L24.5390933,2.34663733 C24.5390933,2.34663733 25.3310933,2.34957067 25.7796,3.51703733 C26.1277867,4.497064 26.42376,5.494984 26.6663467,6.506104 C26.9444267,7.104504 26.8740267,7.10157067 26.8740267,7.44477067" id="Fill-4" fill="#FF7738" opacity="0.300000012"></path>
                <path d="M12.6590933,14.663792 L20.5790933,14.663792 C20.9789067,14.658512 21.30744,14.978832 21.3124267,15.3789387 L21.3124267,15.379232 L21.3124267,17.171792 C21.3080267,17.5724853 20.98008,17.894272 20.5790933,17.8904587 L12.6590933,17.8904587 C12.2584,17.8939787 11.9304533,17.5724853 11.92576,17.171792 L11.92576,15.379232 C11.9304533,14.9794187 12.2584,14.6590987 12.6585067,14.663792 L12.6590933,14.663792 Z M27.1790933,14.6667253 C28.1509067,14.6667253 28.9390933,15.4546187 28.9390933,16.4267253 C28.9390933,17.3985387 28.1509067,18.1867253 27.1790933,18.1867253 C26.20728,18.1867253 25.4190933,17.3985387 25.4190933,16.4267253 C25.4190933,15.4546187 26.20728,14.6667253 27.1790933,14.6667253 Z M6.05909333,14.6667253 C7.03090667,14.6667253 7.81909333,15.4546187 7.81909333,16.4267253 C7.81909333,17.3985387 7.03090667,18.1867253 6.05909333,18.1867253 C5.08728,18.1867253 4.29909333,17.3985387 4.29909333,16.4267253 C4.29909333,15.4546187 5.08728,14.6667253 6.05909333,14.6667253 Z" id="Fill-6" fill="#FF7738" opacity="0.800000012"></path>
            </g>
        </g>
    </g>
</svg>