<?xml version="1.0" encoding="UTF-8"?>
<svg width="18px" height="17px" viewBox="0 0 18 17" version="1.1" xmlns="http://www.w3.org/2000/svg" xmlns:xlink="http://www.w3.org/1999/xlink">
    <!-- Generator: Sketch 51.3 (57544) - http://www.bohemiancoding.com/sketch -->
    <title>ic_a-form_heart_off</title>
    <desc>Created with Sketch.</desc>
    <defs></defs>
    <g id="Page-1" stroke="none" stroke-width="1" fill="none" fill-rule="evenodd">
        <g id="创建表单-评分" transform="translate(-116.000000, -334.000000)" fill="#E3E4E8" fill-rule="nonzero">
            <g id="Group-2" transform="translate(15.000000, 290.000000)">
                <g id="Group-3" transform="translate(0.000000, 33.000000)">
                    <g id="一行" transform="translate(80.000000, 0.000000)">
                        <path d="M33.6017886,11 C32.8238438,11 32.0360227,11.1780642 31.3234992,11.5149495 C30.7713255,11.7760278 30.260938,12.1337092 29.8258966,12.5622716 C29.3908794,12.1337092 28.8804919,11.7760036 28.328294,11.5149253 C27.6157946,11.1780642 26.8279978,11 26.0500288,11 C24.6753822,11 23.4000322,11.5196329 22.4588983,12.4632176 C21.5181041,13.4064384 21,14.6844576 21,16.0618221 C21,19.4071619 23.8411402,22.0060785 28.1417124,25.9400395 L28.3154087,26.0989092 L29.8258723,27.4568123 L30.1217724,27.190808 L31.3335939,26.1014814 L31.5096925,25.9404035 C35.8105317,22.0062968 38.6518174,19.4072589 38.6518174,16.061822 C38.6518174,14.6844576 38.1337133,13.4064627 37.1929192,12.4632176 C36.2517852,11.5196572 34.9764352,11 33.6017886,11 Z" id="ic_a-form_heart_off"></path>
                    </g>
                </g>
            </g>
        </g>
    </g>
</svg>