<?xml version="1.0" encoding="UTF-8"?>
<svg width="32px" height="33px" viewBox="0 0 32 33" version="1.1" xmlns="http://www.w3.org/2000/svg" xmlns:xlink="http://www.w3.org/1999/xlink">
    <!-- Generator: Sketch 50.2 (55047) - http://www.bohemiancoding.com/sketch -->
    <title>icon_a-home_app10</title>
    <desc>Created with Sketch.</desc>
    <defs>
        <linearGradient x1="50%" y1="0%" x2="50%" y2="100%" id="linearGradient-1">
            <stop stop-color="#8CA3F8" offset="0%"></stop>
            <stop stop-color="#4F75F6" offset="100%"></stop>
        </linearGradient>
    </defs>
    <g id="Symbols" stroke="none" stroke-width="1" fill="none" fill-rule="evenodd">
        <g id="ic/应用管理">
            <g id="Group-12" transform="translate(0.000000, 0.000000)">
                <g id="Group-2" transform="translate(1.085714, 1.500000)">
                    <path d="M6.54961789,20.2740656 L19.6340476,20.2740656 L20.5013341,27.2910856 C20.5695772,27.8432249 20.1773018,28.3461442 19.6251625,28.4143872 C19.584169,28.4194539 19.5429028,28.4219944 19.5015975,28.4219944 L6.68206805,28.4219944 C6.12572739,28.4219944 5.67472418,27.9709912 5.67472418,27.4146506 C5.67472418,27.3733452 5.67726472,27.332079 5.6823314,27.2910856 L6.54961789,20.2740656 Z" id="Rectangle-12" fill="#A6B9FA"></path>
                    <path d="M2.51821978,0.0870762314 L23.6654457,0.0870762314 C24.778127,0.0870762314 25.6801335,0.989082662 25.6801335,2.10176398 L25.6801335,22.2419259 C25.6801335,23.3546072 24.778127,24.2566136 23.6654457,24.2566136 L2.51821978,24.2566136 C1.40553846,24.2566136 0.503532029,23.3546072 0.503532029,22.2419259 L0.503532029,2.10176398 C0.503532029,0.989082662 1.40553846,0.0870762314 2.51821978,0.0870762314 Z" id="Mask" fill="url(#linearGradient-1)"></path>
                    <g id="Group" transform="translate(16.421771, 15.164852)">
                        <circle id="Oval" fill="#FFC363" cx="6.62857143" cy="6.62857143" r="6.21428571"></circle>
                        <path d="M5.8,5.8 L5.8,3.31428571 L7.45714286,3.31428571 L7.45714286,5.8 L9.94285714,5.8 L9.94285714,7.45714286 L7.45714286,7.45714286 L7.45714286,9.94285714 L5.8,9.94285714 L5.8,7.45714286 L3.31428571,7.45714286 L3.31428571,5.8 L5.8,5.8 Z" id="Combined-Shape" fill="#FFFFFF"></path>
                    </g>
                    <path d="M8.79482826,17.3445751 C8.41473598,17.9434783 7.62110331,18.1208597 7.0222001,17.7407674 C6.42329688,17.3606751 6.24591558,16.5670424 6.62600786,15.9681392 L9.45866634,11.5047804 C9.69426725,11.1335491 10.1033943,10.9086349 10.5430765,10.9086349 L14.7514243,10.9086349 L17.4084375,6.96916196 C17.8050722,6.38108366 18.6033399,6.22588798 19.1914182,6.62252272 C19.7794965,7.01915746 19.9346921,7.81742511 19.5380574,8.40550341 L16.4991704,12.9111691 C16.260415,13.2651645 15.8613463,13.4773618 15.4343604,13.4773618 L11.2491446,13.4773618 L8.79482826,17.3445751 Z" id="Path-10" fill="#FFFFFF" fill-rule="nonzero"></path>
                </g>
            </g>
        </g>
    </g>
</svg>