<?xml version="1.0" encoding="UTF-8"?>
<svg width="22px" height="26px" viewBox="0 0 22 26" version="1.1" xmlns="http://www.w3.org/2000/svg" xmlns:xlink="http://www.w3.org/1999/xlink">
    <!-- Generator: Sketch 51.3 (57544) - http://www.bohemiancoding.com/sketch -->
    <title>ic_a-form_phone</title>
    <desc>Created with Sketch.</desc>
    <defs></defs>
    <g id="Page-1" stroke="none" stroke-width="1" fill="none" fill-rule="evenodd">
        <g id="创建表单" transform="translate(-312.000000, -192.000000)">
            <g id="02" transform="translate(8.000000, 174.000000)">
                <g id="多项选择" transform="translate(270.000000, 0.000000)">
                    <g id="ic_a-form_phone" transform="translate(33.857143, 18.000000)">
                        <path d="M3.68164284,1.57857143 C3.01495625,1.57857143 2.47449998,2.11902769 2.47449998,2.78571429 L2.47449998,23.2142857 C2.47449998,23.8809723 3.01495625,24.4214286 3.68164284,24.4214286 L18.6040714,24.4214286 C19.270758,24.4214286 19.8112143,23.8809723 19.8112143,23.2142857 L19.8112143,2.78571429 C19.8112143,2.11902769 19.270758,1.57857143 18.6040714,1.57857143 L3.68164284,1.57857143 Z M3.68164284,0 L18.6040714,0 C20.142579,0 21.3897857,1.24720677 21.3897857,2.78571429 L21.3897857,23.2142857 C21.3897857,24.7527932 20.142579,26 18.6040714,26 L3.68164284,26 C2.14313532,26 0.895928551,24.7527932 0.895928551,23.2142857 L0.895928551,2.78571429 C0.895928551,1.24720677 2.14313532,8.24737104e-16 3.68164284,0 Z" id="Rectangle-4" fill="#7B7D80" fill-rule="nonzero"></path>
                        <rect id="Rectangle-8" fill="#A7A7A7" x="6.96415975" y="20.4165192" width="8.35714286" height="1.86919511" rx="0.934597553"></rect>
                        <path d="M6.03028303,0.0796588349 L16.2554313,0.0796588349 C16.807716,0.0796588349 17.2554313,0.527374085 17.2554313,1.07965883 C17.2554313,1.18714093 17.2381034,1.29392013 17.2041146,1.3958866 L16.9422098,2.18160089 C16.8060957,2.58994303 16.4239569,2.86537312 15.9935265,2.86537312 L6.29218779,2.86537312 C5.86175738,2.86537312 5.47961854,2.58994303 5.34350449,2.18160089 L5.08159973,1.3958866 C4.90695196,0.871943283 5.19011195,0.30562331 5.71405526,0.130975537 C5.81602173,0.0969867139 5.92280093,0.0796588349 6.03028303,0.0796588349 Z" id="Rectangle-7" fill="#7B7D80" opacity="0"></path>
                    </g>
                </g>
            </g>
        </g>
    </g>
</svg>