<?xml version="1.0" encoding="UTF-8"?>
<svg width="44px" height="44px" viewBox="0 0 44 44" version="1.1" xmlns="http://www.w3.org/2000/svg" xmlns:xlink="http://www.w3.org/1999/xlink">
    <!-- Generator: Sketch 52.2 (67145) - http://www.bohemiancoding.com/sketch -->
    <title>ic_a-nkd</title>
    <desc>Created with Sketch.</desc>
    <g id="ic_a-nkd" stroke="none" stroke-width="1" fill="none" fill-rule="evenodd">
        <rect id="矩形" fill="#FF7738" fill-rule="nonzero" x="0" y="0" width="44" height="44" rx="4"></rect>
        <g id="分组" transform="translate(6.000000, 9.000000)">
            <g transform="translate(0.453333, 0.680000)">
                <path d="M29.8202667,7.33333333 L29.8202667,25.2266667 C29.8202667,25.5505067 29.55744,25.8133333 29.2336,25.8133333 L1.66026667,25.8133333 C1.33642667,25.8133333 1.0736,25.5505067 1.0736,25.2266667 L1.0736,7.33333333 L0.1936,7.33333333 L0.1936,0.586666667 C0.1936,0.262826667 0.456426667,0 0.780266667,0 L30.1136,0 C30.43744,0 30.7002667,0.262826667 30.7002667,0.586666667 L30.7002667,7.33333333 L29.8202667,7.33333333 Z" id="Fill-2" fill="#FFFFFF"></path>
                <polygon id="Fill-4" fill="#FF7738" opacity="0.200000003" points="1.0736 8.21333333 29.8202667 8.21333333 29.8202667 7.33333333 1.0736 7.33333333"></polygon>
                <path d="M27.1802667,23.4666667 L27.7669333,23.4666667 L27.7669333,18.48 L27.1802667,18.48 L27.1802667,23.4666667 Z M26.0069333,23.4666667 L26.5936,23.4666667 L26.5936,18.48 L26.0069333,18.48 L26.0069333,23.4666667 Z M18.5002667,23.4666667 L19.6736,23.4666667 L19.6736,18.48 L18.5002667,18.48 L18.5002667,23.4666667 Z M17.3269333,23.4666667 L17.9136,23.4666667 L17.9136,18.48 L17.3269333,18.48 L17.3269333,23.4666667 Z M24.5402667,23.4666667 L25.4202667,23.4666667 L25.4202667,18.48 L24.5402667,18.48 L24.5402667,23.4666667 Z M23.3669333,23.4666667 L23.9536,23.4666667 L23.9536,18.48 L23.3669333,18.48 L23.3669333,23.4666667 Z M21.6069333,23.4666667 L22.7802667,23.4666667 L22.7802667,18.48 L21.6069333,18.48 L21.6069333,23.4666667 Z M20.4336,23.4666667 L21.0202667,23.4666667 L21.0202667,18.48 L20.4336,18.48 L20.4336,23.4666667 Z" id="Fill-6" fill="#FF7738" opacity="0.300000012"></path>
                <polygon id="Fill-8" fill="#FFAB85" points="10.1726533 0 20.7212133 0 20.7212133 12.3229333 19.2692133 11.4429333 18.1340133 12.3229333 16.92548 11.4429333 15.7166533 12.3229333 14.4380133 11.4429333 13.0828133 12.3229333 11.7305467 11.4429333 10.1726533 12.3229333"></polygon>
            </g>
        </g>
    </g>
</svg>