<?xml version="1.0" encoding="UTF-8"?>
<svg width="20px" height="19px" viewBox="0 0 20 19" version="1.1" xmlns="http://www.w3.org/2000/svg" xmlns:xlink="http://www.w3.org/1999/xlink">
    <!-- Generator: Sketch 52.2 (67145) - http://www.bohemiancoding.com/sketch -->
    <title>ic_a-form_date_small</title>
    <desc>Created with Sketch.</desc>
    <g id="180816-创建表单" stroke="none" stroke-width="1" fill="none" fill-rule="evenodd">
        <g id="创建表单-全部字段（更新中）" transform="translate(-328.000000, -1499.000000)">
            <g id="04单行文本" transform="translate(0.000000, 1442.000000)">
                <g id="lis01" transform="translate(15.000000, 47.000000)">
                    <g id="ic_a-form_date_small" transform="translate(313.000000, 10.000000)">
                        <polygon id="mask" fill="#FFE8E8" opacity="0" points="0 0 20 0 20 20 0 20"></polygon>
                        <path d="M2.14285714,2.6858001 C1.6300213,2.6858001 1.21428571,3.10153569 1.21428571,3.61437153 L1.21428571,16.5073255 C1.21428571,17.0201613 1.6300213,17.4358969 2.14285714,17.4358969 L17.8571429,17.4358969 C18.3699787,17.4358969 18.7857143,17.0201613 18.7857143,16.5073255 L18.7857143,3.61437153 C18.7857143,3.10153569 18.3699787,2.6858001 17.8571429,2.6858001 L2.14285714,2.6858001 Z M2.14285714,1.47151438 L17.8571429,1.47151438 C19.0406102,1.47151438 20,2.4309042 20,3.61437153 L20,16.5073255 C20,17.6907928 19.0406102,18.6501826 17.8571429,18.6501826 L2.14285714,18.6501826 C0.959389822,18.6501826 1.44932947e-16,17.6907928 0,16.5073255 L0,3.61437153 C-1.44932947e-16,2.4309042 0.959389822,1.47151438 2.14285714,1.47151438 Z" id="Rectangle-4" fill="#D2D5DB" fill-rule="nonzero"></path>
                        <rect id="Rectangle-2" fill="#D2D5DB" opacity="0.900000036" x="0.714285714" y="5.81701978" width="18.5714286" height="1.42857143"></rect>
                        <g id="Group-3" transform="translate(4.736894, 0.049899)" fill="#D2D5DB">
                            <path d="M0.909090909,0.245794891 L0.909090909,0.245794891 C1.41116795,0.245794891 1.81818182,0.652808755 1.81818182,1.1548858 L1.81818182,2.95315233 C1.81818182,3.45522938 1.41116795,3.86224324 0.909090909,3.86224324 L0.909090909,3.86224324 C0.407013864,3.86224324 1.72509007e-16,3.45522938 1.11022302e-16,2.95315233 L2.22044605e-16,1.1548858 C1.605579e-16,0.652808755 0.407013864,0.245794891 0.909090909,0.245794891 Z" id="Rectangle-5"></path>
                            <path d="M9.60767709,0.245794891 L9.60767709,0.245794891 C10.1097541,0.245794891 10.516768,0.652808755 10.516768,1.1548858 L10.516768,2.95315233 C10.516768,3.45522938 10.1097541,3.86224324 9.60767709,3.86224324 L9.60767709,3.86224324 C9.10560005,3.86224324 8.69858618,3.45522938 8.69858618,2.95315233 L8.69858618,1.1548858 C8.69858618,0.652808755 9.10560005,0.245794891 9.60767709,0.245794891 Z" id="Rectangle-5"></path>
                        </g>
                    </g>
                </g>
            </g>
        </g>
    </g>
</svg>