<?xml version="1.0" encoding="UTF-8"?>
<svg width="72px" height="72px" viewBox="0 0 72 72" version="1.1" xmlns="http://www.w3.org/2000/svg" xmlns:xlink="http://www.w3.org/1999/xlink">
    <!-- Generator: Sketch 51.3 (57544) - http://www.bohemiancoding.com/sketch -->
    <title>ic_a-form_approval</title>
    <desc>Created with Sketch.</desc>
    <defs></defs>
    <g id="Page-1" stroke="none" stroke-width="1" fill="none" fill-rule="evenodd">
        <g id="选择表单类型" transform="translate(-239.000000, -108.000000)">
            <g id="普通单" transform="translate(197.000000, 85.000000)">
                <g id="ic_a-form_approval" transform="translate(42.000000, 23.000000)">
                    <circle id="Oval" fill="#F48265" opacity="0.08" cx="36" cy="36" r="36"></circle>
                    <rect id="Rectangle-5" fill="#FFFFFF" x="23" y="22" width="26" height="31"></rect>
                    <g id="ic_b-grouping_approv" transform="translate(15.000000, 15.000000)" fill-rule="nonzero">
                        <rect id="Rectangle-path" fill="#000000" opacity="0" x="0" y="0" width="42" height="42"></rect>
                        <path d="M32.9609309,3.87684138 L9.32218918,3.87684138 C7.9239154,3.87684138 6.78946686,5.01128993 6.78946686,6.40956371 L6.78946686,35.1137501 C6.78946686,36.5120238 7.9239154,37.6464724 9.32218918,37.6464724 L32.9609309,37.6464724 C34.3592047,37.6464724 35.4936532,36.5120238 35.4936532,35.1137501 L35.4936532,6.40956371 C35.4936532,5.01128993 34.3592047,3.87684138 32.9609309,3.87684138 Z M27.8954862,30.8977899 L14.3876338,30.8977899 L14.3876338,30.0535491 L27.8954862,30.0535491 L27.8954862,30.8977899 Z M28.6944998,28.3650676 L13.5886202,28.3650676 C13.0986591,28.3650676 12.6991523,28.0145569 12.6991523,27.5848987 L12.6991523,25.2406229 C12.6991523,24.1627084 13.6941503,23.2883161 14.9190532,23.2883161 L19.0196513,23.2883161 C18.7709018,22.4403064 18.5334591,21.5056113 18.2997853,20.5671472 C17.6967562,18.1701064 16.931663,15.7579899 16.931663,14.7629919 C16.931663,12.482788 18.816129,10.6360113 21.14156,10.6360113 C23.4669911,10.6360113 25.3514571,12.482788 25.3514571,14.7629919 C25.3514571,15.7617589 24.5863639,18.1738754 23.9833348,20.5709161 C23.7458921,21.5093802 23.5122183,22.4440754 23.2634688,23.2883161 L27.3602979,23.2883161 C28.5852008,23.2883161 29.5801988,24.1627084 29.5801988,25.2406229 L29.5801988,27.5848987 C29.5839678,28.0145569 29.184461,28.3650676 28.6944998,28.3650676 Z" id="Shape" fill="#F48265"></path>
                    </g>
                </g>
            </g>
        </g>
    </g>
</svg>