<?xml version="1.0" encoding="UTF-8"?>
<svg width="26px" height="26px" viewBox="0 0 26 26" version="1.1" xmlns="http://www.w3.org/2000/svg" xmlns:xlink="http://www.w3.org/1999/xlink">
    <!-- Generator: Sketch 51.3 (57544) - http://www.bohemiancoding.com/sketch -->
    <title>ic_a-form_single</title>
    <desc>Created with Sketch.</desc>
    <defs></defs>
    <g id="Page-1" stroke="none" stroke-width="1" fill="none" fill-rule="evenodd">
        <g id="创建表单" transform="translate(-130.000000, -98.000000)" fill="#7B7D80">
            <g id="01" transform="translate(8.000000, 80.000000)">
                <g id="多行文字" transform="translate(90.000000, 0.000000)">
                    <g id="ic_a-form_double" transform="translate(31.000000, 17.000000)">
                        <g transform="translate(1.000000, 1.000000)">
                            <path d="M2.78571429,1.57857143 C2.11902769,1.57857143 1.57857143,2.11902769 1.57857143,2.78571429 L1.57857143,23.2142857 C1.57857143,23.8809723 2.11902769,24.4214286 2.78571429,24.4214286 L23.2142857,24.4214286 C23.8809723,24.4214286 24.4214286,23.8809723 24.4214286,23.2142857 L24.4214286,2.78571429 C24.4214286,2.11902769 23.8809723,1.57857143 23.2142857,1.57857143 L2.78571429,1.57857143 Z M2.78571429,0 L23.2142857,0 C24.7527932,-2.82619246e-16 26,1.24720677 26,2.78571429 L26,23.2142857 C26,24.7527932 24.7527932,26 23.2142857,26 L2.78571429,26 C1.24720677,26 1.88412831e-16,24.7527932 0,23.2142857 L0,2.78571429 C-1.88412831e-16,1.24720677 1.24720677,2.82619246e-16 2.78571429,0 Z" id="Rectangle-4" fill-rule="nonzero"></path>
                            <polygon id="T" points="5.57142857 5.57142857 13.0587102 5.57142857 13.0587102 7.43382117 10.2104532 7.43382117 10.2104532 13.5792234 8.34257921 13.5792234 8.34257921 7.43382117 5.57142857 7.43382117"></polygon>
                        </g>
                    </g>
                </g>
            </g>
        </g>
    </g>
</svg>