<?xml version="1.0" encoding="UTF-8"?>
<svg width="44px" height="44px" viewBox="0 0 44 44" version="1.1" xmlns="http://www.w3.org/2000/svg" xmlns:xlink="http://www.w3.org/1999/xlink">
    <!-- Generator: Sketch 52.2 (67145) - http://www.bohemiancoding.com/sketch -->
    <title>ic_a-whdc</title>
    <desc>Created with Sketch.</desc>
    <g id="ic_a-whdc" stroke="none" stroke-width="1" fill="none" fill-rule="evenodd">
        <rect id="矩形" fill="#FCB105" fill-rule="nonzero" x="0" y="0" width="44" height="44" rx="4"></rect>
        <g id="分组" transform="translate(9.000000, 5.000000)">
            <g transform="translate(0.680000, 0.573333)">
                <path d="M1.375704,3.22666667 L23.375704,3.22666667 C24.0236773,3.22666667 24.5490373,3.75202667 24.5490373,4.4 L24.5490373,30.8 C24.5490373,31.4479733 24.0236773,31.9733333 23.375704,31.9733333 L1.375704,31.9733333 C0.727730667,31.9733333 0.202370667,31.4479733 0.202370667,30.8 L0.202370667,4.4 C0.202370667,3.75202667 0.727730667,3.22666667 1.375704,3.22666667" id="Fill-2" fill="#FFFFFF"></path>
                <path d="M6.201096,2.343792 L18.8437627,2.343792 C19.3873093,2.32853867 19.8405093,2.757392 19.8557627,3.30093867 L19.8557627,3.302992 L19.8557627,6.66752533 C19.841976,7.21253867 19.388776,7.64344533 18.8437627,7.62965867 L6.201096,7.62965867 C5.65608267,7.64344533 5.20288267,7.21253867 5.189096,6.66752533 L5.189096,3.302992 C5.203176,2.759152 5.655496,2.329712 6.19904267,2.343792 C6.19962933,2.343792 6.20050933,2.343792 6.201096,2.343792" id="Fill-4" fill="#FCB105"></path>
                <path d="M7.24237067,1.76 L17.8023707,1.76 C18.126504,1.76 18.3890373,2.02282667 18.3890373,2.34666667 L18.3890373,5.57333333 C18.3881573,5.89688 18.1262107,6.15912 17.8023707,6.16 L7.24237067,6.16 C6.91853067,6.15912 6.656584,5.89688 6.655704,5.57333333 L6.655704,2.34666667 C6.655704,2.02282667 6.91853067,1.76 7.24237067,1.76" id="Fill-6" fill="#FFFFFF"></path>
                <path d="M9.88237067,0 L15.455704,0 C15.779544,0.00088 16.0414907,0.26312 16.0423707,0.586666667 L16.0423707,2.93333333 C16.0414907,3.25688 15.779544,3.51912 15.455704,3.52 L9.88237067,3.52 C9.55853067,3.51912 9.296584,3.25688 9.295704,2.93333333 L9.295704,0.586666667 C9.296584,0.26312 9.55853067,0.00088 9.88237067,0" id="Fill-8" fill="#FFFFFF"></path>
                <path d="M14.2823707,23.1733333 L14.2823707,22.5866667 C14.2823707,19.36 18.4506373,19.6034667 18.5767707,15.8077333 C18.6823707,12.5634667 16.300504,10.4661333 12.4343707,10.4661333 C8.67383733,10.4661333 6.36237067,12.5341333 6.36237067,16.4266667 L9.58903733,16.4266667 C9.58903733,14.4642667 11.020504,13.4933333 12.5223707,13.4933333 C14.1474373,13.4933333 15.0335973,14.0829333 15.0335973,15.4586667 C15.0335973,18.2424 11.055704,18.3216 11.055704,21.4544 L11.055704,23.1733333 L14.2823707,23.1733333 Z M11.055704,26.9837333 L14.285304,26.9837333 L14.285304,24.0504 L11.055704,24.0504 L11.055704,26.9837333 Z" id="Fill-10" fill="#FCB105" opacity="0.800000012"></path>
            </g>
        </g>
    </g>
</svg>