<?xml version="1.0" encoding="UTF-8"?>
<svg width="26px" height="26px" viewBox="0 0 26 26" version="1.1" xmlns="http://www.w3.org/2000/svg" xmlns:xlink="http://www.w3.org/1999/xlink">
    <!-- Generator: Sketch 51.3 (57544) - http://www.bohemiancoding.com/sketch -->
    <title>ic_a-form_digital</title>
    <desc>Created with Sketch.</desc>
    <defs></defs>
    <g id="Page-1" stroke="none" stroke-width="1" fill="none" fill-rule="evenodd">
        <g id="创建表单" transform="translate(-130.000000, -192.000000)" fill="#7B7D80">
            <g id="02" transform="translate(8.000000, 174.000000)">
                <g id="多行文字" transform="translate(90.000000, 0.000000)">
                    <g id="ic_a-form_digital" transform="translate(32.000000, 18.000000)">
                        <path d="M2.78571429,1.57857143 C2.11902769,1.57857143 1.57857143,2.11902769 1.57857143,2.78571429 L1.57857143,23.2142857 C1.57857143,23.8809723 2.11902769,24.4214286 2.78571429,24.4214286 L23.2142857,24.4214286 C23.8809723,24.4214286 24.4214286,23.8809723 24.4214286,23.2142857 L24.4214286,2.78571429 C24.4214286,2.11902769 23.8809723,1.57857143 23.2142857,1.57857143 L2.78571429,1.57857143 Z M2.78571429,0 L23.2142857,0 C24.7527932,-2.82619246e-16 26,1.24720677 26,2.78571429 L26,23.2142857 C26,24.7527932 24.7527932,26 23.2142857,26 L2.78571429,26 C1.24720677,26 1.88412831e-16,24.7527932 0,23.2142857 L0,2.78571429 C-1.88412831e-16,1.24720677 1.24720677,2.82619246e-16 2.78571429,0 Z" id="Rectangle-4" fill-rule="nonzero"></path>
                        <path d="M6.37835714,8.75828571 L7.35892857,8.75828571 L7.35892857,16.7142857 L6.05521428,16.7142857 L6.05521428,10.3294286 C5.57607143,10.764 4.97435714,11.0871429 4.23892857,11.2988571 L4.23892857,10.0062857 C4.5955,9.91714286 4.97435714,9.76114286 5.3755,9.53828571 C5.77664285,9.29314286 6.11092857,9.03685714 6.37835714,8.75828571 Z M11.9850714,8.60228571 C12.7539286,8.60228571 13.3890714,8.82514286 13.8905,9.27085714 C14.3807857,9.71657143 14.6259286,10.2848571 14.6259286,10.998 C14.6259286,11.6888571 14.3585,12.3128571 13.8459286,12.8811429 C13.5339286,13.2154286 12.9767857,13.6388571 12.1967857,14.1625714 C11.3833571,14.6974286 10.8930714,15.1654286 10.7147857,15.5665714 L14.6370714,15.5665714 L14.6370714,16.7142857 L9.08792857,16.7142857 C9.08792857,15.9008571 9.34421428,15.1988571 9.87907143,14.5971429 C10.1687857,14.2628571 10.7816429,13.7725714 11.7065,13.1374286 C12.2190714,12.7808571 12.5756429,12.48 12.7985,12.246 C13.1439286,11.856 13.3222143,11.4325714 13.3222143,10.9868571 C13.3222143,10.5522857 13.1996429,10.2291429 12.9767857,10.0174286 C12.7427857,9.80571429 12.3973571,9.70542857 11.9405,9.70542857 C11.4502143,9.70542857 11.0825,9.87257143 10.8373571,10.2068571 C10.5922143,10.5188571 10.4585,10.998 10.4362143,11.622 L9.1325,11.622 C9.14364286,10.7305714 9.39992857,10.0174286 9.9125,9.47142857 C10.4362143,8.892 11.1270714,8.60228571 11.9850714,8.60228571 Z M18.7840714,8.60228571 C19.5863571,8.60228571 20.2437857,8.79171429 20.7340714,9.18171429 C21.2132143,9.57171429 21.4583571,10.1065714 21.4583571,10.7974286 C21.4583571,11.6665714 21.0126429,12.246 20.1323571,12.5357143 C20.6003571,12.6805714 20.9680714,12.8922857 21.2132143,13.182 C21.4806429,13.4828571 21.6143571,13.8728571 21.6143571,14.3408571 C21.6143571,15.0762857 21.3580714,15.678 20.8455,16.146 C20.3106429,16.6251429 19.6086429,16.8702857 18.7395,16.8702857 C17.9149286,16.8702857 17.2463571,16.6585714 16.7449286,16.2351429 C16.1877857,15.7671429 15.8757857,15.0762857 15.8089286,14.1848571 L17.1349286,14.1848571 C17.1572143,14.6974286 17.3132143,15.0985714 17.6252143,15.3771429 C17.9037857,15.6334286 18.2715,15.7671429 18.7283571,15.7671429 C19.2297857,15.7671429 19.6309286,15.6222857 19.9206429,15.3437143 C20.1769286,15.0874286 20.3106429,14.7754286 20.3106429,14.3965714 C20.3106429,13.9397143 20.1657857,13.6054286 19.8983571,13.3937143 C19.6309286,13.1708571 19.2409286,13.0705714 18.7283571,13.0705714 L18.1712143,13.0705714 L18.1712143,12.09 L18.7283571,12.09 C19.1963571,12.09 19.5529286,11.9897143 19.7980714,11.7891429 C20.0320714,11.5885714 20.1546429,11.2877143 20.1546429,10.8977143 C20.1546429,10.5077143 20.0432143,10.218 19.8315,10.0174286 C19.5975,9.81685714 19.2520714,9.71657143 18.7952143,9.71657143 C18.3272143,9.71657143 17.9706429,9.828 17.7143571,10.062 C17.4469286,10.296 17.2909286,10.6525714 17.2463571,11.1317143 L15.9649286,11.1317143 C16.0317857,10.3294286 16.3215,9.70542857 16.8563571,9.25971429 C17.3577857,8.814 18.0040714,8.60228571 18.7840714,8.60228571 Z" id="123"></path>
                    </g>
                </g>
            </g>
        </g>
    </g>
</svg>