<?xml version="1.0" encoding="UTF-8"?>
<svg width="44px" height="44px" viewBox="0 0 44 44" version="1.1" xmlns="http://www.w3.org/2000/svg" xmlns:xlink="http://www.w3.org/1999/xlink">
    <!-- Generator: Sketch 52.2 (67145) - http://www.bohemiancoding.com/sketch -->
    <title>ic_a-rwfp</title>
    <desc>Created with Sketch.</desc>
    <g id="ic_a-rwfp" stroke="none" stroke-width="1" fill="none" fill-rule="evenodd">
        <rect id="矩形" fill="#FF5955" fill-rule="nonzero" x="0" y="0" width="44" height="44" rx="4"></rect>
        <g id="分组" transform="translate(7.000000, 6.000000)">
            <g transform="translate(0.284768, 0.710728)">
                <path d="M1.45695364,4.8545404 L22.4370861,4.8545404 C23.2416159,4.8545404 23.8940397,5.50667285 23.8940397,6.31149404 L23.8940397,27.2916265 C23.8940397,28.0964477 23.2416159,28.7485801 22.4370861,28.7485801 L1.45695364,28.7485801 C0.652423841,28.7485801 0,28.0964477 0,27.2916265 L0,6.31149404 C0,5.50667285 0.652423841,4.8545404 1.45695364,4.8545404" id="Fill-2" fill="#FFFFFF"></path>
                <path d="M3.78807947,7.18566623 L20.1059603,7.18566623 C20.9104901,7.18566623 21.5629139,7.83779868 21.5629139,8.64261987 L21.5629139,24.9605007 C21.5629139,25.7653219 20.9104901,26.4174543 20.1059603,26.4174543 L3.78807947,26.4174543 C2.98354967,26.4174543 2.33112583,25.7653219 2.33112583,24.9605007 L2.33112583,8.64261987 C2.33112583,7.83779868 2.98354967,7.18566623 3.78807947,7.18566623" id="Fill-4" fill="#FF5955"></path>
                <path d="M13.5522331,14.7441669 C13.5522331,14.7441669 17.7153325,11.095955 21.7563391,7.6284053 C25.0796503,4.80162384 28.6503523,2.27963709 32.425902,0.0933324503 L34.9668291,3.10631258 C34.9668291,3.10631258 30.4893192,6.65224636 24.717743,12.7804848 C18.9732662,18.8819152 13.4782199,25.9280344 13.4782199,25.9280344 C13.4782199,25.9280344 12.1602596,23.3463126 9.05490861,19.686445 C7.59037881,17.9614119 6.03901457,16.3121404 4.40751788,14.7441669 L8.54526623,11.1454914 L13.5522331,14.7441669 Z" id="Fill-6" fill="#FF5955"></path>
                <path d="M13.5677351,16.4578066 C13.5677351,16.4578066 15.6366093,14.6133033 19.1158146,11.5770119 C23.5082384,7.74230993 29.7550728,3.10336954 29.7550728,3.10336954 L32.3440795,4.07049536 C32.3440795,4.07049536 26.0500397,9.63634967 21.8592583,13.9722437 C17.4009801,18.5817536 13.2268079,24.6691974 13.2268079,24.6691974 C13.2268079,24.6691974 10.8886887,20.423343 8.48500662,17.4543629 C6.83690066,15.4175417 5.83043709,14.7386013 5.83043709,14.7386013 L7.87017219,12.8471841 L13.5677351,16.4578066 Z" id="Fill-8" fill="#FFFFFF"></path>
            </g>
        </g>
    </g>
</svg>