<?xml version="1.0" encoding="UTF-8"?>
<svg width="16px" height="16px" viewBox="0 0 16 16" version="1.1" xmlns="http://www.w3.org/2000/svg" xmlns:xlink="http://www.w3.org/1999/xlink">
    <!-- Generator: Sketch 51.3 (57544) - http://www.bohemiancoding.com/sketch -->
    <title>ic_a-common_multip_sel</title>
    <desc>Created with Sketch.</desc>
    <defs></defs>
    <g id="Page-1" stroke="none" stroke-width="1" fill="none" fill-rule="evenodd">
        <g id="新建/编辑页面入口-选人（无数据）" transform="translate(-15.000000, -300.000000)">
            <rect id="Rectangle-9" fill="#FFFFFF" x="0" y="64" width="375" height="572"></rect>
            <rect id="Rectangle-16" fill="#F7F8FA" x="0" y="250" width="375" height="360"></rect>
            <g id="Group-3" transform="translate(15.000000, 298.000000)">
                <g id="icon-a-common_multip_on" transform="translate(0.000000, 2.000000)">
                    <g id="icon-a-common_multip_sel">
                        <path d="M2.22863486,0.452830189 L13.7713651,0.452830189 C14.7480577,0.452830189 15.5471698,1.25194228 15.5471698,2.22863486 L15.5471698,13.7713651 C15.5471698,14.7480577 14.7480577,15.5471698 13.7713651,15.5471698 L2.22863486,15.5471698 C1.25194228,15.5471698 0.452830189,14.7480577 0.452830189,13.7713651 L0.452830189,2.22863486 C0.452830189,1.25194228 1.25194228,0.452830189 2.22863486,0.452830189 Z" id="Shape" fill="#5585F0" fill-rule="nonzero"></path>
                        <path d="M13.7777778,16 L2.22222224,16 C0.977777785,16 0,15.0222222 0,13.7777778 L0,2.22222224 C0,0.977777785 0.977777785,0 2.22222224,0 L13.7777778,0 C15.0222222,0 16,0.977777785 16,2.22222224 L16,13.7777778 C16,15.0222222 15.0222222,16 13.7777778,16 Z M2.22222224,0.888888891 C1.51111112,0.888888891 0.888888891,1.51111112 0.888888891,2.22222224 L0.888888891,13.7777778 C0.888888891,14.4888889 1.51111112,15.1111111 2.22222224,15.1111111 L13.7777778,15.1111111 C14.4888889,15.1111111 15.1111111,14.4888889 15.1111111,13.7777778 L15.1111111,2.22222224 C15.1111111,1.51111113 14.4888889,0.888888907 13.7777778,0.888888891 L2.22222224,0.888888891 Z" id="Shape" fill="#5585F0" fill-rule="nonzero"></path>
                        <path d="M12.9198292,5.61435804 L7.24172244,11.3575702 C7.06428161,11.5342844 6.88684077,11.6226415 6.70939992,11.6226415 C6.53195908,11.6226415 6.35451825,11.5342844 6.17707742,11.4459273 L2.98314238,8.17671421 C2.80570156,8 2.71698113,7.82328577 2.71698113,7.64657156 C2.71698113,7.20478601 3.07186281,6.85135757 3.42674447,6.85135757 C3.6041853,6.85135757 3.78162614,6.93971468 3.95906697,7.02807178 L6.62067952,9.76714221 L11.7664637,4.5540727 C12.032625,4.46571559 12.2100658,4.37735849 12.3875067,4.37735849 C12.8311088,4.37735849 13.09727,4.73078693 13.09727,5.17257248 C13.1859904,5.34928669 13.09727,5.52600092 12.9198292,5.61435804" id="Shape" fill="#FFFFFF" fill-rule="nonzero"></path>
                        <path d="M6.68883913,11.6226415 C6.51231212,11.6226415 6.24752158,11.5345912 6.15925807,11.3584906 L2.89350815,8.10062892 C2.71698113,8.01257861 2.71698113,7.74842766 2.71698113,7.57232704 C2.71698113,7.13207548 3.07003518,6.77987421 3.51135273,6.77987421 C3.68787975,6.77987421 3.95267028,6.86792453 4.0409338,7.04402516 L6.68883913,9.68553459 L11.8081228,4.49056604 C11.9846498,4.31446541 12.1611769,4.22641509 12.3377039,4.22641509 C12.7790214,4.22641509 13.1320755,4.57861636 13.1320755,5.01886792 C13.1320755,5.19496854 13.043812,5.45911949 12.8672849,5.63522013 L7.21842022,11.3584906 C7.1301567,11.5345912 6.86536617,11.6226415 6.68883913,11.6226415 Z M3.51135273,6.86792453 C3.15829868,6.86792453 2.80524465,7.13207548 2.80524463,7.57232704 C2.80524463,7.74842766 2.89350815,7.9245283 2.98177167,8.01257862 L6.15925807,11.2704402 C6.4240486,11.5345912 6.86536615,11.5345912 7.1301567,11.2704402 L12.7790214,5.54716982 C12.867285,5.4591195 12.9555485,5.28301888 12.9555485,5.01886792 C13.043812,4.66666666 12.7790214,4.40251572 12.3377039,4.40251573 C12.1611769,4.40251573 11.9846498,4.49056605 11.8963863,4.57861636 L6.68883913,9.86163522 L6.60057563,9.7735849 L3.95267028,7.04402516 C3.86440677,6.95597484 3.68787975,6.86792453 3.51135273,6.86792453 Z" id="Shape" fill="#FFFFFF" fill-rule="nonzero"></path>
                    </g>
                </g>
                <g id="icon-a-common_multip_sel" transform="translate(0.000000, 2.000000)" fill-rule="nonzero">
                    <path d="M2.22863486,0.452830189 L13.7713651,0.452830189 C14.7480577,0.452830189 15.5471698,1.25194228 15.5471698,2.22863486 L15.5471698,13.7713651 C15.5471698,14.7480577 14.7480577,15.5471698 13.7713651,15.5471698 L2.22863486,15.5471698 C1.25194228,15.5471698 0.452830189,14.7480577 0.452830189,13.7713651 L0.452830189,2.22863486 C0.452830189,1.25194228 1.25194228,0.452830189 2.22863486,0.452830189 Z" id="Shape" fill="#5585F0"></path>
                    <path d="M13.7777778,16 L2.22222224,16 C0.977777785,16 0,15.0222222 0,13.7777778 L0,2.22222224 C0,0.977777785 0.977777785,0 2.22222224,0 L13.7777778,0 C15.0222222,0 16,0.977777785 16,2.22222224 L16,13.7777778 C16,15.0222222 15.0222222,16 13.7777778,16 Z M2.22222224,0.888888891 C1.51111112,0.888888891 0.888888891,1.51111112 0.888888891,2.22222224 L0.888888891,13.7777778 C0.888888891,14.4888889 1.51111112,15.1111111 2.22222224,15.1111111 L13.7777778,15.1111111 C14.4888889,15.1111111 15.1111111,14.4888889 15.1111111,13.7777778 L15.1111111,2.22222224 C15.1111111,1.51111113 14.4888889,0.888888907 13.7777778,0.888888891 L2.22222224,0.888888891 Z" id="Shape" fill="#5585F0"></path>
                    <path d="M12.9198292,5.61435804 L7.24172244,11.3575702 C7.06428161,11.5342844 6.88684077,11.6226415 6.70939992,11.6226415 C6.53195908,11.6226415 6.35451825,11.5342844 6.17707742,11.4459273 L2.98314238,8.17671421 C2.80570156,8 2.71698113,7.82328577 2.71698113,7.64657156 C2.71698113,7.20478601 3.07186281,6.85135757 3.42674447,6.85135757 C3.6041853,6.85135757 3.78162614,6.93971468 3.95906697,7.02807178 L6.62067952,9.76714221 L11.7664637,4.5540727 C12.032625,4.46571559 12.2100658,4.37735849 12.3875067,4.37735849 C12.8311088,4.37735849 13.09727,4.73078693 13.09727,5.17257248 C13.1859904,5.34928669 13.09727,5.52600092 12.9198292,5.61435804" id="Shape" fill="#FFFFFF"></path>
                    <path d="M6.68883913,11.6226415 C6.51231212,11.6226415 6.24752158,11.5345912 6.15925807,11.3584906 L2.89350815,8.10062892 C2.71698113,8.01257861 2.71698113,7.74842766 2.71698113,7.57232704 C2.71698113,7.13207548 3.07003518,6.77987421 3.51135273,6.77987421 C3.68787975,6.77987421 3.95267028,6.86792453 4.0409338,7.04402516 L6.68883913,9.68553459 L11.8081228,4.49056604 C11.9846498,4.31446541 12.1611769,4.22641509 12.3377039,4.22641509 C12.7790214,4.22641509 13.1320755,4.57861636 13.1320755,5.01886792 C13.1320755,5.19496854 13.043812,5.45911949 12.8672849,5.63522013 L7.21842022,11.3584906 C7.1301567,11.5345912 6.86536617,11.6226415 6.68883913,11.6226415 Z M3.51135273,6.86792453 C3.15829868,6.86792453 2.80524465,7.13207548 2.80524463,7.57232704 C2.80524463,7.74842766 2.89350815,7.9245283 2.98177167,8.01257862 L6.15925807,11.2704402 C6.4240486,11.5345912 6.86536615,11.5345912 7.1301567,11.2704402 L12.7790214,5.54716982 C12.867285,5.4591195 12.9555485,5.28301888 12.9555485,5.01886792 C13.043812,4.66666666 12.7790214,4.40251572 12.3377039,4.40251573 C12.1611769,4.40251573 11.9846498,4.49056605 11.8963863,4.57861636 L6.68883913,9.86163522 L6.60057563,9.7735849 L3.95267028,7.04402516 C3.86440677,6.95597484 3.68787975,6.86792453 3.51135273,6.86792453 Z" id="Shape" fill="#FFFFFF"></path>
                </g>
            </g>
        </g>
    </g>
</svg>