<?xml version="1.0" encoding="UTF-8"?>
<svg width="44px" height="44px" viewBox="0 0 44 44" version="1.1" xmlns="http://www.w3.org/2000/svg" xmlns:xlink="http://www.w3.org/1999/xlink">
    <!-- Generator: Sketch 52.2 (67145) - http://www.bohemiancoding.com/sketch -->
    <title>ic_a-htgl</title>
    <desc>Created with Sketch.</desc>
    <g id="ic_a-htgl" stroke="none" stroke-width="1" fill="none" fill-rule="evenodd">
        <rect id="矩形" fill="#4E97FE" fill-rule="nonzero" x="0" y="0" width="44" height="44" rx="4"></rect>
        <g id="分组" transform="translate(9.000000, 7.000000)">
            <path d="M1.3,0.0385626667 L24.7,0.0385626667 C25.417925,0.0385626667 26,0.56562149 26,1.21503325 L26,28.8620921 C26,29.511798 25.417925,30.0385627 24.7,30.0385627 L1.3,30.0385627 C0.582075,30.0385627 0,29.511798 0,28.8620921 L0,1.21503325 C0,0.56562149 0.582075,0.0385626667 1.3,0.0385626667" id="Fill-11" fill="#FFFFFF"></path>
            <path d="M9.09318667,26.743362 C9.09318667,26.743362 8.42438667,26.308642 8.51796,25.7196286 C11.7155867,19.804562 13.6231333,20.583362 14.0798533,20.583362 C14.30836,20.583362 14.9844933,21.0711753 15.2531867,22.0500286 C15.29308,23.2661886 14.4418267,25.279042 14.66652,25.5700286 C15.16548,26.2156553 16.6160133,21.9497086 18.18652,22.0500286 C18.6186,22.0778953 19.1706533,22.7088553 19.06652,23.5166953 C19.0257467,23.833202 18.5646267,24.7648286 18.4798533,25.2766953 C18.4299867,25.5794153 19.0984933,26.2807753 20.3959067,24.5518686 C20.4900667,24.1018953 21.1198533,24.3653086 21.1198533,24.9170686 C21.1198533,25.2189086 20.44284,25.690882 20.2398533,25.863362 C18.8573733,26.6506686 18.1727333,26.346482 17.8931867,26.1566953 C17.6758267,26.0091486 17.5077467,25.5216286 17.5998533,25.2766953 C17.7770267,24.8058953 18.6156667,22.9300286 18.18652,22.9300286 C17.32324,22.9300286 16.42652,24.983362 16.42652,24.983362 C15.66884,26.3027753 15.20068,26.4500286 14.3731867,26.4500286 C13.77332,26.3036553 13.5492133,25.7782953 14.0798533,24.103362 C14.6366,22.295842 14.4098533,21.1885086 13.1998533,21.463362 C11.3327867,22.6182153 11.0394533,23.883362 9.89721333,26.012962 C9.89721333,26.4861086 9.32169333,26.743362 9.09318667,26.743362" id="Fill-13" fill="#4E97FE"></path>
            <path d="M3.5349644,11.9264521 L20.1349644,11.9264521 C20.4111068,11.9264521 20.6349644,11.7025945 20.6349644,11.4264521 L20.6349644,10.9264521 C20.6349644,10.6503098 20.4111068,10.4264521 20.1349644,10.4264521 L3.5349644,10.4264521 C3.25882203,10.4264521 3.0349644,10.6503098 3.0349644,10.9264521 L3.0349644,11.4264521 C3.0349644,11.7025945 3.25882203,11.9264521 3.5349644,11.9264521 Z" id="Fill-18" fill="#4E97FE" opacity="0.5"></path>
            <path d="M3.5349644,15.7485627 L16.5543167,15.7485627 C16.830459,15.7485627 17.0543167,15.524705 17.0543167,15.2485627 L17.0543167,14.7485627 C17.0543167,14.4724203 16.830459,14.2485627 16.5543167,14.2485627 L3.5349644,14.2485627 C3.25882203,14.2485627 3.0349644,14.4724203 3.0349644,14.7485627 L3.0349644,15.2485627 C3.0349644,15.524705 3.25882203,15.7485627 3.5349644,15.7485627 Z" id="Fill-18" fill="#4E97FE" opacity="0.5"></path>
            <path d="M3.5349644,7.60021059 L11.3349644,7.60021059 C11.6111068,7.60021059 11.8349644,7.37635297 11.8349644,7.10021059 L11.8349644,5.75021059 C11.8349644,5.47406822 11.6111068,5.25021059 11.3349644,5.25021059 L3.5349644,5.25021059 C3.25882203,5.25021059 3.0349644,5.47406822 3.0349644,5.75021059 L3.0349644,7.10021059 C3.0349644,7.37635297 3.25882203,7.60021059 3.5349644,7.60021059 Z" id="Fill-19" fill="#4E97FE" opacity="0.5"></path>
        </g>
    </g>
</svg>