<?xml version="1.0" encoding="UTF-8"?>
<svg width="24px" height="24px" viewBox="0 0 24 24" version="1.1" xmlns="http://www.w3.org/2000/svg" xmlns:xlink="http://www.w3.org/1999/xlink">
    <!-- Generator: Sketch 51.3 (57544) - http://www.bohemiancoding.com/sketch -->
    <title>ic_a-fprm_attachment</title>
    <desc>Created with Sketch.</desc>
    <defs></defs>
    <g id="Page-1" stroke="none" stroke-width="1" fill="none" fill-rule="evenodd">
        <g id="创建表单" transform="translate(-131.000000, -475.000000)" fill="#7B7D80" fill-rule="nonzero">
            <g id="03" transform="translate(8.000000, 456.000000)">
                <g id="地理位置" transform="translate(90.000000, 0.000000)">
                    <g id="ic_a-fprm_attachment" transform="translate(32.000000, 18.000000)">
                        <rect id="Rectangle-path" opacity="0" x="0" y="0" width="25.2861563" height="25.2861563"></rect>
                        <path d="M8.23258668,24.1269994 C6.36020823,24.1269994 4.57104659,23.378048 3.23957746,22.0465789 C1.90810834,20.7151097 1.15915696,18.9259481 1.15915696,17.0535696 C1.15915696,15.1811912 1.90810834,13.3920295 3.23957746,12.0605604 C3.57244475,11.7276931 4.07174567,11.7276931 4.40461295,12.0605604 C4.73748023,12.3934277 4.73748023,12.8927286 4.40461295,13.2255959 C3.3644027,14.2658062 2.82349336,15.5972753 2.82349336,17.0535696 C2.82349336,18.509864 3.40601111,19.8413331 4.40461295,20.8815434 C5.4448232,21.9217536 6.77629233,22.462663 8.23258668,22.462663 C9.68888104,22.462663 11.0203502,21.8801452 12.0605604,20.8815434 L20.8815434,12.0605604 C21.9217536,11.0203502 22.462663,9.68888104 22.462663,8.23258668 C22.462663,6.77629233 21.8801452,5.4448232 20.8815434,4.40461295 C19.8413331,3.3644027 18.509864,2.82349336 17.0535696,2.82349336 C15.5972753,2.82349336 14.2658062,3.40601111 13.2255959,4.40461295 C12.8927286,4.73748023 12.3934277,4.73748023 12.0605604,4.40461295 C11.7276931,4.07174567 11.7276931,3.57244475 12.0605604,3.23957746 C13.3920295,1.90810834 15.1811912,1.15915696 17.0535696,1.15915696 C18.9259481,1.15915696 20.7151097,1.90810834 22.0465789,3.23957746 C23.378048,4.57104659 24.1269994,6.36020823 24.1269994,8.23258668 C24.1269994,10.1049651 23.378048,11.8941268 22.0465789,13.2255959 L13.2255959,22.0465789 C11.8941268,23.378048 10.1049651,24.1269994 8.23258668,24.1269994 Z M8.23258668,17.8857378 C8.02454463,17.8857378 7.81650258,17.802521 7.65006894,17.6360874 C7.31720166,17.3032201 7.31720166,16.8039192 7.65006894,16.4710519 L12.2269941,11.8941268 C13.1007707,11.0203502 13.1007707,9.56405581 12.2269941,8.64867079 C11.81091,8.23258668 11.2283922,7.98293622 10.6042661,7.98293622 C9.98013991,7.98293622 9.39762217,8.23258668 8.98153807,8.64867079 L4.40461295,13.2255959 C4.07174567,13.5584632 3.57244475,13.5584632 3.23957746,13.2255959 C2.90671018,12.8927286 2.90671018,12.3934277 3.23957746,12.0605604 L7.81650258,7.4836353 C8.56545397,6.73468392 9.56405581,6.31859982 10.6042661,6.31859982 C11.6444763,6.31859982 12.6430782,6.73468392 13.3920295,7.4836353 C14.9315407,9.02314648 14.9315407,11.5196511 13.3920295,13.0591623 L8.81510443,17.6360874 C8.64867079,17.802521 8.44062873,17.8857378 8.23258668,17.8857378 Z" id="Shape" stroke="#B2B9C7" stroke-width="0.2"></path>
                    </g>
                </g>
            </g>
        </g>
    </g>
</svg>