<?xml version="1.0" encoding="UTF-8"?>
<svg width="44px" height="44px" viewBox="0 0 44 44" version="1.1" xmlns="http://www.w3.org/2000/svg" xmlns:xlink="http://www.w3.org/1999/xlink">
    <!-- Generator: Sketch 52.2 (67145) - http://www.bohemiancoding.com/sketch -->
    <title>ic_a-tssq</title>
    <desc>Created with Sketch.</desc>
    <g id="ic_a-tssq" stroke="none" stroke-width="1" fill="none" fill-rule="evenodd">
        <rect id="矩形" fill="#5EC8FC" fill-rule="nonzero" x="0" y="0" width="44" height="44" rx="4"></rect>
        <g id="分组" transform="translate(6.000000, 7.000000)">
            <g transform="translate(0.160000, 0.584901)">
                <path d="M24.6411396,22.8133799 C23.9349329,23.3644553 22.7952452,24.2344699 21.1433493,25.4412371 C18.8565227,27.0864291 16.4626293,28.5798066 13.977216,29.9111709 C14.3634112,28.4389879 14.6796234,26.9496018 14.9243593,25.447887 C6.75509084,25.2581321 0.202282667,19.697548 0.202282667,12.8677272 C0.202282667,5.91805828 6.98708267,0.282561589 15.3558827,0.282561589 C23.724976,0.282561589 30.5068427,5.91805828 30.5068427,12.8677272 C30.5068427,16.9117614 28.2104261,20.5108021 24.6411396,22.8133799 Z" id="Fill-2" fill="#FFFFFF"></path>
                <path d="M21.609984,10.9737457 C22.687984,10.9760768 23.5597707,11.8464609 23.5577173,12.9173219 C23.5550773,13.9881828 22.6794773,14.8544874 21.601184,14.8521563 C20.5252373,14.8498252 19.6540373,13.9832291 19.6534507,12.9144079 C19.654624,11.8417987 20.530224,10.9734543 21.609984,10.9737457 Z M15.2593173,10.9737457 C16.3373173,10.9760768 17.2093973,11.8464609 17.2067573,12.9173219 C17.2044107,13.9881828 16.3285173,14.8544874 15.250224,14.8521563 C14.1745707,14.8498252 13.303664,13.9832291 13.302784,12.9144079 C13.303664,11.8417987 14.1795573,10.9731629 15.2593173,10.9737457 Z M8.902784,10.9737457 C9.98049067,10.9746199 10.8540373,11.8432556 10.8531573,12.9144079 C10.8525707,13.9852689 9.97785067,14.8530305 8.89955733,14.8521563 C7.82273067,14.8512821 6.94977067,13.9843947 6.949184,12.9144079 C6.94859733,11.8432556 7.82185067,10.9743285 8.90043733,10.9737457 L8.902784,10.9737457 Z" id="Fill-4" fill="#5EC8FC" opacity="0.5"></path>
            </g>
        </g>
    </g>
</svg>