<?xml version="1.0" encoding="UTF-8"?>
<svg width="26px" height="25px" viewBox="0 0 26 25" version="1.1" xmlns="http://www.w3.org/2000/svg" xmlns:xlink="http://www.w3.org/1999/xlink">
    <!-- Generator: Sketch 51.3 (57544) - http://www.bohemiancoding.com/sketch -->
    <title>ic_a-form_email</title>
    <desc>Created with Sketch.</desc>
    <defs></defs>
    <g id="Page-1" stroke="none" stroke-width="1" fill="none" fill-rule="evenodd">
        <g id="创建表单" transform="translate(-220.000000, -192.000000)" fill="#7B7D80">
            <g id="02" transform="translate(8.000000, 174.000000)">
                <g id="单项选择" transform="translate(180.000000, 0.000000)">
                    <g id="ic_a-form_email" transform="translate(32.000000, 18.000000)">
                        <path d="M2.78571429,1.57857143 C2.11902769,1.57857143 1.57857143,2.11902769 1.57857143,2.78571429 L1.57857143,21.3571429 C1.57857143,22.0238294 2.11902769,22.5642857 2.78571429,22.5642857 L23.2142857,22.5642857 C23.8809723,22.5642857 24.4214286,22.0238294 24.4214286,21.3571429 L24.4214286,2.78571429 C24.4214286,2.11902769 23.8809723,1.57857143 23.2142857,1.57857143 L2.78571429,1.57857143 Z M2.78571429,0 L23.2142857,0 C24.7527932,-2.82619246e-16 26,1.24720677 26,2.78571429 L26,21.3571429 C26,22.8956504 24.7527932,24.1428571 23.2142857,24.1428571 L2.78571429,24.1428571 C1.24720677,24.1428571 1.88412831e-16,22.8956504 0,21.3571429 L0,2.78571429 C-1.88412831e-16,1.24720677 1.24720677,2.82619246e-16 2.78571429,0 Z" id="Rectangle-4" fill-rule="nonzero"></path>
                        <path d="M8.84179136,4.514934 L8.84179136,4.514934 C9.35928396,4.514934 9.78328966,4.92580953 9.79956284,5.4430462 L10.0810435,14.3897982 C10.0966708,14.8865073 9.706677,15.3018381 9.2099679,15.3174654 C9.20053888,15.3177621 9.19110578,15.3179104 9.18167209,15.3179104 L9.18167209,15.3179104 C8.66417949,15.3179104 8.24017379,14.9070349 8.22390061,14.3897982 L7.94241998,5.4430462 C7.92679263,4.94633711 8.31678645,4.53100636 8.81349555,4.51537901 C8.82292457,4.51508236 8.83235767,4.514934 8.84179136,4.514934 Z" id="Rectangle-6" transform="translate(9.011732, 9.916422) rotate(-240.000000) translate(-9.011732, -9.916422) "></path>
                        <path d="M17.1582086,4.514934 L17.1582086,4.514934 C17.6551635,4.514934 18.058025,4.91779552 18.058025,5.41475039 C18.058025,5.42418408 18.0578767,5.43361718 18.05758,5.4430462 L17.7760994,14.3897982 C17.7598262,14.9070349 17.3358205,15.3179104 16.8183279,15.3179104 L16.8183279,15.3179104 C16.321373,15.3179104 15.9185115,14.9150489 15.9185115,14.418094 C15.9185115,14.4086603 15.9186599,14.3992272 15.9189565,14.3897982 L16.2004372,5.4430462 C16.2167103,4.92580953 16.640716,4.514934 17.1582086,4.514934 Z" id="Rectangle-6" transform="translate(16.988268, 9.916422) rotate(-120.000000) translate(-16.988268, -9.916422) "></path>
                    </g>
                </g>
            </g>
        </g>
    </g>
</svg>