<?xml version="1.0" encoding="UTF-8"?>
<svg width="26px" height="25px" viewBox="0 0 26 25" version="1.1" xmlns="http://www.w3.org/2000/svg" xmlns:xlink="http://www.w3.org/1999/xlink">
    <!-- Generator: Sketch 51.3 (57544) - http://www.bohemiancoding.com/sketch -->
    <title>ic_a-form_datetime</title>
    <desc>Created with Sketch.</desc>
    <defs></defs>
    <g id="Page-1" stroke="none" stroke-width="1" fill="none" fill-rule="evenodd">
        <g id="创建表单" transform="translate(-40.000000, -381.000000)">
            <g id="03" transform="translate(8.000000, 362.000000)">
                <g id="日期时间">
                    <g id="ic_a-form_datetime" transform="translate(32.000000, 18.000000)">
                        <rect id="mask" fill="#FFE8E8" opacity="0" x="0" y="0" width="26" height="26"></rect>
                        <path d="M2.78571429,4.79154013 C2.11902769,4.79154013 1.57857143,5.33199639 1.57857143,5.99868298 L1.57857143,22.7595231 C1.57857143,23.4262097 2.11902769,23.966666 2.78571429,23.966666 L23.2142857,23.966666 C23.8809723,23.966666 24.4214286,23.4262097 24.4214286,22.7595231 L24.4214286,5.99868298 C24.4214286,5.33199639 23.8809723,4.79154013 23.2142857,4.79154013 L2.78571429,4.79154013 Z M2.78571429,3.2129687 L23.2142857,3.2129687 C24.7527932,3.2129687 26,4.46017547 26,5.99868298 L26,22.7595231 C26,24.2980307 24.7527932,25.5452374 23.2142857,25.5452374 L2.78571429,25.5452374 C1.24720677,25.5452374 1.88412831e-16,24.2980307 0,22.7595231 L0,5.99868298 C-1.88412831e-16,4.46017547 1.24720677,3.2129687 2.78571429,3.2129687 Z" id="Rectangle-4" fill="#7B7D80" fill-rule="nonzero"></path>
                        <g id="Group-3" transform="translate(6.157962, 1.364868)" fill="#7B7D80">
                            <path d="M1,0.394964286 L1.78571429,0.394964286 C2.33799904,0.394964286 2.78571429,0.842679536 2.78571429,1.39496429 L2.78571429,4.09634714 C2.78571429,4.64863189 2.33799904,5.09634714 1.78571429,5.09634714 L1,5.09634714 C0.44771525,5.09634714 6.76353751e-17,4.64863189 0,4.09634714 L0,1.39496429 C-6.76353751e-17,0.842679536 0.44771525,0.394964286 1,0.394964286 Z" id="Rectangle-5"></path>
                            <path d="M12.308162,0.394964286 L13.0938763,0.394964286 C13.6461611,0.394964286 14.0938763,0.842679536 14.0938763,1.39496429 L14.0938763,4.09634714 C14.0938763,4.64863189 13.6461611,5.09634714 13.0938763,5.09634714 L12.308162,5.09634714 C11.7558773,5.09634714 11.308162,4.64863189 11.308162,4.09634714 L11.308162,1.39496429 C11.308162,0.842679536 11.7558773,0.394964286 12.308162,0.394964286 Z" id="Rectangle-5"></path>
                        </g>
                        <g id="Group-4" transform="translate(13.770825, 15.649028) rotate(-298.000000) translate(-13.770825, -15.649028) translate(6.806539, 11.934742)" fill="#7B7D80">
                            <path d="M3.89874195,0.269352623 L3.89874195,0.269352623 C4.41598073,0.269352623 4.83953372,0.680503705 4.85490043,1.19751417 L5.01337271,6.52928828 C5.0281625,7.02688822 4.63676754,7.44226216 4.1391676,7.45705194 C4.13024364,7.45731718 4.12131623,7.45744982 4.11238832,7.45744982 L4.11238832,7.45744982 C3.59514954,7.45744982 3.17159656,7.04629874 3.15622985,6.52928828 L2.99775757,1.19751417 C2.98296778,0.699914231 3.37436274,0.284540291 3.87196268,0.269750505 C3.88088664,0.269485265 3.88981405,0.269352623 3.89874195,0.269352623 Z" id="Rectangle-6" transform="translate(4.005565, 3.863401) rotate(-240.000000) translate(-4.005565, -3.863401) "></path>
                            <path d="M9.21127828,-0.458567684 L9.21127828,-0.458567684 C9.71723134,-0.458567684 10.1273873,-0.0484116869 10.1273873,0.457541376 C10.1273873,0.461667387 10.1273595,0.465793351 10.1273037,0.469918986 L10.0429665,6.71143345 C10.0360103,7.2262393 9.61670193,7.63992012 9.10184908,7.63992012 L9.10184908,7.63992012 C8.59589602,7.63992012 8.18574002,7.22976412 8.18574002,6.72381106 C8.18574002,6.71968505 8.1857679,6.71555908 8.18582364,6.71143345 L8.27016086,0.469918986 C8.27711707,-0.0448868687 8.69642543,-0.458567684 9.21127828,-0.458567684 Z" id="Rectangle-6" transform="translate(9.156564, 3.590676) rotate(-120.000000) translate(-9.156564, -3.590676) "></path>
                        </g>
                    </g>
                </g>
            </g>
        </g>
    </g>
</svg>