<?xml version="1.0" encoding="UTF-8"?>
<svg width="16px" height="16px" viewBox="0 0 16 16" version="1.1" xmlns="http://www.w3.org/2000/svg" xmlns:xlink="http://www.w3.org/1999/xlink">
    <!-- Generator: Sketch 52.2 (67145) - http://www.bohemiancoding.com/sketch -->
    <title>ic_a-common_multip_nor</title>
    <desc>Created with Sketch.</desc>
    <g id="180816-创建表单" stroke="none" stroke-width="1" fill="none" fill-rule="evenodd">
        <g id="创建表单-全部字段（更新中）" transform="translate(-15.000000, -366.000000)">
            <rect id="Rectangle" fill="#F7F8FA" x="0" y="0" width="375" height="2420"></rect>
            <g id="02多项选择" transform="translate(0.000000, 309.000000)">
                <path d="M0,0 L375,0 L375,171 L0,171 L0,0 Z" id="bg" fill="#FFFFFF"></path>
                <g id="lis01" transform="translate(0.000000, 47.000000)">
                    <rect id="Rectangle-21" fill="#D8D8D8" opacity="0" x="0" y="0" width="375" height="36"></rect>
                    <g id="Group-2" transform="translate(15.000000, 8.000000)">
                        <g id="icon-a-common_multip" transform="translate(0.000000, 2.000000)">
                            <g id="icon-a-common_multip_nor">
                                <rect id="Rectangle" fill="#FFFFFF" x="1" y="1" width="14" height="14"></rect>
                                <path d="M13.4847737,15.9688109 L2.48403727,15.9688109 C1.06458741,15.9688109 1.64609053e-08,14.9042235 0,13.5734893 L0,2.39532165 C-1.75442651e-16,1.06458741 1.06458741,0 2.48403727,0 L13.5734893,0 C14.9042235,0 15.9688109,1.06458741 15.9688109,2.39532165 L15.9688109,13.4847737 C15.9688109,14.9042235 14.9042235,15.9688109 13.4847737,15.9688109 Z M2.48403727,1.33073426 C1.86302795,1.33073426 1.41944988,1.86302795 1.41944986,2.48403727 L1.41944986,13.5734893 C1.41944986,14.1944986 1.95174356,14.6380767 2.48403727,14.6380767 L13.5734893,14.6380767 C14.1944986,14.6380767 14.6380767,14.105783 14.6380767,13.5734893 L14.6380767,2.39532165 C14.6380767,1.77431233 14.105783,1.24201863 13.5734893,1.24201863 L2.48403727,1.24201863 L2.48403727,1.33073426 Z" id="Shape" fill="#E3E4E8" fill-rule="nonzero"></path>
                            </g>
                        </g>
                        <g id="icon-a-common_multip_nor" transform="translate(0.000000, 2.000000)">
                            <rect id="Rectangle" fill="#FFFFFF" x="1" y="1" width="14" height="14"></rect>
                            <path d="M13.4847737,15.9688109 L2.48403727,15.9688109 C1.06458741,15.9688109 1.64609053e-08,14.9042235 0,13.5734893 L0,2.39532165 C-1.75442651e-16,1.06458741 1.06458741,0 2.48403727,0 L13.5734893,0 C14.9042235,0 15.9688109,1.06458741 15.9688109,2.39532165 L15.9688109,13.4847737 C15.9688109,14.9042235 14.9042235,15.9688109 13.4847737,15.9688109 Z M2.48403727,1.33073426 C1.86302795,1.33073426 1.41944988,1.86302795 1.41944986,2.48403727 L1.41944986,13.5734893 C1.41944986,14.1944986 1.95174356,14.6380767 2.48403727,14.6380767 L13.5734893,14.6380767 C14.1944986,14.6380767 14.6380767,14.105783 14.6380767,13.5734893 L14.6380767,2.39532165 C14.6380767,1.77431233 14.105783,1.24201863 13.5734893,1.24201863 L2.48403727,1.24201863 L2.48403727,1.33073426 Z" id="Shape" fill="#E3E4E8" fill-rule="nonzero"></path>
                        </g>
                    </g>
                </g>
            </g>
        </g>
    </g>
</svg>