<?xml version="1.0" encoding="UTF-8"?>
<svg width="44px" height="44px" viewBox="0 0 44 44" version="1.1" xmlns="http://www.w3.org/2000/svg" xmlns:xlink="http://www.w3.org/1999/xlink">
    <!-- Generator: Sketch 52.2 (67145) - http://www.bohemiancoding.com/sketch -->
    <title>ic_a-rskh</title>
    <desc>Created with Sketch.</desc>
    <g id="ic_a-rskh" stroke="none" stroke-width="1" fill="none" fill-rule="evenodd">
        <rect id="矩形" fill="#FF7738" fill-rule="nonzero" x="0" y="0" width="44" height="44" rx="4"></rect>
        <g id="分组" transform="translate(9.000000, 6.000000)">
            <polygon id="Fill-2" fill="#E66E59" points="23.3576 31.1624 25.4109333 31.1624 25.4109333 0.949066667 23.3576 0.949066667"></polygon>
            <path d="M1.22352941,1 L24.7764706,1 C25.4521647,1 26,1.52165049 26,2.16504854 L26,29.8349515 C26,30.4783495 25.4521647,31 24.7764706,31 L1.22352941,31 C0.547835294,31 0,30.4783495 0,29.8349515 L0,2.16504854 C0,1.52165049 0.547835294,1 1.22352941,1" id="Fill-5" fill="#FFFFFF"></path>
            <path d="M16.1725476,11.9042965 C15.8964052,11.9042965 15.6725476,11.6804389 15.6725476,11.4042965 L15.6725476,10.9042965 C15.6725476,10.6281542 15.8964052,10.4042965 16.1725476,10.4042965 L22.5592142,10.4042965 C22.8353566,10.4042965 23.0592142,10.6281542 23.0592142,10.9042965 L23.0592142,11.4042965 C23.0592142,11.6804389 22.8353566,11.9042965 22.5592142,11.9042965 L16.1725476,11.9042965 Z M16.1725476,15.7175702 C15.8964052,15.7175702 15.6725476,15.4937126 15.6725476,15.2175702 L15.6725476,14.7175702 C15.6725476,14.4414278 15.8964052,14.2175702 16.1725476,14.2175702 L22.5592142,14.2175702 C22.8353566,14.2175702 23.0592142,14.4414278 23.0592142,14.7175702 L23.0592142,15.2175702 C23.0592142,15.4937126 22.8353566,15.7175702 22.5592142,15.7175702 L16.1725476,15.7175702 Z M2.97254758,25.7389421 C2.6964052,25.7389421 2.47254758,25.5150845 2.47254758,25.2389421 L2.47254758,24.7389421 C2.47254758,24.4627997 2.6964052,24.2389421 2.97254758,24.2389421 L15.2258809,24.2389421 C15.5020233,24.2389421 15.7258809,24.4627997 15.7258809,24.7389421 L15.7258809,25.2389421 C15.7258809,25.5150845 15.5020233,25.7389421 15.2258809,25.7389421 L2.97254758,25.7389421 Z M2.97254758,22.1350787 C2.6964052,22.1350787 2.47254758,21.9112211 2.47254758,21.6350787 L2.47254758,21.1350787 C2.47254758,20.8589363 2.6964052,20.6350787 2.97254758,20.6350787 L22.5592142,20.6350787 C22.8353566,20.6350787 23.0592142,20.8589363 23.0592142,21.1350787 L23.0592142,21.6350787 C23.0592142,21.9112211 22.8353566,22.1350787 22.5592142,22.1350787 L2.97254758,22.1350787 Z" id="合并形状" fill="#FF7738" opacity="0.200000003"></path>
            <path d="M8.09086157,6.46818584 C8.39184458,6.46818584 8.34518055,6.5545143 8.50850467,6.57784632 C8.66202934,6.58484592 8.81438741,6.60701134 8.963479,6.64317596 C9.45345135,6.73183763 9.62610828,7.32447086 9.64967362,7.54612502 C9.67393891,7.93436978 9.67790536,8.32378114 9.66110631,8.71272587 C9.61677547,8.91104801 9.77776639,8.91104801 9.77776639,8.91104801 C10.0717498,8.89448228 9.93875731,9.75566702 9.93875731,9.75566702 C9.89675968,9.96798838 9.95508972,10.0753157 9.5211142,10.2386398 C9.37692234,10.5907199 9.12003683,10.8854033 8.79082207,11.0762592 C8.79082207,11.0762592 8.76282365,11.4330057 8.75582405,11.6849915 C8.80015488,11.6663259 8.61349874,12.3359548 9.95975612,12.5226109 C11.3060135,12.7095004 11.5649989,13.1224771 11.8169847,13.353464 C12.0689705,13.584451 12.3956187,15.9386515 12.3956187,15.9386515 L3.06281192,15.9386515 C3.06281192,15.9386515 3.43869071,13.5821178 3.69277637,13.353464 C3.94709536,13.1248103 4.22241316,12.7118336 5.56867053,12.5228442 C6.91492791,12.3338549 6.67694134,11.6828916 6.68627415,11.6432272 C6.68394094,11.5452327 6.63751023,11.1203567 6.63751023,11.1203567 C6.35309294,10.8781704 6.13260538,10.5697211 5.99587976,10.2223074 C5.67133141,10.0286516 5.54790504,10.0006532 5.49400808,9.77876572 C5.49400808,9.77876572 5.3843476,8.93438003 5.73432785,8.93438003 C5.73432785,8.93438003 5.87921968,8.95537884 5.83232233,8.7570567 C5.7949911,8.41290945 5.79242458,8.06572904 5.82532272,7.72111515 C5.84888806,7.50179419 5.78122521,6.87159641 6.26863104,6.78526795 C6.60227888,6.72483802 6.63961011,6.81583289 6.80293423,6.79250087 C6.96649167,6.76916886 7.16014741,6.37252457 7.46346363,6.37252457 L8.09086157,6.46818584 Z" id="Fill-9" fill="#FF7738"></path>
            <path d="M8.66131767,16.1673753 C8.50056008,15.2518269 8.28403896,14.3472446 8.0126876,13.4585281 C8.22477564,13.2198416 8.37316726,12.9319245 8.44432992,12.6209087 C8.45366272,12.5670117 8.41773142,12.5161479 8.36406778,12.5068151 C8.36360114,12.5068151 8.3631345,12.5065818 8.36266786,12.5065818 C7.94642467,12.4195534 7.51664892,12.4195534 7.10040574,12.5065818 C7.04627546,12.5138147 7.00847759,12.5637453 7.01594384,12.6176422 C7.01594384,12.6185755 7.01617716,12.6197421 7.01641048,12.6209087 C7.08757313,12.9319245 7.23596476,13.2198416 7.44805279,13.4585281 C7.17553483,14.3470113 6.95808044,15.2518269 6.79708952,16.1673753 C6.79475632,16.1939738 6.80408912,16.220339 6.82275474,16.2397045 C7.07007412,16.4884238 7.35402476,16.697712 7.66480723,16.8603362 C7.68230624,16.8692023 7.7014385,16.8738687 7.72103739,16.8741021 C7.73130348,16.8738687 7.74156957,16.8722355 7.75136901,16.869669 C7.76350166,16.8678024 7.77540099,16.863836 7.78636704,16.858003 C7.79383328,16.8540365 7.80083289,16.8493701 7.80736585,16.8437704 C8.12164812,16.6965454 8.40513213,16.490757 8.64265206,16.2373713 C8.65665127,16.2168391 8.66341755,16.1918739 8.66131767,16.1673753" id="Fill-10" fill="#FFFFFF"></path>
        </g>
    </g>
</svg>