<?xml version="1.0" encoding="UTF-8"?>
<svg width="44px" height="44px" viewBox="0 0 44 44" version="1.1" xmlns="http://www.w3.org/2000/svg" xmlns:xlink="http://www.w3.org/1999/xlink">
    <!-- Generator: Sketch 52.2 (67145) - http://www.bohemiancoding.com/sketch -->
    <title>ic_a-gzrz</title>
    <desc>Created with Sketch.</desc>
    <g id="ic_a-gzrz" stroke="none" stroke-width="1" fill="none" fill-rule="evenodd">
        <rect id="矩形" fill="#4E97FE" fill-rule="nonzero" x="0" y="0" width="44" height="44" rx="4"></rect>
        <g id="分组" transform="translate(7.000000, 6.000000)">
            <g transform="translate(0.333333, 0.333333)">
                <path d="M1.38290286,0.666666667 L24.0019505,0.666666667 C24.659391,0.666666667 25.1924267,1.20396667 25.1924267,1.86666667 L25.1924267,29.4666667 C25.1924267,30.1293667 24.659391,30.6666667 24.0019505,30.6666667 L1.38290286,30.6666667 C0.725462381,30.6666667 0.192426667,30.1293667 0.192426667,29.4666667 L0.192426667,1.86666667 C0.192426667,1.20396667 0.725462381,0.666666667 1.38290286,0.666666667" id="Fill-2" fill="#FFFFFF"></path>
                <path d="M11.75152,14.5919339 C12.0756533,14.5919339 12.3381867,14.8547606 12.3381867,15.1786006 L12.3381867,16.3519339 C12.3381867,16.6757739 12.0756533,16.9386006 11.75152,16.9386006 L3.12576,16.9386006 C2.80192,16.9386006 2.53909333,16.6757739 2.53909333,16.3519339 L2.53909333,15.1786006 C2.53909333,14.8547606 2.80192,14.5919339 3.12576,14.5919339 L11.75152,14.5919339 Z M3.12576,9.31193389 C2.80192,9.31193389 2.53909333,9.04910722 2.53909333,8.72526722 L2.53909333,7.55193389 C2.53909333,7.22809389 2.80192,6.96526722 3.12576,6.96526722 L19.5524267,6.96526722 C19.8762667,6.96526722 20.1390933,7.22809389 20.1390933,7.55193389 L20.1390933,8.72526722 C20.1390933,9.04910722 19.8762667,9.31193389 19.5524267,9.31193389 L3.12576,9.31193389 Z" id="Fill-4" fill="#4E97FE" opacity="0.400000006"></path>
                <polygon id="Fill-6" fill="#4E97FE" points="27.4290427 6.28 33.047256 11.8210667 19.1919493 26.4261333 10.400456 29.4562667 13.558776 20.6856"></polygon>
                <path d="M17.4783253,25.8190213 L12.2256053,27.6934213 L13.9732853,22.278488 L17.4783253,25.8190213 Z M18.3216587,25.167528 L14.6071787,21.4190213 L24.9996853,10.9056613 L28.7144587,14.6573947 L18.3216587,25.167528 Z M30.9399787,12.407528 L29.456592,13.9067547 L25.7418187,10.1550213 L27.2278453,8.65286133 C28.034512,7.833288 29.3530453,7.82214133 30.172912,8.628808 C30.1811253,8.63702133 30.1893387,8.64494133 30.1972587,8.65286133 L30.9396853,9.404088 C31.758672,10.2371547 31.757792,11.5738747 30.9399787,12.407528 Z" id="Fill-8" fill="#FFFFFF"></path>
            </g>
        </g>
    </g>
</svg>