<?xml version="1.0" encoding="UTF-8"?>
<svg width="16px" height="17px" viewBox="0 0 16 17" version="1.1" xmlns="http://www.w3.org/2000/svg" xmlns:xlink="http://www.w3.org/1999/xlink">
    <!-- Generator: Sketch 51.3 (57544) - http://www.bohemiancoding.com/sketch -->
    <title>ic_a-form_editor</title>
    <desc>Created with Sketch.</desc>
    <defs></defs>
    <g id="Page-1" stroke="none" stroke-width="1" fill="none" fill-rule="evenodd">
        <g id="创建表单" transform="translate(-20.000000, -481.000000)" fill-rule="nonzero">
            <g id="02" transform="translate(0.000000, 305.000000)">
                <g id="操作栏" transform="translate(1.000000, 163.000000)">
                    <g id="编辑" transform="translate(15.000000, 10.000000)">
                        <g id="ic_a-form_editor">
                            <rect id="Rectangle-path" fill="#000000" opacity="0" x="0" y="0" width="24" height="24"></rect>
                            <path d="M16.5679687,7.465625 L14.3554688,5.2484375 L7.70925903,11.9018463 L9.92410278,14.1190338 L16.5679687,7.465625 Z M18.1171875,4.58046875 L17.23125,3.69453125 C16.8632812,3.3265625 16.2703125,3.3265625 15.9023438,3.69453125 L14.7960938,4.803125 L17.0109375,7.0203125 L18.1171875,5.91171875 C18.4851563,5.54375 18.4851563,4.9484375 18.1171875,4.58046875 Z M6.9984375,15.3242187 L9.92578125,14.1171875 L7.71328125,11.9 L6.50859375,14.8320312 C6.3796875,15.1414062 6.6890625,15.453125 6.9984375,15.3242187 Z M18.7078125,16.8335937 L5.2921875,16.8335937 C4.809375,16.8335937 4.41796875,17.225 4.41796875,17.7078125 L4.41796875,18.2914062 C4.41796875,18.7742187 4.809375,19.165625 5.2921875,19.165625 L18.7078125,19.165625 C19.190625,19.165625 19.5820312,18.7742187 19.5820312,18.2914062 L19.5820312,17.7078125 C19.5820312,17.225 19.190625,16.8335937 18.7078125,16.8335937 Z" id="Shape" fill="#5585F0"></path>
                        </g>
                    </g>
                </g>
            </g>
        </g>
    </g>
</svg>