<?xml version="1.0" encoding="UTF-8"?>
<svg width="32px" height="33px" viewBox="0 0 32 33" version="1.1" xmlns="http://www.w3.org/2000/svg" xmlns:xlink="http://www.w3.org/1999/xlink">
    <!-- Generator: Sketch 50.2 (55047) - http://www.bohemiancoding.com/sketch -->
    <title>icon_a-home_app9</title>
    <desc>Created with Sketch.</desc>
    <defs>
        <linearGradient x1="50%" y1="13.2208413%" x2="50%" y2="100%" id="linearGradient-1">
            <stop stop-color="#5490F7" offset="0%"></stop>
            <stop stop-color="#4670F6" offset="100%"></stop>
        </linearGradient>
    </defs>
    <g id="Symbols" stroke="none" stroke-width="1" fill="none" fill-rule="evenodd">
        <g id="ic/应用管理">
            <g id="Group">
                <g id="Group-2" transform="translate(0.000000, 3.612903)">
                    <path d="M3.29634807,8.75251412 L6.83030513,2.73539306 C7.79338908,1.09559026 9.45495389,0.103878942 11.239281,0.103878942 L20.8563021,0.103878942 C22.6605134,0.103878942 24.3376958,1.11765397 25.295229,2.78699407 L28.7075946,8.73602888 C29.5612492,8.56659356 30.414191,8.38003324 31.2664199,8.17634792 C31.5502668,8.86947401 31.7518866,9.56557114 31.8712794,10.2646393 C32.0065166,11.05648 31.5958027,11.8402847 30.8787383,12.1588004 L30.4694374,12.3406096 C30.4694374,14.4126017 30.4694374,16.4845938 30.4694374,18.5565859 C30.4694374,20.2465772 30.2905974,21.7929219 29.9329173,23.1956198 C29.7933157,23.7430893 29.3126544,24.124787 28.7628431,24.124787 L24.4207958,24.1247874 C23.9753895,24.1247874 23.6143164,23.7530704 23.6143164,23.2945343 L23.6143164,21.0117416 C21.0546659,21.2595644 18.4950155,21.3834758 15.935365,21.3834758 C13.3757145,21.3834758 10.8342331,21.2595644 8.31092083,21.0117416 L8.28454336,23.2657636 C8.27922342,23.7203656 7.91973933,24.0860151 7.47812247,24.0860151 L3.19681629,24.0860151 C2.64137451,24.0860151 2.15730198,23.6966187 2.02299547,23.1417716 C1.65342721,21.6150299 1.46864308,20.0882881 1.46864308,18.5615464 C1.46864308,16.7200568 1.46864308,14.63631 1.46864308,12.310306 L1.00688975,12.1110847 C0.299021296,11.8056852 -0.108675909,11.0359692 0.0253446736,10.2579668 C0.106927705,9.78436937 0.308547558,9.09049642 0.630204231,8.17634792 C1.51891892,8.38666091 2.40763353,8.57871631 3.29634807,8.75251412 Z" id="Combined-Shape" fill="url(#linearGradient-1)"></path>
                    <g id="Group-6" transform="translate(3.931886, 12.413722)" fill="#3A69F5" opacity="0.4">
                        <path d="M0.636959439,0.215901302 L3.71525005,0.66828184 C3.96067673,0.704349343 4.1425517,0.914905826 4.1425517,1.16296856 L4.1425517,3.30045476 C4.1425517,3.57659714 3.91869408,3.80045476 3.6425517,3.80045476 C3.62102078,3.80045476 3.59951234,3.79906402 3.5781607,3.79629123 L0.499870092,3.39653401 C0.250711946,3.36417749 0.0642610901,3.15194787 0.0642610901,2.90069755 L0.0642610901,0.710588021 C0.0642610901,0.434445646 0.288118715,0.210588021 0.56426109,0.210588021 C0.588590869,0.210588021 0.612888202,0.212363833 0.636959439,0.215901302 Z" id="Path-4"></path>
                        <path d="M24.0206497,0.710591794 L24.0206497,2.90059129 C24.0206497,3.15184161 23.8341988,3.36407124 23.5850407,3.39642775 L20.5068899,3.7961668 C20.233047,3.83172897 19.9822246,3.63856425 19.9466625,3.36472134 C19.9438897,3.3433697 19.9424989,3.32186126 19.9424989,3.30033034 L19.9424989,1.16295178 C19.9424989,0.914889043 20.1243739,0.70433256 20.3698006,0.668265057 L23.4479513,0.215905074 C23.7211592,0.175754885 23.9751862,0.364685514 24.0153364,0.637893445 C24.0188739,0.661964682 24.0206497,0.686262014 24.0206497,0.710591794 Z" id="Path-4"></path>
                    </g>
                    <path d="M10.5576784,8.48471629 L21.3606435,8.48471629 C21.4174669,9.67057401 21.4316727,10.4731098 21.403261,10.8923237 C21.3606435,11.5211445 20.4643587,15.7412559 15.9875726,15.7412559 C11.5107866,15.7412559 10.5576784,11.5095915 10.4989787,10.8923237 C10.4598455,10.4808118 10.4794121,9.67827598 10.5576784,8.48471629 Z" id="Path-5" stroke="#FFFFFF" stroke-width="2.2" stroke-linecap="round" stroke-linejoin="round"></path>
                </g>
            </g>
        </g>
    </g>
</svg>