<?xml version="1.0" encoding="UTF-8"?>
<svg width="26px" height="26px" viewBox="0 0 26 26" version="1.1" xmlns="http://www.w3.org/2000/svg" xmlns:xlink="http://www.w3.org/1999/xlink">
    <!-- Generator: Sketch 51.3 (57544) - http://www.bohemiancoding.com/sketch -->
    <title>ic_form_instructions</title>
    <desc>Created with Sketch.</desc>
    <defs></defs>
    <g id="Page-1" stroke="none" stroke-width="1" fill="none" fill-rule="evenodd">
        <g id="创建表单" transform="translate(-219.000000, -380.000000)">
            <g id="03" transform="translate(8.000000, 362.000000)">
                <g id="日期" transform="translate(179.000000, 0.000000)">
                    <g id="ic_form_instructions" transform="translate(32.000000, 18.000000)">
                        <rect id="mask" fill="#FFE8E8" opacity="0" x="0" y="0.654536612" width="25.1034483" height="25.1034483"></rect>
                        <path d="M12.5517241,2.17867454 C6.46135645,2.17867454 1.52413793,7.11589306 1.52413793,13.2062608 C1.52413793,19.2966284 6.46135645,24.233847 12.5517241,24.233847 C18.6420918,24.233847 23.5793103,19.2966284 23.5793103,13.2062608 C23.5793103,7.11589306 18.6420918,2.17867454 12.5517241,2.17867454 Z M12.5517241,0.654536612 C19.48385,0.654536612 25.1034483,6.27413492 25.1034483,13.2062608 C25.1034483,20.1383866 19.48385,25.7579849 12.5517241,25.7579849 C5.61959831,25.7579849 8.4894057e-16,20.1383866 0,13.2062608 C-8.4894057e-16,6.27413492 5.61959831,0.654536612 12.5517241,0.654536612 Z" id="Rectangle-4" fill="#7B7D80" fill-rule="nonzero"></path>
                        <path d="M11.1893754,19.7817759 C11.4221135,19.9829075 11.7209377,20.0145139 11.9421825,19.9886542 C12.0772281,19.9714143 12.2237669,19.931188 12.2783597,19.9168214 L14.4448352,19.1841275 C14.9103113,19.0289688 15.1373028,18.7215246 14.9706508,18.1813424 C14.8039989,17.7158663 14.4161021,17.5894407 14.0396985,17.6813866 L12.8415284,18.0146905 L13.9074639,11.7068051 C13.9563102,11.4711937 13.9189571,11.1034101 13.6718525,10.8390656 C13.4477344,10.6005809 13.0770774,10.5632279 12.8414661,10.6235674 L10.7813031,11.3217816 C10.4077728,11.4166008 10.2066412,11.9021902 10.307207,12.2757204 C10.4422526,12.772803 10.8301494,12.9480748 11.2036796,12.8532556 L12.1058988,12.5802912 L11.0054836,19.1036748 C10.953764,19.3364129 11.0169768,19.6179972 11.1893754,19.7817759 Z" id="Path" fill="#7B7D80"></path>
                        <circle id="Oval-2" fill="#7B7D80" cx="12.5517241" cy="6.67733352" r="1.36363163"></circle>
                    </g>
                </g>
            </g>
        </g>
    </g>
</svg>