<?xml version="1.0" encoding="UTF-8"?>
<svg width="28px" height="28px" viewBox="0 0 28 28" version="1.1" xmlns="http://www.w3.org/2000/svg" xmlns:xlink="http://www.w3.org/1999/xlink">
    <!-- Generator: Sketch 50.2 (55047) - http://www.bohemiancoding.com/sketch -->
    <title>ic/费控报销</title>
    <desc>Created with Sketch.</desc>
    <defs>
        <linearGradient x1="12.5909414%" y1="4.33177119%" x2="76.0443648%" y2="93.1665639%" id="linearGradient-1">
            <stop stop-color="#8AD4FB" offset="0%"></stop>
            <stop stop-color="#4D99F7" offset="100%"></stop>
        </linearGradient>
    </defs>
    <g id="设计稿" stroke="none" stroke-width="1" fill="none" fill-rule="evenodd">
        <g id="A1_首页" transform="translate(-300.000000, -105.000000)">
            <g id="图标" transform="translate(14.000000, 86.000000)">
                <g id="ic/费控报销" transform="translate(285.000000, 18.000000)">
                    <g id="Group-8" transform="translate(0.000000, -0.468750)">
                        <rect id="Rectangle-5" fill="#93C4F7" x="12.3237961" y="25.2101035" width="15" height="3.8523965" rx="1.92619825"></rect>
                        <circle id="Oval-3" fill="url(#linearGradient-1)" cx="15" cy="15.46875" r="13.59375"></circle>
                        <g id="Group-9" transform="translate(8.877881, 8.182105)" fill="#FFFFFF" fill-rule="nonzero">
                            <path d="M1.429646,10.8405834 C0.898957792,10.8405834 0.46875,10.4055242 0.46875,9.86885155 C0.46875,9.33217886 0.898957792,8.89711968 1.429646,8.89711968 L10.757854,8.89711968 C11.2885422,8.89711968 11.71875,9.33217886 11.71875,9.86885155 C11.71875,10.4055242 11.2885422,10.8405834 10.757854,10.8405834 L1.429646,10.8405834 Z" id="Path-5"></path>
                            <path d="M1.429646,6.71555001 C0.898957792,6.71555001 0.46875,6.28049083 0.46875,5.74381814 C0.46875,5.20714544 0.898957792,4.77208627 1.429646,4.77208627 L10.757854,4.77208627 C11.2885422,4.77208627 11.71875,5.20714544 11.71875,5.74381814 C11.71875,6.28049083 11.2885422,6.71555001 10.757854,6.71555001 L1.429646,6.71555001 Z" id="Path-5"></path>
                            <path d="M5.12201813,5.93791675 C5.12201813,5.40124405 5.55707731,4.96618488 6.09375,4.96618488 C6.63042269,4.96618488 7.06548187,5.40124405 7.06548187,5.93791675 L7.06548187,12.8898482 C7.06548187,13.4265209 6.63042269,13.8615801 6.09375,13.8615801 C5.55707731,13.8615801 5.12201813,13.4265209 5.12201813,12.8898482 L5.12201813,5.93791675 Z" id="Path-5"></path>
                            <path d="M1.53045797,2.12563074 C1.13279051,1.7652446 1.10256802,1.15072074 1.46295416,0.753053275 C1.8233403,0.355385812 2.43786416,0.325163327 2.83553162,0.685549465 L7.62254187,5.0237775 C8.02020933,5.38416364 8.05043182,5.9986875 7.69004568,6.39635496 C7.32965954,6.79402243 6.71513568,6.82424491 6.31746821,6.46385877 L1.53045797,2.12563074 Z" id="Path-6"></path>
                            <path d="M9.55311294,2.93157541 C9.14643911,3.28176676 8.53287866,3.23597866 8.18268731,2.82930484 C7.83249596,2.42263101 7.87828406,1.80907056 8.28495788,1.45887921 L9.27258566,0.608421957 C9.67925949,0.258230608 10.2928199,0.304018701 10.6430113,0.710692526 C10.9932026,1.11736635 10.9474145,1.7309268 10.5407407,2.08111815 L9.55311294,2.93157541 Z" id="Path-7"></path>
                        </g>
                    </g>
                </g>
            </g>
        </g>
    </g>
</svg>