<?xml version="1.0" encoding="UTF-8"?>
<svg width="25px" height="28px" viewBox="0 0 25 28" version="1.1" xmlns="http://www.w3.org/2000/svg" xmlns:xlink="http://www.w3.org/1999/xlink">
    <!-- Generator: Sketch 50.2 (55047) - http://www.bohemiancoding.com/sketch -->
    <title>ic/会议助手</title>
    <desc>Created with Sketch.</desc>
    <defs>
        <linearGradient x1="50%" y1="0%" x2="50%" y2="100%" id="linearGradient-1">
            <stop stop-color="#8CA3F8" offset="0%"></stop>
            <stop stop-color="#4F75F6" offset="100%"></stop>
        </linearGradient>
    </defs>
    <g id="设计稿" stroke="none" stroke-width="1" fill="none" fill-rule="evenodd">
        <g id="A1_首页" transform="translate(-130.000000, -106.000000)">
            <g id="图标" transform="translate(14.000000, 86.000000)">
                <g id="ic/会议助手" transform="translate(114.000104, 18.000000)">
                    <g id="Group-12" transform="translate(-0.406250, 0.000000)">
                        <g id="Rectangle-12" transform="translate(7.500000, 20.625000)"></g>
                        <path d="M8.90800216,21.5144922 L21.085227,21.5144922 L21.8923805,28.0449893 C21.9558919,28.5588462 21.5908148,29.0268957 21.0769579,29.0904072 C21.0388067,29.0951226 21.0004017,29.097487 20.9619602,29.097487 L9.03126894,29.097487 C8.51350198,29.097487 8.09376894,28.6777539 8.09376894,28.159987 C8.09376894,28.1215455 8.09613333,28.0831404 8.10084871,28.0449893 L8.90800216,21.5144922 Z" id="Rectangle-12" fill="#A6B9FA"></path>
                        <path d="M5.15611979,2.72716151 L24.8371094,2.72716151 C25.8726433,2.72716151 26.7121094,3.56662761 26.7121094,4.60216151 L26.7121094,23.3459115 C26.7121094,24.3814454 25.8726433,25.2209115 24.8371094,25.2209115 L5.15611979,25.2209115 C4.12058589,25.2209115 3.28111979,24.3814454 3.28111979,23.3459115 L3.28111979,4.60216151 C3.28111979,3.56662761 4.12058589,2.72716151 5.15611979,2.72716151 Z" id="Mask" fill="url(#linearGradient-1)"></path>
                        <path d="M10.9975416,18.7881171 C10.6438029,19.3454955 9.90519648,19.5105781 9.34781803,19.1568394 C8.79043958,18.8031007 8.62535695,18.0644943 8.97909566,17.5071159 L11.6153526,13.3532227 C11.8346182,13.0077306 12.2153786,12.7984108 12.6245756,12.7984108 L16.5411388,12.7984108 L19.0139289,9.13207996 C19.383063,8.58477588 20.1259831,8.44034065 20.6732871,8.80947484 C21.2205912,9.17860904 21.3650264,9.92152904 20.9958922,10.4688331 L18.1677055,14.6620998 C17.9455042,14.9915511 17.5741047,15.1890358 17.1767238,15.1890358 L13.2816887,15.1890358 L10.9975416,18.7881171 Z" id="Path-10" fill="#FFFFFF" fill-rule="nonzero"></path>
                    </g>
                </g>
            </g>
        </g>
    </g>
</svg>