<?xml version="1.0" encoding="UTF-8"?>
<svg width="27px" height="28px" viewBox="0 0 27 28" version="1.1" xmlns="http://www.w3.org/2000/svg" xmlns:xlink="http://www.w3.org/1999/xlink">
    <!-- Generator: Sketch 50.2 (55047) - http://www.bohemiancoding.com/sketch -->
    <title>ic/新闻公告</title>
    <desc>Created with Sketch.</desc>
    <defs>
        <linearGradient x1="50%" y1="0%" x2="50%" y2="100%" id="linearGradient-1">
            <stop stop-color="#EF879D" offset="0%"></stop>
            <stop stop-color="#EA406B" offset="100%"></stop>
        </linearGradient>
    </defs>
    <g id="设计稿" stroke="none" stroke-width="1" fill="none" fill-rule="evenodd">
        <g id="A1_首页" transform="translate(-43.000000, -181.000000)">
            <g id="图标" transform="translate(14.000000, 86.000000)">
                <g id="ic/新闻公告" transform="translate(28.540501, 93.000000)">
                    <g id="Group-11" transform="translate(-0.570742, -0.208147)">
                        <path d="M15.2887128,18.6078905 L25.3752578,18.6078905 C26.4107918,18.6078905 27.2502578,19.4473566 27.2502578,20.4828905 L27.2502578,28.1960378 C27.2502578,29.2315717 26.4107918,30.0710378 25.3752578,30.0710378 L15.2887128,30.0710378 L15.2887128,18.6078905 Z" id="Rectangle-8" fill="#F3ABB9"></path>
                        <path d="M1.57545157,5.03587554 C1.57545157,4.00953205 2.40062568,3.17392185 3.42688812,3.16102361 L21.2311137,2.93725718 C21.2389678,2.93715847 21.2468224,2.93710911 21.2546771,2.93710911 C22.290211,2.93710911 23.1296771,3.7765752 23.1296771,4.81210911 C23.1296771,12.1080903 23.1296771,19.4040715 23.1296771,26.7000527 C23.1296771,27.6166656 23.7558057,28.7403221 25.0080629,30.0710223 L7.20045157,30.0710223 C4.09384985,30.0710223 1.57545157,27.552624 1.57545157,24.4460223 L1.57545157,5.03587554 Z" id="Path-9" fill="url(#linearGradient-1)"></path>
                        <path d="M7.78312093,8.79327251 L15.9568434,8.79327251 C16.7275643,8.79327251 17.352357,9.41806522 17.352357,10.1887861 C17.352357,10.9595069 16.7275643,11.5842996 15.9568434,11.5842996 L7.78312093,11.5842996 C7.01240007,11.5842996 6.38760737,10.9595069 6.38760737,10.1887861 C6.38760737,9.41806522 7.01240007,8.79327251 7.78312093,8.79327251 Z" id="Rectangle-11" fill="#FFFFFF"></path>
                        <path d="M7.78312093,15.3983903 L12.3681419,15.3983903 C13.1388628,15.3983903 13.7636555,16.023183 13.7636555,16.7939038 C13.7636555,17.5646247 13.1388628,18.1894174 12.3681419,18.1894174 L7.78312093,18.1894174 C7.01240007,18.1894174 6.38760737,17.5646247 6.38760737,16.7939038 C6.38760737,16.023183 7.01240007,15.3983903 7.78312093,15.3983903 Z" id="Rectangle-11" fill="#FFFFFF"></path>
                    </g>
                </g>
            </g>
        </g>
    </g>
</svg>