<?xml version="1.0" encoding="UTF-8"?>
<svg width="30px" height="24px" viewBox="0 0 30 24" version="1.1" xmlns="http://www.w3.org/2000/svg" xmlns:xlink="http://www.w3.org/1999/xlink">
    <!-- Generator: Sketch 50.2 (55047) - http://www.bohemiancoding.com/sketch -->
    <title>ic/企业用车</title>
    <desc>Created with Sketch.</desc>
    <defs>
        <linearGradient x1="67.0193176%" y1="-43.4162322%" x2="50%" y2="100%" id="linearGradient-1">
            <stop stop-color="#6BA0FF" offset="0%"></stop>
            <stop stop-color="#4F88F7" offset="100%"></stop>
        </linearGradient>
        <linearGradient x1="50%" y1="13.2208413%" x2="50%" y2="100%" id="linearGradient-2">
            <stop stop-color="#5490F7" offset="0%"></stop>
            <stop stop-color="#4670F6" offset="100%"></stop>
        </linearGradient>
    </defs>
    <g id="设计稿" stroke="none" stroke-width="1" fill="none" fill-rule="evenodd">
        <g id="A1_首页" transform="translate(-214.000000, -108.000000)">
            <g id="图标" transform="translate(14.000000, 86.000000)">
                <g id="ic/企业用车" transform="translate(200.000000, 18.000000)">
                    <g id="Group" transform="translate(0.000000, -0.767061)">
                        <path d="M2.9710099,14.0771761 L6.42411298,8.19772168 C7.32992318,6.65543648 8.89267622,5.72270135 10.570891,5.72270135 L19.6159964,5.72270135 C21.3129129,5.72270135 22.8903547,6.67618809 23.7909443,8.24625402 L27.1355605,14.0771761 C23.0266901,14.8476671 18.9804216,15.2329126 14.9967548,15.2329126 C11.013088,15.2329126 7.00450636,14.8476671 2.9710099,14.0771761 Z" id="Path-2" fill="url(#linearGradient-1)" opacity="0.85"></path>
                        <path d="M7.81667779,25.3871921 L7.79186896,27.5071694 C7.78686539,27.9347366 7.4487595,28.2786412 7.0334052,28.2786412 L3.00670448,28.2786412 C2.48429433,28.2786412 2.02900916,27.912402 1.90268973,27.3905511 C1.55509937,25.9546033 1.38130419,24.5186555 1.38130419,23.0827078 C1.38130419,21.35073 1.38130419,19.3909017 1.38130419,17.2032231 L0.947010911,17.0158493 C0.281238766,16.7286117 -0.10221305,16.00467 0.0238374485,15.2729346 C0.10056881,14.8275017 0.29019851,14.1748927 0.592726548,13.3151078 C5.40697044,14.4543914 10.2212121,15.0240331 15.0354514,15.0240331 C19.8496908,15.0240331 24.6402183,14.4543914 29.4070338,13.3151078 C29.6740006,13.9670143 29.8636303,14.6217152 29.9759229,15.2792104 C30.1031177,16.023961 29.7168285,16.7611535 29.0424073,17.0607274 L28.6574472,17.2317246 C28.6574472,19.1804972 28.6574472,21.1292697 28.6574472,23.0780423 C28.6574472,24.6675313 28.4892426,26.1219162 28.1528334,27.441197 C28.0215338,27.9561089 27.569457,28.3151074 27.0523425,28.3151074 L22.9685129,28.3151078 C22.5495945,28.3151078 22.2099941,27.9654965 22.2099941,27.5342291 L22.2099941,25.3871921 C19.8025637,25.6202771 17.3951334,25.7368196 14.9877031,25.7368196 C12.5802727,25.7368196 10.189931,25.6202771 7.81667779,25.3871921 Z" id="Path-3" fill="url(#linearGradient-2)"></path>
                        <g id="Group-6" transform="translate(3.698060, 17.300489)" fill="#FFFFFF">
                            <path d="M0.633137889,0.208066932 L3.4688962,0.62480532 C3.71432288,0.660872823 3.89619785,0.871429306 3.89619785,1.11949204 L3.89619785,3.070334 C3.89619785,3.34647637 3.67234022,3.570334 3.39619785,3.570334 C3.37466692,3.570334 3.35315848,3.56894326 3.33180685,3.56617046 L0.496048543,3.19790931 C0.246890396,3.16555279 0.0604395404,2.95332317 0.0604395404,2.70207285 L0.0604395404,0.702753651 C0.0604395404,0.426611276 0.284297165,0.202753651 0.56043954,0.202753651 C0.58476932,0.202753651 0.609066652,0.204529462 0.633137889,0.208066932 Z" id="Path-4"></path>
                            <path d="M22.5921631,0.702757199 L22.5921631,2.70197291 C22.5921631,2.95322323 22.4057122,3.16545285 22.1565541,3.19780937 L19.3209273,3.56605344 C19.0470844,3.60161561 18.796262,3.40845089 18.7606998,3.13460797 C18.7579271,3.11325634 18.7565363,3.0917479 18.7565363,3.07021698 L18.7565363,1.11947625 C18.7565363,0.871413521 18.9384113,0.660857038 19.183838,0.624789535 L22.0194647,0.20807048 C22.2926726,0.16792029 22.5466996,0.356850919 22.5868498,0.63005885 C22.5903873,0.654130087 22.5921631,0.678427419 22.5921631,0.702757199 Z" id="Path-4"></path>
                        </g>
                    </g>
                </g>
            </g>
        </g>
    </g>
</svg>