<?xml version="1.0" encoding="UTF-8"?>
<svg width="30px" height="30px" viewBox="0 0 30 30" version="1.1" xmlns="http://www.w3.org/2000/svg" xmlns:xlink="http://www.w3.org/1999/xlink">
    <!-- Generator: Sketch 50.2 (55047) - http://www.bohemiancoding.com/sketch -->
    <title>ic/应用管理</title>
    <desc>Created with Sketch.</desc>
    <defs>
        <linearGradient x1="50%" y1="0%" x2="50%" y2="100%" id="linearGradient-1">
            <stop stop-color="#CBCBCB" offset="0%"></stop>
            <stop stop-color="#969696" offset="100%"></stop>
        </linearGradient>
    </defs>
    <g id="设计稿" stroke="none" stroke-width="1" fill="none" fill-rule="evenodd">
        <g id="A1_首页" transform="translate(-297.000000, -179.000000)">
            <g id="图标" transform="translate(14.000000, 86.000000)">
                <g id="ic/应用管理" transform="translate(283.000000, 93.000000)">
                    <g id="Group">
                        <circle id="Oval-6" fill="url(#linearGradient-1)" cx="15" cy="15" r="14.0625"></circle>
                        <path d="M9.375,16.875 C8.33946609,16.875 7.5,16.0355339 7.5,15 C7.5,13.9644661 8.33946609,13.125 9.375,13.125 C10.4105339,13.125 11.25,13.9644661 11.25,15 C11.25,16.0355339 10.4105339,16.875 9.375,16.875 Z M15,16.875 C13.9644661,16.875 13.125,16.0355339 13.125,15 C13.125,13.9644661 13.9644661,13.125 15,13.125 C16.0355339,13.125 16.875,13.9644661 16.875,15 C16.875,16.0355339 16.0355339,16.875 15,16.875 Z M20.625,16.875 C19.5894661,16.875 18.75,16.0355339 18.75,15 C18.75,13.9644661 19.5894661,13.125 20.625,13.125 C21.6605339,13.125 22.5,13.9644661 22.5,15 C22.5,16.0355339 21.6605339,16.875 20.625,16.875 Z" id="Combined-Shape" fill="#FFFFFF"></path>
                    </g>
                </g>
            </g>
        </g>
    </g>
</svg>