<?xml version="1.0" encoding="UTF-8"?>
<svg width="26px" height="28px" viewBox="0 0 26 28" version="1.1" xmlns="http://www.w3.org/2000/svg" xmlns:xlink="http://www.w3.org/1999/xlink">
    <!-- Generator: Sketch 50.2 (55047) - http://www.bohemiancoding.com/sketch -->
    <title>ic/企业用车</title>
    <desc>Created with Sketch.</desc>
    <defs>
        <linearGradient x1="11.6494601%" y1="0%" x2="100%" y2="100%" id="linearGradient-1">
            <stop stop-color="#99F1CA" offset="0%"></stop>
            <stop stop-color="#5CC27F" offset="100%"></stop>
        </linearGradient>
    </defs>
    <g id="设计稿" stroke="none" stroke-width="1" fill="none" fill-rule="evenodd">
        <g id="A1_首页" transform="translate(-130.000000, -181.000000)">
            <g id="图标" transform="translate(14.000000, 86.000000)">
                <g id="ic/请假出差" transform="translate(114.000104, 93.000000)">
                    <g id="Group" transform="translate(-0.767045, -0.286458)">
                        <path d="M3.11079545,2.63020833 L22.7982955,2.63020833 C25.9048972,2.63020833 28.4232955,5.14860662 28.4232955,8.25520833 L28.4232955,30.2864583 L8.73579545,30.2864583 C5.62919374,30.2864583 3.11079545,27.7680601 3.11079545,24.6614583 L3.11079545,2.63020833 Z" id="Rectangle-7" fill="url(#linearGradient-1)"></path>
                        <path d="M10.6216307,20.8981709 C10.3221341,21.0465875 9.96009104,20.9725628 9.74288691,20.7184997 L6.73758718,17.2031651 C6.56225272,16.9980769 6.51439081,16.7129783 6.61314089,16.4618771 C6.76064461,16.0868055 7.18427561,15.9023253 7.55934722,16.049829 L10.6302032,17.2574988 C10.946946,17.3820637 11.3049216,17.3407156 11.5849271,17.1472231 L18.9412242,12.0637938 C20.1567658,11.2238169 21.7023756,11.0204453 23.0938299,11.5173933 L24.4170958,11.9899882 C24.5138424,12.0245406 24.596757,12.0895675 24.6533719,12.1752911 C24.7977457,12.3938949 24.7375704,12.6881463 24.5189625,12.8325138 C21.0151712,15.1465433 18.5916382,16.6879678 17.2483636,17.4567873 C15.8812061,18.2392762 13.6722951,19.3864041 10.6216307,20.8981709 Z" id="Path-3" fill="#FFFFFF"></path>
                        <path d="M14.2250904,22.0756627 C15.8906469,22.0756627 16.5426287,20.4123478 17.971728,16.9666114 C16.896935,17.5721286 15.7161765,18.2381975 14.4294525,18.9648181 C13.7325985,20.8787982 13.6644778,21.9157464 14.2250904,22.0756627 Z" id="Path-4" fill="#FFFFFF"></path>
                    </g>
                </g>
            </g>
        </g>
    </g>
</svg>