<?xml version="1.0" encoding="UTF-8"?>
<svg width="24px" height="24px" viewBox="0 0 24 24" version="1.1" xmlns="http://www.w3.org/2000/svg" xmlns:xlink="http://www.w3.org/1999/xlink">
    <!-- Generator: Sketch 49.1 (51147) - http://www.bohemiancoding.com/sketch -->
    <title>icon_a-relevant_more</title>
    <desc>Created with Sketch.</desc>
    <defs></defs>
    <g id="任务分派" stroke="none" stroke-width="1" fill="none" fill-rule="evenodd">
        <g id="A1.15_新建任务（完整）" transform="translate(-304.000000, -418.000000)">
            <g id="属性内容" transform="translate(0.000000, 364.000000)">
                <g id="Group-2">
                    <g transform="translate(0.000000, 46.000000)">
                        <g id="icon_a-relevant_more" transform="translate(304.000000, 8.000000)">
                            <circle id="Oval" stroke="#F1F2F5" stroke-width="1.5" cx="12" cy="12" r="11.25"></circle>
                            <path d="M6.94019628,13.5 C6.11176915,13.5 5.44019628,12.8284271 5.44019628,12 C5.44019628,11.1715729 6.11176915,10.5 6.94019628,10.5 C7.7686234,10.5 8.44019628,11.1715729 8.44019628,12 C8.44019628,12.8284271 7.7686234,13.5 6.94019628,13.5 Z M12.0598037,13.5 C11.2313766,13.5 10.5598037,12.8284271 10.5598037,12 C10.5598037,11.1715729 11.2313766,10.5 12.0598037,10.5 C12.8882308,10.5 13.5598037,11.1715729 13.5598037,12 C13.5598037,12.8284271 12.8882308,13.5 12.0598037,13.5 Z M17.0598037,13.5 C16.2313766,13.5 15.5598037,12.8284271 15.5598037,12 C15.5598037,11.1715729 16.2313766,10.5 17.0598037,10.5 C17.8882308,10.5 18.5598037,11.1715729 18.5598037,12 C18.5598037,12.8284271 17.8882308,13.5 17.0598037,13.5 Z" id="Combined-Shape" fill="#B2B9C8"></path>
                        </g>
                    </g>
                </g>
            </g>
        </g>
    </g>
</svg>