<?xml version="1.0" encoding="UTF-8"?>
<svg width="18px" height="18px" viewBox="0 0 18 18" version="1.1" xmlns="http://www.w3.org/2000/svg" xmlns:xlink="http://www.w3.org/1999/xlink">
    <!-- Generator: Sketch 49.1 (51147) - http://www.bohemiancoding.com/sketch -->
    <title>icon_a-place_location</title>
    <desc>Created with Sketch.</desc>
    <defs></defs>
    <g id="任务分派" stroke="none" stroke-width="1" fill="none" fill-rule="evenodd">
        <g id="A1.9_任务地点（删除列表）" transform="translate(-315.000000, -77.000000)" stroke="#5585F0">
            <g id="Group" transform="translate(14.000000, 64.000000)">
                <g id="icon_a-place_location" transform="translate(301.000000, 13.000000)">
                    <g transform="translate(0.500000, 0.500000)" id="Shape">
                        <path d="M12.3302121,10.2996697 C12.9952231,9.26221102 13.3894574,8.31570285 13.3742414,7.12055041 C13.3393136,4.37958448 11.0728121,2.07677195 8.33253781,2.00207492 C5.40137111,1.92184478 3,4.27410951 3,7.18729359 C3,8.35685538 3.39181358,9.26221102 4.04437511,10.2996697 L7.37669251,14.473712 C7.79236763,14.993133 8.58221954,14.993133 8.99789466,14.473712 L12.3302121,10.2996697 Z"></path>
                        <path d="M10.262211,7.18729359 C10.262211,8.33333965 9.33333965,9.26221102 8.18729359,9.26221102 C7.04124752,9.26221102 6.11237615,8.33333965 6.11237615,7.18729359 C6.11237615,6.04124752 7.04124752,5.11237615 8.18729359,5.11237615 C9.33333965,5.11237615 10.262211,6.04124752 10.262211,7.18729359 L10.262211,7.18729359 Z"></path>
                    </g>
                </g>
            </g>
        </g>
    </g>
</svg>