<?xml version="1.0" encoding="UTF-8"?>
<svg width="22px" height="23px" viewBox="0 0 22 23" version="1.1" xmlns="http://www.w3.org/2000/svg" xmlns:xlink="http://www.w3.org/1999/xlink">
    <!-- Generator: Sketch 50.2 (55047) - http://www.bohemiancoding.com/sketch -->
    <title>icon_a-enclosure-list_download</title>
    <desc>Created with Sketch.</desc>
    <defs></defs>
    <g id="180724" stroke="none" stroke-width="1" fill="none" fill-rule="evenodd">
        <g id="A2.1_任务详情（发起人）" transform="translate(-339.000000, -1174.000000)" fill="#D8DADD" fill-rule="nonzero">
            <g id="附件" transform="translate(0.000000, 1109.555834)">
                <g transform="translate(14.000000, 46.000000)" id="列表">
                    <g transform="translate(1.000000, 0.104097)">
                        <g id="Group" transform="translate(324.000000, 19.000000)">
                            <path d="M7.03753125,10.7737656 L10.1972344,13.9340156 C10.4116562,14.1476875 10.6968437,14.2652813 10.999875,14.2652813 C11.3036094,14.2652813 11.58875,14.1474063 11.8029062,13.93325 L14.9625313,10.7738438 C15.2093125,10.5269844 15.2093125,10.1255781 14.9625313,9.87879688 C14.8430156,9.75925 14.6840781,9.69346875 14.5150469,9.69346875 C14.3460156,9.69346875 14.1870937,9.75926563 14.0675625,9.87879688 L11.6328594,12.3132188 L11.6328594,4.47204688 C11.6328594,4.12296875 11.3489844,3.83915625 10.9999688,3.83915625 C10.6509531,3.83915625 10.3671563,4.12307813 10.3671563,4.47204688 L10.3671562,12.31375 L7.9325,9.87879688 C7.81298437,9.75925 7.65403125,9.69346875 7.48501562,9.69346875 C7.31598437,9.69346875 7.15707813,9.75928125 7.03753125,9.87879688 C6.91798438,9.9983125 6.85217187,10.1572656 6.85217187,10.3262813 C6.85217187,10.4952969 6.91801563,10.65425 7.03753125,10.7737656 Z M15.6866719,5.5130625 C15.3376563,5.5130625 15.0538594,5.79685938 15.0538594,6.145875 C15.0538594,6.49489063 15.33775,6.7786875 15.6866719,6.7786875 C16.4452813,6.7786875 17.0624688,7.39589063 17.0624688,8.1545 L17.0624688,15.5193125 C17.0624688,16.2779375 16.4452656,16.895125 15.6866719,16.895125 L6.31332812,16.895125 C5.55470312,16.895125 4.93753125,16.2779219 4.93753125,15.5193125 L4.93753125,8.1545 C4.93753125,7.395875 5.55465625,6.7786875 6.31332812,6.7786875 C6.66234375,6.7786875 6.94614062,6.49489063 6.94614062,6.145875 C6.94614062,5.79685938 6.66225,5.5130625 6.31332812,5.5130625 C4.8568125,5.5130625 3.671875,6.69796875 3.671875,8.15454688 L3.671875,15.5193594 C3.671875,16.9758906 4.85676562,18.1608438 6.31332812,18.1608438 L15.6866719,18.1608438 C17.1431875,18.1608438 18.328125,16.9759375 18.328125,15.5193594 L18.328125,8.15454688 C18.328125,6.698 17.1432344,5.5130625 15.6866719,5.5130625 Z" id="Shape"></path>
                        </g>
                    </g>
                </g>
            </g>
        </g>
    </g>
</svg>