<?xml version="1.0" encoding="UTF-8"?>
<svg width="19px" height="19px" viewBox="0 0 19 19" version="1.1" xmlns="http://www.w3.org/2000/svg" xmlns:xlink="http://www.w3.org/1999/xlink">
    <!-- Generator: Sketch 50.2 (55047) - http://www.bohemiancoding.com/sketch -->
    <title>icon_a-details_tab-comment</title>
    <desc>Created with Sketch.</desc>
    <defs></defs>
    <g id="任务分派" stroke="none" stroke-width="1" fill="none" fill-rule="evenodd">
        <g id="A2.1_任务详情（发起人）" transform="translate(-19.000000, -1810.000000)" fill="#B2B9C8">
            <g id="tab" transform="translate(0.000000, 1794.000000)">
                <g id="Group-10" transform="translate(20.000000, 16.425100)">
                    <g id="Group">
                        <path d="M14.1333333,10.8659403 L10.3990667,10.8659403 L10.3990667,11.0222737 L10.1298,10.8715403 L9.0238,12.7321403 L5.74033333,12.7321403 C6.25226667,12.7279403 6.66666667,12.312607 6.66666667,11.7992737 C6.66666667,11.2840737 6.249,10.8659403 5.73333333,10.8659403 C5.73333333,10.8659403 5.73286667,10.8659403 5.73286667,10.8659403 L3.86666667,10.8659403 L3.86666667,4.33260698 L14.1333333,4.33260698 L14.1333333,10.8659403 Z M15.0666667,2.46594032 L2.93333333,2.46594032 C2.41813333,2.46594032 2,2.88407365 2,3.39927365 L2,11.7992737 C2,12.3144737 2.41813333,12.732607 2.93333333,12.732607 L9.02333333,12.732607 L8.19546667,14.1246737 C7.9276,14.5740737 8.08626667,15.1485403 8.5492,15.408007 C9.01166667,15.6674737 9.60386667,15.5134737 9.87126667,15.0645403 L11.2572667,12.732607 L15.0666667,12.732607 C15.5823333,12.732607 16,12.3144737 16,11.7992737 L16,3.39927365 C16,2.88407365 15.5823333,2.46594032 15.0666667,2.46594032 Z" id="Fill-1"></path>
                    </g>
                </g>
            </g>
        </g>
    </g>
</svg>