<?xml version="1.0" encoding="UTF-8"?>
<svg width="22px" height="23px" viewBox="0 0 22 23" version="1.1" xmlns="http://www.w3.org/2000/svg" xmlns:xlink="http://www.w3.org/1999/xlink">
    <!-- Generator: Sketch 49.1 (51147) - http://www.bohemiancoding.com/sketch -->
    <title>icon_a-enclosure-list_delete</title>
    <desc>Created with Sketch.</desc>
    <defs></defs>
    <g id="任务分派" stroke="none" stroke-width="1" fill="none" fill-rule="evenodd">
        <g id="A1.15_新建任务（完整）" transform="translate(-339.000000, -816.000000)" fill="#D8DADD" stroke="#D8DADD" stroke-width="0.4">
            <g id="附件" transform="translate(0.000000, 751.000000)">
                <g transform="translate(14.000000, 46.000000)" id="列表">
                    <g transform="translate(1.000000, 0.104097)">
                        <g id="Group" transform="translate(324.000000, 19.000000)">
                            <path d="M17.09375,6.3125 L17.09375,17.5625 C17.09375,18.0804688 16.67375,18.5 16.15625,18.5 L5.84375,18.5 C5.32578125,18.5 4.90625,18.0804688 4.90625,17.5625 L4.90625,6.3125 L3.96875,6.3125 C3.71,6.3125 3.5,6.1025 3.5,5.84375 C3.5,5.585 3.71,5.375 3.96875,5.375 L8.27344722,5.375 L8.27344722,3.96875 C8.27344722,3.71 8.48344722,3.5 8.74219722,3.5 L13.4296972,3.5 C13.6884472,3.5 13.8984472,3.71 13.8984472,3.96875 L13.8984472,5.375 L18.03125,5.375 C18.29,5.375 18.5,5.585 18.5,5.84375 C18.5,6.1025 18.29,6.3125 18.03125,6.3125 L17.09375,6.3125 Z M9.21094722,4.4375 L9.21094722,5.375 L12.9609472,5.375 L12.9609472,4.4375 L9.21094722,4.4375 Z M16.15625,6.78125 L16.15625,6.3125 L15.6875,6.3125 L6.3125,6.3125 L5.84375,6.3125 L5.84375,17.09375 C5.84375,17.3525 6.05375,17.5625 6.3125,17.5625 L15.6875,17.5625 C15.94625,17.5625 16.15625,17.3525 16.15625,17.09375 L16.15625,7.25 L16.15625,6.78125 Z M13.2098214,9.59375 L13.2098214,15.21875 L12.2723214,15.21875 L12.2723214,9.59375 L13.2098214,9.59375 Z M9.72767857,9.59375 L9.72767857,15.21875 L8.79017857,15.21875 L8.79017857,9.59375 L9.72767857,9.59375 Z" id="icon_a-enclosure-list_delete"></path>
                        </g>
                    </g>
                </g>
            </g>
        </g>
    </g>
</svg>