<?xml version="1.0" encoding="UTF-8"?>
<svg width="23px" height="23px" viewBox="0 0 23 23" version="1.1" xmlns="http://www.w3.org/2000/svg" xmlns:xlink="http://www.w3.org/1999/xlink">
    <!-- Generator: Sketch 50.2 (55047) - http://www.bohemiancoding.com/sketch -->
    <title>icon_a-newtask-list_subtask</title>
    <desc>Created with Sketch.</desc>
    <defs></defs>
    <g id="180724" stroke="none" stroke-width="1" fill="none" fill-rule="evenodd">
        <g id="A0.2_结束任务（子任务评分）" transform="translate(-34.000000, -212.000000)" fill="#B2B9C8" stroke="#B2B9C8" stroke-width="0.1">
            <g id="结束任务" transform="translate(20.000000, 87.000000)">
                <g id="Group-9" transform="translate(0.000000, 122.000000)">
                    <g id="Group-4" transform="translate(14.000000, 3.500000)">
                        <path d="M19.9517512,13.1742237 L12.3867644,5.60914683 C11.9193126,5.14167247 11.1586725,5.14167247 10.6911306,5.60914683 L3.12614383,13.1742237 C2.94597682,13.3543006 2.94597682,13.6463397 3.12614383,13.8264166 C3.30622072,14.0064935 3.59816969,14.0064935 3.77826911,13.8264166 L4.40263479,13.2019382 L4.40263479,19.7425011 C4.40263479,20.4035942 4.94052211,20.9414589 5.60168278,20.9414589 L17.4069484,20.9414589 C18.0681316,20.9414589 18.6059964,20.4035942 18.6059964,19.7425011 L18.6059964,13.1326744 L19.2996484,13.8264166 C19.3896869,13.916455 19.5077102,13.9614292 19.6257561,13.9614292 C19.7437795,13.9614292 19.8617127,13.916455 19.9517512,13.8264166 C20.1318506,13.6463397 20.1318506,13.3543006 19.9517512,13.1742237 Z M13.6256042,20.0191507 L9.38304954,20.0191507 L9.38304954,15.3892235 C9.38304954,15.2367034 9.50713405,15.1125964 9.65976678,15.1125964 L13.3488644,15.1125964 C13.5014972,15.1125964 13.6256042,15.2367034 13.6256042,15.3892235 L13.6256042,20.0191507 Z M17.6836657,19.7425011 C17.6836657,19.8950437 17.5595586,20.0191507 17.4069484,20.0191507 L14.5478223,20.0191507 L14.5478223,15.3892235 C14.5478223,14.7281304 14.0100476,14.1902656 13.3488644,14.1902656 L9.65976678,14.1902656 C8.99858358,14.1902656 8.4607188,14.7281304 8.4607188,15.3892235 L8.4607188,20.0191507 L5.60168278,20.0191507 C5.44907257,20.0191507 5.32496553,19.8950437 5.32496553,19.7425011 L5.32496553,12.2796976 L11.343346,6.26133971 C11.4511623,6.15343328 11.6267553,6.15343328 11.7345716,6.26133971 L17.6836657,12.2104338 L17.6836657,19.7425011 Z" id="Fill-1"></path>
                    </g>
                </g>
            </g>
        </g>
    </g>
</svg>