<?xml version="1.0" encoding="UTF-8"?>
<svg width="39px" height="39px" viewBox="0 0 39 39" version="1.1" xmlns="http://www.w3.org/2000/svg" xmlns:xlink="http://www.w3.org/1999/xlink">
    <!-- Generator: Sketch 49.1 (51147) - http://www.bohemiancoding.com/sketch -->
    <title>icon_a-add_enclosure</title>
    <desc>Created with Sketch.</desc>
    <defs></defs>
    <g id="任务分派" stroke="none" stroke-width="1" fill="none" fill-rule="evenodd">
        <g id="A1.7_添加内容" transform="translate(-168.000000, -341.000000)" stroke="#0A1735" stroke-width="1.5">
            <g id="添加内容" transform="translate(140.500000, 324.000000)">
                <g id="任务地点" transform="translate(29.000000, 18.500000)">
                    <g id="icon-附件" transform="translate(-0.523810, -0.500000)">
                        <g id="Group" transform="translate(7.523810, 7.500000)">
                            <path d="M20.8182316,15.0838221 L14.9579429,20.9435582 C13.6634529,22.2386008 11.5645336,22.2386008 10.2700435,20.9435582 L0.656120431,11.4683107 C0.345067117,11.1567049 0.0318038333,10.7346006 0.0318038333,10.2937115 L0.0318038333,2.08146207 C0.0318038333,1.17095432 1.04562769,0.710175523 1.95613543,0.710175523 L10.1683849,0.710175523 C10.6087215,0.710175523 11.0313783,0.74608754 11.3424316,1.05824584 L20.8182316,10.4644317 C22.1127216,11.7589218 22.1127216,13.789332 20.8182316,15.0838221 L20.8182316,15.0838221 Z" id="Shape"></path>
                            <path d="M8.87168486,6.78704123 C8.87168486,8.3124732 7.63465401,9.54950405 6.10922204,9.54950405 C4.58379007,9.54950405 3.34675922,8.3124732 3.34675922,6.78704123 C3.34675922,5.26160927 4.58379007,4.02457841 6.10922204,4.02457841 C7.63465401,4.02457841 8.87168486,5.26160927 8.87168486,6.78704123 L8.87168486,6.78704123 Z" id="Shape"></path>
                            <path d="M11.0816551,11.2069817 L15.5015956,15.6269223" id="Shape"></path>
                        </g>
                    </g>
                </g>
            </g>
        </g>
    </g>
</svg>