<?xml version="1.0" encoding="UTF-8"?>
<svg width="28px" height="28px" viewBox="0 0 28 28" version="1.1" xmlns="http://www.w3.org/2000/svg" xmlns:xlink="http://www.w3.org/1999/xlink">
    <!-- Generator: Sketch 49.1 (51147) - http://www.bohemiancoding.com/sketch -->
    <title>icon_a-newtask-list_relevant</title>
    <desc>Created with Sketch.</desc>
    <defs></defs>
    <g id="任务分派" stroke="none" stroke-width="1" fill="none" fill-rule="evenodd">
        <g id="补_新建图标" transform="translate(-13.000000, -465.000000)">
            <g id="属性内容" transform="translate(0.000000, 456.000000)">
                <g id="icon_负责人" transform="translate(13.500000, 9.500000)">
                    <rect id="Rectangle-2" x="0.5" y="0.5" width="26" height="26"></rect>
                    <path d="M21.342156,19.6778579 C21.9704256,19.6778579 22.3939833,19.0523238 22.1819765,18.4605285 C21.5313664,16.6431971 20.0673796,15.2156847 18.2286196,14.6120352" id="Shape" stroke="#B2B9C8"></path>
                    <path d="M16.7660007,7.42751243 C18.5869795,7.75076581 19.9698109,9.34150068 19.9698109,11.255033 C19.9698109,12.7231231 19.1555225,14.0015469 17.9541506,14.6626433" id="Shape" stroke="#B2B9C8"></path>
                    <path d="M17.5287692,20.5897151 C18.2737566,20.5897151 18.775278,19.8479192 18.5245173,19.1467011 C17.7530861,16.9928944 16.0178219,15.3009434 13.8384832,14.5855914" id="Shape" stroke="#B2B9C8"></path>
                    <path d="M8.7512319,14.5860473 C6.57143728,15.3013993 4.83617304,16.9933503 4.06519779,19.147157 C3.81443706,19.8483752 4.31595852,20.5897151 5.06094584,20.5897151" id="Shape" stroke="#B2B9C8"></path>
                    <path d="M15.902016,10.6071585 C15.902016,13.151696 13.839395,15.2143169 11.2948575,15.2143169 C8.75032004,15.2143169 6.68724314,13.151696 6.68724314,10.6071585 C6.68724314,8.06262097 8.75032004,6 11.2948575,6 C13.839395,6 15.902016,8.06262097 15.902016,10.6071585 L15.902016,10.6071585 Z" id="Shape" stroke="#B2B9C8"></path>
                </g>
            </g>
        </g>
    </g>
</svg>