<?xml version="1.0" encoding="UTF-8"?>
<svg width="56px" height="56px" viewBox="0 0 56 56" version="1.1" xmlns="http://www.w3.org/2000/svg" xmlns:xlink="http://www.w3.org/1999/xlink">
    <!-- Generator: Sketch 51 (57462) - http://www.bohemiancoding.com/sketch -->
    <title>icon_a-homepage_addbtn2</title>
    <desc>Created with Sketch.</desc>
    <defs></defs>
    <g id="20180810" stroke="none" stroke-width="1" fill="none" fill-rule="evenodd">
        <g id="B5.1_添加菜单" transform="translate(-305.000000, -506.000000)">
            <rect fill="#FFFFFF" x="0" y="0" width="375" height="667"></rect>
            <g id="Group-5" transform="translate(305.000000, 506.000000)">
                <g id="列表/标题/类别/话题">
                    <g id="Group-2">
                        <circle id="Oval-5" fill="#FFFFFF" cx="28" cy="28" r="28"></circle>
                        <g id="Group" transform="translate(18.000000, 15.000000)">
                            <rect id="Combined-Shape" fill="#B2B9C8" x="0" y="2" width="20" height="23" rx="2"></rect>
                            <rect id="Rectangle-Copy" fill="#B2B9C8" x="5" y="0" width="10" height="5.64650284" rx="2.57142857"></rect>
                            <path d="M13.0228539,26.163719 L13.0228539,20 C13.0228539,18.8954305 13.9182844,18 15.0228539,18 L21,18 L21,18.1865729 C21,22.592229 17.42851,26.163719 13.0228539,26.163719 Z" id="Path-2" stroke="#FFFFFF" stroke-width="2" fill="#B2B9C8" fill-rule="nonzero"></path>
                            <path d="M5,15.0488543 L5,17.1374631 L7.05686014,17.1374631 L14.4732624,10.094797 C15.0496703,9.54743614 15.0732175,8.63644158 14.5258567,8.0600337 C14.5198495,8.05370771 14.5137849,8.04743645 14.5076636,8.04122073 L14.5076636,8.04122073 C13.9366774,7.46142105 13.0064881,7.44583864 12.4164023,8.00618818 L5,15.0488543 Z" id="Shape" fill="#FFFFFF" fill-rule="nonzero"></path>
                        </g>
                    </g>
                </g>
            </g>
        </g>
    </g>
</svg>