<?xml version="1.0" encoding="UTF-8"?>
<svg width="18px" height="18px" viewBox="0 0 18 18" version="1.1" xmlns="http://www.w3.org/2000/svg" xmlns:xlink="http://www.w3.org/1999/xlink">
    <!-- Generator: Sketch 50.2 (55047) - http://www.bohemiancoding.com/sketch -->
    <title>icon_a-details_tab-restart</title>
    <desc>Created with Sketch.</desc>
    <defs></defs>
    <g id="æ§ä»¶" stroke="none" stroke-width="1" fill="none" fill-rule="evenodd">
        <g id="icon_a-details_tab-end" fill="#B2B9C8" stroke="#B2B9C8" stroke-width="0.28">
            <g id="Group">
                <path d="M8.96788292,16.5825127 C5.69699071,16.5825127 2.72344145,14.3524007 1.83139264,11.23016 C0.939323868,7.95926774 2.27744699,4.53974398 5.10228485,2.90425795 L5.84570211,4.24238107 C3.61551022,5.43179279 2.5748099,8.25661069 3.31814731,10.7841855 C4.06158453,13.3116205 6.58903952,15.095758 9.11659432,15.095758 C11.7927807,15.095758 14.0228927,13.1629889 14.76631,10.6354541 C15.3610158,8.10797914 14.1716041,5.28308139 11.7927807,4.09366967 L12.5361181,2.7556264 C15.5096474,4.39101262 16.996422,7.66190483 16.2530646,10.932797 C15.5096474,14.2036893 12.5361181,16.5825127 9.26522587,16.5825127 L8.96788292,16.5825127 Z M8.22452555,10.1894636 L8.22452555,1.41748731 L9.71128022,1.41748731 L9.71128022,10.1894636 L8.22452555,10.1894636 Z" id="Combined-Shape"></path>
            </g>
        </g>
    </g>
</svg>