<?xml version="1.0" encoding="UTF-8"?>
<svg width="12px" height="12px" viewBox="0 0 12 12" version="1.1" xmlns="http://www.w3.org/2000/svg" xmlns:xlink="http://www.w3.org/1999/xlink">
    <!-- Generator: Sketch 50.2 (55047) - http://www.bohemiancoding.com/sketch -->
    <title>icon_a-list_comment</title>
    <desc>Created with Sketch.</desc>
    <defs></defs>
    <g id="任务分派" stroke="none" stroke-width="1" fill="none" fill-rule="evenodd">
        <g id="A_待处理" transform="translate(-192.000000, -172.000000)" fill="#B2B9C8" stroke="#B2B9C8" stroke-width="0.3">
            <g id="任务列表-卡片式" transform="translate(14.000000, 125.000000)">
                <g id="txt" transform="translate(14.000000, 12.000000)">
                    <g id="子任务" transform="translate(164.000000, 31.425821)">
                        <g id="icon_a-list_comment" transform="translate(-0.500000, 3.574179)">
                            <path d="M3.09397645,4.89929678 C3.09397645,5.22973053 3.36183995,5.49759402 3.6922737,5.49759402 C4.02270744,5.49759402 4.29051616,5.22973053 4.29051616,4.89929678 C4.29051616,4.56886303 4.02270744,4.30098128 3.6922737,4.30098128 C3.36183995,4.30098128 3.09397645,4.56886303 3.09397645,4.89929678 Z" id="Fill-1"></path>
                            <path d="M5.78625015,4.89929678 C5.78625015,5.22973053 6.05411364,5.49759402 6.38447436,5.49759402 C6.71490811,5.49759402 6.98278986,5.22973053 6.98278986,4.89929678 C6.98278986,4.56886303 6.71490811,4.30098128 6.38447436,4.30098128 C6.05411364,4.30098128 5.78625015,4.56886303 5.78625015,4.89929678 Z" id="Fill-2"></path>
                            <path d="M8.47852384,4.89929678 C8.47852384,5.11304349 8.59249044,5.31052229 8.77762682,5.41744129 C8.96270842,5.524269 9.19078768,5.524269 9.37594232,5.41744129 C9.56102393,5.31052229 9.67506356,5.11304349 9.67506356,4.89929678 C9.67506356,4.68555007 9.56102393,4.48807127 9.37594232,4.38115227 C9.19078768,4.2743063 8.96270842,4.2743063 8.77762682,4.38115227 C8.59249044,4.48807127 8.47852384,4.68555007 8.47852384,4.89929678 Z" id="Fill-3"></path>
                            <path d="M10.8716033,1.01048337 L1.89741848,1.01048337 C1.40268076,1.01048337 1,1.41314587 1,1.90790185 L1,7.89069171 C1,8.38542943 1.40268076,8.78811019 1.89741848,8.78811019 L4.55167896,8.78482374 C4.7538866,8.84945715 5.38057507,9.58019812 5.7554306,10.0169666 L5.89778843,10.1830051 C6.02794989,10.3340537 6.19784082,10.417219 6.37669644,10.417219 C6.50808119,10.417219 6.70398981,10.3729251 6.89213876,10.1608946 C7.00490033,10.0337275 7.1180088,9.90327388 7.22898108,9.77497474 C7.55384613,9.39953495 8.04502354,8.832039 8.19786147,8.78811019 L10.8716033,8.78811019 C11.3663592,8.78811019 11.7690217,8.38542943 11.7690217,7.89069171 L11.7690217,1.90790185 C11.7690217,1.41314587 11.3663592,1.01048337 10.8716033,1.01048337 Z M11.1707245,7.89069171 C11.1707245,7.97000457 11.1391929,8.04610402 11.0831408,8.1022292 C11.0270156,8.15828133 10.9509161,8.18981294 10.8716033,8.18981294 L8.19786147,8.18981294 C7.82663929,8.18981294 7.45514324,8.59904833 6.77638288,9.38343137 C6.66719989,9.50994123 6.55593548,9.63853251 6.44467107,9.7636365 C6.4267782,9.78631297 6.40422954,9.80486312 6.37855876,9.81804542 C6.36842555,9.81092479 6.35922351,9.80243481 6.35131778,9.79294063 L6.20952596,9.62776027 C5.35218384,8.62807859 4.93874911,8.18981294 4.58100135,8.18981294 L1.89741848,8.18981294 C1.73260328,8.18981294 1.5983155,8.05579904 1.5983155,7.89069171 L1.5983155,1.90790185 C1.5983155,1.74308665 1.73260328,1.60878061 1.89741848,1.60878061 L10.8716033,1.60878061 C11.0367106,1.60878061 11.1707245,1.74308665 11.1707245,1.90790185 L11.1707245,7.89069171 Z" id="Fill-5"></path>
                        </g>
                    </g>
                </g>
            </g>
        </g>
    </g>
</svg>