<?xml version="1.0" encoding="UTF-8"?>
<svg width="18px" height="18px" viewBox="0 0 18 18" version="1.1" xmlns="http://www.w3.org/2000/svg" xmlns:xlink="http://www.w3.org/1999/xlink">
    <!-- Generator: Sketch 50.2 (55047) - http://www.bohemiancoding.com/sketch -->
    <title>icon_a-details_tab-score</title>
    <desc>Created with Sketch.</desc>
    <defs></defs>
    <g id="控件" stroke="none" stroke-width="1" fill="none" fill-rule="evenodd">
        <g id="icon_a-details_tab-end" fill="#B2B9C8" stroke="#B2B9C8">
            <g id="Group">
                <g id="Group-2" transform="translate(1.151732, 1.151732)">
                    <path d="M7.56320224,0.133856865 C4.45307453,0.133856865 1.9318701,2.65508093 1.9318701,5.765189 C1.9318701,8.8753167 4.45307453,11.3965997 7.56320224,11.3965997 C10.6733103,11.3965997 13.1945147,8.8753167 13.1945147,5.765189 C13.1945147,2.65508093 10.6733103,0.133856865 7.56320224,0.133856865 M7.56320224,0.93835533 C10.226035,0.93835533 12.3900948,3.10235623 12.3900948,5.765189 C12.3900948,8.42725578 10.226035,10.5921012 7.56320224,10.5921012 C4.90119438,10.5921012 2.73629001,8.42725578 2.73629001,5.765189 C2.73629001,3.10235623 4.90119438,0.93835533 7.56320224,0.93835533" id="Fill-1" stroke-width="0.9"></path>
                    <path d="M6.1227649,11.3510851 L3.67119291,13.8026571 L2.91757428,12.2859411 L2.77448479,11.9997388 L2.48835239,11.856626 L0.971543233,11.1031006 L2.68868699,9.3859568 C2.46925516,9.15706951 2.26894384,8.89953638 2.07815786,8.64188679 L0.294243661,10.425801 C0.0776531233,10.6423915 -0.0215127381,10.9499734 0.0276044065,11.252385 C0.0767448404,11.5547733 0.268229507,11.8151478 0.542344629,11.9520656 L2.05906063,12.7152328 L2.82222787,14.2319488 C2.99389334,14.5658243 3.32776881,14.7566103 3.67119291,14.7566103 C3.9096521,14.7566103 4.15772978,14.6612639 4.34849248,14.4799567 L7.33427456,11.4941979 C6.91460128,11.4846492 6.51395536,11.436976 6.1227649,11.3510851 M14.8321499,10.425801 L13.0483289,8.64188679 C12.8575662,8.89853494 12.6572316,9.15706951 12.4377997,9.3859568 L14.1549435,11.1031006 L12.3519321,11.9988305 L12.2089124,12.2849396 L11.4552938,13.8017488 L9.00362866,11.3500836 C8.61253136,11.4359746 8.21188544,11.4836478 7.79223545,11.4931964 L10.7779942,14.4790484 C10.9687569,14.6602625 11.2167647,14.755702 11.4552938,14.755702 C11.7987179,14.755702 12.1325934,14.5648229 12.3042589,14.2309474 L13.0674494,12.7142314 L14.5841421,11.9510642 C15.1660254,11.664955 15.2901108,10.8922159 14.8321499,10.4247995" id="Fill-3" stroke-width="0.7"></path>
                </g>
            </g>
        </g>
    </g>
</svg>