<?xml version="1.0" encoding="UTF-8"?>
<svg width="19px" height="18px" viewBox="0 0 19 18" version="1.1" xmlns="http://www.w3.org/2000/svg" xmlns:xlink="http://www.w3.org/1999/xlink">
    <!-- Generator: Sketch 50.2 (55047) - http://www.bohemiancoding.com/sketch -->
    <title>icon_a-draft_draft</title>
    <desc>Created with Sketch.</desc>
    <defs></defs>
    <g id="180724" stroke="none" stroke-width="1" fill="none" fill-rule="evenodd">
        <g id="A_待处理" transform="translate(-14.000000, -162.000000)" fill="#FE5354">
            <g id="Group-2" transform="translate(0.000000, 153.000000)">
                <g id="Group-3" transform="translate(13.680661, 8.245690)">
                    <g id="Group-4" transform="translate(2.399321, 2.754310)">
                        <path d="M11.0726801,0.0128156514 L2.32392615,0.0128156514 C1.11602964,0.0128156514 0,0.855423372 0,2.06331988 L0,10.8121806 C0,12.0200558 1.11602964,13.136 2.32392615,13.136 L11.0726801,13.136 C12.2805766,13.136 13.1231843,12.0200558 13.1231843,10.8121806 L13.1231843,2.06331988 C13.1231843,0.855423372 12.2805766,0.0128156514 11.0726801,0.0128156514 Z M12.3030253,10.8121806 C12.3030253,11.5659332 11.8265181,12.315841 11.0726801,12.315841 L2.32392615,12.315841 C1.57017361,12.315841 0.820158971,11.5659332 0.820158971,10.8121806 L0.820158971,2.06331988 C0.820158971,1.30956734 1.57017361,0.832974622 2.32392615,0.832974622 L11.0726801,0.832974622 C11.8265181,0.832974622 12.3030253,1.30956734 12.3030253,2.06331988 L12.3030253,10.8121806 Z" id="Fill-1" stroke="#FE5354" stroke-width="0.2"></path>
                        <path d="M3.30302824,7.385619 C2.52047689,7.385619 1.8839131,8.02210217 1.8839131,8.80473415 C1.8839131,9.58736614 2.52047689,10.2238493 3.30302824,10.2238493 C4.08566023,10.2238493 4.72224419,9.58736614 4.72224419,8.80473415 C4.72224419,8.02210217 4.08566023,7.385619 3.30302824,7.385619 Z M3.30302824,9.44980482 C2.94719114,9.44980482 2.65795758,9.16057126 2.65795758,8.80473415 C2.65795758,8.44889705 2.94719114,8.15966349 3.30302824,8.15966349 C3.65888551,8.15966349 3.94809891,8.44889705 3.94809891,8.80473415 C3.94809891,9.16057126 3.65888551,9.44980482 3.30302824,9.44980482 Z M4.19040358,3.62842507 L3.15026745,4.66854104 L2.64787835,4.24978939 C2.4837885,4.11285298 2.23966957,4.13490633 2.10273316,4.29907682 C1.96571612,4.46318683 1.98785011,4.7072856 2.15196012,4.84422201 L2.92608523,5.48929267 C3.07971284,5.61788348 3.30617296,5.60780425 3.44776598,5.46607013 L4.73790731,4.1759288 C4.88240314,4.02363164 4.87925842,3.78400805 4.73081153,3.63550069 C4.5823848,3.48707396 4.34268057,3.48392924 4.19040358,3.62842507 Z" id="Fill-4"></path>
                        <path d="M10.656854,8.41771191 C10.8706344,8.41771191 11.0438762,8.5909537 11.0438762,8.80473415 C11.0438762,9.0185146 10.8706344,9.19175639 10.656854,9.19175639 L6.52838158,9.19175639 C6.31468176,9.19175639 6.14135933,9.0185146 6.14135933,8.80473415 C6.14135933,8.5909537 6.31468176,8.41771191 6.52838158,8.41771191 L10.656854,8.41771191 Z M10.656854,4.28923949 C10.8706344,4.28923949 11.0438762,4.46256191 11.0438762,4.67626173 C11.0438762,4.89006234 10.8706344,5.06328397 10.656854,5.06328397 L6.52838158,5.06328397 C6.31468176,5.06328397 6.14135933,4.89006234 6.14135933,4.67626173 C6.14135933,4.46256191 6.31468176,4.28923949 6.52838158,4.28923949 L10.656854,4.28923949 Z" id="Combined-Shape" stroke="#FE5354" stroke-width="0.2"></path>
                    </g>
                </g>
            </g>
        </g>
    </g>
</svg>