<?xml version="1.0" encoding="UTF-8"?>
<svg width="18px" height="18px" viewBox="0 0 18 18" version="1.1" xmlns="http://www.w3.org/2000/svg" xmlns:xlink="http://www.w3.org/1999/xlink">
    <!-- Generator: Sketch 50.2 (55047) - http://www.bohemiancoding.com/sketch -->
    <title>icon_a-draft_draft</title>
    <desc>Created with Sketch.</desc>
    <defs></defs>
    <g id="任务分派" stroke="none" stroke-width="1" fill="none" fill-rule="evenodd">
        <g id="A_待处理" transform="translate(-14.000000, -122.000000)" fill="#5585F0">
            <g id="Group" transform="translate(14.000000, 122.000000)">
                <path d="M13.6428053,15.5 L4.35710399,15.5 C3.33150554,15.5 2.5,14.6684945 2.5,13.6428053 L2.5,9.92859734 C2.5,9.4157437 2.9157165,8.99995466 3.428552,8.99995466 L3.428552,3.428552 C3.428552,2.9157165 3.84426849,2.5 4.35710399,2.5 L13.6428053,2.5 C14.155659,2.5 14.571448,2.9157165 14.571448,3.428552 L14.571448,8.99995466 C15.0844286,8.99995466 15.5,9.41177189 15.5,9.92859734 L15.5,13.6428053 C15.5,14.6684945 14.6684945,15.5 13.6428053,15.5 Z M13.6428053,3.428552 L4.35710399,3.428552 L4.35710399,8.99995466 L7.14285067,8.99995466 L7.14285067,10.8571493 L10.8571493,10.8571493 L10.8571493,8.99995466 L13.6428053,8.99995466 L13.6428053,3.428552 Z M14.571448,9.92859734 L11.7857013,9.92859734 L11.7857013,10.8571493 C11.7857013,11.3699848 11.3699848,11.7857013 10.8571493,11.7857013 L7.14285067,11.7857013 C6.63001516,11.7857013 6.21429867,11.3699848 6.21429867,10.8571493 L6.21429867,9.92859734 L3.428552,9.92859734 L3.428552,13.6428053 C3.428552,14.155659 3.84426849,14.571448 4.35710399,14.571448 L13.6428053,14.571448 C14.155659,14.571448 14.571448,14.155659 14.571448,13.6428053 L14.571448,9.92859734 Z" id="icon_a-draft"></path>
            </g>
        </g>
    </g>
</svg>