<?xml version="1.0" encoding="UTF-8"?>
<svg width="23px" height="23px" viewBox="0 0 23 23" version="1.1" xmlns="http://www.w3.org/2000/svg" xmlns:xlink="http://www.w3.org/1999/xlink">
    <!-- Generator: Sketch 50.2 (55047) - http://www.bohemiancoding.com/sketch -->
    <title>icon_a-newtask-list_subtask</title>
    <desc>Created with Sketch.</desc>
    <defs></defs>
    <g id="180724" stroke="none" stroke-width="1" fill="none" fill-rule="evenodd">
        <g id="A0.2_结束任务（子任务评分）" transform="translate(-34.000000, -282.000000)" fill="#B2B9C8">
            <g id="结束任务" transform="translate(20.000000, 87.000000)">
                <g id="Group-2" transform="translate(0.000000, 191.500000)">
                    <g id="Group-4">
                        <g id="Group" transform="translate(14.038922, 3.600000)">
                            <g id="Group-11" transform="translate(0.000000, 0.267991)">
                                <path d="M13.9323313,10.9991523 L17.7892314,10.9991523 L17.7892314,7.2085449 L13.9323313,7.2085449 L13.9323313,10.9991523 Z M13.2663321,18.9576694 L6.03956261,18.9576694 C5.07779559,18.9576694 4.35651142,18.2363853 4.35651142,17.2746183 L4.35651142,6.09434969 L5.44047188,6.09434969 L5.44047188,17.4053614 C5.44047188,17.6457503 5.68095473,17.8862567 5.92136713,17.8862567 L13.2663321,17.8862567 L13.2663321,18.9576694 Z M17.6550977,6.09434969 L14.0486299,6.09434969 C13.3272518,6.09434969 12.8463566,6.57522145 12.8463566,7.29650562 L12.8463566,10.9030908 C12.8463566,11.624375 13.3272518,12.1052468 14.0486299,12.1052468 L17.6550977,12.1052468 C18.3764758,12.1052468 18.8572536,11.624375 18.8572536,10.9030908 L18.8572536,7.29650562 C18.8572536,6.57522145 18.3764758,6.09434969 17.6550977,6.09434969 Z" id="Fill-1"></path>
                                <path d="M13.930244,19.6598418 L17.7816945,19.6598418 L17.7816945,15.8511852 L13.930244,15.8511852 L13.930244,19.6598418 Z M17.6592384,14.750065 L14.0526767,14.750065 C13.3313925,14.750065 12.8505207,15.2309367 12.8505207,15.9522209 L12.8505207,19.5587826 C12.8505207,20.2800668 13.3313925,20.760962 14.0526767,20.760962 L17.6592384,20.760962 C18.3805226,20.760962 18.8614178,20.2800668 18.8614178,19.5587826 L18.8614178,15.9522209 C18.8614178,15.2309367 18.2603751,14.750065 17.6592384,14.750065 Z M5.43842594,10.2815321 L13.7334874,10.2815321 L13.7334874,9.22003965 L5.43842594,9.22003965 L5.43842594,10.2815321 Z" id="Fill-4"></path>
                            </g>
                        </g>
                    </g>
                </g>
            </g>
        </g>
    </g>
</svg>