<?xml version="1.0" encoding="UTF-8"?>
<svg width="26px" height="27px" viewBox="0 0 26 27" version="1.1" xmlns="http://www.w3.org/2000/svg" xmlns:xlink="http://www.w3.org/1999/xlink">
    <!-- Generator: Sketch 50.2 (55047) - http://www.bohemiancoding.com/sketch -->
    <title>icon_a-newtask-list_score</title>
    <desc>Created with Sketch.</desc>
    <defs></defs>
    <g id="180724" stroke="none" stroke-width="1" fill="none" fill-rule="evenodd">
        <g id="A2.1_任务详情（发起人）" transform="translate(-14.000000, -276.000000)" fill="#B2B9C8">
            <g id="属性内容" transform="translate(0.000000, 266.000000)">
                <g id="Group-8" transform="translate(13.000000, 0.000000)">
                    <g id="icon_日期" transform="translate(0.000000, 9.600000)">
                        <g id="icon" transform="translate(0.500000, 0.500000)">
                            <g id="Group-2" transform="translate(0.250000, 0.279412)">
                                <path d="M13.107846,4.01248909 C9.15250086,4.01248909 5.94612654,7.21888839 5.94612654,11.1742085 C5.94612654,15.1295537 9.15250086,18.3360279 13.107846,18.3360279 C17.0631661,18.3360279 20.2695405,15.1295537 20.2695405,11.1742085 C20.2695405,7.21888839 17.0631661,4.01248909 13.107846,4.01248909 M13.107846,5.03562042 C16.494338,5.03562042 19.246509,7.78771654 19.246509,11.1742085 C19.246509,14.5597264 16.494338,17.3128966 13.107846,17.3128966 C9.72240307,17.3128966 6.96915795,14.5597264 6.96915795,11.1742085 C6.96915795,7.78771654 9.72240307,5.03562042 13.107846,5.03562042" id="Fill-1"></path>
                                <path d="M11.5628955,18.1722959 L8.93354212,20.8016492 L8.12527312,19.1749451 L7.97180717,18.8679882 L7.66492522,18.7144973 L6.03812119,17.9063282 L7.87978754,16.0646619 C7.64444311,15.8191763 7.42960576,15.5429676 7.22498449,15.2666339 L5.31170569,17.1799127 C5.07940859,17.4122098 4.97305149,17.7420967 5.02573048,18.0664384 C5.07843444,18.3907551 5.28380506,18.6700112 5.57779826,18.8168579 L7.20450239,19.635368 L8.02301244,21.2620721 C8.20712662,21.6201593 8.56521384,21.8247806 8.93354212,21.8247806 C9.18929373,21.8247806 9.45536132,21.7225199 9.65995762,21.5280647 L12.8622605,18.3257868 C12.4121537,18.3155458 11.982454,18.2644154 11.5628955,18.1722959 M20.9038614,17.1799127 L18.9906825,15.2666339 C18.7860862,15.5418935 18.5712239,15.8191763 18.3358794,16.0646619 L20.1775458,17.9063282 L18.2437849,18.8670141 L18.0903939,19.1738711 L17.2821249,20.8006751 L14.6526716,18.1712218 C14.233213,18.2633414 13.8035133,18.3144717 13.3534315,18.3247128 L16.5557094,21.5270906 C16.7603057,21.7214458 17.0262983,21.8238064 17.2821249,21.8238064 C17.6504531,21.8238064 18.0085404,21.6190852 18.1926546,21.260998 L19.0111896,19.6342939 L20.6378687,18.8157838 C21.2619486,18.5089269 21.3950324,17.6801508 20.9038614,17.1788387 M13.107846,7.08178315 C10.8475952,7.08178315 9.0154206,8.91408269 9.0154206,11.1742085 C9.0154206,13.4344343 10.8475952,15.2666339 13.107846,15.2666339 C15.3679718,15.2666339 17.2002714,13.4344343 17.2002714,11.1742085 C17.2002714,8.91408269 15.3679718,7.08178315 13.107846,7.08178315 M13.107846,8.10491448 C14.8000179,8.10491448 16.17714,9.4820366 16.17714,11.1742085 C16.17714,12.8664804 14.8000179,14.2436025 13.107846,14.2436025 C11.4155741,14.2436025 10.0385519,12.8664804 10.0385519,11.1742085 C10.0385519,9.4820366 11.4155741,8.10491448 13.107846,8.10491448" id="Fill-3"></path>
                            </g>
                        </g>
                    </g>
                </g>
            </g>
        </g>
    </g>
</svg>