<?xml version="1.0" encoding="UTF-8"?>
<svg width="38px" height="37px" viewBox="0 0 38 37" version="1.1" xmlns="http://www.w3.org/2000/svg" xmlns:xlink="http://www.w3.org/1999/xlink">
    <!-- Generator: Sketch 49.1 (51147) - http://www.bohemiancoding.com/sketch -->
    <title>icon_地点</title>
    <desc>Created with Sketch.</desc>
    <defs></defs>
    <g id="任务分派" stroke="none" stroke-width="1" fill="none" fill-rule="evenodd">
        <g id="A1.7_添加内容" transform="translate(-289.000000, -102.000000)">
            <g id="添加内容" transform="translate(261.000000, 84.000000)">
                <g id="任务地点" transform="translate(23.000000, 18.500000)">
                    <g id="icon_地点" transform="translate(5.500000, 0.000000)">
                        <rect id="Rectangle" x="0.5" y="0" width="36" height="36"></rect>
                        <g id="地点" transform="translate(8.181818, 5.628676)" stroke="#0A1735" stroke-width="1.5">
                            <path d="M17.2250069,15.3224672 C18.4527196,13.4071588 19.1805368,11.6597591 19.1524456,9.45332383 C19.0879635,4.39307904 14.9036531,0.141732822 9.84468518,0.0038306168 C4.43330051,-0.144286566 0,4.19835601 0,9.576542 C0,11.735733 0.723348139,13.4071588 1.92807712,15.3224672 L8.08004771,23.0283913 C8.84744794,23.9873224 10.3056361,23.9873224 11.0730363,23.0283913 L17.2250069,15.3224672 Z" id="Shape"></path>
                            <path d="M13.4071588,9.576542 C13.4071588,11.6923194 11.6923194,13.4071588 9.576542,13.4071588 C7.46076466,13.4071588 5.7459252,11.6923194 5.7459252,9.576542 C5.7459252,7.46076466 7.46076466,5.7459252 9.576542,5.7459252 C11.6923194,5.7459252 13.4071588,7.46076466 13.4071588,9.576542 L13.4071588,9.576542 Z" id="Shape"></path>
                        </g>
                    </g>
                </g>
            </g>
        </g>
    </g>
</svg>