<?xml version="1.0" encoding="UTF-8"?>
<svg width="16px" height="16px" viewBox="0 0 16 16" version="1.1" xmlns="http://www.w3.org/2000/svg" xmlns:xlink="http://www.w3.org/1999/xlink">
    <!-- Generator: Sketch 52.2 (67145) - http://www.bohemiancoding.com/sketch -->
    <title>icon_a-review_edit</title>
    <desc>Created with Sketch.</desc>
    <defs>
        <path d="M12.3028322,7.3250885 C12.3028322,6.8832607 12.6610044,6.5250885 13.1028322,6.5250885 C13.54466,6.5250885 13.9028322,6.8832607 13.9028322,7.3250885 L13.9028322,11.9713397 C13.9028322,12.9111183 13.1871806,13.7042843 12.2610622,13.7042843 L1.7389378,13.7042843 C0.81281943,13.7042843 0.0971678485,12.9111183 0.0971678485,11.9713397 L0.0971678485,2.15225091 C0.0971678485,1.21247229 0.81281943,0.419306347 1.7389378,0.419306347 L6.7863979,0.419306347 C7.2282257,0.419306347 7.5863979,0.777478548 7.5863979,1.21930635 C7.5863979,1.66113415 7.2282257,2.01930635 6.7863979,2.01930635 L1.7389378,2.01930635 C1.73526276,2.01930635 1.69716785,2.06152743 1.69716785,2.15225091 L1.69716785,11.9713397 C1.69716785,12.0620632 1.73526276,12.1042843 1.7389378,12.1042843 L12.2610622,12.1042843 C12.2647372,12.1042843 12.3028322,12.0620632 12.3028322,11.9713397 L12.3028322,7.3250885 Z M6.06568542,9.06568542 C5.75326599,9.37810486 5.24673401,9.37810486 4.93431458,9.06568542 C4.62189514,8.75326599 4.62189514,8.24673401 4.93431458,7.93431458 L11.9343146,0.934314575 C12.246734,0.621895142 12.753266,0.621895142 13.0656854,0.934314575 C13.3781049,1.24673401 13.3781049,1.75326599 13.0656854,2.06568542 L6.06568542,9.06568542 Z" id="path-1"></path>
    </defs>
    <g id="组件" stroke="none" stroke-width="1" fill="none" fill-rule="evenodd">
        <g id="底部审批公共组件" transform="translate(-268.000000, -142.000000)">
            <g id="底部审批组件/2_更多选项/4-itme" transform="translate(58.000000, 125.000000)">
                <g id="底部审批/选项/同意" transform="translate(188.000000, 0.000000)">
                    <g id="res" transform="translate(22.000000, 14.000000)">
                        <g id="icon16*16" transform="translate(0.000000, 3.000000)">
                            <g id="ok">
                                <rect id="Rectangle-path" fill="#000000" fill-rule="nonzero" opacity="0" x="0" y="0" width="16" height="16"></rect>
                                <g id="分组" transform="translate(1.000000, 1.000000)">
                                    <mask id="mask-2" fill="white">
                                        <use xlink:href="#path-1"></use>
                                    </mask>
                                    <g id="合并形状" fill-rule="nonzero"></g>
                                    <rect id="图标颜色" fill="#B2B9C8" mask="url(#mask-2)" x="-1" y="-1" width="16" height="16"></rect>
                                </g>
                            </g>
                        </g>
                    </g>
                </g>
            </g>
        </g>
    </g>
</svg>