<?xml version="1.0" encoding="UTF-8"?>
<svg width="20px" height="20px" viewBox="0 0 20 20" version="1.1" xmlns="http://www.w3.org/2000/svg" xmlns:xlink="http://www.w3.org/1999/xlink">
    <!-- Generator: Sketch 50.2 (55047) - http://www.bohemiancoding.com/sketch -->
    <title>icon_a-common_draftmore</title>
    <desc>Created with Sketch.</desc>
    <defs></defs>
    <g id="Symbols" stroke="none" stroke-width="1" fill="none" fill-rule="evenodd">
        <g id="icon_a-common_draftmore" fill="#E3E4E8">
            <g id="Group">
                <path d="M10,5 C8.8954305,5 8,4.1045695 8,3 C8,1.8954305 8.8954305,1 10,1 C11.1045695,1 12,1.8954305 12,3 C12,4.1045695 11.1045695,5 10,5 Z M10,12 C8.8954305,12 8,11.1045695 8,10 C8,8.8954305 8.8954305,8 10,8 C11.1045695,8 12,8.8954305 12,10 C12,11.1045695 11.1045695,12 10,12 Z M10,19 C8.8954305,19 8,18.1045695 8,17 C8,15.8954305 8.8954305,15 10,15 C11.1045695,15 12,15.8954305 12,17 C12,18.1045695 11.1045695,19 10,19 Z" id="Combined-Shape"></path>
            </g>
        </g>
    </g>
</svg>