<?xml version="1.0" encoding="UTF-8"?>
<svg width="13px" height="12px" viewBox="0 0 13 12" version="1.1" xmlns="http://www.w3.org/2000/svg" xmlns:xlink="http://www.w3.org/1999/xlink">
    <!-- Generator: Sketch 50.2 (55047) - http://www.bohemiancoding.com/sketch -->
    <title>icon_a-list_enclosure</title>
    <desc>Created with Sketch.</desc>
    <defs></defs>
    <g id="任务分派" stroke="none" stroke-width="1" fill="none" fill-rule="evenodd">
        <g id="A_待处理" transform="translate(-156.000000, -172.000000)">
            <g id="任务列表-卡片式" transform="translate(14.000000, 125.000000)">
                <g id="txt" transform="translate(14.000000, 12.000000)">
                    <g id="附件" transform="translate(128.009948, 31.425821)">
                        <g id="icon_a-list_enclosure" transform="translate(0.000000, 3.574179)">
                            <rect id="占位框" x="0" y="0" width="12" height="12"></rect>
                            <path d="M3.70067692,6.12706214 L6.03307202,8.45945724 C6.60554543,9.03193066 7.53383868,9.03193066 8.1063121,8.45945724 C8.67878552,7.88698382 8.67878552,6.95869057 8.1063121,6.38621715 L4.60771946,2.88762451 C3.67735297,1.95725802 2.16907081,1.95725802 1.23870432,2.88762451 C0.308337829,3.817991 0.308337829,5.32627316 1.23870432,6.25663965 L4.73729696,9.75523229 C6.02555652,11.0434919 8.1138276,11.0434919 9.40208715,9.75523229 C10.6903467,8.46697273 10.6903467,6.37870166 9.40208715,5.0904421 L6.03307202,1.72142696" id="Shape" stroke="#B2B9C8" stroke-width="0.9"></path>
                        </g>
                    </g>
                </g>
            </g>
        </g>
    </g>
</svg>