<?xml version="1.0" encoding="UTF-8"?>
<svg width="10px" height="10px" viewBox="0 0 10 10" version="1.1" xmlns="http://www.w3.org/2000/svg" xmlns:xlink="http://www.w3.org/1999/xlink">
    <!-- Generator: Sketch 51 (57462) - http://www.bohemiancoding.com/sketch -->
    <title>icon_a-list_eople</title>
    <desc>Created with Sketch.</desc>
    <defs></defs>
    <g id="Page-1" stroke="none" stroke-width="1" fill="none" fill-rule="evenodd">
        <g id="A1_首页" transform="translate(-345.000000, -699.000000)">
            <rect fill="#FFFFFF" x="0" y="0" width="375" height="1371"></rect>
            <g id="列表/大图" transform="translate(0.000000, 682.000000)" fill-rule="nonzero">
                <g id="点赞" transform="translate(306.000000, 12.000000)">
                    <g id="赞" transform="translate(8.000000, 2.000000)">
                        <g id="人员" transform="translate(31.000000, 3.000000)">
                            <rect id="box" fill="#000000" opacity="0" x="0" y="0" width="10" height="10"></rect>
                            <path d="M9.12685632,10.0001616 L0.874496689,10.0001616 L0.819309544,9.96755103 C0.657745499,9.87570824 0.502309779,9.77348098 0.353981567,9.66151322 C0.123760803,9.47517256 -0.00691064093,9.19251447 0.000282134853,8.8964187 L0.00153638816,8.81677362 C0.00279064147,8.65434781 0.00467202143,8.48815925 0.0498251405,8.31820793 C0.155809545,7.91810112 0.453067578,7.65847069 0.748444232,7.42706095 C1.13475425,7.12290453 1.59130245,6.86515547 2.22971739,6.59172825 C2.55564232,6.45233654 2.88656949,6.32494422 3.22183175,6.20980812 C3.37798629,6.1552481 3.54103922,5.9859239 3.6369896,5.77771786 C3.71349905,5.6140378 3.73544848,5.45035774 3.69907514,5.33433931 L3.68088846,5.31364413 C3.24754395,4.78936625 2.90325141,4.32341115 2.74019848,3.51567202 C2.60975614,2.86659593 2.62856994,2.25263894 2.79601275,1.69324196 C3.05438894,0.832824195 3.61065028,0.275308601 4.40521975,0.0771365783 C4.52500094,0.0476616256 4.6416465,0.0263393194 4.7570378,0.014423913 L4.7570378,0.000627126653 L5.24368808,-1.50313789e-15 L5.24368808,0.014423913 C5.35907939,0.0257121928 5.4769792,0.0476616256 5.59613326,0.0771365783 C6.39070273,0.274681474 6.94696407,0.832824195 7.204086,1.69261484 C7.3734102,2.25263894 7.39034262,2.86596881 7.26115453,3.51504489 C7.09622022,4.32341115 6.75318194,4.78873912 6.31983742,5.31301701 L6.30353213,5.33120368 L6.30227787,5.33371219 C6.26590453,5.44973062 6.28910821,5.61341067 6.36436341,5.77709073 C6.46094092,5.9859239 6.62273959,6.15462097 6.77952126,6.20855387 C7.14262759,6.33460632 7.46747919,6.46003165 7.77163562,6.59110113 C8.41005055,6.86452835 8.8653445,7.1222774 9.25290878,7.42643383 C9.53448864,7.64780954 9.84491634,7.917474 9.95090074,8.31820793 C9.99542673,8.48753212 9.99730811,8.65372069 9.99918949,8.81426511 L9.99981662,8.89579158 C10.0054608,9.19618524 9.88066256,9.46835821 9.64674431,9.66088609 C9.50438656,9.7787859 9.21528118,9.94873723 9.18267059,9.9669239 L9.12685632,10.0001616 Z" id="Shape" fill="#FFFFFF"></path>
                        </g>
                    </g>
                </g>
            </g>
        </g>
    </g>
</svg>