<?xml version="1.0" encoding="UTF-8"?>
<svg width="56px" height="56px" viewBox="0 0 56 56" version="1.1" xmlns="http://www.w3.org/2000/svg" xmlns:xlink="http://www.w3.org/1999/xlink">
    <!-- Generator: Sketch 51 (57462) - http://www.bohemiancoding.com/sketch -->
    <title>icon_a-homepage_addbtn2</title>
    <desc>Created with Sketch.</desc>
    <defs></defs>
    <g id="20180810" stroke="none" stroke-width="1" fill="none" fill-rule="evenodd">
        <g id="A2_展开菜单" transform="translate(-304.000000, -507.000000)">
            <rect fill="#FFFFFF" x="0" y="0" width="375" height="667"></rect>
            <g id="Group-5" transform="translate(232.000000, 507.000000)">
                <g id="列表/标题/类别/话题" transform="translate(72.000000, 0.000000)">
                    <g id="Group-2">
                        <circle id="Oval-5" fill="#FFFFFF" cx="28" cy="28" r="28"></circle>
                        <g id="Group" transform="translate(17.000000, 15.000000)">
                            <path d="M5.53875236,1.10775047 L5.53875236,2.00607679 C5.53875236,2.43212504 5.88413271,2.77750539 6.31018097,2.77750539 L15.8448285,2.77750539 C16.2708767,2.77750539 16.6162571,2.43212504 16.6162571,2.00607679 L16.6162571,1.10775047 L17.0121523,1.10775047 C19.8524739,1.10775047 22.1550095,3.41028604 22.1550095,6.25060762 L22.1550095,20.3354037 C22.1550095,23.1757253 19.8524739,25.4782609 17.0121523,25.4782609 L5.14285714,25.4782609 C2.30253557,25.4782609 3.47839072e-16,23.1757253 0,20.3354037 L-8.8817842e-16,6.25060762 C-1.23601749e-15,3.41028604 2.30253557,1.10775047 5.14285714,1.10775047 L5.53875236,1.10775047 Z" id="Combined-Shape" fill="#65DEC6"></path>
                            <path d="M9.760661,21.2494793 L11.9180024,21.2494793 L11.9180024,18.9441614 L9.760661,18.9441614 L9.760661,21.2494793 Z M14.1959154,8.02106291 C13.4600732,7.28522063 12.4085639,6.91518206 11.069036,6.91518206 C10.5550611,6.91518206 9.98656852,7.01652649 9.37903743,7.2190693 C8.79092825,7.36699711 8.3041635,7.65905596 7.79403403,8.16918543 C7.33842222,8.62474857 7.01136498,8.95180581 6.84386923,9.60611499 C6.75050775,9.89033693 6.54022537,10.6495926 6.54022537,11.7360515 L6.54022537,12.0087372 L8.55343573,12.0087372 L8.55343573,11.7360515 C8.55343573,10.7743504 8.75972663,10.0616781 9.16096682,9.60611499 C9.56975186,9.15050318 10.1928594,8.9284411 11.0652392,8.9284411 C11.7894965,8.9284411 12.3346244,9.13492671 12.7786025,9.58270161 C13.2497908,10.0538899 13.2847405,10.6769975 13.2847405,10.8560782 C13.2847405,11.2299135 13.1602261,11.7478799 12.9227335,11.9853724 L11.6025788,13.3055271 C10.9794713,13.928586 10.5316964,14.3764096 10.3641519,14.8787508 C10.2942039,15.0890332 10.2240124,15.2641712 10.1500728,15.4510888 C10.0760846,15.6341611 10.002145,15.8248755 9.92416528,16.0547745 C9.76445777,16.5375478 9.76445777,17.137242 9.76445777,17.9004891 L9.76445777,18.1731747 L11.7776681,18.1731747 L11.7776681,17.9004891 C11.7776681,17.3281511 11.7776681,16.9191713 11.9102142,16.5181745 C12.0035756,16.2377007 12.1670799,15.9496333 12.311211,15.6965643 C12.3736142,15.5835862 12.4359688,15.478445 12.4825522,15.3810921 C12.5721169,15.2058081 12.860379,14.8475492 13.7287186,14.1505021 L13.752132,14.1311288 C14.3752396,13.5080213 14.8308027,12.8887105 15.1072851,12.4761287 C15.446122,11.9659505 15.446122,11.4558211 15.446122,11.004006 C15.4499188,9.83976207 15.0410851,8.86623256 14.1959154,8.02106291 Z" id="Fill-1" fill="#FFFFFF"></path>
                            <rect id="Rectangle" fill="#65DEC6" x="7.20037807" y="0" width="7.75425331" height="6.64650284" rx="2.57142857"></rect>
                        </g>
                    </g>
                </g>
            </g>
        </g>
    </g>
</svg>