<?xml version="1.0" encoding="UTF-8"?>
<svg width="18px" height="18px" viewBox="0 0 18 18" version="1.1" xmlns="http://www.w3.org/2000/svg" xmlns:xlink="http://www.w3.org/1999/xlink">
    <!-- Generator: Sketch 50.2 (55047) - http://www.bohemiancoding.com/sketch -->
    <title>icon_a-details_comment</title>
    <desc>Created with Sketch.</desc>
    <defs></defs>
    <g id="任务分派" stroke="none" stroke-width="1" fill="none" fill-rule="evenodd">
        <g id="A2.1_任务详情（发起人）" transform="translate(-19.000000, -1345.000000)" fill="#B2B9C8" stroke="#B2B9C8">
            <g id="评论" transform="translate(0.000000, 1331.000000)">
                <g id="icon_a-details_comment">
                    <g transform="translate(19.000000, 11.000000)">
                        <g transform="translate(0.000000, 3.000000)">
                            <path d="M3.93156703,7.45901549 C3.93156703,7.92162274 4.30657592,8.29663163 4.76918317,8.29663163 C5.23179042,8.29663163 5.60672263,7.92162274 5.60672263,7.45901549 C5.60672263,6.99640824 5.23179042,6.62137379 4.76918317,6.62137379 C4.30657592,6.62137379 3.93156703,6.99640824 3.93156703,7.45901549 Z" id="Fill-1" stroke-width="0.3"></path>
                            <path d="M7.7007502,7.45901549 C7.7007502,7.92162274 8.0757591,8.29663163 8.5382641,8.29663163 C9.00087135,8.29663163 9.3759058,7.92162274 9.3759058,7.45901549 C9.3759058,6.99640824 9.00087135,6.62137379 8.5382641,6.62137379 C8.0757591,6.62137379 7.7007502,6.99640824 7.7007502,7.45901549 Z" id="Fill-2" stroke-width="0.3"></path>
                            <path d="M11.4699334,7.45901549 C11.4699334,7.75826088 11.6294866,8.03473121 11.8886775,8.18441781 C12.1477918,8.3339766 12.4671028,8.3339766 12.7263192,8.18441781 C12.9854335,8.03473121 13.145089,7.75826088 13.145089,7.45901549 C13.145089,7.1597701 12.9854335,6.88329977 12.7263192,6.73361318 C12.4671028,6.58402882 12.1477918,6.58402882 11.8886775,6.73361318 C11.6294866,6.88329977 11.4699334,7.1597701 11.4699334,7.45901549 Z" id="Fill-3" stroke-width="0.3"></path>
                            <path d="M14.8202446,2.01467672 L2.25638587,2.01467672 C1.56375306,2.01467672 1,2.57840422 1,3.27106259 L1,11.6469684 C1,12.3396012 1.56375306,12.9033543 2.25638587,12.9033543 L5.97235055,12.8987532 C6.25544124,12.98924 7.1328051,14.0122774 7.65760284,14.6237533 L7.8569038,14.8562071 C8.03912985,15.0676752 8.27697715,15.1841067 8.52737501,15.1841067 C8.71131367,15.1841067 8.98558573,15.1220951 9.24899427,14.8252525 C9.40686046,14.6472185 9.56521232,14.4645834 9.72057351,14.2849646 C10.1753846,13.7593489 10.863033,12.9648546 11.0770061,12.9033543 L14.8202446,12.9033543 C15.5129029,12.9033543 16.0766304,12.3396012 16.0766304,11.6469684 L16.0766304,3.27106259 C16.0766304,2.57840422 15.5129029,2.01467672 14.8202446,2.01467672 Z M15.2390143,11.6469684 C15.2390143,11.7580064 15.1948701,11.8645456 15.1163971,11.9431209 C15.0378218,12.0215939 14.9312826,12.0657381 14.8202446,12.0657381 L11.0770061,12.0657381 C10.557295,12.0657381 10.0372005,12.6386677 9.08693603,13.7368039 C8.93407984,13.9139177 8.77830967,14.0939455 8.6225395,14.2690911 C8.59748948,14.3008382 8.56592136,14.3268084 8.52998226,14.3452636 C8.51579577,14.3352947 8.50291291,14.3234087 8.4918449,14.3101169 L8.29333634,14.0788644 C7.09305738,12.67931 6.51424875,12.0657381 6.0134019,12.0657381 L2.25638587,12.0657381 C2.02564459,12.0657381 1.8376417,11.8781187 1.8376417,11.6469684 L1.8376417,3.27106259 C1.8376417,3.04032131 2.02564459,2.85229286 2.25638587,2.85229286 L14.8202446,2.85229286 C15.0513948,2.85229286 15.2390143,3.04032131 15.2390143,3.27106259 L15.2390143,11.6469684 Z" id="Fill-5" stroke-width="0.1"></path>
                        </g>
                    </g>
                </g>
            </g>
        </g>
    </g>
</svg>