<?xml version="1.0" encoding="UTF-8"?>
<svg width="12px" height="12px" viewBox="0 0 12 12" version="1.1" xmlns="http://www.w3.org/2000/svg" xmlns:xlink="http://www.w3.org/1999/xlink">
    <!-- Generator: Sketch 50.2 (55047) - http://www.bohemiancoding.com/sketch -->
    <title>icon_a-list_subtask</title>
    <desc>Created with Sketch.</desc>
    <defs></defs>
    <g id="任务分派" stroke="none" stroke-width="1" fill="none" fill-rule="evenodd">
        <g id="A_待处理" transform="translate(-109.000000, -172.000000)" fill="#B2B9C8" stroke="#B2B9C8" stroke-width="0.1">
            <g id="任务列表-卡片式" transform="translate(14.000000, 125.000000)">
                <g id="txt" transform="translate(14.000000, 12.000000)">
                    <g id="子任务" transform="translate(81.000000, 31.425821)">
                        <g id="icon_a-list_subtask" transform="translate(0.000000, 3.574179)">
                            <path d="M7.46508477,4.2569754 L9.86075259,4.2569754 L9.86075259,1.86122959 L7.46508477,1.86122959 L7.46508477,4.2569754 Z M9.86075259,1.06267365 L7.46508477,1.06267365 C6.98589505,1.06267365 6.66645084,1.38210227 6.66645084,1.86122959 L6.66645084,4.2569754 C6.66645084,4.73610273 6.98589505,5.05553134 7.46508477,5.05553134 L9.86075259,5.05553134 C10.3399423,5.05553134 10.6593085,4.73610273 10.6593085,4.2569754 L10.6593085,1.86122959 C10.6593085,1.38210227 10.3399423,1.06267365 9.86075259,1.06267365 Z M7.46508477,9.60738911 L2.19448142,9.60738911 C1.55560859,9.60738911 1.07648127,9.12826179 1.07648127,8.48938896 L1.07648127,1.06267365 L1.87503721,1.06267365 L1.87503721,8.48938896 C1.87503721,8.64907207 2.03478271,8.80883317 2.19448142,8.80883317 L7.46508477,8.80883317 L7.46508477,9.60738911 Z" id="Fill-1"></path>
                            <path d="M7.54489513,10.0066905 L9.94062534,10.0066905 L9.94062534,7.61096027 L7.54489513,7.61096027 L7.54489513,10.0066905 Z M9.94062534,6.81240433 L7.54489513,6.81240433 C7.0657678,6.81240433 6.74633919,7.13183294 6.74633919,7.61096027 L6.74633919,10.0066905 C6.74633919,10.4858178 7.0657678,10.805262 7.54489513,10.805262 L9.94062534,10.805262 C10.4197527,10.805262 10.7391969,10.4858178 10.7391969,10.0066905 L10.7391969,7.61096027 C10.7391969,7.13183294 10.3399423,6.81240433 9.94062534,6.81240433 Z M1.79516446,3.93753119 L7.30532367,3.93753119 L7.30532367,3.13897525 L1.79516446,3.13897525 L1.79516446,3.93753119 Z" id="Fill-4"></path>
                        </g>
                    </g>
                </g>
            </g>
        </g>
    </g>
</svg>