<?xml version="1.0" encoding="UTF-8"?>
<svg width="56px" height="56px" viewBox="0 0 56 56" version="1.1" xmlns="http://www.w3.org/2000/svg" xmlns:xlink="http://www.w3.org/1999/xlink">
    <!-- Generator: Sketch 51 (57462) - http://www.bohemiancoding.com/sketch -->
    <title>icon_a-homepage_addbtn3</title>
    <desc>Created with Sketch.</desc>
    <defs></defs>
    <g id="20180810" stroke="none" stroke-width="1" fill="none" fill-rule="evenodd">
        <g id="A2_展开菜单" transform="translate(-304.000000, -430.000000)">
            <rect fill="#FFFFFF" x="0" y="0" width="375" height="667"></rect>
            <g id="Group-4" transform="translate(231.000000, 430.000000)">
                <g id="列表/标题/类别/话题" transform="translate(73.000000, 0.000000)">
                    <circle id="Oval-5" fill="#FFFFFF" cx="28" cy="28" r="28"></circle>
                    <g id="Group-2" transform="translate(17.000000, 16.000000)" fill="#FFA67E">
                        <g id="Group">
                            <path d="M8.21051225,16.0774981 C9.16870436,15.9645615 10.1852321,15.9038378 11.2382181,15.9038378 C16.9964949,15.9038378 21.6645005,17.7197631 21.6645005,19.9598206 C21.6645005,22.199878 16.9964949,24.0158034 11.2382181,24.0158034 C5.4799413,24.0158034 0.811935648,22.199878 0.811935648,19.9598206 C0.811935648,18.328934 3.28628264,16.922865 6.85426827,16.2787302 C5.52565343,12.079791 4.19532977,7.88695041 2.8571726,3.69412893 C2.63057322,2.96415631 2.36627384,2.23430659 2.13979736,1.51693136 C2.01388492,1.12675027 1.97621566,0.736692084 2.45436339,0.572987475 C2.97045692,0.396777651 3.25982817,0.661077023 3.42340988,1.12675027 C3.53672493,1.36582414 3.5996197,1.60502091 3.66263737,1.79382812 C4.88335512,1.42884181 6.07887809,1.01343522 7.27452396,0.71146658 C9.20001954,0.220598554 11.0752177,0.598182253 12.9000264,1.22743721 C14.9514344,1.93221505 16.9902143,2.20911181 19.0666942,1.37842153 C19.8092643,1.08905028 20.4763421,0.585584864 21.1811199,0.245793332 C21.4704912,0.107406402 21.8983416,-0.0184753143 22.1501664,0.0948090131 C22.3263455,0.170301173 22.4395377,0.673674413 22.4144351,0.963168563 C22.2507305,3.44242695 22.0368514,5.92171606 21.8732697,8.40097444 C21.8354775,8.94213985 21.6718651,9.31960065 21.2187892,9.62169219 C19.1297119,11.1193374 16.8014379,11.7611898 14.2466566,11.4843237 C12.4721453,11.2955165 10.7605288,11.4340263 9.18742215,12.3274578 C8.8980509,12.4911624 8.60855675,12.6924441 8.3568855,12.9190435 C7.72759981,13.4602089 7.45073378,14.0264769 7.79049459,14.9074338 C7.94079839,15.2934087 8.0790411,15.6840166 8.21051225,16.0774981 Z M8.21051225,16.0774981 C7.74374495,16.1325133 7.29082063,16.1999186 6.85426827,16.2787302 C7.21255691,17.4110616 7.57072129,18.5438365 7.92888151,19.6771741 C8.07998874,20.13025 8.28127044,20.4952363 8.82243584,20.344252 C9.35100386,20.1806702 9.38882676,19.7904584 9.22524505,19.2744878 C8.86757998,18.2108053 8.5634458,17.1337971 8.21051225,16.0774981 Z" id="Fill-1"></path>
                        </g>
                    </g>
                </g>
            </g>
        </g>
    </g>
</svg>