<?xml version="1.0" encoding="UTF-8"?>
<svg width="17px" height="16px" viewBox="0 0 17 16" version="1.1" xmlns="http://www.w3.org/2000/svg" xmlns:xlink="http://www.w3.org/1999/xlink">
    <!-- Generator: Sketch 52.2 (67145) - http://www.bohemiancoding.com/sketch -->
    <title>icon_a-review_add</title>
    <desc>Created with Sketch.</desc>
    <defs>
        <path d="M6.8,5.2 L11.2,5.2 C11.6418278,5.2 12,5.5581722 12,6 C12,6.4418278 11.6418278,6.8 11.2,6.8 L6.8,6.8 L6.8,11.2 C6.8,11.6418278 6.4418278,12 6,12 C5.5581722,12 5.2,11.6418278 5.2,11.2 L5.2,6.8 L0.8,6.8 C0.3581722,6.8 -2.78958607e-16,6.4418278 -3.33066907e-16,6 C-5.41083001e-17,5.5581722 0.3581722,5.2 0.8,5.2 L5.2,5.2 L5.2,0.8 C5.2,0.3581722 5.5581722,-2.51904457e-16 6,-3.33066907e-16 C6.4418278,-8.11624501e-17 6.8,0.3581722 6.8,0.8 L6.8,5.2 Z" id="path-1"></path>
    </defs>
    <g id="组件" stroke="none" stroke-width="1" fill="none" fill-rule="evenodd">
        <g id="底部审批公共组件" transform="translate(-806.000000, -142.000000)">
            <g id="底部审批组件/2_更多选项/4-itme-copy-5" transform="translate(519.000000, 125.000000)">
                <g id="底部审批/选项/同意" transform="translate(250.000000, 0.000000)">
                    <g id="res" transform="translate(37.500000, 14.000000)">
                        <g id="icon16*16" transform="translate(0.000000, 3.000000)">
                            <g id="ok">
                                <rect id="Rectangle-path" fill="#000000" fill-rule="nonzero" opacity="0" x="0" y="0" width="16" height="16"></rect>
                                <g id="分组" transform="translate(2.000000, 2.000000)">
                                    <mask id="mask-2" fill="white">
                                        <use xlink:href="#path-1"></use>
                                    </mask>
                                    <use id="合并形状" fill="#B2B9C8" fill-rule="nonzero" xlink:href="#path-1"></use>
                                    <rect id="图标颜色" mask="url(#mask-2)" x="-2" y="-2" width="16" height="16"></rect>
                                </g>
                            </g>
                        </g>
                    </g>
                </g>
            </g>
        </g>
    </g>
</svg>