<?xml version="1.0" encoding="UTF-8"?>
<svg width="19px" height="19px" viewBox="0 0 19 19" version="1.1" xmlns="http://www.w3.org/2000/svg" xmlns:xlink="http://www.w3.org/1999/xlink">
    <!-- Generator: Sketch 50.2 (55047) - http://www.bohemiancoding.com/sketch -->
    <title>icon_a-details_tab-update</title>
    <desc>Created with Sketch.</desc>
    <defs></defs>
    <g id="任务分派" stroke="none" stroke-width="1" fill="none" fill-rule="evenodd">
        <g id="A2.1_任务详情（发起人）" transform="translate(-108.000000, -1810.000000)" fill="#B2B9C8">
            <g id="tab" transform="translate(0.000000, 1794.000000)">
                <g id="Group-11" transform="translate(108.038994, 16.425100)">
                    <g id="Group">
                        <path d="M13.9981563,9.03246058 C14.3582639,10.032757 14.4382906,14.2039352 9.40686871,14.7039979 C4.29551787,14.9441023 3.57527807,10.5829066 3.89543349,9.03246058 C4.47972323,7.07719257 6.25640264,5.72040273 8.29658144,5.67156132 L8.29658144,7.35202316 C8.29658144,7.9721625 8.29658144,8.29231791 8.98675935,7.77213252 C10.3671884,6.7718361 13.1178632,4.62130014 13.1178632,4.62130014 C13.1178632,4.62130014 10.3971526,2.74080832 8.99677184,1.68051023 C8.32664333,1.26040088 8.28656895,1.48045583 8.30661835,2.10061959 L8.30661835,3.74110474 C8.30661835,3.74110474 2.87508767,3.74110474 2.10488312,8.74236705 C1.33467856,13.7437515 6.06850059,18.2372176 12.1817883,15.8994393 C16.6530481,14.1389508 15.9986514,9.28260185 15.8686356,8.60233874 C15.598567,7.4720265 15.2584843,7.46211169 14.9483658,7.55205314 L14.2682248,7.74216832 C13.9981563,7.87220856 13.6580735,7.93221023 13.9981563,9.03246058 Z" id="Fill-1"></path>
                    </g>
                </g>
            </g>
        </g>
    </g>
</svg>