<?xml version="1.0" encoding="UTF-8"?>
<svg width="38px" height="39px" viewBox="0 0 38 39" version="1.1" xmlns="http://www.w3.org/2000/svg" xmlns:xlink="http://www.w3.org/1999/xlink">
    <!-- Generator: Sketch 49.1 (51147) - http://www.bohemiancoding.com/sketch -->
    <title>icon_a-add_relevant</title>
    <desc>Created with Sketch.</desc>
    <defs></defs>
    <g id="任务分派" stroke="none" stroke-width="1" fill="none" fill-rule="evenodd">
        <g id="补_新增图标" transform="translate(-48.000000, -221.000000)">
            <g id="添加内容" transform="translate(20.000000, 204.000000)">
                <g id="任务地点" transform="translate(29.000000, 18.500000)">
                    <g id="icon_地点" transform="translate(-1.000000, -1.000000)">
                        <g id="icon_负责人" transform="translate(0.500000, 0.500000)">
                            <rect id="Rectangle-2" x="0.685185185" y="0.685185185" width="35.6296296" height="35.6296296"></rect>
                            <path d="M29.2466582,26.9659534 C30.1076203,26.9659534 30.6880511,26.1087401 30.3975233,25.2977613 C29.5059465,22.8073442 27.4997425,20.8511235 24.9799602,20.0239002" id="Shape" stroke="#0A1735" stroke-width="1.5"></path>
                            <path d="M22.9756306,10.178443 C25.471046,10.6214198 27.3660372,12.8013157 27.3660372,15.4235637 C27.3660372,17.4353909 26.2501604,19.187305 24.603836,20.093252" id="Shape" stroke="#0A1735" stroke-width="1.5"></path>
                            <path d="M24.020906,28.2155355 C25.0418145,28.2155355 25.7290847,27.1990004 25.3854496,26.2380718 C24.3283032,23.286559 21.9503485,20.9679594 18.9638473,19.9876623" id="Shape" stroke="#0A1735" stroke-width="1.5"></path>
                            <path d="M11.9924289,19.9882871 C9.00530294,20.9685842 6.62734825,23.2871837 5.5708266,26.2386966 C5.22719153,27.1996252 5.91446167,28.2155355 6.93537023,28.2155355" id="Shape" stroke="#0A1735" stroke-width="1.5"></path>
                            <path d="M21.7916515,14.5357357 C21.7916515,18.0226945 18.9650969,20.8492491 15.4781381,20.8492491 C11.9911793,20.8492491 9.16399986,18.0226945 9.16399986,14.5357357 C9.16399986,11.0487769 11.9911793,8.22222222 15.4781381,8.22222222 C18.9650969,8.22222222 21.7916515,11.0487769 21.7916515,14.5357357 L21.7916515,14.5357357 Z" id="Shape" stroke="#0A1735" stroke-width="1.5"></path>
                        </g>
                    </g>
                </g>
            </g>
        </g>
    </g>
</svg>