<?xml version="1.0" encoding="UTF-8"?>
<svg width="26px" height="26px" viewBox="0 0 26 26" version="1.1" xmlns="http://www.w3.org/2000/svg" xmlns:xlink="http://www.w3.org/1999/xlink">
    <!-- Generator: Sketch 49.1 (51147) - http://www.bohemiancoding.com/sketch -->
    <title>icon_a-newtask-list_execute</title>
    <desc>Created with Sketch.</desc>
    <defs></defs>
    <g id="任务分派" stroke="none" stroke-width="1" fill="none" fill-rule="evenodd">
        <g id="补_新建图标" transform="translate(-14.000000, -420.000000)" stroke="#B2B9C8">
            <g id="属性内容" transform="translate(0.000000, 410.000000)">
                <g id="icon_日期" transform="translate(14.000000, 10.000000)">
                    <g id="Group">
                        <path d="M15.5100332,20.9704658 C15.427011,20.9082253 15.3906603,20.7992258 15.427011,20.7006172 C15.4719682,20.5795417 16.1655637,20.0139315 17.5077975,19.0037868 C17.5648599,18.9571152 17.6478822,18.9415463 17.7205135,18.9623106 C18.4002778,19.1646533 19.0126062,19.1335506 19.5471078,18.8637195 C19.7338641,18.7703064 19.8740188,18.6613069 19.9725399,18.5783546 L18.9866464,17.7688265 C18.9088197,17.7013732 18.8828424,17.5923912 18.9192106,17.498978 C18.9555612,17.4055649 19.0541523,17.3485024 19.1578864,17.3588933 L20.9740198,17.5560405 C21.3580458,17.275871 21.6953477,16.788041 21.871783,16.4974982 L20.128281,15.9059516 C20.0244769,15.8696534 19.962219,15.7658669 19.9726099,15.6568674 C19.9830008,15.5479553 20.0711485,15.4649331 20.180148,15.4545422 L22.4010192,15.2469516 C23.4024991,13.9081699 23.4907168,12.0090142 23.4855213,11.3292499 C22.0014769,11.5731212 20.7094367,12.0608812 19.6509118,12.7718007 C18.7687349,13.3737557 18.0319082,14.1364723 17.4767122,15.044539 C16.5322774,16.5857159 16.0392694,18.1631559 16.034074,18.1786723 C16.0236831,18.3084361 15.9147535,18.4070447 15.7901852,18.3966538 C15.6604914,18.3862629 15.5670782,18.2772809 15.5722037,18.152765 C15.5773991,18.0904546 16.0756201,16.4455612 17.0822954,14.8058631 C18.0059309,13.2958415 19.905104,11.3810995 23.6878465,10.8362944 C23.7501744,10.8259035 23.8176103,10.8466853 23.8642819,10.883036 C23.9162189,10.9245121 23.9473041,10.9815746 23.9473041,11.0490105 C23.9524996,11.163188 24.1133486,13.8355385 22.7123264,15.6205167 C22.6708503,15.6724537 22.6137353,15.7035389 22.5514774,15.7088044 L21.3061262,15.8281073 L22.2920197,16.1654092 C22.3542777,16.1861735 22.4061972,16.2380405 22.4321045,16.300281 C22.4580642,16.3625389 22.4528688,16.4352402 22.4217835,16.4923027 C22.4010192,16.5337789 21.8665176,17.5456496 21.1660415,18.0075024 C21.1193,18.0386051 21.0674329,18.0489785 21.0155659,18.043783 L19.8843222,17.9192847 L20.4654954,18.3966538 C20.564104,18.4744981 20.5796729,18.6145653 20.5018461,18.7183694 C20.4706909,18.7598455 19.8324727,19.5744991 18.5715177,19.5744991 C18.3120601,19.5744991 18.0214473,19.5382184 17.7049272,19.4551961 L15.7901852,20.9807167 C15.7487091,20.9963031 15.6967895,21.0170674 15.6449225,21.0170674 C15.5981809,21.0171373 15.5515094,21.001621 15.5100332,20.9704658 Z" id="Fill-1" stroke-width="0.4" fill="#B2B9C8"></path>
                        <path d="M10.0806136,14.0662316 C7.77906831,14.8215144 5.9465891,16.6081657 5.13251427,18.8825278 C4.86737236,19.6228104 5.39725075,20.4060666 6.18375732,20.4060666" id="Shape"></path>
                        <path d="M17.631482,9.86494564 C17.631482,12.5516119 15.4531831,14.7298913 12.7664929,14.7298913 C10.0798027,14.7298913 7.90150387,12.5516119 7.90150387,9.86494564 C7.90150387,7.17827941 10.0798027,5 12.7664929,5 C15.4531831,5 17.631482,7.17827941 17.631482,9.86494564 L17.631482,9.86494564 Z" id="Shape"></path>
                    </g>
                </g>
            </g>
        </g>
    </g>
</svg>