<?xml version="1.0" encoding="UTF-8"?>
<svg width="18px" height="19px" viewBox="0 0 18 19" version="1.1" xmlns="http://www.w3.org/2000/svg" xmlns:xlink="http://www.w3.org/1999/xlink">
    <!-- Generator: Sketch 50.2 (55047) - http://www.bohemiancoding.com/sketch -->
    <title>icon_a-details_tab-more</title>
    <desc>Created with Sketch.</desc>
    <defs></defs>
    <g id="任务分派" stroke="none" stroke-width="1" fill="none" fill-rule="evenodd">
        <g id="A2.1_任务详情（发起人）" transform="translate(-343.000000, -1810.000000)" fill="#B2B9C8">
            <g id="tab" transform="translate(0.000000, 1794.000000)">
                <g id="Group" transform="translate(343.000000, 16.425100)">
                    <path d="M16.0714286,7.07142857 C15.0062143,7.07142857 14.1428571,7.93478571 14.1428571,9 C14.1428571,10.0652143 15.0062143,10.9285714 16.0714286,10.9285714 C17.1366429,10.9285714 18,10.0652143 18,9 C18,7.93478571 17.1366429,7.07142857 16.0714286,7.07142857 M9,7.07142857 C7.93478571,7.07142857 7.07142857,7.93478571 7.07142857,9 C7.07142857,10.0652143 7.93478571,10.9285714 9,10.9285714 C10.0652143,10.9285714 10.9285714,10.0652143 10.9285714,9 C10.9285714,7.93478571 10.0652143,7.07142857 9,7.07142857 M1.92857143,7.07142857 C0.863357143,7.07142857 -9.09494702e-13,7.93478571 -9.09494702e-13,9 C-9.09494702e-13,10.0652143 0.863357143,10.9285714 1.92857143,10.9285714 C2.99378571,10.9285714 3.85714286,10.0652143 3.85714286,9 C3.85714286,7.93478571 2.99378571,7.07142857 1.92857143,7.07142857" id="Fill-9"></path>
                </g>
            </g>
        </g>
    </g>
</svg>