<?xml version="1.0" encoding="UTF-8"?>
<svg width="19px" height="19px" viewBox="0 0 19 19" version="1.1" xmlns="http://www.w3.org/2000/svg" xmlns:xlink="http://www.w3.org/1999/xlink">
    <!-- Generator: Sketch 50.2 (55047) - http://www.bohemiancoding.com/sketch -->
    <title>icon_a-end_state</title>
    <desc>Created with Sketch.</desc>
    <defs></defs>
    <g id="控件" stroke="none" stroke-width="1" fill="none" fill-rule="evenodd">
        <g id="icon_a-end_state" fill="#F0F1F5">
            <g id="Group">
                <path d="M10.7939186,1.1984696 L12.6117696,4.88214744 C12.8221977,5.30775354 13.2283285,5.60273277 13.6981102,5.67113375 L17.7632185,6.26204223 C18.9464605,6.4339947 19.4190923,7.88846556 18.562655,8.72305253 L15.6214128,11.5901937 C15.2813079,11.9217484 15.1259807,12.3991303 15.2062569,12.867487 L15.9007168,16.9159701 C16.1030697,18.094462 14.865677,18.9936499 13.8073618,18.4369419 L10.1716596,16.5255145 C9.7512786,16.3046363 9.2487214,16.3046363 8.82881537,16.5255145 L5.19263821,18.4369419 C4.13432303,18.9936499 2.89693028,18.094462 3.09928318,16.9159701 L3.79374315,12.867487 C3.8740193,12.3991303 3.71869207,11.9217484 3.37858719,11.5901937 L0.437345,8.72305253 C-0.419092285,7.88846556 0.0535394945,6.4339947 1.23678147,6.26204223 L5.30188978,5.67113375 C5.77167152,5.60273277 6.17827735,5.30775354 6.38823036,4.88214744 L8.20608144,1.1984696 C8.73523903,0.12590421 10.264761,0.12590421 10.7939186,1.1984696 L10.7939186,1.1984696 Z" id="Shape"></path>
            </g>
        </g>
    </g>
</svg>