<?xml version="1.0" encoding="UTF-8"?>
<svg width="36px" height="37px" viewBox="0 0 36 37" version="1.1" xmlns="http://www.w3.org/2000/svg" xmlns:xlink="http://www.w3.org/1999/xlink">
    <!-- Generator: Sketch 49.1 (51147) - http://www.bohemiancoding.com/sketch -->
    <title>icon_a-add_execute</title>
    <desc>Created with Sketch.</desc>
    <defs></defs>
    <g id="任务分派" stroke="none" stroke-width="1" fill="none" fill-rule="evenodd">
        <g id="补_新增图标" transform="translate(-290.000000, -102.000000)" stroke="#0A1735">
            <g id="添加内容" transform="translate(261.000000, 84.000000)">
                <g id="任务地点" transform="translate(29.000000, 18.500000)">
                    <g id="icon_地点" transform="translate(-1.000000, 0.000000)">
                        <g id="Group" transform="translate(1.000000, 0.000000)">
                            <path d="M21.4754306,29.0360295 C21.3604768,28.9498504 21.3101451,28.7989281 21.3604768,28.6623931 C21.4227253,28.49475 22.3830883,27.7115975 24.2415657,26.3129355 C24.3205753,26.2483133 24.4355292,26.2267564 24.5360957,26.255507 C25.4773077,26.5356738 26.3251471,26.4926085 27.0652262,26.1189963 C27.3238119,25.989655 27.5178722,25.8387326 27.6542861,25.7238756 L26.2892028,24.6029906 C26.1814426,24.5095936 26.1454741,24.3586954 26.19583,24.2293542 C26.2461617,24.1000129 26.3826724,24.0210033 26.5263042,24.0353907 L29.0409505,24.3083638 C29.5726787,23.9204368 30.0397122,23.2449799 30.2840073,22.8426898 L27.8699275,22.0236253 C27.7261989,21.9733662 27.6399956,21.8296618 27.654383,21.6787394 C27.6687704,21.5279382 27.790821,21.4129843 27.9417434,21.3985969 L31.0167959,21.1111638 C32.4034602,19.2574659 32.5256078,16.6278658 32.5184141,15.6866537 C30.4635834,16.0243217 28.6746046,16.6996817 27.2089549,17.6840318 C25.9874791,18.5175079 24.9672575,19.573577 24.1985246,20.8309001 C22.8908456,22.9648373 22.2082192,25.1489852 22.2010255,25.1704694 C22.1866381,25.3501423 22.0358126,25.4866773 21.8633333,25.4722899 C21.6837573,25.4579025 21.554416,25.3070043 21.5615128,25.1345978 C21.5687065,25.0483218 22.2585509,22.770777 23.652409,20.5004259 C24.931289,18.4096266 27.5609133,15.7584454 32.7985567,15.0041 C32.8848568,14.9897126 32.9782296,15.0184874 33.0428518,15.0688191 C33.1147646,15.1262476 33.1578057,15.2052572 33.1578057,15.2986299 C33.1649994,15.4567218 33.3877134,19.1568995 31.4478365,21.6284077 C31.390408,21.7003205 31.3113258,21.7433616 31.2251225,21.7506522 L29.5007902,21.9158409 L30.8658735,22.3828743 C30.9520768,22.4116249 31.0239653,22.4834408 31.0598369,22.5696198 C31.0957812,22.6558231 31.0885875,22.7564865 31.0455464,22.8354961 C31.0167959,22.8929246 30.2767167,24.2939764 29.3068267,24.9334648 C29.2421076,24.9765301 29.1702917,24.9908933 29.0984758,24.9836996 L27.5321385,24.8113172 L28.3368398,25.4722899 C28.4733748,25.5800743 28.4949317,25.7740135 28.3871715,25.9177422 C28.3440335,25.9751707 27.4603468,27.1031526 25.7144092,27.1031526 C25.3551602,27.1031526 24.9527732,27.0529178 24.5145146,26.9379639 L21.8633333,29.0502231 C21.8059048,29.0718042 21.7340163,29.1005548 21.6622004,29.1005548 C21.5974813,29.1006517 21.5328591,29.0791675 21.4754306,29.0360295 Z" id="Fill-1" stroke-width="0.7" fill="#0A1735"></path>
                            <path d="M13.9577726,19.4763207 C10.7710177,20.5220969 8.23373876,22.9959217 7.10655821,26.1450385 C6.73943866,27.1700451 7.47311643,28.2545538 8.56212552,28.2545538" id="Shape" stroke-width="1.5"></path>
                            <path d="M24.4128212,13.6591555 C24.4128212,17.3791549 21.3967151,20.3952341 17.6766825,20.3952341 C13.9566499,20.3952341 10.9405438,17.3791549 10.9405438,13.6591555 C10.9405438,9.93915611 13.9566499,6.92307692 17.6766825,6.92307692 C21.3967151,6.92307692 24.4128212,9.93915611 24.4128212,13.6591555 L24.4128212,13.6591555 Z" id="Shape" stroke-width="1.5"></path>
                        </g>
                    </g>
                </g>
            </g>
        </g>
    </g>
</svg>