<?xml version="1.0" encoding="UTF-8"?>
<svg width="28px" height="26px" viewBox="0 0 28 26" version="1.1" xmlns="http://www.w3.org/2000/svg" xmlns:xlink="http://www.w3.org/1999/xlink">
    <!-- Generator: Sketch 49.1 (51147) - http://www.bohemiancoding.com/sketch -->
    <title>icon_a-newtask-list_place</title>
    <desc>Created with Sketch.</desc>
    <defs></defs>
    <g id="任务分派" stroke="none" stroke-width="1" fill="none" fill-rule="evenodd">
        <g id="A1.15_新建任务（完整）" transform="translate(-13.000000, -586.000000)" stroke="#B2B9C8">
            <g id="属性内容" transform="translate(0.000000, 576.000000)">
                <g id="icon_日期" transform="translate(13.000000, 10.000000)">
                    <g id="地点" transform="translate(0.588235, 0.000000)">
                        <path d="M19.0287956,15.5897367 C19.9574233,14.1410196 20.5079358,12.8193067 20.4866879,11.1503846 C20.4379144,7.32287408 17.2729505,4.10720506 13.4464058,4.00289743 C9.35329714,3.89086331 6,7.17558785 6,11.2435854 C6,12.8767725 6.54713215,14.1410196 7.4583752,15.5897367 L12.1116545,21.4184084 C12.6921071,22.1437327 13.7950637,22.1437327 14.3755164,21.4184084 L19.0287956,15.5897367 Z" id="Shape"></path>
                        <path d="M16.1410196,11.2435854 C16.1410196,12.8439349 14.8439349,14.1410196 13.2435854,14.1410196 C11.6432359,14.1410196 10.3461512,12.8439349 10.3461512,11.2435854 C10.3461512,9.64323594 11.6432359,8.34615125 13.2435854,8.34615125 C14.8439349,8.34615125 16.1410196,9.64323594 16.1410196,11.2435854 L16.1410196,11.2435854 Z" id="Shape"></path>
                    </g>
                </g>
            </g>
        </g>
    </g>
</svg>