<?xml version="1.0" encoding="UTF-8"?>
<svg width="110px" height="110px" viewBox="0 0 110 110" version="1.1" xmlns="http://www.w3.org/2000/svg" xmlns:xlink="http://www.w3.org/1999/xlink">
    <!-- Generator: Sketch 50.2 (55047) - http://www.bohemiancoding.com/sketch -->
    <title>img_a-homepage_blank2</title>
    <desc>Created with Sketch.</desc>
    <defs>
        <linearGradient x1="100%" y1="13.2239579%" x2="25.2373805%" y2="50%" id="linearGradient-1">
            <stop stop-color="#FDF18D" offset="0%"></stop>
            <stop stop-color="#FADF54" offset="100%"></stop>
        </linearGradient>
        <linearGradient x1="20.1942743%" y1="18.6307493%" x2="75.7179816%" y2="78.7814322%" id="linearGradient-2">
            <stop stop-color="#F2A375" offset="0%"></stop>
            <stop stop-color="#ED6C5D" offset="100%"></stop>
        </linearGradient>
        <ellipse id="path-3" cx="27.2752758" cy="27.2219996" rx="27.1487629" ry="26.8677295"></ellipse>
        <linearGradient x1="99.069052%" y1="22.4800717%" x2="19.4729943%" y2="83.4226602%" id="linearGradient-5">
            <stop stop-color="#F08F6C" offset="0%"></stop>
            <stop stop-color="#F08B6B" offset="100%"></stop>
        </linearGradient>
        <path d="M17.5513398,5.91932703 L28.9961485,6.97742788 C29.5460902,7.02827155 29.9506891,7.51530431 29.8998454,8.065246 C29.8963275,8.10329681 29.8906315,8.14111469 29.8827853,8.17851358 C29.0734879,12.0360319 26.828787,13.8103612 23.1486827,13.5015013 C19.5188873,13.1968637 17.2959742,11.0688101 16.4799434,7.11734067 L16.479929,7.11734363 C16.3682302,6.57646402 16.71615,6.04744469 17.2570296,5.93574588 C17.3537833,5.91576495 17.4529639,5.91023191 17.5513398,5.91932703 Z" id="path-6"></path>
        <filter x="-8.9%" y="-15.7%" width="117.9%" height="131.5%" filterUnits="objectBoundingBox" id="filter-8">
            <feOffset dx="0" dy="0.399999976" in="SourceAlpha" result="shadowOffsetInner1"></feOffset>
            <feComposite in="shadowOffsetInner1" in2="SourceAlpha" operator="arithmetic" k2="-1" k3="1" result="shadowInnerInner1"></feComposite>
            <feColorMatrix values="0 0 0 0 1   0 0 0 0 0.26128417   0 0 0 0 0.161616162  0 0 0 1 0" type="matrix" in="shadowInnerInner1"></feColorMatrix>
        </filter>
    </defs>
    <g id="Page-1" stroke="none" stroke-width="1" fill="none" fill-rule="evenodd">
        <g id="A3_首页（无数据2）" transform="translate(-251.000000, -322.000000)">
            <g id="列表/同事社区-copy" transform="translate(14.000000, 322.000000)">
                <g id="img" transform="translate(237.000000, 0.000000)">
                    <g id="Group-2">
                        <g id="Group-3" transform="translate(20.000000, 17.000000)">
                            <g id="进行的活动" transform="translate(0.000000, 0.000000)">
                                <path d="M15.9464083,47.492962 C14.7798961,49.2887528 13.0774162,50.5557935 10.9551062,50.1198738 C8.83279631,49.683954 7.83170672,48.6139692 7.27109655,45.562531 C6.89735644,43.5282388 6.76387783,42.2072699 6.87066072,41.5996241 L9.75379873,41.0448172 C10.2343217,43.9773682 10.9284105,45.3775953 11.8360651,45.2454984 C13.1975469,45.0473531 15.3599004,41.5599951 15.3599004,39.5785417 C15.3599004,37.5970883 18.6835179,42.562115 18.002777,43.6603357 C17.322036,44.7585563 17.1129205,45.6971712 15.9464083,47.492962 Z" id="Path-7" fill="#D34C35"></path>
                                <path d="M6.6770278,43.683999 C8.41018421,43.7095993 9.6259805,42.9287922 10.3244167,41.3415779 C10.2468127,40.5351707 10.0528026,40.2663682 10.3244167,39.5367617 C10.5960307,38.8071551 10.1304066,36.1959316 8.84994032,35.1207219 C7.56947401,34.0455122 4.73692733,34.5447167 3.80567911,36.1191309 C2.87443089,37.6935451 3.18484696,40.7271724 4.54291729,41.3415779 C5.4482975,41.7511816 6.15966767,42.5319887 6.6770278,43.683999 Z" id="Path-8" fill="#D34C35"></path>
                                <g id="Group" transform="translate(26.342902, 26.724837) rotate(15.000000) translate(-26.342902, -26.724837) translate(4.842902, 5.224837)">
                                    <path d="M3.63747216,25.3380882 C6.21366443,22.7885637 10.7577814,21.6908517 17.2698229,22.0449524 C27.0378853,22.5761033 28.3617619,23.9216857 35.0527057,22.8593838 C37.1518253,22.6705302 39.6326031,21.4901947 42.4950389,19.3183775 C41.3500646,8.45929154 40.7775774,2.39236741 40.7775774,1.11760515 C40.7417969,-0.298797374 39.7757248,0.515634075 39.4537008,0.69268439 C39.1316768,0.869734705 35.8040951,4.19828063 29.1847122,4.19828063 C22.5653293,4.19828063 19.3450889,2.99433848 15.6954832,2.99433848 C12.0458775,2.99433848 6.32100578,2.42777748 1.38330392,6.39370453 C1.46026916,7.64098711 2.21165857,13.9557817 3.63747216,25.3380882 Z" id="Path-3" fill="url(#linearGradient-1)"></path>
                                    <path d="M0.498289495,6.0708418 C0.46064175,5.7691431 0.67725557,5.49436438 0.982110006,5.45710635 C1.28696444,5.41984832 1.56461732,5.63421984 1.60226506,5.93591854 L6.03596774,41.466395 C6.07361548,41.7680937 5.85700166,42.0428724 5.55214723,42.0801304 C5.24729279,42.1173884 4.96963991,41.9030169 4.93199217,41.6013182 L0.498289495,6.0708418 Z" id="Path-4" fill="#DBB554" fill-rule="nonzero"></path>
                                </g>
                                <path d="M5.04734341,41.4183786 C4.86626736,40.3687692 5.06027741,39.8439644 5.62937355,39.8439644 C6.48301775,39.8439644 8.03509812,39.5367617 8.03509812,38.1159489 C8.03509812,36.6951361 7.9574941,35.1975226 7.02624588,34.8135191 C6.09499766,34.4295156 4.03849116,35.1975226 3.45646103,36.6567357 C2.87443089,38.1159489 3.340055,40.6119714 3.84448112,41.0343752 C4.1807652,41.3159777 4.58171929,41.4439789 5.04734341,41.4183786 Z" id="Path-9" fill="#E3563E"></path>
                                <g id="Group-5" transform="translate(13.000000, 16.000000)">
                                    <mask id="mask-4" fill="white">
                                        <use xlink:href="#path-3"></use>
                                    </mask>
                                    <use id="Oval-3" fill="url(#linearGradient-2)" xlink:href="#path-3"></use>
                                    <g id="Group-4" mask="url(#mask-4)">
                                        <g transform="translate(16.988679, 20.607739) scale(-1, 1) rotate(-10.000000) translate(-16.988679, -20.607739) translate(-4.011321, 12.607739)">
                                            <circle id="Oval-9" stroke="none" fill="#EE7A63" fill-rule="evenodd" cx="6.02426037" cy="8.39567824" r="5.15601949"></circle>
                                            <circle id="Oval-9-Copy" stroke="none" fill="#EF8869" fill-rule="evenodd" cx="36.1010407" cy="10.5440197" r="5.15601949"></circle>
                                            <mask id="mask-7" fill="white">
                                                <use xlink:href="#path-6"></use>
                                            </mask>
                                            <g id="Path-5" stroke="none" fill="none">
                                                <use fill="#FFFEFE" fill-rule="evenodd" xlink:href="#path-6"></use>
                                                <use fill="black" fill-opacity="1" filter="url(#filter-8)" xlink:href="#path-6"></use>
                                                <path stroke="url(#linearGradient-5)" stroke-width="1" d="M17.5973697,5.42145029 L29.0421786,6.47955116 C29.86709,6.55581656 30.4739875,7.2863647 30.3977221,8.11127611 C30.3924453,8.16835225 30.3839012,8.225079 30.3721319,8.28117725 C29.5122294,12.3799053 27.0448486,14.3302524 23.1068662,13.9997496 C19.2481542,13.6758997 16.849633,11.379732 15.9902786,7.21847647 C15.8227088,6.4071608 16.3445858,5.613627 17.1559068,5.44607847 C17.3010367,5.41610722 17.4498068,5.40780769 17.5973699,5.42145031 Z"></path>
                                            </g>
                                        </g>
                                    </g>
                                </g>
                                <path d="M62.0515805,41.4026167 C65.8220608,45.0579145 67.5341667,47.5709317 67.1878981,48.9416683 C66.8416295,50.312405 66.2303906,51.0319168 65.3541813,51.1002039 C65.0877995,51.8066401 64.8197306,52.4888246 64.5499747,53.1467572 C64.1589631,54.1004312 63.6802687,55.0194852 63.1138913,55.9039193 C64.4443236,55.784917 65.3777778,55.5717343 65.9142538,55.2643714 C66.7189679,54.8033271 70.3620269,52.8825362 71.2276984,49.7983787 C72.0933699,46.7142213 68.111281,41.0599326 66.6396395,39.2322837 C65.1679979,37.4046348 61.5774466,38.9225511 61.5774466,40.0077177 C61.5774466,40.731162 61.7354912,41.1961284 62.0515805,41.4026167 Z" id="Path-10" fill="#D34C35"></path>
                            </g>
                        </g>
                    </g>
                </g>
            </g>
        </g>
    </g>
</svg>