<?xml version="1.0" encoding="UTF-8"?>
<svg width="161px" height="161px" viewBox="0 0 161 161" version="1.1" xmlns="http://www.w3.org/2000/svg" xmlns:xlink="http://www.w3.org/1999/xlink">
    <!-- Generator: Sketch 50.2 (55047) - http://www.bohemiancoding.com/sketch -->
    <title>img_commom_emptypage</title>
    <desc>Created with Sketch.</desc>
    <defs>
        <path d="M27,48 L104,48 C106.209139,48 108,49.790861 108,52 L108,102 C108,104.209139 106.209139,106 104,106 L27,106 C24.790861,106 23,104.209139 23,102 L23,52 C23,49.790861 24.790861,48 27,48 Z" id="path-1"></path>
        <mask id="mask-2" maskContentUnits="userSpaceOnUse" maskUnits="objectBoundingBox" x="0" y="0" width="85" height="58" fill="white">
            <use xlink:href="#path-1"></use>
        </mask>
        <rect id="path-3" x="0" y="0" width="48" height="62" rx="4"></rect>
        <filter x="-4.2%" y="-3.2%" width="108.3%" height="106.5%" filterUnits="objectBoundingBox" id="filter-4">
            <feOffset dx="0" dy="4" in="SourceAlpha" result="shadowOffsetInner1"></feOffset>
            <feComposite in="shadowOffsetInner1" in2="SourceAlpha" operator="arithmetic" k2="-1" k3="1" result="shadowInnerInner1"></feComposite>
            <feColorMatrix values="0 0 0 0 1   0 0 0 0 1   0 0 0 0 1  0 0 0 0.5 0" type="matrix" in="shadowInnerInner1"></feColorMatrix>
        </filter>
        <rect id="path-5" x="0" y="0" width="33" height="34" rx="4"></rect>
        <filter x="-6.1%" y="-5.9%" width="112.1%" height="111.8%" filterUnits="objectBoundingBox" id="filter-6">
            <feOffset dx="0" dy="4" in="SourceAlpha" result="shadowOffsetInner1"></feOffset>
            <feComposite in="shadowOffsetInner1" in2="SourceAlpha" operator="arithmetic" k2="-1" k3="1" result="shadowInnerInner1"></feComposite>
            <feColorMatrix values="0 0 0 0 1   0 0 0 0 1   0 0 0 0 1  0 0 0 0.5 0" type="matrix" in="shadowInnerInner1"></feColorMatrix>
        </filter>
    </defs>
    <g id="任务分派" stroke="none" stroke-width="1" fill="none" fill-rule="evenodd">
        <g id="A_待处理（无数据）" transform="translate(-107.000000, -200.000000)">
            <g id="缺省页/默认" transform="translate(107.500000, 200.143317)">
                <g id="Group">
                    <g id="缺省页/类别/没有数据">
                        <g id="Group-3">
                            <rect id="Rectangle-9" x="0" y="0" width="160" height="160"></rect>
                            <use id="Rectangle-7" stroke="#E4E5E9" mask="url(#mask-2)" stroke-width="2" stroke-dasharray="2,2" xlink:href="#path-1"></use>
                            <g id="Group-4" transform="translate(36.000000, 37.000000)">
                                <rect id="Rectangle-8-Copy" stroke="#A2A5B2" fill="#F5F6FA" x="0.5" y="34.5" width="92" height="53" rx="4"></rect>
                                <g id="Group-2" transform="translate(33.000000, 0.000000)">
                                    <g id="Rectangle-13">
                                        <use fill="#FFFFFF" fill-rule="evenodd" xlink:href="#path-3"></use>
                                        <use fill="black" fill-opacity="1" filter="url(#filter-4)" xlink:href="#path-3"></use>
                                        <rect stroke="#A2A5B2" stroke-width="1" stroke-linejoin="square" x="0.5" y="0.5" width="47" height="61" rx="4"></rect>
                                    </g>
                                    <rect id="Rectangle-12" fill="#F6F7FB" x="8" y="7" width="18" height="2" rx="1"></rect>
                                    <g id="Group" transform="translate(31.000000, 7.000000)">
                                        <circle id="Oval" fill="#F6F7FB" cx="4.5" cy="4.5" r="4.5"></circle>
                                        <g id="Group-6" transform="translate(2.000000, 2.000000)" fill="#FFFFFF">
                                            <rect id="Rectangle" x="0" y="2" width="5" height="1" rx="0.5"></rect>
                                            <rect id="Rectangle-Copy" x="2" y="0" width="1" height="5" rx="0.5"></rect>
                                        </g>
                                    </g>
                                    <rect id="Rectangle-12-Copy" fill="#F6F7FB" x="8" y="12" width="18" height="2" rx="1"></rect>
                                    <rect id="Rectangle-12-Copy-2" fill="#F6F7FB" x="8" y="20" width="32" height="2" rx="1"></rect>
                                </g>
                                <g id="Group-2-Copy" transform="translate(14.000000, 18.000000)">
                                    <g id="Rectangle-13">
                                        <use fill="#FFFFFF" fill-rule="evenodd" xlink:href="#path-5"></use>
                                        <use fill="black" fill-opacity="1" filter="url(#filter-6)" xlink:href="#path-5"></use>
                                        <rect stroke="#A2A5B2" stroke-width="1" stroke-linejoin="square" x="0.5" y="0.5" width="32" height="33" rx="4"></rect>
                                    </g>
                                    <rect id="Rectangle-12" fill="#E4E5E9" x="4.45437871" y="4.78746504" width="13.9357416" height="2.12309515" rx="1.06154757"></rect>
                                    <rect id="Rectangle-12-Copy" fill="#E4E5E9" x="4.45437871" y="10.0410881" width="13.9357416" height="2.12309515" rx="1.06154757"></rect>
                                    <rect id="Rectangle-12-Copy-2" fill="#E4E5E9" x="4.59676834" y="14.8769049" width="24.4177575" height="2.12309515" rx="1.06154757"></rect>
                                </g>
                                <rect id="Rectangle-8" stroke="#A2A5B2" fill="#F6F7FB" x="0.5" y="43.5" width="92" height="53" rx="4"></rect>
                                <rect id="Rectangle-8-Copy-2" fill="#FFFFFF" x="5" y="48" width="83" height="44" rx="2"></rect>
                                <path d="M58.410925,71.5 L59.4157276,71.5 L59.4537904,71.0413525 C59.4834518,70.6839412 59.4988859,70.3242639 59.4999418,69.9628853 L58.999944,69.9614243 L58.4999461,69.9628767 C58.499991,69.981434 58.499991,69.981434 58.5,70 C58.5,70.5076361 58.4697399,71.0082046 58.410925,71.5 Z M44.5,57.58899 C44.6781443,57.567717 44.8574789,57.550176 45.0379261,57.5364492 L44.5,57.0378896 L44.5,57.58899 Z" id="Combined-Shape" stroke="#A2A5B2" fill="#FFFFFF"></path>
                                <path d="M47,57.0322847 C47.2828928,57.010892 47.5687383,57 47.8571429,57 C54.0111729,57 59,61.9593074 59,68.0769231 C59,68.3877722 58.9871195,68.6956307 58.9618601,69 L47,69 L47,57.0322847 Z" id="Combined-Shape-Copy" fill="#4D7CFE"></path>
                            </g>
                            <g id="Group-5" transform="translate(16.000000, 133.000000)" fill="#A2A5B2">
                                <rect id="Rectangle-3" x="9" y="0" width="113.241571" height="1"></rect>
                                <rect id="Rectangle-3-Copy" x="125" y="0" width="3.70000005" height="1"></rect>
                                <rect id="Rectangle-3-Copy-2" x="0" y="0" width="7" height="1"></rect>
                            </g>
                        </g>
                    </g>
                </g>
            </g>
        </g>
    </g>
</svg>