<?xml version="1.0" encoding="UTF-8"?>
<svg width="110px" height="110px" viewBox="0 0 110 110" version="1.1" xmlns="http://www.w3.org/2000/svg" xmlns:xlink="http://www.w3.org/1999/xlink">
    <!-- Generator: Sketch 50.2 (55047) - http://www.bohemiancoding.com/sketch -->
    <title>img_a-homepage_blank1</title>
    <desc>Created with Sketch.</desc>
    <defs>
        <linearGradient x1="10.0379053%" y1="7.86782071%" x2="31.144447%" y2="43.4431622%" id="linearGradient-1">
            <stop stop-color="#FFEC90" offset="0%"></stop>
            <stop stop-color="#FEDA55" offset="100%"></stop>
        </linearGradient>
        <path d="M4.99727202,30.414015 C2.21589716,27.292116 0.564794716,23.3962999 0.564794716,19.1712378 C0.564794716,8.90555517 10.3120761,0.583575125 22.3359571,0.583575125 C34.359838,0.583575125 44.1071195,8.90555517 44.1071195,19.1712378 C44.1071195,29.4369204 34.359838,37.7589005 22.3359571,37.7589005 C18.5424039,37.7589005 14.9754663,36.9305203 11.869764,35.4740725 C6.9157756,37.650119 3.90626542,38.551072 2.84123351,38.1769315 C1.31315018,37.6401232 4.21444455,35.3453249 4.99727202,30.414015 Z" id="path-2"></path>
        <linearGradient x1="50%" y1="0%" x2="50%" y2="100%" id="linearGradient-4">
            <stop stop-color="#A0ACF7" offset="0%"></stop>
            <stop stop-color="#8395F7" offset="100%"></stop>
        </linearGradient>
    </defs>
    <g id="Page-1" stroke="none" stroke-width="1" fill="none" fill-rule="evenodd">
        <g id="A3_首页（无数据2）" transform="translate(-251.000000, -198.000000)">
            <g id="列表/同事社区" transform="translate(14.000000, 198.000000)">
                <g id="img" transform="translate(236.332069, 0.000000)">
                    <g id="Group" transform="translate(23.000000, 25.000000)">
                        <g id="Combined-Shape" transform="translate(0.826113, 7.610871)">
                            <mask id="mask-3" fill="white">
                                <use xlink:href="#path-2"></use>
                            </mask>
                            <use id="Mask" fill="url(#linearGradient-1)" xlink:href="#path-2"></use>
                        </g>
                        <path d="M60.7643986,43.2623927 C61.8838107,50.2510969 65.992939,53.5046791 63.824104,54.2665804 C62.2822635,54.8082215 57.8731183,53.4696247 50.5966683,50.2507899 C47.2933301,51.565194 43.6587546,52.2924194 39.8426313,52.2924194 C24.6548007,52.2924194 12.3426313,40.7733949 12.3426313,26.5639581 C12.3426313,12.3545212 24.6548007,0.835496747 39.8426313,0.835496747 C55.0304619,0.835496747 67.3426313,12.3545212 67.3426313,26.5639581 C67.3426313,32.9367363 64.8661305,38.7683583 60.7643986,43.2623927 Z" id="Combined-Shape" fill="url(#linearGradient-4)"></path>
                        <path d="M29.2041715,29.592627 C27.6478332,29.592627 26.3861718,28.3309656 26.3861718,26.7746273 C26.3861718,25.218289 27.6478332,23.9566276 29.2041715,23.9566276 C30.7605097,23.9566276 32.0221712,25.218289 32.0221712,26.7746273 C32.0221712,28.3309656 30.7605097,29.592627 29.2041715,29.592627 Z M40.049629,29.592627 C38.4932907,29.592627 37.2316293,28.3309656 37.2316293,26.7746273 C37.2316293,25.218289 38.4932907,23.9566276 40.049629,23.9566276 C41.6059673,23.9566276 42.8676287,25.218289 42.8676287,26.7746273 C42.8676287,28.3309656 41.6059673,29.592627 40.049629,29.592627 Z M50.8950865,29.592627 C49.3387482,29.592627 48.0770868,28.3309656 48.0770868,26.7746273 C48.0770868,25.218289 49.3387482,23.9566276 50.8950865,23.9566276 C52.4514248,23.9566276 53.7130862,25.218289 53.7130862,26.7746273 C53.7130862,28.3309656 52.4514248,29.592627 50.8950865,29.592627 Z" id="Combined-Shape" fill="#FFFFFF"></path>
                    </g>
                </g>
            </g>
        </g>
    </g>
</svg>