<?xml version="1.0" encoding="UTF-8"?>
<svg width="117px" height="65px" viewBox="0 0 117 65" version="1.1" xmlns="http://www.w3.org/2000/svg" xmlns:xlink="http://www.w3.org/1999/xlink">
    <!-- Generator: Sketch 51 (57462) - http://www.bohemiancoding.com/sketch -->
    <title>img_a-list_default</title>
    <desc>Created with Sketch.</desc>
    <defs>
        <linearGradient x1="100%" y1="0%" x2="100%" y2="100%" id="linearGradient-1">
            <stop stop-color="#E8EBEF" offset="5.14586344%"></stop>
            <stop stop-color="#DFE2E9" offset="100%"></stop>
        </linearGradient>
        <path d="M6.08363916,34.0066054 L5.29412869,34.0066054 C2.81635686,34.0066054 0.805339638,32.1819043 0.805339638,29.9336923 L0.805339638,0.756495816 L8.31810274,0.756495816 C9.55947139,0.756495816 10.5674627,1.6710991 10.5674627,2.79745783 L10.5674627,29.9336923 C10.5724282,32.1819043 8.56141099,34.0066054 6.08363916,34.0066054 Z" id="path-2"></path>
        <path d="M6.08363916,34.0066054 L5.29412869,34.0066054 C2.81635686,34.0066054 0.805339638,32.1819043 0.805339638,29.9336923 L0.805339638,0.756495816 L8.31810274,0.756495816 C9.55947139,0.756495816 10.5674627,1.6710991 10.5674627,2.79745783 L10.5674627,29.9336923 C10.5724282,32.1819043 8.56141099,34.0066054 6.08363916,34.0066054 Z" id="path-4"></path>
    </defs>
    <g id="Page-1" stroke="none" stroke-width="1" fill="none" fill-rule="evenodd">
        <g id="A1_首页" transform="translate(-244.000000, -916.000000)">
            <rect fill="#FFFFFF" x="0" y="0" width="375" height="1371"></rect>
            <g id="列表/同事社区/默认图" transform="translate(0.000000, 900.000000)">
                <g id="分割线" transform="translate(0.000000, 96.000000)" fill="#F7F8FA" fill-rule="evenodd">
                    <g id="↳Color/分割线">
                        <rect id="Rectangle-2" x="0" y="0" width="375" height="1"></rect>
                    </g>
                </g>
                <rect id="box" fill="#FFFFFF" fill-rule="evenodd" x="0" y="0" width="375" height="97"></rect>
                <g id="默认图" stroke-width="1" fill-rule="evenodd" transform="translate(244.000000, 15.000000)">
                    <rect id="bg" fill="url(#linearGradient-1)" x="0" y="1" width="117" height="65" rx="2"></rect>
                    <g id="新闻" transform="translate(0.000000, 0.583536)">
                        <g id="Shape" transform="translate(73.812553, 24.416091)">
                            <mask id="mask-3" fill="white">
                                <use xlink:href="#path-2"></use>
                            </mask>
                            <use id="Mask" fill="#FFFFFF" fill-rule="nonzero" xlink:href="#path-2"></use>
                            <path d="M10.5724282,29.6949042 L10.5724282,12.5291972 L0.810305112,0.83308821 L0.810305112,29.6949042 C0.780512265,31.0780727 1.24726688,31.8485021 1.83815836,32.5243173 C2.70711642,33.515513 4.10241479,34.1012195 5.83536543,34.0066054 C7.01714839,34.0561652 8.15424208,33.7407847 9.22181912,32.8442032 C10.2893962,31.8394912 10.6171175,30.780714 10.5724282,29.6949042 Z" fill-opacity="0.468608469" fill="#E4E5E9" fill-rule="nonzero" mask="url(#mask-3)"></path>
                        </g>
                        <path d="M73.4774628,58.2975424 L37.5969432,58.2975424 C36.3555746,58.2975424 35.3475832,57.289551 35.3475832,56.0481824 L35.3475832,12.4463497 C35.3475832,11.2049811 36.3555746,10.1969897 37.5969432,10.1969897 L73.4774628,10.1969897 C74.7188315,10.1969897 75.7268228,11.2049811 75.7268228,12.4463497 L75.7268228,54.6057144 C76.3080534,57.0018968 77.7355444,58.2860169 81.2493785,58.2975424 L73.4774628,58.2975424 Z" id="Combined-Shape" fill="#FFFFFF" fill-rule="nonzero"></path>
                        <rect id="Rectangle-20" fill="#FFFFFF" x="38.3487958" y="13.7320594" width="34.3768328" height="41.0304133" rx="1"></rect>
                        <rect id="Rectangle" fill="#F6F7FB" fill-rule="nonzero" x="41" y="17" width="29" height="8" rx="2"></rect>
                        <path d="M68.6659179,45.8292356 L41.8175967,45.8292356 C41.1969123,45.8292356 40.6904339,45.3277227 40.6904339,44.7020729 L40.6904339,44.577936 C40.6904339,43.9572517 41.1919469,43.4507733 41.8175967,43.4507733 L68.6659179,43.4507733 C69.2866023,43.4507733 69.7930807,43.9522862 69.7930807,44.577936 L69.7930807,44.7020729 C69.7930807,45.3227572 69.2866023,45.8292356 68.6659179,45.8292356 Z M68.6659179,50.5762293 L41.8175967,50.5762293 C41.1969123,50.5762293 40.6904339,50.0747164 40.6904339,49.4490666 L40.6904339,49.3249297 C40.6904339,48.7042454 41.1919469,48.197767 41.8175967,48.197767 L68.6659179,48.197767 C69.2866023,48.197767 69.7930807,48.6992799 69.7930807,49.3249297 L69.7930807,49.4490666 C69.7930807,50.0747164 69.2866023,50.5762293 68.6659179,50.5762293 Z M68.6659179,31.573358 L57.8511142,31.573358 C57.2304299,31.573358 56.7239515,31.071845 56.7239515,30.4461952 L56.7239515,30.3220584 C56.7239515,29.701374 57.2254644,29.1948956 57.8511142,29.1948956 L68.6659179,29.1948956 C69.2866023,29.1948956 69.7930807,29.6964086 69.7930807,30.3220584 L69.7930807,30.4461952 C69.7930807,31.071845 69.2866023,31.573358 68.6659179,31.573358 Z M68.6659179,36.3253172 L57.8511142,36.3253172 C57.2304299,36.3253172 56.7239515,35.8238043 56.7239515,35.1981545 L56.7239515,35.0740176 C56.7239515,34.4533333 57.2254644,33.9468548 57.8511142,33.9468548 L68.6659179,33.9468548 C69.2866023,33.9468548 69.7930807,34.4483678 69.7930807,35.0740176 L69.7930807,35.1981545 C69.7930807,35.8238043 69.2866023,36.3253172 68.6659179,36.3253172 Z M68.6659179,41.0772764 L57.8511142,41.0772764 C57.2304299,41.0772764 56.7239515,40.5757635 56.7239515,39.9501137 L56.7239515,39.8259768 C56.7239515,39.2052925 57.2254644,38.6988141 57.8511142,38.6988141 L68.6659179,38.6988141 C69.2866023,38.6988141 69.7930807,39.200327 69.7930807,39.8259768 L69.7930807,39.9501137 C69.7930807,40.570798 69.2866023,41.0772764 68.6659179,41.0772764 Z" id="Shape" fill="#F6F7FB" fill-rule="nonzero"></path>
                        <path d="M51.4456519,41.0772764 L41.8175967,41.0772764 C41.1969123,41.0772764 40.6904339,40.5757635 40.6904339,39.9501137 L40.6904339,30.3270238 C40.6904339,29.7063395 41.1919469,29.1998611 41.8175967,29.1998611 L51.4456519,29.1998611 C52.0663363,29.1998611 52.5728147,29.701374 52.5728147,30.3270238 L52.5728147,39.9550791 C52.5678492,40.570798 52.0663363,41.0772764 51.4456519,41.0772764 Z" id="Shape" fill="#F6F7FB" fill-rule="nonzero"></path>
                        <path d="M46.5490135,37.0334944 C45.8595061,37.5545279 45.0423423,37.9152183 44.1523248,38.0596245 C44.414793,37.7491836 44.6380698,37.4044299 44.815,37.0334944 L44.1331357,37.0334944 C43.4133811,37.0133296 42.8360812,36.4230202 42.8360812,35.698387 C42.8360812,34.9692004 43.4206989,34.3766143 44.1467958,34.3636047 C44.1378517,34.3044112 44.1331357,34.2341595 44.1331357,34.1725266 C44.1331357,33.5505064 44.6096113,33.039718 45.2176463,32.9852404 C44.7761339,33.1750176 44.4669939,33.6137654 44.4669939,34.1248791 C44.4669939,34.4823171 44.6538439,34.8426823 44.8959846,35.0688862 C44.8959846,35.0688862 44.5546459,34.9831857 44.1998098,34.9831857 C43.831151,34.9831857 43.532256,35.281918 43.532256,35.6507394 C43.532256,35.9967941 43.7958625,36.2813785 44.1331357,36.3148781 L45.5962249,36.3182931 C45.4848304,36.6755686 45.3121283,37.0190213 45.1052761,37.3211686 C45.5765479,37.0725232 46.0021236,36.7243545 46.3408603,36.3182931 L48.6440427,36.3182931 C49.1288119,36.3155286 49.5212132,35.9216638 49.5212132,35.4360814 C49.5212132,34.9488729 49.1263726,34.5540324 48.6391641,34.5540324 C48.2820513,34.5540324 48.081216,34.6016799 48.081216,34.6016799 C48.1786252,34.4164561 48.2339159,34.2055384 48.2339159,33.9817737 C48.2339159,33.2444562 47.636126,32.6466663 46.8988084,32.6466663 C46.3715954,32.6466663 45.9159351,32.952066 45.6988379,33.3955298 C45.7803103,33.0463854 45.9814709,32.743425 46.2569486,32.532182 C46.5938965,32.273942 46.9425531,32.217513 47.1848564,32.217513 C48.0862572,32.217513 48.7107168,32.9543427 48.7107168,33.7433733 C48.7107168,33.999174 48.666159,34.1429298 48.6352612,34.218548 C48.7507212,34.1884633 48.8718729,34.1725266 48.9967648,34.1725266 C49.7867711,34.1725266 50.4271674,34.8129229 50.4271674,35.6030918 C50.4271674,36.3930982 49.7867711,37.0334944 48.9967648,37.0334944 L46.5490135,37.0334944 Z" id="Fill-4" fill="#FFFFFF"></path>
                    </g>
                </g>
                <text id="主标题" font-family="PingFangSC-Medium, PingFang SC" font-size="16" font-weight="400" line-spacing="22" fill="#0A1735">
                    <tspan x="14" y="31">2018年天河科技园超级羽毛球</tspan>
                    <tspan x="14" y="53">大赛快来报名</tspan>
                </text>
                <text id="作者和时间" opacity="0.98999995" font-family="PingFangSC-Regular, PingFang SC" font-size="12" font-weight="normal" fill="#B2B9C8">
                    <tspan x="14" y="79">截止时间 08-24 18:00</tspan>
                </text>
                <text id="赞数" font-family="PingFangSC-Regular, PingFang SC" font-size="12" font-weight="normal" fill="#B2B9C8">
                    <tspan x="195.588" y="79">12/40</tspan>
                </text>
            </g>
            <g id="列表/同事社区/默认图" transform="translate(0.000000, 900.000000)">
                <rect id="box" fill="#FFFFFF" x="0" y="0" width="375" height="97"></rect>
                <g id="默认图" transform="translate(244.000000, 15.000000)">
                    <rect id="bg" fill="url(#linearGradient-1)" x="0" y="1" width="117" height="65" rx="2"></rect>
                    <g id="新闻" transform="translate(0.000000, 0.583536)">
                        <g id="Shape" transform="translate(73.812553, 24.416091)">
                            <mask id="mask-5" fill="white">
                                <use xlink:href="#path-4"></use>
                            </mask>
                            <use id="Mask" fill="#FFFFFF" fill-rule="nonzero" xlink:href="#path-4"></use>
                            <path d="M10.5724282,29.6949042 L10.5724282,12.5291972 L0.810305112,0.83308821 L0.810305112,29.6949042 C0.780512265,31.0780727 1.24726688,31.8485021 1.83815836,32.5243173 C2.70711642,33.515513 4.10241479,34.1012195 5.83536543,34.0066054 C7.01714839,34.0561652 8.15424208,33.7407847 9.22181912,32.8442032 C10.2893962,31.8394912 10.6171175,30.780714 10.5724282,29.6949042 Z" fill-opacity="0.468608469" fill="#E4E5E9" fill-rule="nonzero" mask="url(#mask-5)"></path>
                        </g>
                        <path d="M73.4774628,58.2975424 L37.5969432,58.2975424 C36.3555746,58.2975424 35.3475832,57.289551 35.3475832,56.0481824 L35.3475832,12.4463497 C35.3475832,11.2049811 36.3555746,10.1969897 37.5969432,10.1969897 L73.4774628,10.1969897 C74.7188315,10.1969897 75.7268228,11.2049811 75.7268228,12.4463497 L75.7268228,54.6057144 C76.3080534,57.0018968 77.7355444,58.2860169 81.2493785,58.2975424 L73.4774628,58.2975424 Z" id="Combined-Shape" fill="#FFFFFF" fill-rule="nonzero"></path>
                        <rect id="Rectangle-20" fill="#FFFFFF" x="38.3487958" y="13.7320594" width="34.3768328" height="41.0304133" rx="1"></rect>
                        <rect id="Rectangle" fill="#F6F7FB" fill-rule="nonzero" x="41" y="17" width="29" height="8" rx="2"></rect>
                        <path d="M68.6659179,45.8292356 L41.8175967,45.8292356 C41.1969123,45.8292356 40.6904339,45.3277227 40.6904339,44.7020729 L40.6904339,44.577936 C40.6904339,43.9572517 41.1919469,43.4507733 41.8175967,43.4507733 L68.6659179,43.4507733 C69.2866023,43.4507733 69.7930807,43.9522862 69.7930807,44.577936 L69.7930807,44.7020729 C69.7930807,45.3227572 69.2866023,45.8292356 68.6659179,45.8292356 Z M68.6659179,50.5762293 L41.8175967,50.5762293 C41.1969123,50.5762293 40.6904339,50.0747164 40.6904339,49.4490666 L40.6904339,49.3249297 C40.6904339,48.7042454 41.1919469,48.197767 41.8175967,48.197767 L68.6659179,48.197767 C69.2866023,48.197767 69.7930807,48.6992799 69.7930807,49.3249297 L69.7930807,49.4490666 C69.7930807,50.0747164 69.2866023,50.5762293 68.6659179,50.5762293 Z M68.6659179,31.573358 L57.8511142,31.573358 C57.2304299,31.573358 56.7239515,31.071845 56.7239515,30.4461952 L56.7239515,30.3220584 C56.7239515,29.701374 57.2254644,29.1948956 57.8511142,29.1948956 L68.6659179,29.1948956 C69.2866023,29.1948956 69.7930807,29.6964086 69.7930807,30.3220584 L69.7930807,30.4461952 C69.7930807,31.071845 69.2866023,31.573358 68.6659179,31.573358 Z M68.6659179,36.3253172 L57.8511142,36.3253172 C57.2304299,36.3253172 56.7239515,35.8238043 56.7239515,35.1981545 L56.7239515,35.0740176 C56.7239515,34.4533333 57.2254644,33.9468548 57.8511142,33.9468548 L68.6659179,33.9468548 C69.2866023,33.9468548 69.7930807,34.4483678 69.7930807,35.0740176 L69.7930807,35.1981545 C69.7930807,35.8238043 69.2866023,36.3253172 68.6659179,36.3253172 Z M68.6659179,41.0772764 L57.8511142,41.0772764 C57.2304299,41.0772764 56.7239515,40.5757635 56.7239515,39.9501137 L56.7239515,39.8259768 C56.7239515,39.2052925 57.2254644,38.6988141 57.8511142,38.6988141 L68.6659179,38.6988141 C69.2866023,38.6988141 69.7930807,39.200327 69.7930807,39.8259768 L69.7930807,39.9501137 C69.7930807,40.570798 69.2866023,41.0772764 68.6659179,41.0772764 Z" id="Shape" fill="#F6F7FB" fill-rule="nonzero"></path>
                        <path d="M51.4456519,41.0772764 L41.8175967,41.0772764 C41.1969123,41.0772764 40.6904339,40.5757635 40.6904339,39.9501137 L40.6904339,30.3270238 C40.6904339,29.7063395 41.1919469,29.1998611 41.8175967,29.1998611 L51.4456519,29.1998611 C52.0663363,29.1998611 52.5728147,29.701374 52.5728147,30.3270238 L52.5728147,39.9550791 C52.5678492,40.570798 52.0663363,41.0772764 51.4456519,41.0772764 Z" id="Shape" fill="#F6F7FB" fill-rule="nonzero"></path>
                        <path d="M46.5490135,37.0334944 C45.8595061,37.5545279 45.0423423,37.9152183 44.1523248,38.0596245 C44.414793,37.7491836 44.6380698,37.4044299 44.815,37.0334944 L44.1331357,37.0334944 C43.4133811,37.0133296 42.8360812,36.4230202 42.8360812,35.698387 C42.8360812,34.9692004 43.4206989,34.3766143 44.1467958,34.3636047 C44.1378517,34.3044112 44.1331357,34.2341595 44.1331357,34.1725266 C44.1331357,33.5505064 44.6096113,33.039718 45.2176463,32.9852404 C44.7761339,33.1750176 44.4669939,33.6137654 44.4669939,34.1248791 C44.4669939,34.4823171 44.6538439,34.8426823 44.8959846,35.0688862 C44.8959846,35.0688862 44.5546459,34.9831857 44.1998098,34.9831857 C43.831151,34.9831857 43.532256,35.281918 43.532256,35.6507394 C43.532256,35.9967941 43.7958625,36.2813785 44.1331357,36.3148781 L45.5962249,36.3182931 C45.4848304,36.6755686 45.3121283,37.0190213 45.1052761,37.3211686 C45.5765479,37.0725232 46.0021236,36.7243545 46.3408603,36.3182931 L48.6440427,36.3182931 C49.1288119,36.3155286 49.5212132,35.9216638 49.5212132,35.4360814 C49.5212132,34.9488729 49.1263726,34.5540324 48.6391641,34.5540324 C48.2820513,34.5540324 48.081216,34.6016799 48.081216,34.6016799 C48.1786252,34.4164561 48.2339159,34.2055384 48.2339159,33.9817737 C48.2339159,33.2444562 47.636126,32.6466663 46.8988084,32.6466663 C46.3715954,32.6466663 45.9159351,32.952066 45.6988379,33.3955298 C45.7803103,33.0463854 45.9814709,32.743425 46.2569486,32.532182 C46.5938965,32.273942 46.9425531,32.217513 47.1848564,32.217513 C48.0862572,32.217513 48.7107168,32.9543427 48.7107168,33.7433733 C48.7107168,33.999174 48.666159,34.1429298 48.6352612,34.218548 C48.7507212,34.1884633 48.8718729,34.1725266 48.9967648,34.1725266 C49.7867711,34.1725266 50.4271674,34.8129229 50.4271674,35.6030918 C50.4271674,36.3930982 49.7867711,37.0334944 48.9967648,37.0334944 L46.5490135,37.0334944 Z" id="Fill-4" fill="#FFFFFF"></path>
                    </g>
                </g>
            </g>
        </g>
    </g>
</svg>