<?xml version="1.0" encoding="UTF-8"?>
<svg width="110px" height="110px" viewBox="0 0 110 110" version="1.1" xmlns="http://www.w3.org/2000/svg" xmlns:xlink="http://www.w3.org/1999/xlink">
    <!-- Generator: Sketch 50.2 (55047) - http://www.bohemiancoding.com/sketch -->
    <title>img_a-homepage_blank3</title>
    <desc>Created with Sketch.</desc>
    <defs>
        <linearGradient x1="50%" y1="-2.48949813e-15%" x2="50%" y2="100%" id="linearGradient-1">
            <stop stop-color="#6CDFB7" offset="0%"></stop>
            <stop stop-color="#67D7D6" offset="100%"></stop>
        </linearGradient>
        <linearGradient x1="50%" y1="0%" x2="50%" y2="98.265896%" id="linearGradient-2">
            <stop stop-color="#FCE55E" offset="0%"></stop>
            <stop stop-color="#FFD854" offset="100%"></stop>
        </linearGradient>
    </defs>
    <g id="Page-1" stroke="none" stroke-width="1" fill="none" fill-rule="evenodd">
        <g id="A3_首页（无数据2）" transform="translate(-251.000000, -446.000000)">
            <g id="列表/同事社区-copy-3" transform="translate(14.000000, 446.000000)">
                <g id="Group-6" transform="translate(237.000000, 0.000000)">
                    <g id="Group-9" transform="translate(29.000000, 22.000000)">
                        <g id="Group-4" transform="translate(0.488135, 0.000000)">
                            <g id="Group-2" transform="translate(0.000000, 7.225287)">
                                <path d="M5,1.04698724 L49,1.04698724 C50.6568542,1.04698724 52,2.39013299 52,4.04698724 L52,41.0469872 C52,48.7789737 45.7319865,55.0469872 38,55.0469872 L5,55.0469872 C3.34314575,55.0469872 2,53.7038415 2,52.0469872 L2,4.04698724 C2,2.39013299 3.34314575,1.04698724 5,1.04698724 Z" id="Rectangle-4" fill="url(#linearGradient-1)"></path>
                                <g id="Group-8" opacity="0.900000036" transform="translate(7.000000, 12.000000)">
                                    <rect id="Rectangle-3" stroke="#FFFFFF" x="0.919838477" y="1.41418105" width="5" height="5"></rect>
                                    <rect id="Rectangle-5" fill="#FFFFFF" transform="translate(24.511865, 3.914181) scale(1, -1) translate(-24.511865, -3.914181) " x="10.5118645" y="1.91418105" width="28" height="4"></rect>
                                </g>
                                <g id="Group-8-Copy" opacity="0.5" transform="translate(7.000000, 23.306851)">
                                    <rect id="Rectangle-3" stroke="#FFFFFF" x="0.919838477" y="1.41418105" width="5" height="5"></rect>
                                    <rect id="Rectangle-5" fill="#FFFFFF" transform="translate(24.511865, 3.914181) scale(1, -1) translate(-24.511865, -3.914181) " x="10.5118645" y="1.91418105" width="28" height="4"></rect>
                                </g>
                                <g id="Group-8-Copy-2" opacity="0.300000012" transform="translate(7.000000, 34.613701)">
                                    <rect id="Rectangle-3" stroke="#FFFFFF" x="0.919838477" y="1.41418105" width="5" height="5"></rect>
                                    <rect id="Rectangle-5" fill="#FFFFFF" transform="translate(24.511865, 3.914181) scale(1, -1) translate(-24.511865, -3.914181) " x="10.5118645" y="1.91418105" width="28" height="4"></rect>
                                </g>
                            </g>
                            <g id="Group-3" transform="translate(13.000000, 0.000000)">
                                <path d="M8.72933001,3.43708117 C9.7779405,1.87550884 11.8072617,0.817122525 14.1387155,0.817122525 C16.4701693,0.817122525 18.4994905,1.87550884 19.548101,3.43708117 L23.5958803,3.43708117 C25.8050193,3.43708117 27.5958803,5.22794217 27.5958803,7.43708117 L27.5958803,10.51138 C27.5958803,11.0636648 27.148165,11.51138 26.5958803,11.51138 L1.68155075,11.51138 C1.129266,11.51138 0.681550749,11.0636648 0.681550749,10.51138 L0.681550749,7.43708117 C0.681550749,5.22794217 2.47241175,3.43708117 4.68155075,3.43708117 L8.72933001,3.43708117 Z" id="Combined-Shape" fill="url(#linearGradient-2)"></path>
                                <ellipse id="Oval" stroke="#F8D86B" fill="#FFFFFF" cx="14.1387155" cy="5.86355931" rx="2.74286079" ry="2.51857471"></ellipse>
                            </g>
                        </g>
                        <g id="Group-5" transform="translate(41.526687, 47.498823)">
                            <circle id="Oval-2" fill="#FFFFFF" cx="8.98977003" cy="9.03116304" r="8.97403496"></circle>
                            <path d="M8.14098042,13.9668823 L9.62665234,13.9668823 L9.62665234,12.3793051 L8.14098042,12.3793051 L8.14098042,13.9668823 Z M11.195357,4.85701828 C10.6886128,4.35027409 9.9644818,4.09544382 9.04200424,4.09544382 C8.68805095,4.09544382 8.2965536,4.16523553 7.87817203,4.30471841 C7.47316553,4.40659018 7.13795075,4.60771905 6.78664565,4.95902414 C6.47288462,5.27275166 6.2476538,5.49798247 6.1323064,5.94857818 C6.0680122,6.14431009 5.92319942,6.66717811 5.92319942,7.41537751 L5.92319942,7.60316483 L7.30961424,7.60316483 L7.30961424,7.41537751 C7.30961424,6.75309366 7.45167826,6.2623057 7.72799581,5.94857818 C8.00950918,5.63481714 8.43861763,5.48189216 9.03938956,5.48189216 C9.53815564,5.48189216 9.91356267,5.62409027 10.2193121,5.93245435 C10.5438,6.25694226 10.5678684,6.6860507 10.5678684,6.80937622 C10.5678684,7.06682118 10.4821205,7.42352323 10.3185692,7.58707452 L9.40943316,8.49621053 C8.98032472,8.92528546 8.67196064,9.23368306 8.55657971,9.57962471 C8.50840935,9.7244375 8.46007137,9.84504778 8.40915225,9.97377025 C8.3581996,10.0998445 8.30728048,10.2311817 8.25357907,10.3895036 C8.1435951,10.7219697 8.1435951,11.1349543 8.1435951,11.660571 L8.1435951,11.8483584 L9.53000992,11.8483584 L9.53000992,11.660571 C9.53000992,11.2664255 9.53000992,10.984778 9.6212889,10.7086281 C9.6855831,10.5154773 9.79818175,10.3170972 9.89743884,10.1428191 C9.94041338,10.0650157 9.98335439,9.99260933 10.0154344,9.92556637 C10.077114,9.80485553 10.2756282,9.55813744 10.8736178,9.07810988 L10.8897416,9.06476833 C11.3188501,8.63565988 11.6325776,8.20916611 11.8229796,7.92503806 C12.0563226,7.57369945 12.0563226,7.22239436 12.0563226,6.911248 C12.0589373,6.10948128 11.7773904,5.43905171 11.195357,4.85701828 Z" id="Fill-1" fill="#63D4D2"></path>
                        </g>
                    </g>
                </g>
            </g>
        </g>
    </g>
</svg>