<?xml version="1.0" encoding="UTF-8"?>
<svg width="157px" height="101px" viewBox="0 0 157 101" version="1.1" xmlns="http://www.w3.org/2000/svg" xmlns:xlink="http://www.w3.org/1999/xlink">
    <!-- Generator: Sketch 51.3 (57544) - http://www.bohemiancoding.com/sketch -->
    <title>img_a-external_success</title>
    <desc>Created with Sketch.</desc>
    <defs>
        <linearGradient x1="58.1159933%" y1="100%" x2="16.654277%" y2="12.1900603%" id="linearGradient-1">
            <stop stop-color="#FAFDFF" offset="0%"></stop>
            <stop stop-color="#F2F9FF" offset="100%"></stop>
        </linearGradient>
        <linearGradient x1="6.22957304%" y1="2.83774388%" x2="84.2987163%" y2="96.9900455%" id="linearGradient-2">
            <stop stop-color="#BBD6FF" offset="0%"></stop>
            <stop stop-color="#7DBCFF" offset="100%"></stop>
        </linearGradient>
        <linearGradient x1="0%" y1="0%" x2="95.8087106%" y2="100%" id="linearGradient-3">
            <stop stop-color="#7DBCFF" offset="0%"></stop>
            <stop stop-color="#4E8EFC" offset="100%"></stop>
        </linearGradient>
        <path d="M8.85148973,29.3336878 L0.706690827,22.2069887 L9.38643695,13.7148028 C12.6749873,6.10350148 20.2494558,0.776934906 29.0680106,0.776934906 C40.9035026,0.776934906 50.4980645,10.3714968 50.4980645,22.2069887 C50.4980645,34.0424806 40.9035026,43.6370425 29.0680106,43.6370425 C19.7310093,43.6370425 11.788675,37.6657635 8.85148973,29.3336878 Z" id="path-4"></path>
        <filter x="-35.1%" y="-36.2%" width="170.3%" height="181.7%" filterUnits="objectBoundingBox" id="filter-5">
            <feOffset dx="0" dy="2" in="SourceAlpha" result="shadowOffsetOuter1"></feOffset>
            <feGaussianBlur stdDeviation="5.5" in="shadowOffsetOuter1" result="shadowBlurOuter1"></feGaussianBlur>
            <feColorMatrix values="0 0 0 0 0.545098039   0 0 0 0 0.768627451   0 0 0 0 1  0 0 0 0.509227808 0" type="matrix" in="shadowBlurOuter1"></feColorMatrix>
        </filter>
    </defs>
    <g id="Page-1" stroke="none" stroke-width="1" fill="none" fill-rule="evenodd">
        <g id="发布成功" transform="translate(-108.000000, -159.000000)">
            <g id="img_a-external_success" transform="translate(107.000000, 136.000000)">
                <rect id="Rectangle-2" fill="#D8D8D8" opacity="0" x="0.5" y="0" width="160" height="135.097786"></rect>
                <g id="Group-6" transform="translate(1.000000, 23.000000)">
                    <path d="M51.1204191,98.5482693 L15.357931,98.5482693 C5.47889553,97.9830607 0.539377796,93.5205422 0.539377796,85.1607138 C0.539377796,78.001327 5.15473222,72.8882874 13.5827729,70.8060762 C19.0468948,69.4561235 23.2186213,65.9806493 21.3803771,60.0929964 C19.6880033,54.6725474 23.9197193,41.6657576 29.539113,37.2235609 C35.5821529,32.4464668 47.0452803,28.4102014 56.6680689,35.4704673 C66.7064832,42.8356788 111.698708,51.370818 118.705286,45.5013578 C125.711864,39.6318975 152.367521,37.5168418 148.925986,62.6540984 C147.663997,71.871776 152.367521,79.1766555 154.505028,83.5485653 C158.889295,92.5158456 156.50272,100.157436 137.218049,100.157436 C117.084171,100.157436 88.384961,99.621047 51.1204191,98.5482693 Z" id="Path-9" fill="url(#linearGradient-1)"></path>
                    <g id="fo" transform="translate(29.000000, 0.155078)">
                        <g id="底">
                            <path d="M16.232952,-6.25277607e-13 L88.6079333,-1.23367982e-12 C91.3693571,-1.23418709e-12 93.6079333,2.23857625 93.6079333,5 L93.6079333,7.58880826 L93.6079333,88.0321884 C93.6079333,94.6596054 88.2353503,100.032188 81.6079333,100.032188 L11.232952,100.032188 L11.232952,5 C11.232952,2.23857625 13.4715282,-6.24770342e-13 16.232952,-6.25277607e-13 Z" id="Rectangle-36" fill="url(#linearGradient-2)"></path>
                            <path d="M77.8029018,84.304651 L93.6079333,84.304651 L93.6079333,92.1296727 C93.6079333,96.4941116 90.0698565,100.032188 85.7054175,100.032188 L85.7054175,100.032188 C81.3409786,100.032188 77.8029018,96.4941116 77.8029018,92.1296727 L77.8029018,84.304651 Z" id="Rectangle-20" fill="#85C0FF"></path>
                            <path d="M86.2332583,100.032188 L8.522353,100.032188 C3.87852558,100.032188 0.113959644,96.2676225 0.113959644,91.6237951 C0.113959644,90.9815919 0.185955522,90.3562043 0.32231629,89.7552632 L77.8085443,89.7552632 L77.8085443,91.6074745 C77.8085443,96.2603155 81.5804172,100.032188 86.2332583,100.032188 Z" id="Rectangle-35" fill="url(#linearGradient-3)"></path>
                        </g>
                        <rect id="Rectangle-37" fill="#FFFFFF" opacity="0.600000024" x="20.5881198" y="31.340387" width="42.090566" height="3.25075575" rx="1.62537788"></rect>
                        <path d="M22.2134977,54.0956773 L36.3001059,54.0956773 C37.1977773,54.0956773 37.9254838,54.8233838 37.9254838,55.7210552 L37.9254838,55.7210552 C37.9254838,56.6187266 37.1977773,57.3464331 36.3001059,57.3464331 L22.2134977,57.3464331 C21.3158262,57.3464331 20.5881198,56.6187266 20.5881198,55.7210552 L20.5881198,55.7210552 C20.5881198,54.8233838 21.3158262,54.0956773 22.2134977,54.0956773 Z" id="Rectangle-37" fill="#FFFFFF" opacity="0.5"></path>
                        <path d="M22.2134977,21.5881198 L44.6154651,21.5881198 C45.5131366,21.5881198 46.240843,22.3158262 46.240843,23.2134977 L46.240843,23.2134977 C46.240843,24.1111691 45.5131366,24.8388755 44.6154651,24.8388755 L22.2134977,24.8388755 C21.3158262,24.8388755 20.5881198,24.1111691 20.5881198,23.2134977 L20.5881198,23.2134977 C20.5881198,22.3158262 21.3158262,21.5881198 22.2134977,21.5881198 Z" id="Rectangle-37" fill="#FFFFFF" opacity="0.5"></path>
                        <path d="M22.2134977,63.8479446 L57.971811,63.8479446 C58.8694824,63.8479446 59.5971888,64.575651 59.5971888,65.4733225 L59.5971888,65.4733225 C59.5971888,66.3709939 58.8694824,67.0987003 57.971811,67.0987003 L22.2134977,67.0987003 C21.3158262,67.0987003 20.5881198,66.3709939 20.5881198,65.4733225 L20.5881198,65.4733225 C20.5881198,64.575651 21.3158262,63.8479446 22.2134977,63.8479446 Z" id="Rectangle-37" fill="#FFFFFF" opacity="0.5"></path>
                        <g id="Group-4" transform="translate(58.764359, 21.838876)">
                            <g id="Rectangle-26">
                                <use fill="black" fill-opacity="1" filter="url(#filter-5)" xlink:href="#path-4"></use>
                                <use fill="#F7FBFF" fill-rule="evenodd" xlink:href="#path-4"></use>
                            </g>
                            <g id="Group" transform="translate(29.291259, 18.861464) rotate(-45.000000) translate(-29.291259, -18.861464) translate(18.291259, 11.361464)" fill="#4F8FFD">
                                <rect id="Rectangle-11" x="0" y="0.496074921" width="3.62700639" height="14.0119506" rx="1.81350319"></rect>
                                <rect id="Rectangle-11" transform="translate(10.819978, 12.694522) rotate(-270.000000) translate(-10.819978, -12.694522) " x="9.00647435" y="1.87454481" width="3.62700639" height="21.6399551" rx="1.81350319"></rect>
                            </g>
                        </g>
                    </g>
                </g>
            </g>
        </g>
    </g>
</svg>