<?xml version="1.0" encoding="UTF-8"?>
<svg width="39px" height="37px" viewBox="0 0 39 37" version="1.1" xmlns="http://www.w3.org/2000/svg" xmlns:xlink="http://www.w3.org/1999/xlink">
    <!-- Generator: Sketch 49.1 (51147) - http://www.bohemiancoding.com/sketch -->
    <title>相关人@2x</title>
    <desc>Created with Sketch.</desc>
    <defs></defs>
    <g id="任务分派" stroke="none" stroke-width="1" fill="none" fill-rule="evenodd">
        <g id="A1.7_添加内容" transform="translate(-168.000000, -102.000000)" stroke="#0A1735" stroke-width="1.5">
            <g id="添加内容" transform="translate(140.500000, 84.000000)">
                <g id="任务地点" transform="translate(29.000000, 18.500000)">
                    <g id="相关人" transform="translate(-0.500000, 0.000000)">
                        <path d="M27.8011281,28.432184 C28.9463501,28.432184 29.7178992,27.2916846 29.3318295,26.2137591 C28.1464657,22.9020603 25.4782164,20.3005173 22.1269662,19.20075" id="Shape"></path>
                        <path d="M14.3052178,19.2013403 C10.9539676,20.3011076 8.28571834,22.9026507 7.10035451,26.2143494 C6.71428481,27.2922749 7.48583388,28.4327744 8.63105591,28.4327744" id="Shape"></path>
                        <path d="M25.2999396,13.0838476 C25.2999396,16.9959024 22.1281468,20.1676952 18.216092,20.1676952 C14.3040372,20.1676952 11.1322444,16.9959024 11.1322444,13.0838476 C11.1322444,9.17179276 14.3040372,6 18.216092,6 C22.1281468,6 25.2999396,9.17179276 25.2999396,13.0838476 L25.2999396,13.0838476 Z" id="Shape"></path>
                    </g>
                </g>
            </g>
        </g>
    </g>
</svg>